<svg xmlns="http://www.w3.org/2000/svg" viewBox="0 0 380.36 467.67"><title>Ресурс 42</title><g id="Слой_2" data-name="Слой 2"><g id="Слой_1-2" data-name="Слой 1"><path d="M299.85,402.67c1-6.65,1.94-12.77,2.8-18.9,3.89-27.59,7.81-55.18,11.61-82.79,4.28-31.13,8.42-62.29,12.66-93.42,3.56-26.12,7.2-52.23,10.77-78.35,1.47-10.73,3.14-21.44,4.14-32.21.65-7,4.63-12.1,7.9-17.69,7.15,5.82,10.77,13.86,14.81,21.6Q379,128.52,393.4,156.13C408.3,184.82,430.08,207,457,224.59c8.18,5.34,16.29,11.07,23.36,17.76a70.75,70.75,0,0,1,22.18,43.53c2.54,20.12-3.5,37.85-15.35,53.72-2.68,3.59-7.29,5.75-11,8.56l-1.44-.45c-.91-4.89-2.72-9.81-2.57-14.67.81-26-10.66-46.19-29.41-62.66-19.58-17.2-40.07-33.37-59.6-50.61-6.11-5.4-10.45-12.82-15.54-19.35-1.67-2.15-3.17-4.44-5.25-7.38-1.22,9.27-2.39,17.64-3.43,26-4.63,37.24-9.31,74.47-13.79,111.73-3.91,32.45-7.6,64.94-11.34,97.41-1.79,15.55-2.81,31.23-5.35,46.65-6,36.38-30,60.92-66.38,68.87-10.74,2.35-21.63,3.84-32.59,3-28.86-2.2-54.79-11.61-76.54-31.46-15.64-14.27-26.14-31.18-29.32-52.33-3.26-21.68,2.52-40.91,16.06-57.85,12.14-15.19,29.08-22.66,47-28.27a101.66,101.66,0,0,1,30.68-4.56c16.8.05,33.12,3.33,48.22,10.75,10.53,5.17,20.47,11.53,30.66,17.38C297.29,401,298.23,401.63,299.85,402.67Z" transform="translate(-122.75 -79.31)"/></g></g></svg>