<svg xmlns="http://www.w3.org/2000/svg" viewBox="0 0 308.19 219.67"><title>Ресурс 5</title><g id="Слой_2" data-name="Слой 2"><g id="Слой_1-2" data-name="Слой 1"><path d="M36,181.76a2.87,2.87,0,0,0-3.16-2.17l-3.18,4c0,1.88,0,3.79,0,5.7l-2,1.17c1.05,1.8.31,3.69.64,5.46s1,3.66,1.4,5.51.77,3.49,1.18,5.41l-3.78,3.76a43.65,43.65,0,0,0-1.41,10.17c.14.38.41.24.39.14a5.93,5.93,0,0,0-.31-1c-.12.43-.25.87-.08.87a13.37,13.37,0,0,1,1.52-2.21H28.9v2.73h3.4c1.08,1.79,3.1,3.26.27,5.68H38.2l.16-1.61c-2.09-2.25-4.74-4.12-5.73-7.67l-1-8.43a14.37,14.37,0,0,1,7.13-1.57l1.95-2.92h4.19l-.58-2,1.27-2.2c.26.08.5.08.58.19.6.83,1.16,1.68,1.74,2.53,1.64-1.08,2.94-3.13,5.28-1.5.32-.35.83-.65.93-1.05.49-2,2.09-2.32,3.66-2.41,2.51-.15,5,0,7.53,0,1.12,1.12,2.18,2.27,3.34,3.31.94.84,1.9,1.94,3,2.21a3.43,3.43,0,0,1,2.41,2.62,69,69,0,0,1,1.77,6.78c2,.43,2,.43,3.55,2.77.08.08.22.26.25.24.77-.42,1.52-.86,2.19-1.25l1.73.89L82.09,218c.86.84.77-.37,1.44.06l2.23.72c1.76,1.76.9,5.57-2.4,7.63h5.35a5.26,5.26,0,0,0-.17-1.22,5.44,5.44,0,0,0-.75-1l3.13-4.38V218.7a1.92,1.92,0,0,1,2.51.42c.65-1,1.7-.62,2.6-.66s1.92,0,3.08,0l3,2.11c.88,2.09-.54,3.39-1.21,5.31l6-2.33c1.18.15,3-.31,4.85.56.91.42,2.6,0,3.56-.67,2.24-1.48,4.2-.23,6.22.25a16.15,16.15,0,0,1,3.41,1.84c-3.7.38-7.16-.45-10.72,1.36l3.09.32,1,1.57c-.24.24-.34.41-.4.39a23,23,0,0,0-6.51-.63c-.89-1.21-2.18-.57-3.3-.71-.35,0-.72,0-1.08,0-3.43-.31-3.42-.28-6.67.71a14.46,14.46,0,0,1-6.17.71,11.21,11.21,0,0,1-2-.66c-2.75,1-5.51,2.48-8.71,2.11-1.47-.17-3.11-.13-4.33-.8a7.16,7.16,0,0,0-3.71-.61c-3.72,0-7.45.17-11.15-.09-2.06-.14-3.84.88-5.82.79s-3.51.78-5.25,1.21a4.34,4.34,0,0,1-2.41.18c-3-1.2-6.05-.52-9.08-.65-2.63-.11-5.28-.12-7.91,0-2.19.1-4.36.48-6.54.68a4.94,4.94,0,0,1-4.28-1.2l-5.5-.8c-.29-1.78-.53-3.45-.85-5.11-.28-1.47-2-2.55-1.27-4.29l4,4,1.06,4.49c.94-6.3.21-12.48-.78-19.13l5.41-6.45-2.75-13.6-5.07-5.55c.18-6.37,2.23-12.15,3-18.19l6.23-4.15c.87-2.94-.78-5.27-1.29-7.81a2.66,2.66,0,0,0-1.25-1.6c-2.71-1.41-4.29-4-6.41-5.69l.73-9.93h1l2.1,8.57c.53.56.8,1.67,2.1,2.39,1.83,1,3.1,3.06,4.78,4.85l2.53-2.19c.95-.19,2.35.54,3.15-1.65v-2.54l1.08-.15a12.79,12.79,0,0,1,1,7.08L32.9,153c-3.53,2.72-2.17,6.87-2.6,10.66-3.47,1.27-4,4.6-4.83,7.53a12.79,12.79,0,0,1-1.31,3.42,4.64,4.64,0,0,0,.07,5.66,11.34,11.34,0,0,1,.75,1.46h.92V178c2.77-3.14,5.8-5.39,9.67-5.69l9.36,12.44c-1.58,4.06-4.72,7-7.92,10.13-2.22-1.6-2.65-4.41-4.39-6.25-.49-3.16.91-5.35,3.39-6.87.68.86,1.43,1.56,2.11,2.33.18.21.14.61.22,1l-1,.21-1.18.24.09.91c2.68.26,2.74.19,2.75-3.09C38,182.87,37.68,181.35,36,181.76Zm60.63,42.3,0-.66-2.12.28,0,.48a2.54,2.54,0,0,0,2-.74l.14.14.59-.5-.23-.23A1.8,1.8,0,0,0,96.65,224.06ZM44,211.33l2.8-.36-2.66-1.37a7.72,7.72,0,0,0,0,1.71l-.14-.14-.59.5.23.23A2.06,2.06,0,0,0,44,211.33Zm30.43,11.45.62,0-.28-1.41-.46.06a1.66,1.66,0,0,0,.62,1.35l3.27,2.7,1.79-.89a7.66,7.66,0,0,1-2.44-1.13C76.81,222.59,75.94,222.8,74.48,222.78Zm-13.81-9.4c-.72.35-1.9.56-2,1-.68,2.64-3.11,1.78-4.74,2.82l-1.24-1.68c-1.22,0-2.18,0-3.13,0-.09,0-.18.14-.27.21-1,1.7-1.57,1.93-5.18,1.9l-1-1.46-2.3.27,4,4.45c9.92,3.65,17.94,1.78,24.34-5.51,1.23-2.88,1.14-5.44-1-8-.09,2.26-3.11,2.69-2.5,5.07C64,213.67,62.58,215,60.67,213.38Zm-1.35-9.6v2.35l2.22-1.08ZM76.77,220l.47-.48L77,218.4l-1.8.34Zm16.15,2.65-.07-.62-1.18.28.06.34Zm-64,.3v.36H30.4v-.36Zm67.8-1.73.62-.07L97.11,220l-.34.06ZM53.68,210.52h.24v-.72h-.24Zm27.6,10.8H81V222h.24Zm-55.92,2.4V224h.72v-.24Zm4.32,1.68v-.24H29v.24Z" transform="translate(-15.26 -11.8)"/><path d="M306.85,227.12c0,.8,0,1.64,0,2.48-1.7,1.64-1.7,1.64-3.47,1.57l2-2.92-.85-1.63-3.4-1.13,1.68,3.45-2.61,1,.63.61h-5.37v-2.15c.58.22,1,.43,1.49.57,1.59.51,2.09.33,3.68-1.38L298,225.74H293.9l.87,1.38a9.19,9.19,0,0,1-1,1.2c-.22.18-.62.15-1.36.3l.69-2c-.05,0-.24-.25-.44-.25-3.12,0-6.24-.09-9.35,0a35.52,35.52,0,0,0-4.74.69c-1.46.25-3.06-.66-4.43.65-.32.3-1.16.14-1.75,0-1.5-.23-2.59.68-4.1,1.22-1.85-.72-4-1.59-6.1-2.34a7.52,7.52,0,0,0-2.4-.29c-4.56,0-9.11,0-14,0l-1.11,2.78h-1.56l-.92-1.78.61-.67c-2.77-1.29-5,.76-7.57,1.3l-.56-1.63c-.5,0-1.19-.21-1.63,0-1.64.91-3.4.74-5.12.66a12.15,12.15,0,0,0-8.75,2.93l-6-4c2.18-.49,4.21-1,5-3.34,1.42,1,2.59,2.36,4,2.74,1.9.5,4,.24,6,.29a18.93,18.93,0,0,0,2.52,0c1-.11,2-.35,3.19-.58l.8.63,1.13-1.73,6.5,1a5.77,5.77,0,0,1-.84-1.11,6,6,0,0,1-.1-1.38l2.67-2.56.35,4.3,2.29.9c.25-.43.46-.62.46-.82a58.37,58.37,0,0,0-.05-7.19c-.2-1.74,1-3.14.76-4.74-.28-1.8,1.07-2.95,1.59-4.4.72-2,4.79-6.4,8.14-7.64,3.71,4.16,7.8,8.13,13.23,10.12a35.7,35.7,0,0,0,16.75,2,8.27,8.27,0,0,0,.59-2.3,10.45,10.45,0,0,0-.67-2.58l-.81-2.94a10.11,10.11,0,0,1,1.61.55c.57.32,1.08.75,2.27,1.6a13.83,13.83,0,0,0-.65-2.14,23.51,23.51,0,0,0-1.46-2l7.39,2.12c.4-2.3,1.59-4.53.95-6.8-.77-2.74-.69-5.62-1.68-8.29-.7-1.87-1-4-2.13-5.56-1.58-2.1-2.16-5-4.7-6.09-.53-3.14,1.53-4.94,3-6.87s2.76-4.11,5.17-5.47c2-1.14,3.73-3,5.76-4.31a35.33,35.33,0,0,1,4.84-3.16,31.61,31.61,0,0,1,4-1.22v-2.47l-1.73-1.4-.57,1.18-1,0L307.6,152l1-1.3a8,8,0,0,1,1.52.1c.3.08.54.38,1.13.25l-1.77-3.95,1.76-1.95c-1.38-2.12-.7-4.41-.77-6.6a10.89,10.89,0,0,0-2.51-7.25,2.27,2.27,0,0,1-.39-.91,1.24,1.24,0,0,1,0-.48l4-5.88,1.15,4.2,2.15.34c-.11.47-.08.92-.29,1.08-2.22,1.77-2.83,4.08-2.7,6.83.15,3.22,0,6.44,0,9.74l1.16.24c1.2,2.31-1.31,4.6-.08,7.34a4.41,4.41,0,0,1,.37-1.26c.18-.24.55-.33,1-.54l1.29,3.43-1.44.79-.51-.45-1,2c0,3.46.16,7.18-.07,10.88-.11,1.72.78,3.11.83,4.74a15.32,15.32,0,0,0,.49,4.44c.53,1.66-.08,3.9-.76,5.67a7.34,7.34,0,0,0-.48,2.67c0,4,0,7.91,0,11.87,0,2,0,2,1.8,4.53l.65-1.47,1.32.09-1,2c-.81,0-1.41,0-2,0l.11-.1-.5-.59-.23.23a4,4,0,0,0,.62.46c0,.8,0,1.64,0,1.67l1.29,2.48,2.14-2.84v3.51l-1.92,1.37-1.3-2-.28,3.32,2.15,2c.53-.46,1.2-.81,1.49-1.36a15.85,15.85,0,0,0,.85-2.87l1.35,2.48-.94,2.11c-1.5.6-3,1.54-4.68.21a6.57,6.57,0,0,0,.36,3.08c1.83,4.67,1.71,4.72.88,9.86l1.17-.62,1.48.85,1.53,3.2-1.68,1.39-1.68-1.43-1.16.85-1.14-1.14,1-2.1-1.5-.64c-1.7.74-3.85.15-5.94.36l.11-.1-.5-.59-.23.23A4,4,0,0,0,306.85,227.12Zm-17.24-2.2c.54,0,1,0,1.43,0,3.42.27,6.7-1.22,10.14-.74a15.65,15.65,0,0,0,2.29,0c1.58-2,3.12-3.87,4.51-5.82s2.73-4.12,4-6.13c-.58-3.76.81-7.57-1.27-11.35-2,2.37-3.9,4.45-5.58,6.7-.92,1.23-1.88,2.67-.67,4.59,1-.81,1.95-1.63,3-2.36.14-.1.56.17,1.39.45l-2.29,1.34,2.33,1.34-.86,1.23-4-.8c-.92,1.09-1.54,1.75-2.06,2.48-.15.22,0,.63,0,1.05l2.92.21-.84,1.13.82,2.49-1.84-1-.78,1.67c-.92-1.32.49-3.27-1.45-4.3h-4.31A14.92,14.92,0,0,0,289.61,224.92Zm-21.71-1.76c-3.09-2.11-6.58-2.59-10.34-2.65-4-.06-6.66,2.2-10.12,4.12C257.19,225.29,260.2,225,267.9,223.16Zm40.89-45.61c.5-.25.84-.31.88-.45.57-2.16,1.58-4.21,1.55-6.54-.06-3.58,0-7.17,0-10.75a21.17,21.17,0,0,0-.25-2.12c-1.79,3.21-3.41,6.06-3.33,9.46S307,174.13,308.79,177.55Zm-38.71,46.33c5.79,1.8,11.55.73,17.69,1.11-2.58-3.16-5.81-4-9-4.28A12,12,0,0,0,270.08,223.88ZM311,197c.84-2.91-.66-5.41-.59-8.06a58.93,58.93,0,0,0-.79-7.84l-.46.38-.36-1.32c-.24,3-2.51,5.74-.46,8.54C308.06,191.76,309.52,194.25,311,197Zm-15.75,14-1.28.48.09.32h1.85v-3.48h-.37Zm-4.32-.22.48.47,1.12-.21-.34-1.8Zm1.62-3.36h2.18l-.31-1.53Z" transform="translate(-15.26 -11.8)"/><path d="M193.15,28.19c2.28,1,4.44,2.12,6.74,3.31-.94,1.92-2.51,2.83-3.75,4.36-3.06-2.9-6.78-4.93-8.23-9.13l12-6.9c4.17,1.79,7.43,5.35,12.22,6.5a16.15,16.15,0,0,1,8-5.69c2.06-.71,4-2.52,6.94-1.36l5.76,8.28h2.68l.18-1.3H232.8V22.92l4.68-8.56c1.85,1.25,3.86,2.2,5.31,3.68s3.9,1.79,4.41,4.16c-.29.17-.48.38-.68.38-2.14,0-4.28,0-6.47,0l-.13-1.28,2.46-.38-2.91-2L236,23.65c3.32,1,6.62-.5,9.56,1.31l3.74-2.36,10.69-1c1.1-1.24,2.82-1.32,4.34-1.19a89.73,89.73,0,0,0,8.51,3.5c1.16.35,2.7-.23,4-.65,3.16-1,6.28-2.22,9.58-3.41,1,.52,2.18,1,3.28,1.71s2.23,1.51,3.5,2.39c.26-1.22-.46-3,1.56-3.6l2.93,1,1.7-1.59h2.07l1.86,1.57c.38-.28.7-.41.71-.55,0-1,0-1.91,0-3h3.66L307,21l3.35-2.78,2.86,1.49h2.6l4.86,7.07a49.1,49.1,0,0,0-4.46,11.13,3,3,0,0,1-.47.65l-1.31-.6-2.41.72-1.4,1.4a2,2,0,0,0-.15.65c.51,4.27-1.05,8.41-.73,12.66-1.18,2.08-.6,4.35-.71,6.54a11.46,11.46,0,0,1-.65,3,25.39,25.39,0,0,0-1.56,9.46c.18,2.63,0,5.28,0,7.92,0,3.28-1.06,6.45-.78,9.79s.06,6.47.06,9.71c.63,1.18,1.74,2.25,1.41,3.72A45.81,45.81,0,0,1,306,108l-2-2.59v-2.62l1.46-1.1a17,17,0,0,1-.64-10c.94-5.1.13-10.16.69-15.53l-2.12-1.13.41-.51h-3.12a7.85,7.85,0,0,1-1.62,1.31c-2,.89-2.57,2.58-3.1,4.56-.83,3.13-1.69,6.22-1.36,9.5a6,6,0,0,0,.55,1.48c-.87,2.06-2.49,3.49-4.52,5l-.8-3.9a22.18,22.18,0,0,1,2.4-3.77c1-1.11,1.13-2.46,1.57-3.69.53-1.48.11-3.41.89-4.66,1.28-2-.34-4.5,1.31-6.32-1.25-1-.48-2.43-.79-3.57-.57-2.45-2.84-3.21-4.67-4.64a23.52,23.52,0,0,0-12.85,2.22l-5.39,7.31v4c-1.62,1.16-3.37,2.45-5.17,3.65-.29.2-.86,0-1.36,0l1.9-6.53c1.27-1,3.45-.71,4.56-2.36.95-1.4,1.84-2.84,2.92-4.51,0-1.26,0-2.81,0-4.35,0-4.35-2.53-8.12-6.68-9.28a11.76,11.76,0,0,0-8.44.87,27.5,27.5,0,0,0-4.93,2.84,27.46,27.46,0,0,0-3.4,4H244.8c.58-2.16,2.36-2.94,3.33-4.31h5.59a11.51,11.51,0,0,1,2.14-1.42,5.71,5.71,0,0,0,3.63-4.06c.72-2.35,2.06-4.5,2.05-7.07A7.58,7.58,0,0,0,260,41.65a8.12,8.12,0,0,0-5.45-2.39,28.87,28.87,0,0,0-9.32,0,29.89,29.89,0,0,1-8.72.49A36.48,36.48,0,0,1,226.15,38c-1.39-.54-2.89,0-4.34-.87-1.18-.7-2.87-.55-4.16-.76l-3,3L209.52,36l4.49-3.5,3.77,2.71c3.52.78,6.75,1.41,9.92,2.24a35.72,35.72,0,0,0,11.45,1c1.42-.09,2.43-1.7,4.06-1.46,3.36-2.41,7.44-2.9,11.2-4.26,1.36-.49,2.74-.92,4.08-1.45a8.21,8.21,0,0,1,5.58-.17c2.25.61,4.65.86,6.92,1.59a2.66,2.66,0,0,0,1.75-.07c5.73-2.56,11.76-3.11,17.93-2.78.48,0,1,0,1.69,0,0-.78.09-1.57.11-2.36s0-1.64,0-2.51a12.38,12.38,0,0,0-5.58-1.58c-1.82-.23-3.12,1.13-4.6,1.9-1.29.67-2.41,1.88-3.76,2.18a8,8,0,0,0-4.72,2.72c-1.28-.66-2.34-1.25-3.44-1.78a37.86,37.86,0,0,1-5.09-2.45,6.5,6.5,0,0,0-4.71-1.11l-7.95,5.59a12.53,12.53,0,0,0-8.55-.92c-3.58.92-7,2.27-10.56,3.29l-5-3.75-.19,2.21h-9.44l.93-4.93h-1.94l-2,4c-2.26,1.4-4.53,1.08-7.16-.23a46,46,0,0,1-9-6.11c-2.26,1.39-4.5,2.77-6.58,4.2a1.46,1.46,0,0,1-.62.41,4,4,0,0,0,.63.45l-.11.1.5.59.23-.23a4,4,0,0,0-.62-.46A3.84,3.84,0,0,1,193.15,28.19ZM291,38.63l2.92-1.95-1.7-6.06h-4.38c2.8,2.18,3.39,4.86,3.27,7.89l-.14-.14-.59.5.23.23ZM242.83,38c2.7,0,5.31,1.23,7.76-.26a1.38,1.38,0,0,1,1.32.15c.68.84,1.55.56,2.32.51a7.12,7.12,0,0,1,4.83,1.42c1.54,1.11,1.65,1,2.46,2.57.68,1.36,1.66,4.27,1.42,4.79-1,2.24-.8,4.89-2.34,7a9.82,9.82,0,0,0-.75,1.75c2.05-1.33,3.6-2.42,5.24-3.36s3.37-1.71,5-2.58c2.59-1.35,5.54-2.18,7.23-4.86,0-.36-.13-.79,0-1.07a6.19,6.19,0,0,0,0-6.25,7.71,7.71,0,0,0-5-3.74c-2.07-.6-4.2-.8-6.26-1.35-1.84-.49-3.69-.91-5.27-1.3-2.31,1-4.44,1.87-6.61,2.72-1.49.58-3.17.5-4.65,1A59.09,59.09,0,0,0,242.83,38Zm22.43,16c9.31,1.83,10,5.44,11.72,13.28.87-1.14,1.68-2.22,2.52-3.28a33.28,33.28,0,0,0,5.19-7.93c.65-1.58.87-2.75.07-4.21a1.6,1.6,0,0,1-.18-1l-2.43-3c-4-.72-7.27.57-10.42,2.28C269.56,51.4,267.48,52.72,265.25,54Zm14.16-12.82c-.27,1-.45,1.62-.61,2.27s-.3,1.39-.51,2.39c3.2-1.72,6.39-3,9.29-4.89a4.3,4.3,0,0,0,1.82-2.12,8.29,8.29,0,0,0,.11-4.22,5.88,5.88,0,0,0-2.15-3c-.93-.68-2.5-1.35-3.42-1-2.14.78-4.47.55-6.53,1.58a17.13,17.13,0,0,1-3.18.88c1.41,1.3,2.86,2.18,3.64,3.47A20.16,20.16,0,0,1,279.41,41.21ZM296.76,58.9c-.29-.28-.64-.6-1-1-1.3-1.4-2.78-2.59-4.8-2.19-2.19.44-4.51.83-6,2.78a61.49,61.49,0,0,1-5.31,6.75c-.19.19-.13.62-.22,1.13a22,22,0,0,1,10.48-2c1.07.74,2.12,1.4,3.11,2.14s2.13,1.7,2.85,2.28l.4,2.27c1-1.46,0-2.94,1.06-4.28.64-.81.22-2.54.1-3.84S297,60.3,296.76,58.9Zm-3.78-19c-2-.12-3.18,1.3-4.63,2.12s-3.38,1.28-4.59,2.68c-1.08,1.25-3.43.17-4.1,2.37H283l3.2,4.21v4.94L294.62,46V42.44Zm9.33,21.61-4.19,3.25c.56,3.88-.39,7.41-1.37,11.26l5.33-3.19,3.19,1.52,1-10.27-1.77-2.58Zm-6.57-15.09-7.08,8.75a12.42,12.42,0,0,1,3.14-.8c.84,0,1.66.58,3.2,1.18l3.77,5c.87-3.71,3.19-7.37,2.21-11.76l-1.54-2.31Zm11.49,16.67c1.3-3,1.47-5.74.87-13.1-.43-.22-.93-.69-1.42-.68a4.59,4.59,0,0,0-4.1,3.07c-1,3-1.86,6-2.77,8.95l5.43-.76ZM295.07,31.76a11.49,11.49,0,0,0,3.4,3.33l2.69-1.76,2.87.87,2.51-1.76.62,1.75,2.41-2.4,2.83,1.56a25.77,25.77,0,0,0,3.2-5.35l-2.52-1.17c-.28.28-.52.42-.61.63-.35.78-.65,1.59-1.06,2.63l-1.94-1.52-1.76,2.26-1.88-1.6-2.24,3-2.06-2.73L299,32.81C297.83,32.42,297.2,30.32,295.07,31.76Zm5.59,7.19c-2.83,1.42-2.39,4.1-3.85,5.84a6.49,6.49,0,0,1,5,2.7l.23,2.34,3.36-10.09-2.48.61Zm8.11,10.74,1.07-10.46h-3.08l-3.12,9.43,4.21-.54Zm-11.09-9.34-3.12-2.92-1.47,1.38c2,1.4,2.27,3.4,2.46,5.75ZM223.4,26.08l-1.56,3.29,3-1.31-.15-3.16h-2Zm75.27,2.42,2.24-1.07-2-1.61A1.75,1.75,0,0,0,298.67,28.49Zm11.47-3.91H313l-1.52-2.12Zm-5.42,2.86,1.32.25V25.23a16.93,16.93,0,0,0-1.3,1.37C304.63,26.74,304.72,27,304.72,27.44Z" transform="translate(-15.26 -11.8)"/><path d="M36.2,81.67c.44-.35.91-.67,1.37-1V75.43c-.6-.51-1.29-1.13-2-1.7-.44-.35-1-.57-1.4-.95-3-2.77-3.1-5-.3-7.91.33-.35.68-.68,1.28-1.28l4.48.5,2.09-1.19.63-4.33-2.06.81-1.08-.92.73-1.76,1.92-1c2,.37,1.64,2.37,2.09,3.57s-.35,2.62-.62,4.06c-1,.75-1.68,2.17-3.33,2.59l-1.16,2.56-2.19.95L35.4,68.33l2.12-1.55V65.33c-1.92-1-2.49.81-3.51,1.5V70.7c.53.27,1.16.52,1.73.87.86.54,2.15,1,2.42,1.77.51,1.47,2,2.6,1.61,4.38A26.23,26.23,0,0,1,38.9,82a4,4,0,0,1-2.1,1.73c-2.47,1.06-4.16,3-5.81,5a6.31,6.31,0,0,0-1.25,3.75c-.12,6.71-.06,13.43-.06,20.14,1.42,4.38.35,8.91.83,13.58a5.48,5.48,0,0,0,1.68.76A1.75,1.75,0,0,1,34,128.7c.09,1.29-.6,2-1.94,1.91a4.42,4.42,0,0,0-.8.13v7l-2.71.12-1-3.08.71-1.07-1-3-2.36-.13c-.91-1.58.24-2.82.78-4.34l2.31.54s.23-.09.23-.23c0-4.92.28-9.85-.06-14.74-.27-3.9-.78-7.92-2.86-11.37-1-1.65-1.5-3.47-2.43-5.12A3,3,0,0,1,22.54,93c.92-2,2.11-3.95,3.47-6.42V82.6c-1.67-.08-1.67-.08-2.71.75v2.5l1.87-.73C24.82,87.79,24,88,21.81,86.38V82.55l3.09-2.3,1.65,1c.85-3.49-1.08-6.1-1.81-8.86.69-2.13,1.46-4.22,2-6.36a14.37,14.37,0,0,0,.45-5.16l-1.32,2H23.4l-2.28-3V56.73c1.13-1.33,2.2-1.47,3.41,0v3.1l-1.69.59,1.77.74.76-.76c-.09-2.73.19-5.5-.64-8.28-.3-1-.79-1.84-1.1-2.79-.53-1.61-1.37-3.13-1.16-4.92a11.23,11.23,0,0,0,0-2.16,19.2,19.2,0,0,1,2.88-11.4,11.41,11.41,0,0,0,1.29-8.05,6.75,6.75,0,0,1-1.71.5,2.55,2.55,0,0,0-2.2.82c-1,1.27-2,.8-3.22-.56l.84-3.83c1.22,0,2.39,0,3.6,0l-.11.1.5.59.23-.23a4,4,0,0,0-.62-.46c-1-1.49-1.89-3-3-4.76l1.14-1c1.57.61,3.16,1,3.58,2.88.07.32.7.52,1.11.73l-.11.1.5.59.23-.23a4,4,0,0,0-.62-.46c0-1,0-2.12,0-2.4l2.4-3.33.73,2.11.56-.36-1,6L28.17,20c.15.15.24.31.32.31a22.51,22.51,0,0,0,4.56-.1,6.82,6.82,0,0,0,3.2-1.75c2.26-2.22,5.14-3.2,8-4.25,2.39-.89,4.79-.15,7,.82a25,25,0,0,1,3.6,2.26l5.7,1,.07-.37-1.38-.67V15.73l2.62-2.48h3.82l1,3.27-4.88,3.2c3.31,0,6.27.1,9.23,0a10.43,10.43,0,0,0,3.88-1,3.1,3.1,0,0,1,3.52.31,10,10,0,0,0,2.4,1.13,21.25,21.25,0,0,0,2.64.52l-2.75-2c.6-2.49.74-2.75,2.55-4.63h3l1.64,1.86v2L85.5,15.42c-2-.13-2.67.72-2.53,2.44a6,6,0,0,0,6,.63,14.42,14.42,0,0,1,5-.89c2.66-.13,5.21-.2,7.48,2a6.6,6.6,0,0,0,5.43,1.58,19.6,19.6,0,0,1,4.31,0c1.35.11,2.68.5,4,.68,3.89.54,7.61-1.23,11.57-.64l.14-2.81h2.62l.36,1.92h4.72V24h-4.45a10.12,10.12,0,0,1-1.2,2.54c-.35.39-1.22.32-2,.5l-.12-1.94c-.2-.11-.39-.3-.59-.3a9.79,9.79,0,0,1-4-.68c-1.11-.48-2.38-.08-3.7-.61a5.56,5.56,0,0,0-4.78.31,5.64,5.64,0,0,1-2.41.24c-6.28.33-12.49-1.3-18.77-.71-3,.29-6.18.6-8.68,2.44a22.74,22.74,0,0,0-5.53,5.61,6.49,6.49,0,0,1-3.56,2.76c-.31.11-.54.44-1.08.89l-5.82-1a33.08,33.08,0,0,0-2.52-3.44,12.33,12.33,0,0,0-2.91-2.43c-1.1-.63-2-.29-2.85-.57l-1.75,1.75v4.51L60,35.66l2-.75V32.15l-2.59-1.91,1.88-.52c1.84.65,2.13,2.39,3.15,3.64l-2.06,3.22,1,3.83a6.3,6.3,0,0,1-4.68,3.9l-2.93-1.59V40.84l.86-.86H59l.43,2.34,1.8-1.17V37.71l-2.16-.9-.25.34-3.13-3.71c-.42-3,0-5.45,2.28-7.08,5-1.17,7.64,1.74,10.24,5.48l3.39,1.63,4.17-1.33-2.68-.21-1.63-2.14V27.26l2-2.08c.6.57,1.25.94,1.52,1.5a3.13,3.13,0,0,1,0,1.77,9.06,9.06,0,0,1-.89,1.78L85.94,22.6c-1,0-2.12-.32-2.84.06-1.8.95-3.65.57-5.49.65-3,.13-5.87-.86-8.7-1.61a10.89,10.89,0,0,0-2.63-.53c-3.6,0-7.25-.42-10.78.07-9,1.25-18,.21-27.25.76,0,5.24-.07,10.48,0,15.73.13,8.18,1.12,16.33.7,24.53,1.15,3.09.4,6.59,2,9.59a2.92,2.92,0,0,1,.1,1.74c-.27,1.58.51,3.19-.57,4.81-.78,1.16.32,2.87-.73,4.38-.6.87-.11,2.5-.11,4.53l4.62-5.77-1.66-2.73V76.88l.4.4.85-1.93,2.26,3.15c0,.5,0,1.82,0,3.17l-.1-.11-.59.5.23.23A4,4,0,0,0,36.2,81.67ZM63.12,16.73l1.86-1-1.25-1.18-2.36,1.16a4.76,4.76,0,0,1,1.52,1.17l-.14-.14-.59.5.23.23A7.21,7.21,0,0,1,63.12,16.73Zm-7.05,3c-2.22-.83-2.22-.84-5.16-2.88-.45-.31-1-.44-1.49-.73-1.73-1.08-3.36-.58-5.17-.05a16.61,16.61,0,0,0-7,4.09c1.78-.14,3.7-.38,5.61-.41C47.25,19.68,51.66,19.72,56.07,19.72ZM26.3,52c.79-5.88.65-17,0-19.24-.7,1.88-1.16,3.88-1.83,5.71-1.23,3.36-.34,6.32.61,9.32C25.55,49.2,26.28,50.48,26.3,52ZM24.56,92.84c-.51,2.84,1.58,5.47,3.2,8.36,1-1.1-.31-2.45,0-2.75,1.37-1.22-.7-1.85-.36-2.58l1-1.28c-2.49-2.57.93-5.33-.47-7.88Zm77.15-71.41a16.47,16.47,0,0,1-3.88-1.78c-1.23-1-2.47-.48-3.7-.66-1,1.61-2.81.29-4.22,1.13-1.16.69-3,.26-4.51.31-.56,0-1.11,0-1.67,0a6.2,6.2,0,0,0,3.32.71c2.75,0,5.64-.53,8.21.17C97.39,21.9,99.38,21.57,101.71,21.44Z" transform="translate(-15.26 -11.8)"/><path d="M29.68,33.11c.86-3.44,3-5.15,4.81-7.05a9.42,9.42,0,0,1,6.42-2.71,43.7,43.7,0,0,1,5.74,0,24.15,24.15,0,0,1,3.57.76C52.86,26.2,54.47,29,54,32.19c-.4,2.81-1.08,6-4.38,7.52,1.44,2.68,5,3.19,6.07,6.39l-1.28.26-1.06.23.78.86-1.05,1-.73-.63c-.72.7-.54,2.39-2.38,2V43.3L45.8,40.61c-1.09,2.25,1.59,3,1.87,4.65v5.11l-1.07.94-.68-.57-1.3.94a5.32,5.32,0,0,0-.7-1.47c-.28-.28-.8-.33-1.24-.48V48.23l2-1.24V44.62L42.93,42c-1.78-.22-1.4,1.83-2.54,2.55.81,7.44-1.31,13.64-8.26,17.54l-.89-.89c.5-1.27,1-2.64,1.59-4,.12-.31.42-.6.42-.9,0-3.46.31-6.93-1.4-10.2a15.39,15.39,0,0,1-2.18-8.43ZM41,37.66c-1.11-.81-2.92-.67-2.72-3,0-.38-.91-.87-1.43-1.28s-.93-.68-1.06-.77l.42-2.7-.47-.12-1.24,3.1,2.16,1.49,1.15,3.26Zm.38-8c1.55.37,2.4-.15,2.78-1.52l-1-1.47C41.33,27.36,41,28.28,41.35,29.69Zm4.17,6.66c1.51-.83,1.71-1.72,1.18-3l-2.23.15Z" transform="translate(-15.26 -11.8)"/><path d="M314.11,84.48c-1.19-1.53-2.35-3.09-3.46-4.59L310,75.47c1.84-2.12,1.51-4.86.45-7.5,1.05-2.34,3.87-1.54,5.22-3.42-.78-2.56-1.56-5.24-2.41-7.89s-.94-5,.19-7c.72-1.24,1-2.2.21-3.5-.33-.52-.15-1.36-.27-2s-.31-1.25-.5-2c1.35-1.69,3.43-.46,5.44-1V34.91c2.14,1.09,1.29,3.22,2.15,4.69s.64,3.3.92,5.08l-3.62,1.24V57.29l3.05,2.94-.68,2.2.56,5.78-6.89,3.61c1.3,2.26,2.44,4.3,3.65,6.3.41.67,1,.91,1.93.1l-2.58-3.08,1.29-1.54,4,4.92c-.58,2.17-2.89,1.8-3.82,2.9l-2-.51a6.91,6.91,0,0,0-.75-.68l.11-.1-.5-.59-.23.23a4,4,0,0,0,.62.46,6.91,6.91,0,0,1,.75.68l1,1.44a15.1,15.1,0,0,1,2.53,0,10.18,10.18,0,0,1,2.11,1,41.07,41.07,0,0,1,1.56,11.83l-4.27,2.37-2.76-1.85v3.87a33.2,33.2,0,0,1,2.83,2.73c1.31,1.56,2,3.28.64,5.26-.87,1.29-1.58,2.69-2.44,4.18h-4.94l1.12-2.69,2.16-.1,2-2.87c-1-1.31-2.07-2.81-3.27-4.16a4.28,4.28,0,0,1-1.06-4.5c.76-1.62.31-3.2.79-5.07l3.26.79c.15-1.15.55-2.28-.71-3.34l-4.81-1V91.5l1.25.46-2.38,4.53c-1.32-4.24-1.78-7.95-.2-12,1.05,0,2.22,0,3.42,0l-.11.1.5.59.23-.23A4,4,0,0,0,314.11,84.48Zm.45-6.44h-.24v.72h.24Z" transform="translate(-15.26 -11.8)"/><path d="M286.79,192.53l-2.17-1.33H287l1.52-3,1,.11v3.32l2.72.5a12.12,12.12,0,0,0-2.2,1.79,8.4,8.4,0,0,0-.81,2.2l-1.73-1.63-1.1,1.72-.53-.28Z" transform="translate(-15.26 -11.8)"/><path d="M279.07,206.39l2.39-.28,1.59-4.17L285,206.4l-.64,3.35-1-.67-2.58,1,.71-2.13Z" transform="translate(-15.26 -11.8)"/><path d="M272.15,203.46l-1.08-.28c0-.16,0-.37.09-.48.8-1,1.63-1.88,2.6-3l2,1.94.6,3-2.24.22L272.72,207Z" transform="translate(-15.26 -11.8)"/></g></g></svg>