<svg xmlns="http://www.w3.org/2000/svg" viewBox="0 0 303.78 219.43"><title>Ресурс 7</title><g id="Слой_2" data-name="Слой 2"><g id="Слой_1-2" data-name="Слой 1"><path d="M219.46,229.67l-6.23-4.2c2-.55,4.26-.69,4.9-3.39l4.16,3.08h12.46l.73-1c2.47-1.34,4.34.84,6.49.17l-.64-2.24,2.83-2.64.34,4.33,2.31.86c.23-.44.42-.64.43-.84,0-2.4-.05-4.8,0-7.19a19.74,19.74,0,0,1,2.14-8.82,20.65,20.65,0,0,1,8.06-8c1.45,1.45,2.85,2.74,4.12,4.14,4,4.42,9.34,6.05,14.82,7.68,3.66,1.09,7.26.16,10.73.74,1.51-2,1.51-2-.33-8.14a12.6,12.6,0,0,1,1.59.61,3.82,3.82,0,0,0,2.06.74c-.24-.53-.47-1.07-.74-1.59s-.57-.91-1.06-1.69l7.21,2c2.42-4.94.52-9.81-.53-14.47a22.8,22.8,0,0,0-7.05-12.51v-2.16c2.61-3.2,4.23-7.26,7.69-9.69,4.76-3.34,9-7.65,15.21-8.86v-2.5l-1.71-1.54-.63,1.34h-1l-.12-2.44c1.1-1.52,2.19-1.4,3.92-.08l-1.94-4.58,1.35-1.71c-.18-1.67-.32-2.89-.45-4.12-.22-2.18.37-4.38-.64-6.57a17.39,17.39,0,0,0-1.6-3.3,6.65,6.65,0,0,1-.7-1.51l4-6,1.15,4.19,2.2.39a3.84,3.84,0,0,1-.35,1.08c-.84,1.08-1.74,2.13-2.56,3.13v13.42l1.08.22c1.29,2.34-1.35,4.62-.19,7l1.53-1.9.82,4-.73.94-.82-.69-.8.8a2,2,0,0,0-.22.62c0,3.72,0,7.44,0,11.15a11.63,11.63,0,0,0,.64,4.77c.61,1.42,0,3.09.63,4.77.53,1.36-.11,3.43-.8,4.93a6,6,0,0,0-.46,2.69c0,4.2,0,8.39,0,12.59,0,2,0,2,1.77,4.43l.7-1.44,1.32.15L315.37,203l-3-.69c1.23,1.42.77,3.34,2.64,4.41l1.89-2.51v3.46c-1,1.44-2.08,1-3.34.26v2.2l2,2.27c1.56-.92,1.85-2.43,2.51-3.75l1.17,2-.9,2.11c-1.5.52-3,1.76-4.6.28-1,1.61.35,2.9.52,4.32s1,2.47,1.35,3.73c.45,1.43-.58,2.65-.69,4a3,3,0,0,0,.22.8l.74-.56,1.83.84.14,1.59,1.42,1.42-2.05,1.5-1.53-1.37-.84.63-1.6-.8,1.23-2.17-2.1-.74a6.42,6.42,0,0,1-6.2-.77l.81,3.1c0,1.2-1.62,2.19-3.52,2.21l2-3-1-1.68-3.38-1.06,1.7,3.34-2.65,1.77h-4.61v-2.11a7.93,7.93,0,0,0,1.66.68,10.16,10.16,0,0,0,1.84,0l1.86-1.4-2.89-2.1H294l1,1.37-1.76,1.67-.53-.32.46-1.81s-.14-.24-.29-.25c-3.48,0-7-.08-10.43,0a26.57,26.57,0,0,0-4,.69,36.37,36.37,0,0,0-4.1.47,18.28,18.28,0,0,1-5.73.87,16.83,16.83,0,0,1-5.82-1.49,5.56,5.56,0,0,0-2.28-.57H245.78l-1,2.84h-1.44l-1-1.84L243,226h-3.62l-4.18,1.6-.29-1.39c-.15-.09-.36-.32-.53-.29-1.58.21-3.15.55-4.74.68s-3.23-.33-4.65.11C223,227.35,220.74,227.62,219.46,229.67Zm70.37-5.44c.21.08.42.25.61.23,2.18-.2,4.32.11,6.56-.57,2.08-.64,4.5-.14,6.76-.14a16.21,16.21,0,0,1,1-1.74c1.75-2.27,3.62-4.46,5.28-6.8a8.48,8.48,0,0,0,1.87-3.85c.26-3.53.09-7.09.09-11.22A25.24,25.24,0,0,0,304.2,209c-.35.63.06,1.68.17,3.13,1.3-1.21,2.12-2,3-2.75.18-.14.64.06,1.51.18L306.6,211l2.51,1.62c-.7.94-1.63,1.52-2.68.76a3.39,3.39,0,0,0-2.62-.35l-2.21,3.32,3.39.35-.87,1,.74,2.53-1.78-.94-.81,1.67c-.8-1.43.53-3.35-1.58-4.4a9.68,9.68,0,0,1-1.45,0c-2.42-.31-4.14.81-5.85,2.4A18.16,18.16,0,0,0,289.83,224.23Zm-42.26,0c9.77.65,12.77.37,20.53-1.49a19.23,19.23,0,0,0-10.42-2.63C253.72,220,251,222.27,247.57,224.2Zm63.75-67.3c-2.14,3.56-3.7,6.55-3.59,10.07s-.66,6.88,1.43,10.42a10.36,10.36,0,0,0,1.06-1.89,19.62,19.62,0,0,0,1-4.57C311.41,166.54,311.32,162.14,311.32,156.9Zm-41.51,66.42c6.17,1.92,11.93.85,18,1.22-1.87-2.62-4.46-3.15-6.79-4.14-2.14-.91-4.11.12-6.06.56C273.26,221.33,271.76,222.39,269.81,223.32Zm41.6-27.07c-.27-2.6-.86-5.21-.72-7.79.15-2.74-1.16-5.16-1.53-7.37l-.25-1.37c-.33,3.08-2.43,5.8-.46,8.6C308.17,191.35,309.69,193.8,311.41,196.25Zm-15.18,15.21c-.12-1.19.19-2.34-.73-3.44v2.54l-1.45.59.28.31Zm-5-.14,1.69-1.31-1.69-1.6Zm3.41-3V205.7L293,206Z" transform="translate(-19.84 -11.36)"/><path d="M27,17.08c0-1,0-2.12,0-2.4l2.4-3.33L30,13.47l.56-.36-1,6-1.29.44c.15.15.24.31.32.31a22.49,22.49,0,0,0,4.56-.1A6.81,6.81,0,0,0,36.37,18c2.26-2.22,5.12-3.28,8-4.23A8.52,8.52,0,0,1,51.88,15c1.21.79,2.52,1.89,3.82,1.95,1.69.08,3.21,1.66,5.08.52l-1.43-.7V15.28L62,12.81a6.25,6.25,0,0,1,4.51,1V16.3L62.36,19c6,.63,10.41.29,14.69-1.18,1.74.72,3.48,1.45,5.23,2.14.16.06.42-.11,1-.29l-1.38-.59L80.81,17l2.34-3.48h3.24L88,15.44v2L85.62,15c-2-.14-2.67.7-2.53,2.43a7,7,0,0,0,6,.7c2.74-.74,5.66-1.48,8.59-1a6.24,6.24,0,0,1,2.73,1.17,9.64,9.64,0,0,0,7.65,2.39c2.38-.34,4.6.49,6.9.76,4,.47,7.86-1.22,11.95-.68l.15-2.81h2.71l.21,1.91h4.76v3.64h-4.44a10,10,0,0,1-1.19,2.54c-.36.4-1.23.34-2,.52V24.72c-.32-.18-.51-.38-.71-.39a9.67,9.67,0,0,1-4-.68c-1.1-.49-2.38-.08-3.7-.61a5.3,5.3,0,0,0-4.77.32,2.6,2.6,0,0,1-1.34.22c-2.64,0-5.39.49-7.89-.1-3.89-.92-7.76-.7-11.6-.53-4.83.21-8.31.8-11.64,4.83-1.18,1.43-2.7,2.5-3.68,4.21-.64,1.11-2.37,1.59-3.61,2.35-2.09.11-4,.06-5.93-1.31a8.18,8.18,0,0,1-2.41-2.28c-1.41-2.27-3.25-3.88-6.13-3.54L58,28.91v4.58l2.12,1.28-.34.32h1.39l1-1V31.81l-2.68-2,1.9-.57c1.6.8,2.32,2.21,3,3.83l-2,3.07,1,3.84c-.68,1.93-2.3,3.19-4.59,3.91l-2.76-1.47a2,2,0,0,1,.61-2.9h2.46l.4,2.34,1.84-1.15V37.22l-2.76-1-2.07-2.07c-1.25-6-1.2-6.19,2.2-8.27,4.79-1,7,2.15,9.81,5.58,4.1,1.82,4.1,1.82,6.54,0l.1.11.59-.5-.23-.23a4,4,0,0,0-.46.62c-1.32.08-2.26-.79-3.42-1.47V27.27l1.8-2.46a6.44,6.44,0,0,1,1,.69c1.11,1.19.81,2.43.24,3.93l11.06-7.05a26,26,0,0,0-3.64.12,24.61,24.61,0,0,1-7.66,0c-3.71-.45-7.18-2.27-11.09-1.88-2.37.24-4.82-.23-7.18.09-9.21,1.25-18.46.35-27.91.76V29c0,4.43-.09,8.87,0,13.3.09,3.26.54,6.51.66,9.77s-.41,6.55.15,9.68.53,6.51,1.83,9.64a7,7,0,0,1,.05,5.23c-.84,1.64-.15,3.35-1.12,5-.68,1.12-.13,3-.13,5.22l4.59-5.71L32.69,78.3c-.27-1.54,1.14-1.94,1.79-2.85l1.81,1.79c0,1.33,0,2.65,0,4l-.1-.11-.59.5.23.23a4,4,0,0,0,.46-.62c.44-.35.91-.67,1.37-1V75c-.6-.51-1.3-1.12-2-1.7a21.19,21.19,0,0,1-2.16-1.72c-2.11-2.24-2.1-4.31,0-6.63.48-.54,1-1,1.78-1.79l4.45.52,2.12-1.21.62-4.32-2.06.81L39.31,58c.24-1.55,1.44-2.16,2.68-2.73,1.71,1.46,1.71,1.46,1.48,7.75A36,36,0,0,0,40,65.68,6.94,6.94,0,0,0,39,68L36.8,69.06l-1.28-1.18,3.18-2.26-2.6-1.28-1.91,2.38v3.63l3.72,2,2,3.94a21.64,21.64,0,0,1-.5,3.53,6.94,6.94,0,0,1-3.79,4.36c-3.82,2-6.17,5.14-5.89,9.81a75.23,75.23,0,0,1,0,7.91c-.36,7.95.65,15.83.88,24a15.25,15.25,0,0,0,1.78.71c1,.26,1.72.69,1.68,1.84a1.71,1.71,0,0,1-1.74,1.77l-1.12.13v6.94H28.64l-1-3,.68-.94-.9-2.82-2.87-1.29c.25-.86.38-1.41.56-1.94s.33-.82.6-1.48l2.45.46a.72.72,0,0,0,.16-.4c0-4.68.29-9.38-.07-14-.31-4-.49-8.21-2.83-11.75C24.38,98.47,24,96.59,23,95a2.86,2.86,0,0,1-.27-2.66c.94-2,2.15-3.93,3.46-6.25V82.25c-1.59-.2-1.59-.2-2.8.66v2.4l2.21-.57C24.35,87.46,24.24,87.49,22,86V82.13l2.92-2.25,1.87.74c.66-3.4-1.19-5.91-1.91-8.93,1.11-3.46,2.9-7,2.83-11.58a10.3,10.3,0,0,1-1.53,1.62,13,13,0,0,1-2,.89,5.23,5.23,0,0,1-2.88-3.89c-.17-1.11.49-2.35.83-3.73l2.53.88v3.55l-1.36.46L24.38,61l1-.93a24.34,24.34,0,0,0-2.3-13.36,4.24,4.24,0,0,1-.44-1.61c0-2.28-.1-4.56,0-6.84A11.6,11.6,0,0,1,23.35,35a24.93,24.93,0,0,1,1.88-4.25,11.9,11.9,0,0,0,1.56-8.42,5.91,5.91,0,0,1-1.31.54,14,14,0,0,1-2,0l-1.31,1.66-2.31-.88V21l1.68-1.68c.84,0,1.68,0,2.55,0l-.11.1.5.59.23-.23a4,4,0,0,0-.62-.46c-1-1.49-1.89-3-3-4.76l1.14-1c1.57.61,3.16,1,3.58,2.88.07.32.7.52,1.11.73l-.11.1.5.59.23-.23A4,4,0,0,0,27,17.08Zm34.44-1.75,2,.94,1.85-.85-1.38-1.29c-.78.38-1.57.77-.84,2.34l-.14-.14-.59.5.23.23C62.66,16.86,62.83,16.66,61.39,15.33Zm-4.26,3.95a51.63,51.63,0,0,1-5.49-2.33c-3.3-1.91-3.24-1.72-6.79-1.35-3.27.35-5.34,2.44-7.77,4.25,3.09-1.22,6.24-.43,9.34-.54C49.73,19.19,53.05,19.28,57.13,19.28ZM26.76,32.46l-.32-.22C26,33.48,25.39,34.69,25,36c-1,3.56-1.71,7.2-.21,10.75a27.85,27.85,0,0,1,1.94,4.94ZM28,86.36l-3.28,5.81c0,1.26-.34,3,.74,4.37s1,3.14,3,4.31c-.6-2.91.68-5.53-.85-8a1.14,1.14,0,0,1,0-1C29,90.13,28.07,88.23,28,86.36ZM83.91,20v.76h9.59c.72,0,1.64-.29,2.12.05,2,1.44,4.07.26,6.14.32l-5.18-2.64C92.75,18.89,88.47,20.57,83.91,20Z" transform="translate(-19.84 -11.36)"/><path d="M292.6,23.6c1,0,.75-.78.7-1.29a2.3,2.3,0,0,1,1.41-2.42l3,1,1.85-1.55h1.94L303.74,21c.8-1.3-.3-3,1.76-3.77h2.28L307.31,20c1.6.09,1.87-1.69,3.2-2.14,1.48.33,2.73,2,4.94,1.25l5.46,7.08a53,53,0,0,0-4.78,12l-1.61-.63c-1.32.4-3,.68-3.91,2.4,0,1.12-.06,2.33,0,3.52a15.49,15.49,0,0,1-.69,5.11c-.46,1.64.33,3.39-.66,5.14-.57,1-.15,2.58-.09,3.9a14.29,14.29,0,0,1-1.1,6.38,10,10,0,0,0-1,4.23c.44,8.68-1.11,17.29-.79,26,.07,1.79,0,3.59,0,5.39,2.45,2.52,1.33,4.95,0,7.21l-1.61-1.62c-1.15-1.5.08-2.86.81-4.45a8,8,0,0,1-.65-2.1c-.09-2.39-.47-4.89.06-7.17,1.2-5.18.22-10.38.72-15.61L303.42,74h-2.5c-.81.43-1.21,1.79-2.61,1.45,1.66-2,1.66-2,4.22-3l2.84,1.36L306.43,63,304.49,61h-2.06l-4.14,3.16a26.68,26.68,0,0,1-1.43,11.05,13.6,13.6,0,0,0,1.47.23c-1.68,1.72-2.14,4.1-2.79,6.33a20,20,0,0,0-.75,7.6,7.57,7.57,0,0,0,.59,1.65,24.75,24.75,0,0,1-1.69,2.34c-.77.86-1.68,1.6-2.84,2.69L290,92c.45-.6,1.18-1.49,1.8-2.44a21.52,21.52,0,0,0,3-8.84c.16-1.11.54-2.19.69-3.3s-.23-2.36.74-3.3c-.84-2.61-.53-5.77-3.58-7.32a18.62,18.62,0,0,1-1.89-1.3c-3.61-.65-7.32.1-10.94,1.34a4.76,4.76,0,0,0-3.28,2.57c-.93,2-2.66,3.68-4,5.47V78.6a13.2,13.2,0,0,1-6.34,4.29L267.71,76a9,9,0,0,0,7.48-7.5c.87-4.76-.15-9.34-4.7-12.43-3.44-1.08-7-1.37-10.49.52-3.07,1.68-6.44,3-7.87,6.54H245c.43-2,2.24-2.77,3.2-4.17h6.22c.24-.32.56-1.25,1.11-1.4,1.75-.49,3.12-1.32,3.69-3.08.51-1.59,1.51-2.92,1.85-4.66a14.44,14.44,0,0,0,.54-4.4,10.68,10.68,0,0,0-1.14-3.82c-.67-1.22-2.07-1.69-3.39-2.15a11.73,11.73,0,0,0-4.39-.73c-2.64.09-5.36-.38-7.89.15a54.16,54.16,0,0,1-6.56.63c-2,.18-3.89-.47-5.82-.75s-3.91,0-5.39-.85-3.35-.17-4.95-1.2c-1.22-.79-3.09-.56-4.75-.8L214.7,38.6l-5-3,4.46-3.47,4,2.79c2.84.55,5.77,1,8.62,1.72A44.45,44.45,0,0,0,233.36,38c2.26.22,4.55,0,6.7,0,4.3-2.11,8.33-4.57,13.15-5.08A9.93,9.93,0,0,0,256,31.79c4.79-2.15,5.59-2.2,10.72-.62.32.1.66.39.93.33,1.47-.34,2.67.81,4,.7a15.71,15.71,0,0,0,4.27-.94,25.29,25.29,0,0,1,10.73-1.91c1.9.12,3.81,0,6,0ZM291.36,38l2.87-1.92c-1.47-1.95-.39-4.37-2-5.94H288l2.24,2.24c.43,2.18.75,3.86,1,5.64l-.14-.14-.59.5.23.23A4,4,0,0,1,291.36,38Zm-26.6,15.76c8.31.85,10.74,4.2,12.3,13.16,2.86-4.09,6.49-7.42,8.39-12.86L284.69,50l-2.5-2.66H276.5c-3.82,2.09-7.53,4.11-11.19,6.53l-.14-.14-.59.5.23.23C265,54.3,265.15,54.1,264.76,53.79Zm-13-16.61c1,1.23,2.25.79,3.37.79a8.41,8.41,0,0,1,5.78,2.56c1.71,1.58,1.39,4,2.17,5.93-1,2.36-.76,5.12-2.4,7.29a9.67,9.67,0,0,0-.73,2A14.73,14.73,0,0,1,262,53.86c3.52-1.92,7-3.94,10.64-5.57a9.73,9.73,0,0,0,5.52-5.21,15.26,15.26,0,0,1,0-2.5c.55-3.75-3.25-6.91-7-7.5-1.58-.25-3.14-.61-4.71-.87-2-.32-3.93-.9-5.49-1.27l-5.57,2.14c-.52.2-1,.42-1.55.6a11.41,11.41,0,0,1-2.22.7A22.24,22.24,0,0,0,243,38.07C245.94,37.66,248.8,38.72,251.76,37.18Zm38-2.94c-.29-.55-.48-1-.72-1.34-1.13-1.82-4.46-3.56-6.1-2.72-1.83.93-4,.53-5.66,1.91-.73.61-2.11-.52-2.82,1A9,9,0,0,1,278.92,38v2.37c0,.83.06,1.67,0,2.5s-.28,1.51-.48,2.49c2-1,3.72-1.71,5.37-2.59s3.47-2,5-2.87C290.13,38,289.64,36,289.71,34.25Zm-3.07,22.1c-2.22,2.86-4.61,5.94-7,9-.07.09.16.39.24.59l2.28-1.23c1.35-.65,3.07.71,4.3-.83a21.86,21.86,0,0,1,3.41.39,15.08,15.08,0,0,1,6.25,4.25l.26,2.57c1.32-4.74,1.95-8.75.13-13.13l-3.43-2.72a19.92,19.92,0,0,0-3,0A30,30,0,0,0,286.64,56.35Zm8.12-10.54c0-1.45,0-2.64,0-3.84l-2-2.92L279,46.56h3.44c3.76,2.12,3.94,5.38,3.73,9.3Zm.84.17c-1.41,3.33-5.18,4.93-6.38,8.59A10.19,10.19,0,0,1,292,53.9,13,13,0,0,1,295.11,55l3.73,5c.64-2,1.45-4,2-6.19.72-2.74,1-5.49-1.32-7.85Zm12.92,3.72c-.64-.32-1.23-.85-1.84-.86a4.51,4.51,0,0,0-4,3.15c-.94,3-1.86,6-2.75,8.87l5.67-.8,2,2.24C309.27,58.28,308,54,308.53,49.71ZM306,28.81l-2.37,2.94-2.08-2.53-2.4,3.13c-1.23-.24-1.91-2.88-3.87-.8l2.55,2.69c1.87.73,2.26-1,3.49-1.34l2.84.86L306.66,32l.63,1.75,2.41-2.4,2.83,1.56a25.45,25.45,0,0,0,3.2-5.34l-2.81-1.31-1.43,3.35-1.89-1.48-1.75,2.26Zm-8.87,15.34a34.68,34.68,0,0,1,3.29,1.34c1.24.65,1.56,2,1.81,3.45,1.13-3.2,2.16-6.1,3.17-9,0-.13-.13-.33-.27-.65l-2.3.68c-.57-.52-1.14-1.57-2-1.34l-2.08,1.81ZM309,48.4l.95-9.27-1.05-1.05a4.81,4.81,0,0,0-3.36,4.84,10.43,10.43,0,0,1-.86,2.84c-.22.7-.42,1.4-.65,2.15Zm-13-4.68,1.89-4.45-3.05-2-1.58,1A8,8,0,0,1,296,43.73Zm2.12-16.23c1.55,1,2.06-.7,3-.49l-1.86-2.28ZM313,24.2l-1.36-2.37-1.26,2.37Zm-6.79.37-1.67,2.12a5,5,0,0,0,1,.49c.18,0,.39-.15.63-.25Z" transform="translate(-19.84 -11.36)"/><path d="M292.57,23.75l-6.25-.91-12.84,6.62-10.41-5.12h-2.35l-7.85,5.58c-2.86-1.53-5.68-1.36-8.81-.77-3.68.69-7,2.29-10.52,3.16l-4.69-3.61-1.18,2H219l.92-4.83h-1.72l-3.28,4.7c-4.26,1-7.09-1.53-10.13-3.09-1.81-.93-3.26-2.57-5-4l-7.47,4.65,1.32,1.19.46-1.38c1.81,1.29,4.23,1.52,5.61,3.22l-3.87,3.87c-.93-.44-1.58-2-2.79-2.53-1.38-.63-1.7-2-2.68-2.87s-2.47-1.61-2.19-3.5l12-6.88c1.85,1.18,3.73,2.59,5.8,3.63s3.66,3.23,6.18,2.83c1.45-1.27,2.62-2.73,4.14-3.54a77,77,0,0,1,8.23-3.57,8,8,0,0,1,2.46,0L232.88,27h2.8l.06-1.11L233,25.64V22.47c1.73-2.64,2.4-6.11,5.33-8.2,2.93,2.22,5.92,4.49,8.89,6.79.12.09,0,.45,0,.69-.18.14-.35.39-.53.39-2.14,0-4.29,0-6.51,0L240,21.07l3.14-1.1-4.05-1.43-3,5.07c1.48,0,2.64-.07,3.79,0a10.45,10.45,0,0,1,3.37.52c2,.82,4.07-.08,5.7-1.92,3.26.12,6.52-1.24,9.94-.79a1.87,1.87,0,0,0,1-.11c.7-.35,1.36-.79,2.2-1.3,2.49-.53,4.55,1.2,6.87,2,1.26.41,2.43,1.28,3.7,1.43a9.88,9.88,0,0,0,4-.57c3.28-1,6.51-2.21,9.89-3.37,1,.51,2.18,1.06,3.29,1.74s2,1.42,2.94,2.14Zm-70.49,4.67a2,2,0,0,0,2.69-.72V24.25l-2,.27.77,1.25Z" transform="translate(-19.84 -11.36)"/><path d="M39.79,22.88c2,0,4.28-.1,6.55,0,4.95.27,5.64,2.35,7.32,6.17,1.53,3.47-.71,5.79-1.61,8.53-.23.69-1.36,1.07-2.21,1.69,1.23,2.71,5,3.08,6,6.33l-2.25.55.63.76-.89,1.25-.76-.76c-.63.81-.72,2.22-2.47,2.07V42.76l-4.21-2.55c-1,2.25,1.76,2.84,1.85,4.55v5.53L44.59,51c0-1.37-2.22-1.41-1.81-3.13l2.12-1.43V44.26l-2.19-3-2.13,2.94a24.12,24.12,0,0,1-1.35,10c-1.34,3.5-4.08,5.47-6.84,7.6l-1-1a16.08,16.08,0,0,0,.27-15.61,15.38,15.38,0,0,1-1.84-7.14c0-1.32.07-2.64,0-4-.16-2.47,1-4.36,2.5-6.16.37-.46.88-.82,1.26-1.28a8,8,0,0,1,4.23-2.81A11.48,11.48,0,0,0,39.79,22.88ZM35,30.31v2.56l1.7,1.06,1,3.21h3.93l-3.32-1.43V33.78l-2.66-1.69c.38-.92,1.28-1.72.23-2.68Zm8-4.14c-1.47.92-2,1.75-1.45,3,2-.06,2.68-.43,2.68-1.48ZM45.74,36c1.2-1,1.89-1.79,1.09-2.94H44.65Z" transform="translate(-19.84 -11.36)"/><path d="M314.23,84c-1.19-1.53-2.35-3.09-3.46-4.59l-.69-4.4c2.09-2.33.95-5.62,1.3-8.67,1.19-1.22,3.4-.58,4.42-2.42-1.06-1.87-1-4.05-2-6a10.74,10.74,0,0,1-.79-7.52c2.45-2.55.85-5.51-.08-8.64l1.06-1h4.62v-6.4l.57-.06,2.56,9.78-3.91,1.37c0,1.7.09,3.6,0,5.48s.58,3.74-.59,5.53l3.64,3.58L320.24,62l.56,5.78-6.89,3.61c1.3,2.26,2.44,4.3,3.65,6.3.41.67,1,.91,1.93.1L316.9,74.7l1.29-1.54,4,4.92c-.58,2.17-2.89,1.8-3.82,2.9l-2-.51a6.91,6.91,0,0,0-.75-.68l.11-.1-.5-.59-.23.23a4,4,0,0,0,.62.46,6.91,6.91,0,0,1,.75.68l1,1.44a15.1,15.1,0,0,1,2.53,0,10.34,10.34,0,0,1,2.13,1,60.59,60.59,0,0,1,1.62,11.77l-4.34,2.42-2.76-1.85v3.87a33.21,33.21,0,0,1,2.83,2.73c1.31,1.56,2,3.28.64,5.26-.87,1.29-1.58,2.69-2.44,4.18H312.6l1.12-2.69,2.16-.1,2-2.87c-1-1.31-2.22-2.69-3.23-4.2-.67-1-1.75-2.16-1.17-3.42.89-1.9.55-3.86.71-6A7.2,7.2,0,0,1,316,92a7.54,7.54,0,0,1,1.61,1c.19-1.45.58-2.57-.67-3.64l-4.81-1v2.74l1.25.46L311,96.05c-1.32-4.24-1.78-7.95-.2-12,1.05,0,2.22,0,3.43,0l-.11.1.5.59.23-.23A4,4,0,0,0,314.23,84Zm0-6.2v.24h.72v-.24Z" transform="translate(-19.84 -11.36)"/><path d="M289.73,187.53v3.73h2.18c-.2.66-.31,1.47-.48,1.49-1.87.14-1.54,1.72-2.09,3.25l-.92-2.19-2,1.85c-.9-1.09,0-1.91.48-3l-1.73-1.9c2.15.19,3.25-.66,3.22-2.71C288.43,187.91,289,187.79,289.73,187.53Z" transform="translate(-19.84 -11.36)"/><path d="M284,204.71l1.16,1.16-.72,3.43-1-.72-2.64,1.11.83-2.19-2.46-1.65h2.36L283,202C284.72,202.49,283.59,203.86,284,204.71Z" transform="translate(-19.84 -11.36)"/><path d="M272.27,203l-1.09-.28c0-.16,0-.37.1-.49.8-.94,1.62-1.87,2.6-3l2,1.94.61,3-2.24.22-1.4,2.18Z" transform="translate(-19.84 -11.36)"/></g></g></svg>