<svg xmlns="http://www.w3.org/2000/svg" viewBox="0 0 1923 862.09"><defs><style>.cls-1{fill:#010101;}.cls-2{fill:#030303;}.cls-3{fill:#131313;}.cls-4{fill:#070707;}.cls-5{fill:#080808;}.cls-6{fill:#0d0d0d;}.cls-7{fill:#111;}.cls-8{fill:#171717;}.cls-9{fill:#161616;}.cls-10{fill:#1b1b1b;}.cls-11{fill:#383838;}.cls-12{fill:#343434;}.cls-13{fill:#2b2b2b;}.cls-14{fill:#242424;}.cls-15{fill:#fb7700;}.cls-16{fill:#fa7600;}.cls-17{fill:#faaa00;}.cls-18{fill:#fbaa00;}.cls-19{fill:#f77400;}.cls-20{fill:#f87500;}.cls-21{fill:#f57300;}.cls-22{fill:#f8a800;}.cls-23{fill:#e86d00;}.cls-24{fill:#ef7000;}</style></defs><title>Ресурс 10</title><g id="Слой_2" data-name="Слой 2"><g id="Слой_1-2" data-name="Слой 1"><path class="cls-1" d="M1536.23,694.23c-1.67,5.73-4,11.37-4.78,17.22-.48,3.51,1.16,7.41,2.24,11a77.79,77.79,0,0,0,4,10.22c.5,1.08,1.88,1.76,2.86,2.62.55-1.08,1.09-2.16,1.66-3.23.3-.56.64-1.09,1.45-2.45l.93,5,48.34-9.84c.16-18.17,9.33-29.77,25.21-36.82,1.14-.51,2.12-2.29,2.42-3.65,1.86-8.37,4.13-10,13.18-8.64-2.65,4-9.55,3.69-9.6,10.23,19.12-2.9,34.71,2.08,44.13,20.9,11.61-3.25,23.29-6.36,34.87-9.81q23.64-7,47.12-14.61c1.62-.52,3.71-2.44,3.94-4,4.24-27.41,29.72-44.87,57.59-45.3,3.82-.06,5.7-1,7.47-4.54,5.48-11,14.83-12.61,23.87-4.31-6.87,3.2-16.8-.58-20.17,8.44,7.89,3.11,15.85,6.43,24,9.31a9.11,9.11,0,0,0,6.33-.45c23.86-11.46,47-24.21,68.59-39.61a12.93,12.93,0,0,1,2.18-1V866H1q0-224,0-448c.71.41,1.77.64,2.08,1.25C4.79,422.65,6,426.36,8,429.57c3.41,5.45,3.35,10.81,1.18,16.61C7.5,450.7,6.33,455.41,4.94,460l1.54,1c14.17-15.84,28.64-31.43,42.38-47.64,5.24-6.18,7.73-14.13,8.33-22.64a11,11,0,0,0-1.78.43c-16.7,7.7-33.37,15.45-50.09,23.09-1.28.58-2.87.5-4.31.72q0-20,0-40c.37-.18.94-.61,1.07-.5,3.95,3.18,5.65,1,7.21-2.67,1.06-2.51,2.79-4.73,4.23-7.07l1.12.68L9.51,375.88l.65,1.18c3.81-1.74,7.72-3.29,11.41-5.25q13-6.88,25.72-14.11a80.3,80.3,0,0,0,11.18-7.3c5.15-4.19,7.13-13.55,3.6-19.32a227,227,0,0,0-15.42-21.94,19,19,0,0,1-4.41-13.95c12.54,12.68,18.86,28.37,29.94,42.52,11.94-17.24,24.85-33.44,35-51.2,11.95-20.88,25.63-40.38,40-59.56,2.66-3.56,4.77-7.55,7.67-12.2-2.8.41-4.3.5-5.73.87-12.52,3.25-24.89,7.32-37.58,9.63-16.36,3-30.39,9.32-42.51,21a112.42,112.42,0,0,1-25.3,18.44c-7.8,4.11-16,7.22-22.17,13.81-1.1,1.17-2.36,2.58-2.65,4-1.76,9-3.11,18-4.89,27Q9.06,334.24,3.73,358.85C3.4,360.36,1.94,361.62,1,363q0-87.5,0-175c2.41-.29,4.82-.71,7.25-.86,5-.31,7.49-3.33,8.09-7.92,1.6-12.17,6.19-22.32,15.63-30.94,9.86-9,16.32-20.66,19.42-34,3.43-14.78,7.45-29.43,11-44.19,1.31-5.45,2-11.06,2.94-16.59A64.24,64.24,0,0,0,52.68,62.8C43,71.64,33.27,80.43,23.81,89.49c-5.45,5.22-7.11,12-5.59,19.29,1.43,6.78-.31,12.53-3.27,18.61-3.67,7.53-8.74,15-5.38,24.35.42,1.16-.73,2.9-1.3,4.89L6,153.55c-1.09,6.85-2,12.92-3.08,19-.16.91-1.22,1.66-1.87,2.49Q1,104,1,33c1.68,1.93,4.56,3.7,4.84,5.81C6.92,47.11,9.7,55.31,7.14,64c-1.22,4.12.76,7.76,5.14,9.64,6.24,2.68,12,4,18.15-1,3.38-2.73,8.23-3.56,12-5.88a86.48,86.48,0,0,0,12.79-9.35,13.38,13.38,0,0,0,4.1-13.7c-2-8.1.31-13.86,7.4-18.75C75.18,19.15,82.8,12.2,91,5.59a8.32,8.32,0,0,1,0,2.49c-3,9.32-5.73,18.76-9.34,27.86-1.24,3.12-4.86,5.24-7.12,8a12.23,12.23,0,0,0-2.67,5.3C70,60.07,69.33,71.13,66.65,81.69c-5.43,21.44-11.91,42.62-17.93,63.91-.54,1.92-.67,4-1.5,5.76-.52,1.1-2,2.51-3,2.49-4.12-.06-6,2.56-7.46,5.64C30,173.32,24.81,187.59,23,203c-.34,2.84-2.27,5.58-3.82,8.15-1.09,1.82-2.91,3.2-4.15,5-2,2.81-1.56,5.32,1.53,7.13a34.44,34.44,0,0,0,3.52,1.87c4.72,2.07,6.54,5.37,4.64,10.41a16.68,16.68,0,0,0-.78,3.39c-.79,5.28,2.73,8.8,8.06,8,5.92-.9,12-1.4,17.68-3.06s12.19-3.21,16.18-7.06c12.75-12.29,28.35-15.73,45-18,8.3-1.12,16.37-4.08,24.52-6.28,6.72-1.81,13.44-3.66,20.12-5.63,1.5-.44,3.62-1.05,4.13-2.19,6.65-14.65,13.47-29.25,19.37-44.21,3.37-8.55,2-17.72.17-26.64-3.1-15.49-5.79-31.07-9.24-46.48a19.32,19.32,0,0,0-6.19-9.73c-6.57-5.54-14-10.07-20.68-15.48-2.74-2.21-4.49-5.64-5.84-9.32,16.65,9.43,30.41,22.24,43.63,34l12.71-34.33,2.2.61c-1.51,9.92-2.26,20-4.68,29.72-4.85,19.47-4.73,39-1.76,58.53,3,19.72-2,37.58-9.91,55.11-.88,2-1.72,3.92-3,6.92L192,199.78l.46,1.16c-5.63,3-11.33,5.87-16.83,9.07a13,13,0,0,0-4.76,4.62c-14.28,26.1-27.67,52.71-42.85,78.26-9,15.07-20.62,28.54-31.18,42.64-4,5.33-8.12,10.58-12.54,15.56C74.89,361.72,68.77,373.9,67.22,388c-2.86,26.17-15.91,46.86-34,65-7.3,7.31-14.5,14.73-22,21.87-2.2,2.11-2.9,3.92-1,6.32a85.18,85.18,0,0,0,7.48,9.05c4.87,4.74,7.93,9.6,9,16.95,1.47,9.84-1.52,18.3-3.77,27.23-1.13,4.47-1.71,9.08-2.73,14.69,1.82-1.06,2.64-1.44,3.34-2,11.5-8.7,22.84-17.63,34.54-26.05C65.59,515.71,72,509.75,75.48,501c4.67-11.82,14.16-19.12,24.58-25.3,3.9-2.31,6.4-4.41,4.14-9.17-.3-.63,0-1.53,0-3.89l5.2,6.56L170.71,422l1.18,1.06c-.11.7,0,1.58-.36,2.07-7.6,9.86-14.53,20.39-26.91,25.26-3.18,1.25-6,3.54-8.76,5.69-13,10.24-25.91,20.66-38.92,30.9A39.46,39.46,0,0,0,85,502.1,250.91,250.91,0,0,1,72.46,527c-3.86,6.5-9,12.21-13.37,18.43-3.22,4.6-5.95,9.55-9.16,14.16a8.8,8.8,0,0,1-4.48,3.54c-8.42,2-12.62,7.2-13.67,15.7-1.93,15.56,2.21,30,7,44.44a6.33,6.33,0,0,0,2.67,3.25c26.31,14.65,53.7,26.94,82.18,38,2-12.53,6.24-23.81,14.36-33.36,13.05-15.35,29.95-23.09,49.74-25.18a92.46,92.46,0,0,1,35.45,3.49c1.41.4,3.38-.76,4.94-1.51.82-.39,1.29-1.49,2-2.21,12.28-12.52,19.75-11.64,33.85,2.33-10.47,2.16-22.36-6.8-30.71,4.72,5,3,10.65,5.87,15.74,9.46,18.42,13,31.12,30.1,34.15,52.78,1.16,8.68-.68,17.75-1.2,26.65-.12,2-2.38,4,.67,6.07.76.51-.18,3.57-.42,6.33l116.22,24.67c4.14-14,8.15-27.71,5.84-41.25-1.66-9.75-7.74-19-12.9-27.8-2.41-4.13-7.41-6.72-11.07-10.17s-6.21-7.43-4.87-14.38c2.44,10.52,9.87,13.55,17.76,16.36,1.95.69,3.16,3.48,4.69,5.32,1.89,2.28,3.85,6.57,5.62,6.49,4.36-.2,9-2.22,10.4-7.19,1.17-4.29,1.45-8.83,2-13.27s.47-9.1,1.74-13.34,4-8.24,5.9-12.39c.7-1.49,1-3.14,2.39-4.74-.12,2.23-.14,4.48-.37,6.7-.92,8.9-2.11,17.77-2.7,26.69-.16,2.33,1.48,4.77,2.78,8.6,2.23-2.89,3.67-4.38,4.67-6.13a110.08,110.08,0,0,0,6.53-12.33c2.66-6.39,8.06-9.19,14.17-12.24l-18.33,33.8c6.09.54,9.57-1.62,11.38-6.47a5.2,5.2,0,0,1,1.74-2.68c2.92-1.65,6-3,9-4.48a5.2,5.2,0,0,0,.74.63l-15.2,24.32L453.62,674l.51.77c-3.11,2.58-6.63,4.8-9.26,7.8-5.55,6.36-10.88,12.95-15.79,19.81a18.33,18.33,0,0,0-2.79,8.9c-.82,10.28-1.19,20.6-1.77,31.56,182.08,30.54,365.24,42.65,549.35,42.05s367.23-13.82,549-46.18c-.66-20.21-10.4-33.16-30.7-38.74,8.14-2,9.88-1.76,15.35,1.91,2.4,1.61,5.73,0,6.39-3.61a15.41,15.41,0,0,0-.58-6.33c-1.1-4.34-2.66-8.58-3.68-12.94-.37-1.56.28-3.36,1-5.09,3.32,5.77,3.37,13,9.37,17.92,3.5-7.47-.77-16.6,6.64-21.94L1525,691.77l1.45.69,5.54-10.37,1.47.3-1.28,13.31,3.37-2.27Zm119.86,37.84c2.61-4,2.93-11.42.39-13.52l-4,1,1,6-5.12,1.51-2.07-6c-7.79,2-15.27,4.17-22.83,5.91-4.28,1-7.13,2.42-4.63,7.47l-4.72,1.37c-1.47-2.34-1.14-7.34-6.29-4,.68,5,2.7,9,7.57,11.26,3.85,1.3,7.62,3,11.56,3.79s7.24.13,5.87-5.45l4.84-1.15,1.89,4.32,8.48-3.76c-.24-2.24-1-4.06-.38-5.22.39-.77,2.75-.36,4-.92A31.76,31.76,0,0,0,1656.09,732.08Zm186.85-11.24c6.78-4,10.76-12.54,9.6-20.8l-7.56-1.12-1.61,10.3-8.46-1.29,1-9.95-47.46-5.35-1.59,9.44-7.6-1.28.71-9.39-7.7-.38c-2.08,9-.84,16.67,5.45,23.09,6.16,7.49,13.38,13.12,23.74,13.78l2-7.11,8.32.81-1,7.86,17.92-1.14-2.52-6.64,6-2.88,5.74,5.33ZM146.61,696.78l-3.34,5.53c25.74,11.84,50.86,23.35,75.93,35,2.77,1.28,3.6.29,3.88-2.22,3.72-6.56,2.42-13.25-.17-19.58-8.7-21.23-37.91-35.42-60.11-29.44C156.24,687.82,150.52,691,146.61,696.78Zm38-54.62c.53,5.49,1.09,9.77,1.31,14.06.5,9.34,1.46,10.54,11.35,12.58l-8.11-38-32.11,22.41,9.23,4.78Zm54.12,22.49a13.12,13.12,0,0,1,.81,2.18c.47,4.29,1,8.58,1.31,12.88.64,8.33,2.14,9.92,11,11l-8.07-37.77-32,22.37c1.64.89,2.83,1.39,3.88,2.11,3.53,2.45,6.38,2.69,9.71-.94C229.25,672.25,234,668.79,238.76,664.65Zm1569.15,16.05-13.25-25.35-18,21.85c5.08,3.2,8.13,1.66,10.54-3,1.66-3.24,4-6.12,6.44-9.74,1.63,4.09,3.33,7.2,4.1,10.54C1799,680.38,1802.24,681.85,1807.91,680.71Zm30.21-20.44-18,22c5.62,3.36,8.56.85,10.95-3.72,1.58-3,3.68-5.76,6-9.39,1.64,4.23,3.2,7.48,4.16,10.91,1.43,5.12,4.44,7,10,5.43Zm-207,42.86.17,2.11,7.36,2.24-4.82,5.88,1.26,1.31c2.32-2.14,4.33-5.28,7.06-6.15s6.28.46,9.46.84l.27-1.58-7.27-2.39,4.53-5.87-1-1.81C1643.74,703.73,1638.29,706.24,1631.1,703.12Zm-6.84,15.47-.1-1.65-7.21-2.61,4.43-5.88-1.14-1.66c-4,6.41-9.55,8.21-16.57,5.51l0,1.92,7,2.29-4.14,6.11,1,1.48C1611.53,717.39,1617.42,716.55,1624.26,718.59ZM194.74,677.51l-.84,2,12.34,4.73.68-1.83Z" transform="translate(-1 -3.87)"/><path class="cls-2" d="M1924,478c-.59-.17-1.6-.2-1.71-.53-3.22-9.81-10.34-16.91-16.65-24.65s-9.72-16.42-8.63-26.51a11.48,11.48,0,0,1,1.71-5.16c4.15-6,4-12.78,4.47-19.6.52-7-1.26-13.34-6.27-17.72-11.26-9.85-15.64-21.72-13.13-36.34a14.55,14.55,0,0,0-.12-3c-4.54,0-8.82.16-13.08,0-16.94-.74-33.89-1.39-50.81-2.52-4.52-.3-9-1.91-11.27-6.88-.67-1.44-2.75-2.36-4.35-3.23-18.8-10.28-37.49-20.78-56.48-30.68a267.91,267.91,0,0,1-44.31-28.64c-20.5-16.46-42.05-31.63-62.58-48.06-10.62-8.5-20.22-18.33-29.85-28-6.65-6.66-10.94-14.95-13.88-24q-4.71-14.44-10.12-28.65a76.66,76.66,0,0,0-6.94-14.32c-9.13-14.09-18.64-27.92-27.43-42.4,10.52,7.17,20.26,15.1,26.79,26.87,8-17.44,15.85-34.62,26.83-51.66,1.8,6.06.67,9.87-1.82,13.88A269.1,269.1,0,0,0,1590.95,100c-1.31,2.69-1.07,6.61-.39,9.71q5.49,24.83,11.63,49.51a50.33,50.33,0,0,0,15.89,26.57c13,11.23,25.64,22.85,39.15,33.4,8.32,6.5,18,11.18,27,16.94,15.21,9.82,30.43,19.64,45.37,29.86,23.12,15.8,47,30.11,73.3,40.08,4.54,1.73,9.68,2.07,14.59,2.64,10.07,1.16,20.15,2.27,30.26,2.9a43.25,43.25,0,0,0,13.69-1.16c4.16-1.12,5.77-5.24,3.41-8.81-6.47-9.76-7.78-21.12-10.67-32-3.93-14.77-10.26-27.5-22.39-37.86a96.35,96.35,0,0,1-29.44-43.23c-2.86-8.66-8.64-14.72-16-19.75-9.47-6.46-19-12.89-27.88-20.12-3.95-3.22-6.23-8.44-9.46-12.6-2-2.59-4-5.44-6.65-7.24-11-7.5-22.16-14.72-33.37-21.89a53.76,53.76,0,0,1-19.06-20.56A285,285,0,0,0,1658.95,40c-4.85-5.94-8.06-13.22-12-19.89l.67-.57c25.54,25.69,52,50.61,69.1,84.3,4-7.66,4.36-8.05,9.89-3.88,7.8,5.89,16.68,9.07,25.48,12.94,7.37,3.25,13.11,10.88,18.61,17.39,3.4,4,3.37,5.32,8.87,6.71.28-.86.58-1.75.84-2.64,2.77-9.52,5.72-19,8.22-28.58a38.09,38.09,0,0,0,1.52-12.3c-.92-11.81,1.13-23.14,3.74-34.55,2-8.82,3.1-17.85,4.66-27.15,4.42,10.64,8.87,21,13,31.45.78,2,.55,4.6.19,6.83-2.9,18.06-6.18,36.06-8.85,54.16-2.12,14.34-2,28.5,5.84,41.62,1.83,3.05,2.75,6.77,3.51,10.3,1.82,8.45,6.89,15,11.94,21.6,8.64,11.38,17.39,22.71,25.31,34.58,4.37,6.55,7.62,14,10.55,21.35,4.48,11.21,10.51,21.06,20.33,28.38a14.94,14.94,0,0,1,3.82,4.5c1.66,2.88,3.52,3.45,5.85,1a89.85,89.85,0,0,0,6.92-7.81c7.91-10.42,15.66-21,23.58-31.38.8-1.06,2.32-1.57,3.51-2.34v44c-6.28,2.22-12.25,9-11.38,14.19,1.92,11.22,4.68,22.25,11.38,31.81Z" transform="translate(-1 -3.87)"/><path class="cls-3" d="M1924,198c-2.14,1.59-4.24,3.24-6.43,4.76-1.4,1-2.93,1.75-4.41,2.61l-1.07-1,5.18-10.51L1924,196Z" transform="translate(-1 -3.87)"/><path class="cls-4" d="M352.15,457.29l-1.84-4.72-4.65,2.64c.74-7.46-3-9.51-17.41-9.48-4.59-7.62-4.59-7.62-16.49-8,.56-8-5.72-9.63-13.12-11.83,9.63-2.11,17.66-3.9,25.72-5.6a2.77,2.77,0,0,1,2.26.47c3.79,4.38,8.36,8.4,10.9,13.44,2.36,4.68,5.15,7.91,9.78,9.81,6-5.74,6-5.74,10,1.71,4.3.93,7-.29,10-4.1,3.79-4.88,9.33-8.4,14.49-12.82l23,17.45a20.75,20.75,0,0,0-15.4,2.7,3.91,3.91,0,0,1-3.14.33c-6.44-2.89-11.64-1.31-15.75,4.1C357.61,448,356.09,448.28,352.15,457.29Z" transform="translate(-1 -3.87)"/><path class="cls-5" d="M295,56.05c-3.89-1.44-7.61-5.11-11.85-.21-3.47-4.12-6.14-8.94-12.47-6.32-.62.26-2.48-2.21-3.62-3.54-3.78-4.4-7.7-5.28-11.55-2.22l-.76-3.85-3.4.93c2.81-6.86,1.84-8.59-7.13-12.88.7-4.85,0-9.19-5.21-11.56a4.48,4.48,0,0,1-1.71-2.25c-1.5-3.38-2.89-6.8-4.36-10.3l20.53,4.65c-.35,5.82-.58,11.73-1.1,17.61-.25,2.85,1.88,5.95,4.41,5.74,5.73-.46,5.73-.46,4.45,5.06,3.32,2.27,6.66,2.19,10.69,1.35,4.44-.92,9.2-.32,13.82-.22.56,0,1.28.92,1.62,1.58,2.72,5.32,5.36,10.67,8,16Z" transform="translate(-1 -3.87)"/><path class="cls-6" d="M1755,315.56a58.48,58.48,0,0,1,1.91,6.5c.47,2.69-.28,6.34,4.57,4.11.29-.13,1.34.51,1.37.85.33,3.69,3,2.14,4.43,1.64,9.42-3.23,9.39-3.31,15.61,5.23-4.61,0-9.84,1.52-13-.39-3.94-2.39-9.1.54-12.48-4.89-3-4.87-9-7.91-14.58-12.52Z" transform="translate(-1 -3.87)"/><path class="cls-7" d="M1794.91,547.12c-5.61-.6-11.16-1.14-16.53-3.33-5.69-2.32-7.08-3-13.08-9.48-1.21-1.31-3-2.15-4-3.53a24.92,24.92,0,0,1-2.35-4.77c2.76.31,6-.17,8.2,1.16s3.47,4.3,4.6,6.8c1,2.22-.45,6.55,4.61,4.31,4.4,8.33,8.86-1.2,14.31.58l4.2,8.4Z" transform="translate(-1 -3.87)"/><path class="cls-7" d="M99,504.58q-3.08,10.17-6.17,20.34c-.19.63-.52,1.21-1,2.36l-6.93-1.56L98.12,504Z" transform="translate(-1 -3.87)"/><path class="cls-8" d="M80.11,208.09h-14l-.44-1.6,11-4.94Z" transform="translate(-1 -3.87)"/><path class="cls-8" d="M1582.64,218.93l-8.25,15C1573.41,225,1576.51,218.56,1582.64,218.93Z" transform="translate(-1 -3.87)"/><path class="cls-8" d="M1773,93.91l-3.2,13.67c-3.66-1.41-4.29-5.45-3.61-8.32.56-2.38,4-4.09,6.13-6.1Z" transform="translate(-1 -3.87)"/><path class="cls-5" d="M60.36,478.18l8.13-8.75,5.88,4.86-12.93,5.45Z" transform="translate(-1 -3.87)"/><path class="cls-7" d="M294.39,662.77c1,2.73,1.95,4.92,2.55,7.2a21.34,21.34,0,0,1,.25,4.42,26.78,26.78,0,0,1-4.7,0,17.51,17.51,0,0,1-3.83-1.7Z" transform="translate(-1 -3.87)"/><path class="cls-9" d="M1354,450.09c3.66-1.95,4.48-5.76,6.36-9,.95-1.62,4.54-1.69,6.94-2.46l.93,1.35-11,11.1h-1.55L1354,451Q1354,450.57,1354,450.09Z" transform="translate(-1 -3.87)"/><path class="cls-10" d="M1805.63,289.42l18.67,5.4C1816.1,298.56,1810.69,294.63,1805.63,289.42Z" transform="translate(-1 -3.87)"/><path class="cls-9" d="M84.71,447.74c4.7-.57,6.69,2.71,9.31,14.75C89.38,458,85.18,454.34,84.71,447.74Z" transform="translate(-1 -3.87)"/><path class="cls-3" d="M234,194.72l-11.84-9.55C226.93,182,231.79,185.91,234,194.72Z" transform="translate(-1 -3.87)"/><path class="cls-8" d="M33,35.23,21.6,43.66C19.82,35.64,23.83,32.43,33,35.23Z" transform="translate(-1 -3.87)"/><path class="cls-11" d="M127.67,209.55H112l-.16-.45c1.73-.42,3.44-1,5.19-1.23,3-.47,6.36-.46,4.89-6l1.8.39Z" transform="translate(-1 -3.87)"/><path class="cls-3" d="M1672.12,318.63l1.32-5,9.44,6.56C1677.92,326,1675.63,319.93,1672.12,318.63Z" transform="translate(-1 -3.87)"/><path class="cls-3" d="M172.76,316l5.32-8.84c3.43,1.66,3.54,3.71,1.68,6.64C178,316.55,176.63,319,172.76,316Z" transform="translate(-1 -3.87)"/><path class="cls-10" d="M1354,450.09q0,.48,0,1l-11.76,3.49C1344.17,445.45,1349.39,448.75,1354,450.09Z" transform="translate(-1 -3.87)"/><path class="cls-10" d="M1808.42,443.38c-1.08-4.65-4.64-9.08.34-14.31l1.49,14.07Z" transform="translate(-1 -3.87)"/><path class="cls-8" d="M105.19,460.52l6.64-4.24-1.13-6,7.5,5.9-12.38,5.29Z" transform="translate(-1 -3.87)"/><path class="cls-8" d="M1574,73.68l2.76,9.09L1569,85Z" transform="translate(-1 -3.87)"/><path class="cls-3" d="M134.39,467.39a17.66,17.66,0,0,1,1.38,2.45c.6,1.88,1.1,3.8,1.88,6.52l-8.84-1.59Z" transform="translate(-1 -3.87)"/><path class="cls-8" d="M53.6,204.8l-1.86,13.11C46.58,214.59,47,211.8,53.6,204.8Z" transform="translate(-1 -3.87)"/><path class="cls-12" d="M1818.05,160.94l14.74,11.62-.82,1c-6.1-2.32-10.11-7.37-14.42-12Z" transform="translate(-1 -3.87)"/><path class="cls-10" d="M1833.23,106a20,20,0,0,1-3.9,16.92Z" transform="translate(-1 -3.87)"/><path class="cls-8" d="M179.8,57.61l-8.07.89-1.21-9.3Z" transform="translate(-1 -3.87)"/><path class="cls-9" d="M1748.66,172.18c6.61.5,9.17,3.82,6.82,10.12Z" transform="translate(-1 -3.87)"/><path class="cls-7" d="M130.2,627.25l-9.67,2.54c2.1-6.11,4-6.82,9.27-4.29Z" transform="translate(-1 -3.87)"/><path class="cls-13" d="M201.49,96.24v9.07l-6.3-1.53Z" transform="translate(-1 -3.87)"/><path class="cls-10" d="M1568.34,137.68l-3.87-8.43,9.05,4.43Z" transform="translate(-1 -3.87)"/><path class="cls-14" d="M82.4,362.69,91,357.24,88,366Z" transform="translate(-1 -3.87)"/><path class="cls-7" d="M280,595.81a74,74,0,0,1-8.09,1.08c-.35,0-.8-2.22-1.48-4.25l9.39,1.61Z" transform="translate(-1 -3.87)"/><path class="cls-12" d="M1817.55,161.57l-1.41-1,.33-.53,1.58.93Z" transform="translate(-1 -3.87)"/><path class="cls-1" d="M1536.25,692.5l1.11-1.57.56.23-.77,2Z" transform="translate(-1 -3.87)"/><path class="cls-2" d="M1646.92,20.07l-.93-1.5.46-.3,1.14,1.24Z" transform="translate(-1 -3.87)"/><path class="cls-10" d="M1355.73,451.11h0Z" transform="translate(-1 -3.87)"/><path class="cls-1" d="M193.84,199.43l-.35.55c-.1-.1-.31-.23-.29-.3a2.85,2.85,0,0,1,.32-.6Z" transform="translate(-1 -3.87)"/><path class="cls-5" d="M295.33,55.65l.4,1-.77-.64Z" transform="translate(-1 -3.87)"/><path class="cls-7" d="M1794.84,547.26l.71-.2.08.45-.7-.39Z" transform="translate(-1 -3.87)"/><path class="cls-1" d="M454.86,653.86l.87-.64-.13,1.27A5.24,5.24,0,0,1,454.86,653.86Z" transform="translate(-1 -3.87)"/><polygon class="cls-1" points="194.52 47.47 194.57 47.79 194.35 47.75 194.52 47.47"/><path class="cls-1" d="M91.8,4.37,91.47,5c-.1-.11-.3-.23-.29-.32A3,3,0,0,1,91.48,4Z" transform="translate(-1 -3.87)"/><path class="cls-1" d="M1535.5,693.43l.75-.93.89.65-.92,1.09Z" transform="translate(-1 -3.87)"/><path class="cls-15" d="M146.61,696.78c3.91-5.81,9.62-9,16.19-10.73,22.2-6,51.41,8.21,60.11,29.44,2.59,6.33,3.89,13,.17,19.58C202.56,712.4,176.08,701.6,146.61,696.78Z" transform="translate(-1 -3.87)"/><path class="cls-16" d="M1777.75,714.1c-6.29-6.42-7.53-14.08-5.45-23.09l7.7.38-.71,9.39,7.6,1.28,1.59-9.44,47.46,5.35-1,9.95,8.46,1.29,1.61-10.3,7.56,1.12c1.16,8.26-2.82,16.8-9.6,20.8C1822,711.1,1800.31,708.33,1777.75,714.1Z" transform="translate(-1 -3.87)"/><path class="cls-17" d="M146.61,696.78c29.47,4.82,55.95,15.61,76.47,38.29-.28,2.51-1.12,3.5-3.88,2.22-25.07-11.63-50.2-23.14-75.93-35Z" transform="translate(-1 -3.87)"/><path class="cls-18" d="M1777.75,714.1c22.56-5.77,44.24-3,65.19,6.73l-5,3.28-5.74-5.33-6,2.88,2.52,6.64-17.92,1.14,1-7.86-8.32-.81-2,7.11C1791.13,727.22,1783.91,721.59,1777.75,714.1Z" transform="translate(-1 -3.87)"/><path class="cls-19" d="M184.64,642.16,166.31,658l-9.23-4.78,32.11-22.41,8.11,38c-9.89-2-10.85-3.24-11.35-12.58C185.72,651.93,185.16,647.66,184.64,642.16Z" transform="translate(-1 -3.87)"/><path class="cls-16" d="M1615.42,743.19c-4.87-2.23-6.89-6.27-7.57-11.26,5.15-3.34,4.82,1.66,6.29,4l4.72-1.37c-2.5-5.06.36-6.49,4.63-7.47,7.56-1.74,15-3.87,22.83-5.91l2.07,6,5.13-1.51-1-6,4-1c2.54,2.11,2.21,9.5-.39,13.52-5.41.59-11,.42-16.17,1.94C1631.59,736.49,1623.57,740.07,1615.42,743.19Z" transform="translate(-1 -3.87)"/><path class="cls-20" d="M238.76,664.65c-4.77,4.14-9.51,7.59-13.4,11.83-3.33,3.63-6.18,3.39-9.71.94-1-.72-2.23-1.23-3.88-2.11l32-22.37,8.07,37.77c-8.85-1.08-10.35-2.66-11-11-.33-4.3-.85-8.59-1.31-12.88A13.12,13.12,0,0,0,238.76,664.65Z" transform="translate(-1 -3.87)"/><path class="cls-21" d="M1807.91,680.71c-5.66,1.15-8.89-.32-10.14-5.75-.76-3.33-2.47-6.45-4.1-10.54-2.43,3.62-4.78,6.5-6.44,9.74-2.41,4.7-5.46,6.24-10.54,3l18-21.85Z" transform="translate(-1 -3.87)"/><path class="cls-21" d="M1838.12,660.26l13.15,25.26c-5.58,1.54-8.59-.31-10-5.43-1-3.42-2.52-6.67-4.16-10.91-2.36,3.63-4.46,6.37-6,9.39-2.39,4.57-5.33,7.09-10.95,3.72Z" transform="translate(-1 -3.87)"/><path class="cls-22" d="M1615.42,743.19c8.15-3.11,16.16-6.69,24.5-9.17,5.13-1.52,10.76-1.35,16.17-1.94a31.74,31.74,0,0,1-4.38,2.74c-1.29.55-3.65.15-4,.92-.58,1.16.14,3,.38,5.22l-8.48,3.76-1.89-4.32-4.84,1.15c1.36,5.58-2.08,6.25-5.87,5.45S1619.27,744.49,1615.42,743.19Z" transform="translate(-1 -3.87)"/><path class="cls-23" d="M1631.1,703.12c7.19,3.12,12.65.6,17-5.45l1,1.81-4.53,5.87,7.27,2.39-.27,1.58c-3.18-.37-6.68-1.72-9.46-.84s-4.74,4-7.06,6.15l-1.26-1.31,4.82-5.88-7.36-2.24Z" transform="translate(-1 -3.87)"/><path class="cls-24" d="M1624.26,718.59c-6.84-2-12.72-1.2-16.65,5.51l-1-1.48,4.14-6.11-7-2.29,0-1.92c7,2.7,12.56.9,16.57-5.51l1.14,1.66-4.43,5.88,7.21,2.61Z" transform="translate(-1 -3.87)"/><path class="cls-23" d="M194.74,677.51l12.17,4.93-.68,1.83-12.34-4.73Z" transform="translate(-1 -3.87)"/><path class="cls-7" d="M74.93,264.21l-5.83-4.43,20.31-14.2.91.82Z" transform="translate(-1 -3.87)"/><path class="cls-10" d="M34.92,348.21l14.7-12.78C48.45,342.84,44.84,346.11,34.92,348.21Z" transform="translate(-1 -3.87)"/><path class="cls-9" d="M129.71,230.9l8.58-4.71-.77,9.9Z" transform="translate(-1 -3.87)"/><path class="cls-10" d="M75.37,303.26l6.19,10.44-7.76-1.05Z" transform="translate(-1 -3.87)"/><path class="cls-14" d="M23.72,116.08l2.81,16.47-1.75.33-3.16-16.47Z" transform="translate(-1 -3.87)"/></g></g></svg>