<svg xmlns="http://www.w3.org/2000/svg" viewBox="0 0 1920 388"><title>Ресурс 9</title><g id="Слой_2" data-name="Слой 2"><g id="Слой_1-2" data-name="Слой 1"><path d="M1048,81c5.87,4.53,6.76,10.32,4,16.81a16.17,16.17,0,0,1-4.55,5.64c1.34-7.48,4.53-15-4.91-19.62l-1.86,6.41c-2.77-2-5.16-5-8.78-1.1V81.7c-11.08-2.41-13.48,5.37-15.48,14.27-4.58-5.67.5-10-.47-15.95L1006,91.32c-3.95-5.29,4.84-15.69,14.9-17.94-6-.09-11-1.57-11.56-8.41-.33-4.05-3.16-8.46,1.63-13.59,1.64,9.88,1.47,20.62,16.49,16.69-8.07-7.31-8-15.28-1.91-23.32.91-1.21,2.68-1.76,4.41-2.85-1.42,5.55-3,10.19-3.59,14.95-.2,1.58,2.15,3.47,3.35,5.23,5.56-3.33,7.94-7.52,7.46-13.78-.53-6.79-.19-13.66-.11-20.49,0-3.39-1.39-4.84-4.8-4.76-6.33.14-12.91-.94-18.92.48-4.8,1.14-9.38,4.71-13.24,8.12C979.21,50.14,959.6,69.85,943.82,93c-9,13.12-17.57,26.77-19,43-1,11,.42,22.21.78,33.33.08,2.41.25,4.81.38,7.21l-1.46.28a35.36,35.36,0,0,1-1.36-5.79c-.49-7.13-.5-14.31-1.28-21.41-.25-2.24-1.8-5.23-3.65-6.25-16.89-9.27-34.5-16.69-53.87-18.91A52.54,52.54,0,0,0,837.4,128c-2.8,1.18-4.47,2.78-4.25,5.93s-.91,4.91-4.27,5.51c-4.94.87-8.4,4.14-8.76,9a87,87,0,0,0,.7,18.2c.22,1.61,3.38,3.74,5.35,3.93,1.77.17,3.77-2,6.48-3.61l-5.89-3.89,8.05-4c3,6.65,1.21,13.19-4,15.54-5.9,2.65-12.54.07-15.52-6-5.43-11.1-1.34-27.36,8.29-34.49,1.34-1,2-4,1.69-5.91-.5-3.44-2.15-6.72.84-9.87.4-.42.18-1.56.06-2.34-1-6.83-2.17-13.65-3.17-20.48a110.13,110.13,0,0,1-1.62-13.65c-.09-4.57.64-9.16,1.08-13.73.19-1.93,1-3.9.76-5.75-.85-6.39-2.7-12.57-.11-19.18.83-2.12-1.49-5.32-1.79-8.09-.42-3.84-3.53-3.76-6-5-3.35-1.67-6.47-3.78-10.56-6.22a49.89,49.89,0,0,0-.49,5.14c.3,12.86.72,25.73,1,38.59.11,5.92.15,11.86-.17,17.77-.59,10.93-1.37,21.85-2.28,32.76-.32,3.85-1.82,7.21-6.32,7.86-4.3.62-6.89-1.35-9.44-4.91a80.46,80.46,0,0,0-12.57-13.88c-26.71-23-53.62-45.82-80.47-68.68-4.56-3.88-9.16-7.72-13.71-11.62A15.23,15.23,0,0,0,669.38,23q-18.49.44-37,0a20.54,20.54,0,0,0-13,4.13q-64.69,46.11-129.53,92c-5.16,3.63-8.86,7.21-9.08,13.8-.07,2-2,4-2,6-.12,4.35,3.76,7.34,8.41,7A13.14,13.14,0,0,1,480,160.7c-6.91,3-16.79-.56-19.7-7.18-3.75-8.53-.95-17.33,7.09-20.64,4.07-1.68,5.28-3.75,5.95-8.29.77-5.25.07-9.82-.47-14.88-.81-7.57.75-15.38,1.19-23.1.1-1.79-.38-3.61-.34-5.4.11-4.74.42-9.48.52-14.22.11-5.27.85-10.69-.07-15.79-1.33-7.41-3.95-14.59-5.92-21.89-.68-2.5-2-3-4.43-2.36-5,1.36-10,3-15.05,3.44A16.88,16.88,0,0,1,438.6,28c-10.06-6.85-20.8-7-32.06-4.77-2.57.52-5.17.86-8.54,1.41V63.21l-1.74,0V23.66l-1.6-.34c-1.69,3.27-3.21,6.63-5.08,9.79-9.19,15.42-17.79,31.26-28,46-7.84,11.38-17.91,21-31.63,25.81a31.67,31.67,0,0,1-22-.29,10.19,10.19,0,0,0-7.24.72c-6.37,3.25-12.5,7-18.62,10.69a15.4,15.4,0,0,0-4.81,4.16,120.36,120.36,0,0,1-27.07,28.46,43.39,43.39,0,0,1-27.3,9.39c-7.87,0-14.5-3.31-20.77-7.63-3.22-2.22-12.77-2.43-15.48.12-1.11,1-1.56,3.21-1.6,4.88-.18,7-.06,14-.14,21,0,1.88-.33,3.76-.51,5.64L183,182q0-9.78,0-19.57,0-1.75,0-3.5c0-7.83,0-7.82-7.58-6.93-3.3.39-6.67.46-9.9,1.17a8.69,8.69,0,0,0-4.83,2.79c-6.26,8.35-12.06,9.3-20.94,3.62a34.92,34.92,0,0,0-10.13-4.39c-3.89-1-5.56,1.11-5.6,5.29-.17,16.64-.62,33.28-1,49.92a9.91,9.91,0,0,1-1.58,5.6V188.65l-.6-.07c-1.59,8.38-2.65,16.91-4.9,25.1-2.86,10.39-6.5,20.58-10.22,30.71-1,2.86-3.25,5.44-5.39,7.73-4.82,5.16-11,5.46-16.52,1-2.29-1.84-4.36-4-7.62-7V285.4l-2,0V240.94l-2-.08c-.68,5.26-1.18,10.55-2.06,15.77-3.89,23.13-7.4,46.33-12.05,69.31-2.51,12.39-7,24.51-15,34.6-3.57,4.53-8.62,8.23-13.68,11.1-2.61,1.48-7,1.12-10.08.14-4.36-1.38-5.76-.09-7.19,3.83C10.09,381.26,7.07,386.5,1,389v-2c6.86-3.35,8.58-10,10.38-16.5.24-.86-.83-2.41-1.7-3.2C6.89,364.76,3.91,362.42,1,360v-3l10.95,9.25c.73-1,1.14-1.34,1.27-1.78.32-1.11.54-2.26.76-3.39C17.4,342.87,18.39,324.5,18,306c-.21-11.19.54-8.82-8.61-11.95-6.3-2.16-7.36-1.39-7.39,5.24-.06,16,0,31.93-.09,47.89A50.07,50.07,0,0,1,1,354q0-31,0-62c7-5.85,7-5.85,1.43-12.66A15.08,15.08,0,0,0,1,278q0-2.5,0-5c1.48,2.19,3,4.38,4.45,6.58,2.21,3.3,4.41,3.64,6.93.23,3.25-4.4,6.6-8.73,10-13,2.39-3,2.35-4.6-1.57-6.65-4.11-2.15-8.34-5.2-10.88-9C6.2,245.64,3.91,239.11,1,233V222c2.25,7.25,4.1,14.66,6.87,21.7,2.58,6.55,6.68,12.17,13.71,15,3.46,1.38,6,1.07,7.85-2.51,1.78-3.36,4-6.5,5.94-9.76,4-6.52,3.94-6.52-2.58-10.82-1.25-.82-2.47-1.67-3.7-2.51l-.17-.15c-6.31-5.68-11-12.45-12.73-20.82-.77-3.66-2.3-4.16-5.52-3.19S4.23,210.33,1,211V164c4.19-1.21,9.84-1.11,12.31-3.87,7.88-8.78,6.77-20,6.45-31.28-1.85.48-2.8.7-3.72,1C8,132.26,6.24,133.33,1,139v-4c.63-2,5.11-4,0-6v-3c2.33,1.8,4,1.44,4.62-1.56,1.48-7.66,3-15.31,4.12-23,.22-1.52-.84-3.57-1.93-4.85A86.14,86.14,0,0,0,1,90V87c3.58,3.46,7.47,5.49,12.85,5A82.26,82.26,0,0,0,48.25,81.22a6.79,6.79,0,0,0,3-3.16C54.93,67.4,58.43,56.69,62,46h0c-5.92,1.58-11.78,3.42-17.76,4.66-4.89,1-9,2.56-11.8,7.13a31.29,31.29,0,0,1-7.27,7.44C18.12,70.85,10.59,75.23,1,72V70c11.3,3,27.35-5.48,30.44-15.75L1,52V50c7.47.32,15,.35,22.41,1.05,8.71.81,14.72-2.16,18.18-10.44,2.45-5.88,5.48-11.51,9-18.71-5.68.33-9.88-.29-13.41,1-5.64,2-10.38.87-15.32-1.6a22.42,22.42,0,0,0-6-2.09c-3.87-.68-6,.8-5.79,5.13.21,5.66.07,11.33,0,17,0,2-.25,4-.39,6L8,47.25c0-7.06,0-14.11,0-21.17,0-6.81,0-6.81-7-7.08V1H1921V31c-1.43,4.89-5,1.36-7.21,1.36-3.54,0-7.12-1.57-10.6-2.74-4.11-1.39-8.13-3.07-12.19-4.62h0c2.16,5,3,11.48,10.29,11.64,6.56.14,13.14-.4,19.71-.64v3l-22.24,1.29C1904.11,48.88,1909.61,57,1921,58v2c-3.87-1.25-8.51-1.56-11.45-3.95-4.67-3.8-8.23-9-12.22-13.59-1-1.12-1.51-3.07-2.66-3.48-6.91-2.47-13.93-4.6-21.91-7.17,3.59,11.75,6.73,22.57,10.29,33.25.65,1.95,2.77,3.68,4.61,4.92A57,57,0,0,0,1921,80v4c-1,2-2.9,4-2.75,5.9C1918.76,96,1920,102,1921,108v12l-11.91-1.32c.22,10.43,0,21,5,30.73,1.09,2.15,4.57,3.09,7,4.59v3c-6.52-1.35-7.29-1-6.91,5.44.51,8.6,1.31,17.21,2.64,25.71.64,4.07,2.8,7.91,4.27,11.85v3l-7.73-2.48c-.62,10.59-5.59,18.7-11.28,26.48h0a54.6,54.6,0,0,1-4.9,3.42c-3.78,2.09-3.94,4.68-1.84,8.18,2,3.27,3.46,6.82,5.19,10.22,2.92,5.75,5.32,6.44,10.34,2.45a22.56,22.56,0,0,0,5-6.07c2-3.26,3.49-6.79,5.2-10.2v6c-3.73,5.8-6.54,12.4-13.82,15.06-.6.22-1,3-.46,4,3.09,5.48,6.38,10.86,9.94,16,.6.88,2.85.63,4.34.9v8l-9.52-11v15.5L1921,287v2a22,22,0,0,1-3.23,1.29c-5.47,1.27-7.22,4.62-6.85,10.15,1.19,17.67,2,35.36,3,53,.21,3.54.88,7.06,1.45,11.47l5.62-4v3c-1.41,2.19-4.14,4.52-3.94,6.55.37,3.58,2.53,7,3.94,10.45v4c-2-3.79-3.77-7.67-6-11.32-.74-1.24-2.53-2.82-3.69-2.7-11.33,1.1-17.38-1.21-22-11.64-5.15-11.66-10.38-23.7-12.7-36.11-4.62-24.66-7.29-49.69-10.71-74.57-.58-4.24-.92-8.51-2.54-12.78v44.86l-1.9,0V243l-1.35-.54c-1.67,1.65-3.31,3.34-5,5-5.43,5.14-11.23,5-15-1.54a76.22,76.22,0,0,1-8.38-19.62c-3.43-13.84-5.77-28-8.56-42V208.1l-1.42.1a26.8,26.8,0,0,1-.74-4c-.38-11.14-.76-22.28-1-33.43-.14-6.29.14-12.59-.13-18.87-.08-1.88-1.08-5.06-2.16-5.29a13.9,13.9,0,0,0-7.53,1c-1.92.76-3.3,2.75-5.09,4-5.71,3.87-10.72,3.33-14-2.63-4.23-7.71-11.68-5.63-18-7-.43-.09-2,2.35-2,3.65-.21,7.16-.09,14.33-.12,21.5,0,1.77-.15,3.54-.23,5.31l-1.29.11c-.48-3.76-1.2-7.52-1.38-11.3-.24-5,.19-10-.2-15-.17-2.16-1.14-5.42-2.64-6.06-3.41-1.45-7.29-3.59-11.1.13a32,32,0,0,1-8.43,6.1c-7.15,3.37-14.24,2.94-21.7-.19S1711.13,138,1706.31,132c-5.12-6.33-9.62-13.15-14.66-19.56a72.74,72.74,0,0,0-9.34-10,111.3,111.3,0,0,0-12.53-9.08c-1.27-.83-3.57-1.36-4.79-.77-10.77,5.22-20.07,2.27-28.7-4.75-11.9-9.67-19.61-22.54-26.71-35.78-3.77-7-6.93-14.41-10.39-21.61-.65-1.34-1.12-3.09-2.22-3.82a10.67,10.67,0,0,0-5.47-1.63c-.47,0-1.35,2.73-1.43,4.23-.37,6.75-.52,13.5-.75,20.26l-2,0v-25l-5.19,1.39c-8.35,2.24-16.63,4.92-25.11,6.5A15.14,15.14,0,0,1,1546.81,30c-9.92-6.69-20.48-6.75-31.64-5-3.58.57-8.14.9-11-.8-7.58-4.53-14.86-3.14-21.32.68-9.44,5.58-17.1,2.21-24.37-3.22-4.19-3.13-8.42-2.89-12.75-2.24-1.14.17-2.59,3.18-2.63,4.92-.25,10.66-.13,21.33-.13,32,0,8.83-.14,17.67.12,26.5a8.84,8.84,0,0,0,2.5,5.41c4.2,4.2,8.74,8.07,13.22,12.12,8.19-5.22,11-12.92,7.48-21.83-2.59-6.54-5.52-12.94-8.39-19.64,3.86-.71,6.81,1.6,8.5,4.75a220.22,220.22,0,0,1,10.18,21.58c.84,2.07.29,5.36-.84,7.44-3.09,5.68-6.84,11-10.3,16.48-.67,1.06-1.18,2.23-2,3.84,7.35,0,14.05.25,20.72-.09,4.1-.21,6.55-3,7.22-7.08,1.21-7.37,2.39-14.75,3.62-22.12.23-1.39.66-2.74,1.17-4.83,4.8,2.75,6.35,6.43,5.58,10.75-1.33,7.49-3,14.94-4.88,22.31-1.62,6.28-4.42,8.26-11,8.78-2.32.18-4.65.34-7,.48a16.42,16.42,0,0,0-6.63,1.36c1,.42,2,1.2,3.07,1.2,12.45,0,20.12,7.4,26.35,17,2.18,3.35,4.43,6.67,6.27,10.2,1.72,3.29,1.86,6.64-1.71,9.59-7.32-8.64-11.45-20.1-23.11-25,2.21,10.79,9.63,20.48,4.23,31.44l-1.64.28c-.9-3.42-1.6-6.92-2.77-10.25a99.53,99.53,0,0,0-5.33-12.86,8.43,8.43,0,0,0-4.78-4,128.53,128.53,0,0,0-16.18-2.77c-4.1-.47-3.84,2.15-2.56,4.79,1.49,3.08,3.16,6.07,4.76,9.11l-6,5.39-1.79-6.53-9,2a5.52,5.52,0,0,1,.63,2.41c-.1,1-1,1.88-1.49,2.81-.91-.55-2.26-.89-2.65-1.69-1.72-3.55-4-7.1-1.48-11.28a8.88,8.88,0,0,0,.54-2.89c-6.18,1.13-17,12.09-16.41,17.5.85,8.14,2.72,16.18,4.13,24.13-8.15-.23-15.94-27.49-9.25-35.13,3.6-4.12,7.53-7.95,11.06-11.64-11.54,1.91-23.38,11-29.75,23.38-1.9,3.69-3.28,7.63-5.05,11.39-.44.93-1.47,2.23-2.19,2.2a3.35,3.35,0,0,1-2.4-2.07c-.49-1.86-1.06-4.11-.45-5.77,2.9-7.92,6.1-15.74,9.37-23.52,2.17-5.17,7.57-5.88,11.9-8,2.28-1.12,4.66-2,7-3l-.4-1.33c-3.3.5-6.6,1-9.91,1.48a69.67,69.67,0,0,1-8.43.93c-4.65.06-8-1.79-10.08-6.42-3.51-7.86-7.73-15.41-11.32-23.25-1.46-3.19-1.43-6.66,1.38-9.68,3.08,5.58,5.86,10.94,8.94,16.11,2.29,3.85,5,7.47,7.48,11.2a10,10,0,0,0,10.8,4.64c7.34-1.36,14.6-3.08,23.19-4.92-6.72-2.83-12.16-5.54-17.88-7.42-8.67-2.86-12.19-7.34-12.15-16.4,0-5.16-.36-10.31-.38-15.47,0-3.92,1-7.48,4.8-9.8.42.56,1,1,.94,1.29-2,8.23,1,15.89,3.29,23.41a15.69,15.69,0,0,0,7.06,8.21c4.41,2.38,9.62,3.25,13.89,4.57,4.49-6.93,8.62-13.11,12.5-19.43.71-1.15.61-2.89.61-4.36,0-19.67-.09-39.33.1-59,0-4.78-1.57-6.85-6.36-6.27-1.48.18-3.09-.12-4.47.33-17.07,5.51-34.68,3.59-52.1,3.65-10.61,0-21.23-1-31.85-1.61-3.67-.22-5,.85-4.57,4.9.51,4.51,0,9.14-.15,13.71,0,1-.25,2-.18,3,.87,12.18,1.89,24.36,2.58,36.55.12,2.14-1.24,4.32-1.67,6.53a72.61,72.61,0,0,0-1.63,11c0,.82,2.36,1.94,3.8,2.59,8.31,3.74,11.59,13.47,7.67,23-3,7.28-11.68,10.75-19.72,7.95-5.38-1.88-8.69-5.63-9.46-11.21-.63-4.57-2.82-7.93-6.05-11.09-10.47-10.21-20.74-20.63-31.06-31-1.2-1.21-2.26-2.56-3.38-3.85l1.23-1.15,14.91,14.72,1.51-1L1286,61.1l1-.67c3,4.73,6,9.42,8.92,14.19.95,1.55,1.22,3.68,2.46,4.85,1.08,1,3.63,2,4.59,1.37,7.29-4.4,14.35-9.18,22-14.19-5.58-4-11.39.45-17,.59l-.31-1.32,9.95-3.43c-4.83-4.94-8-5.67-12-2-1.45,1.34-1.68,4.19-2.06,6.43-.57,3.32-.78,6.7-2,10-.15-8.67-7.52-13.17-10.86-19.71l1-.84,8.65,9.85c1-4.44.73-8-2.4-10.48-2.83-2.26-6-4.27-9.85-1.29-.68.53-2.34-.16-3.54-.36-1.8-.3-3.58-.68-5.38-1l-.41,1.17,4.5,4.22-.46.54-12.95-5.64c2.17-1.44,3.63-2.56,5.23-3.44,5.69-3.14,7.88-8,4.45-13.21-3.32-5-8-9.16-12.27-13.53-.64-.66-2.21-.77-3.27-.6-8.82,1.43-17.62,3-27.28,4.65l40.89,41-1.16,1.26c-1.27-1.1-2.62-2.12-3.81-3.31q-19.4-19.48-38.76-39c-4.8-4.84-12.39-5.89-19-3.7a193.68,193.68,0,0,1-26,7c-3.26.6-7.61-1-10.55-3-9.51-6.4-19.7-6-30.25-4.49-3,.43-6.87,1.53-9.11.22-7.59-4.42-15.08-2.72-21.43.92-10.41,6-19,3.72-27.58-2.9-1.27-1-3-2-4.48-1.92-10.11.35-20.22.81-30.31,1.58-4.12.31-8.14,1.74-12.26,2.19-3,.33-4,1.75-4,4.52,0,8.33-.9,16.81.39,24.94.72,4.54,4.75,8.81,8,12.6,1.6,1.87,9.23-2.65,10.15-6s1.39-6.66,2.64-10c3,4.6,3.2,10.31.94,14.26-2.15,3.76-7.41,5.75-11.13,8.4,9.4,4.4,10.68,3.7,22.42-12.81,2.59,3.5.48,6.41-1.11,9-3.15,5.2-4.94,12.58-15.16,9.22,7,6.21,11.21,12.2,9.62,20.7-4.45-7.39-8.39-15-17.76-17ZM469,154l-1-1-1-1h0l1,1,1,1ZM1795,73h0l1,1c7.84,13.62,16.65,25.63,35.29,22,2.09-.4,4.43.29,6.45-.25a64.94,64.94,0,0,0,11.59-4.13c1.06-.51,1.15-3,1.69-4.58-1.44-.25-3.06-1-4.31-.66-14.16,4.39-27.25,1.65-39.7-5.66-3.72-2.18-7.35-4.5-11-6.76ZM1629,56l1,1,4,5.44.93-.84L1630,57l-1-1Zm240,184,1,1c1.76,2.14,3.23,4.65,5.36,6.33a7.27,7.27,0,0,0,9.68-.23c3.19-2.72,7.73-5.28,6.38-10.36-1.25-4.68-3.74-9-6-14.24-2.38,4.88-4.21,8.9-6.27,12.81-1.9,3.61-4.73,6-9.14,5.7l-1-1Zm-9-104h0Zm3-5h0l2,1,.45.14L1865,132ZM250,132l-1.55,1.23.6.56,1-1.78ZM524,63l3.34-.9-.54-1.17L524,63h0Zm237,4h0l-2.88-3.78L757,64.5ZM105,32l.46.13L105,32l-4.67-3.45-.88,1.67ZM546,55l-6.66,4L541,61l5-6,1.78-.78-1.15-1.33ZM92,138l-12.84-.66c4,4,8.7,4.1,12.83.65l.37-.29Zm1787,4,.88,1.67.49-.38L1879,142l-3.19-12-1.62.55C1873.35,135.23,1875.43,138.87,1879,142ZM1733,76h0c2,4.34,4.56,8.06,9.59,8.43l.94-1.25ZM65,277l-9.37,12.54c7.88-2.56,9-4.15,9.37-12.54l.13-.45ZM499,50h0V63.15C503.31,60.35,503.18,53.17,499,50Zm60,2c-6.46.28-10.24,4.47-13.58,9.31,6.48-.25,9-6.28,13.58-9.31ZM125,40l-.46-.13L125,40c4.84,1.74,9.62,3.64,14.54,5.11,1.15.34,2.72-.74,4.1-1.16-1.07-.95-2.06-2.58-3.24-2.73C135.28,40.58,130.13,40.37,125,40ZM1808,146l-16.39-1.3c3.65,9.05,9.71,9.23,16.39,1.29ZM557,68c-10.39,3.42-19.31,8.92-26.17,17.32L532.06,87,557,68l.38-.31ZM734,51h0c3.64,4.09,7.16,8.28,11,12.19,1.15,1.18,3.12,1.55,4.72,2.29-.23-1.94.18-4.33-.81-5.74C745.32,54.67,740.53,51.23,734,51Zm1103,68h0c4.81,5.37,11,6.69,17.68,5.31,1.15-.24,2-2.72,2.55-4.31.09-.26-2-1.89-3.08-1.87C1848.43,118.24,1842.72,118.68,1837,119ZM87,29c-3.93.63-7.85,1.48-11.8,1.84-6.44.58-7.89,2.27-6.9,10L87,29ZM1904,219c2-5.16,4.23-10.26,6-15.51,1.51-4.54-1.09-6.17-6-6.45,0,7.52,0,14.75,0,22ZM525,91c-11.54,3.41-21.79,8.65-28.49,18.93l1.05,1.48L525,91Zm1343,66-.3-.37.31.37c1.48,6.48,2.67,13.06,4.54,19.42,1.6,5.45,6.5,6.77,10.53,3.4ZM717,46h0c8,7.45,16,14.94,24,22.3.86.79,2.43.8,3.68,1.17a15.09,15.09,0,0,0-.74-3.88,14,14,0,0,0-2.7-3.56C734.36,54.91,728.11,46.76,717,46ZM1891.85,148.83l-10.46-24.27c-3,1.48-3.62,4.16-2.58,7.66C1881.06,139.73,1882.28,148,1891.85,148.83ZM565,29c-6-1.16-12-2.08-17.84-3.58-3-.77-5.64-2.9-8.62-3.79-1.38-.41-3.21.68-4.84,1.09.85,1.5,1.37,3.88,2.62,4.35a77,77,0,0,0,15.22,4.55c4.56.72,9.7,1.85,13.47-2.62l.37-.3ZM70,163c-5.86,7.37-11.74,14.73-17.54,22.15-.75,1-1.79,2.84-1.45,3.25a5.42,5.42,0,0,0,3.69,1.94c4.08-.09,7.54-1.76,8.88-5.92,2.28-7.09,4.3-14.26,6.43-21.4l.13-.46ZM1915,91c-1.33,2.33-3.29,4.52-3.85,7-.89,4-.9,8.25-1.21,12.39-.44,6,2.7,8.31,9.23,6.52q-1.62-10.49-3.27-21c-.26-1.64-.61-3.27-.91-4.91Zm-222,19h0c5.53,10.35,12.22,19.75,21.73,27.69,1.2-8.23-.82-14.75-6.52-19.19C1703.68,115,1698.11,112.78,1693,110Zm182,74h0c1,3.5,1.45,7.39,3.32,10.37,1.19,1.88,4.88,3.72,6.86,3.23,3.42-.85,6.38-3.53,9.53-5.45-1.22-1.88-2.35-3.82-3.69-5.61a9.51,9.51,0,0,0-2.9-2.7,7.05,7.05,0,0,0-3.58-.71C1881.36,183.3,1878.18,183.69,1875,184Zm27-73h0c-.21,8.1-1,16.25-.43,24.3.33,4.8,2.43,9.59,4.38,14.1.73,1.7,3.28,2.63,5,3.91l1-1.2a10.15,10.15,0,0,0-.63-2.29c-5.18-9.46-4.71-20-5-30.15C1906.19,115.57,1905.11,113.07,1902,111ZM274,121c-5.45,2.41-11,4.69-16.32,7.25-6.93,3.31-10.62,10.48-9.84,18.59,6.45-1.55,21.45-16.37,26.16-25.85ZM68,245c-5.28,2.53-9.13,1.65-12.68-3.66-2.68-4-4.72-8.46-7.21-13-2.63,4.87-5.15,9.34-7.43,13.94-.49,1-.62,2.86,0,3.58,3.62,4.38,7.46,9,13.8,8.66S65.25,250.68,68,245ZM193,29a13.88,13.88,0,0,0-3.34.87A90.11,90.11,0,0,1,149.81,41.2c-1.22.06-2.37,1.67-3.56,2.56,1.18,1.09,2.36,3.12,3.53,3.11,7.73,0,15.56.18,23.16-1C182.69,44.38,188.67,37.44,193,29ZM1916,198h0c-1.69-12.8-3.26-25.61-5.22-38.37a6.54,6.54,0,0,0-3.94-4.42c-3.51-.83-2.58,2.39-2.8,4.33-1.05,9.18-.72,18.61-5.3,27.14a3.38,3.38,0,0,0,.9,3.19C1905,192.73,1910.53,195.32,1916,198ZM1850,59h0c.94,13.33,3.92,25.95,12.54,36.67,8.11,10.08,24.16,14.38,34.73,9-1.72-5.36-4-9.31-10.45-11.07-6.21-1.7-12.22-5.17-17.52-9C1860.32,78.21,1855,68.64,1850,59ZM90,71c-1.83,2.77-3.61,5.58-5.5,8.31-9.83,14.11-22.9,23.42-40,26.67-6,1.15-9,4-10.61,11,12.81,2,25.12,1.92,36.22-5.9C84,101.35,88.7,87,90,71ZM68,250c-.65.51-1.33,1-2,1.54-8.74,7.42-15.5,7.26-23.73-.56-1.27-1.21-2.61-2.36-5-4.5-1.85,4.66-5.23,8.84-4.44,12,2.13,8.44,4.92,17.13,9.51,24.43,5.87,9.34,9,7.77,15.14.66,8.39-9.64,10.1-21.4,10.47-33.56ZM94,46c-1.92,1.84-3.79,3.73-5.76,5.5-9.38,8.41-18.38,17.33-28.36,25-5.44,4.16-10.16,8.1-12.53,14.7-1.46,4.09-3.79,7.86-5.89,12.1C62.95,104.88,94.87,75.82,94,46ZM1770,31h0c2.42,4.52,4,9.91,7.41,13.41,11.5,11.67,24.22,22,40.39,26.55,9,2.56,18.14,2.57,26.42-2.77,1.49-1,3.39-3,3.26-4.44-.73-7.86-2-15.66-3.17-23.86a20.15,20.15,0,0,0-2.65,1.09c-23.19,14.35-45.06,10.34-65.06-5.63C1774.55,33.72,1772.21,32.45,1770,31Zm-65,59h0a81,81,0,0,1-1-8.39c-.13-9.15-.2-18.31,0-27.46.1-5-2.53-7.8-6.86-10.24-.73,1.88-1.32,3.39-1.9,4.92-4.53,11.87-10,23.21-17.95,33.25-2.25,2.85-6.43,6.57-5.8,8.73.87,3,5.31,5.15,8.58,7,2.55,1.47,5.91,3.24,8.48,2.72,17.22-3.46,27.56-14.45,32-31.18.39-1.48.06-3.93-.94-4.87-3.92-3.72-8.23-7-13.62-11.49,0,9.85.09,18.25,0,26.65C1705.9,83.13,1705.33,86.56,1705,90Zm168,195h0c2.1,20.24,5.6,40.2,12.25,59.51,2.67,7.74,5.75,15.24,11.83,21.15,3.85,3.74,8.35,3.91,13,2.79,1.14-.28,2.69-2.51,2.59-3.73-1.08-14.07-2.6-28.1-3.68-42.17-.63-8.12-.72-16.27-1-24.41-.08-2.31-.06-4.58-3.36-4.12C1892.77,295.64,1883.38,288.57,1873,285ZM76.45,149.74c-.21,3.37-.39,4.84-.39,6.31Q76,196.5,76,237c0,6,6.06,14.69,11.76,16.47,3.8,1.19,8,1.36,10.47-2.33,3.55-5.33,7.22-10.8,9.48-16.72,7.23-19,9.82-39,12.27-59,.67-5.44,1.41-10.89,1.81-16.35.08-1.14-1.19-2.38-1.84-3.57-1.05.68-2.36,1.14-3.1,2.07-1.65,2.07-2.82,4.55-4.54,6.54-4,4.61-7.05,4.65-11.34.45a7.4,7.4,0,0,1-2-2.23c-2-5.35-7.42-3.41-11-5.35S81,152.62,76.45,149.74Zm1748.71-3.32-1.38.25a22.12,22.12,0,0,0-.7,4.47,93.34,93.34,0,0,0,.92,9.93c3.27,21.52,6.21,43.11,10.17,64.5,1.27,6.84,5,13.31,8.2,19.68,1.61,3.22,5.11,4.91,8.48,2.58,5.58-3.85,10.19-8.52,10.17-16.15-.08-28.33,0-56.66-.07-85a27,27,0,0,0-.63-4.41c-5.55,2.61-10.68,4.9-15.67,7.44-1.06.54-1.79,1.92-2.45,3-4.47,7.55-8.85,7.5-13.4-.19ZM22.85,297.73l-1.37.22c-.15,1.9-.41,3.8-.44,5.71-.36,20.29-1,40.55-5.32,60.48-.71,3.3.68,4.75,3.54,5.31,6.34,1.26,12.64,1.09,17-4.36s9.19-11,11.35-17.34c5.45-16,9.57-32.47,14-48.8.87-3.19.93-6.61,1.36-9.9-5.57,1.79-10.52,3.6-15.59,5-5.73,1.55-11.59,2.64-17.36,4.05a53.88,53.88,0,0,0-5.64,2.08ZM282.12,41.51l-.58-.93c-4.38.5-8.82,1.7-13.13,1.35-10.06-.82-20.08-2.21-30.07-3.7-10.5-1.57-20.92-3.61-31.41-5.25a8.34,8.34,0,0,0-5,.9c-2.74,1.54-5.12,3.71-7.79,5.39s-3.16,3.24-.95,5.54c4.72,4.92,8.87,10.59,14.26,14.62,6.57,4.92,13.78,9.46,21.41,12.33,8,3,16.33,2.25,23.29-4.27C256.5,63.4,261.51,60,266,56.1,271.51,51.36,276.77,46.38,282.12,41.51Zm99-8-.73-1.28c-15.11,5.94-30.55,6-46.16,3a16.65,16.65,0,0,0-4,.23c-7.11.45-14.22,1.08-21.34,1.25-3.53.08-7.08-.7-10.62-1.1l-1.21,1.1c5.2,8.43,9.91,17.21,15.76,25.15a61.53,61.53,0,0,0,14,13.21c5.44,3.85,7.86,3.08,12.85-1.35C345,69,350.53,64.41,355.62,59.4,364.24,50.91,372.6,42.15,381.07,33.51ZM278.76,115.63c-1.3-1-1.53-1.35-1.81-1.41-17.57-4.05-31.15-13-37.94-30.51-.27-.69-3.35-1.2-4.2-.56-1.79,1.34-3,3.49-4.4,5.32-4.79,6.15-9.5,12.05-18.89,10-3.83-.85-4.68,2.1-3,5.06,5.59,10.14,11.37,20.19,17.14,30.23,1.78,3.09,4.43,2.91,7.36,1.73,7.71-3.09,15.55-5.9,23.17-9.19C263.58,123.07,270.81,119.4,278.76,115.63Zm7.6-75.08c-4.29,4.11-7.88,8-11.93,11.27-2.72,2.2-3.16,4.2-1.82,7.25,5.86,13.35,13,25.82,23.84,35.85,6.15,5.67,6.74,6,13.57,1.41,7.32-5,14.31-10.43,21.8-15.94-3.86-2.18-6.93-3.5-9.55-5.44C309.7,65.6,302.86,52,295.9,38.58c-.75-1.45-2.19-2.54-3.31-3.8-1.17,1.67-2.77,3.2-3.38,5.06-.67,2-.41,4.37-.56,6.57h-1.12Zm1402-12a24.82,24.82,0,0,0,2.08,3.33c7.21,7.58,14.69,14.92,21.62,22.75,5.53,6.24,12.19,6.58,19.07,4.24a32.57,32.57,0,0,0,12.32-7.22c6.55-6.54,12.35-13.85,18.22-21,2.61-3.19,1.58-5.46-2.58-5.33-16.06.47-32.19-1.88-48.19,1.72-5.08,1.14-10.55.51-15.84.78C1693,27.89,1691.05,28.24,1688.35,28.56ZM301.88,101.94C285.6,90.37,277,74.15,269.26,57.53c-6.26,2.78-8.73,6.64-8.36,12.92.5,8.29.14,16.64.06,25a45.76,45.76,0,0,1-.65,5.31l-1.6-.14V66c-5.53,3.89-9.85,7.2-14.45,10.08-3.33,2.09-3.87,4.39-2.44,7.91,6.49,16,18.84,24.43,35.2,27.8,2.38.49,5.33,1.17,7.28.23C290.1,109.2,295.51,105.66,301.88,101.94ZM1724.31,67.7c-7.7,21.34-15,28.66-35,36.08a16.19,16.19,0,0,0,2.33,1.91c11.55,6.21,23.15,12.31,34.66,18.6,4.21,2.3,7.14,1,8.95-2.89,4.75-10.22,9.39-20.5,13.78-30.88,1.54-3.64-1.13-4.43-4-3.91-5.33,1-9-1.48-11.91-5.49-1.64-2.28-2.77-4.92-4.28-7.29C1727.64,72,1726.22,70.27,1724.31,67.7ZM96.23,53.25c-1.34,7.2-2.36,13.55-3.75,19.82-.88,4,.53,6.34,4,8.08,8.23,4.18,17,4.73,25.85,3.38,20.61-3.16,37.63-13.9,53.25-26.93,3.59-3,5.68-7.78,8.45-11.74l-1.22-1.36c-12.53,9.24-26.11,16.06-41.57,18.15C125.51,64.78,110.88,60.76,96.23,53.25ZM1643.69,67.69c7.14,6.35,13.52,11.87,19.73,17.59,3.16,2.91,5.48,2.45,8.4-.53,9.56-9.75,14.69-21.95,20.36-34,3.34-7.13,2.29-12-3.1-16.91-2.13-2-14-4.43-16.35-2.78a8.7,8.7,0,0,0-2.3,3.15C1663.93,46.7,1658.09,59.73,1643.69,67.69Zm25.48-34.89c-8.27-3.42-14.78-6.32-21.46-8.77-2.89-1.06-6.29-2.13-9.15-1.59-9.41,1.79-18.68,4.31-29.48,6.9,10.53,11.61,20.59,22.82,30.86,33.84.83.89,3.29,1.17,4.48.62,2.82-1.3,6.15-2.69,7.83-5.06C1658.18,50.39,1663.49,41.62,1669.17,32.8ZM391,25.79c-11.09,11.7-22,21.87-31.23,33.33-7.25,9-13.12,18.85-25.22,22-.15,0-.26.21-.39.31Q324.62,88.6,315,95.78c-2.42,1.82-4.81,3.68-7.21,5.52l.31,1.8c4.66.45,9.36,1.49,14,1.24,10.92-.59,19.36-6.6,26.88-13.93C367.55,72.31,379.13,49.66,391,25.79ZM187.95,42.52c-1.54,4.16-4.46,7.94-3.64,10.52,4.06,12.71,9.7,24.8,18.45,35.11A10.92,10.92,0,0,0,216,91.27c8.33-4.17,16-9.68,23.93-14.63C216.35,74.88,203.18,58.35,187.95,42.52Zm1414.7-14.64-1,1.37a16.88,16.88,0,0,0,1,3.74c6.42,12,12.48,24.26,19.54,35.9,5.08,8.37,11.55,15.85,20.41,20.81,7.65,4.29,16.24,4.33,21.49-.41Q1652.57,78.73,1641,68.22a4.86,4.86,0,0,0-1.77-.89c-7.75-2.49-11.64-8.78-15.76-15.18-4.92-7.64-10.48-14.87-16-22.08C1606.53,28.83,1604.29,28.58,1602.65,27.88Zm-597.73-4.26a26.18,26.18,0,0,0-2.71-.51c-8.11-.58-16.22-1.24-24.34-1.62a12.23,12.23,0,0,0-5.72,1.31c-9.62,4.75-14,12.9-14,23.35a31.78,31.78,0,0,0,2,11.56c1.54,3.87,5.06,4.33,8.11,1.41C980.37,47.54,992.36,35.81,1004.93,23.62Zm716.06,39c6.61,5.33,12.17,9.9,17.82,14.35,5.8,4.57,12.72,3.65,15.88-2.93,5.16-10.74,9.49-21.88,14.18-32.85,2.05-4.79-.63-8-3.52-11.77-2.52,3.28-4.62,6-6.74,8.78C1749.25,50.34,1739.28,61.57,1721,62.64Zm169.82,29.23c-2.36-6-4.25-11.64-6.82-17a36.06,36.06,0,0,0-6.45-9c-5.39-5.62-11.37-10.68-16.67-16.36-5-5.34-9.41-11.19-14.45-17.26C1849.24,64.37,1868.62,90.65,1890.81,91.87ZM134.12,61a27.47,27.47,0,0,0,6.1-.9c1.5-.5,3.76-2.24,3.7-3.3-.21-3.3,1.83-7.66-3.15-9.44C128.91,43.09,117,38.9,105.23,34.58c-6.47-2.37-7.06-2.18-7.37,4.78a42.6,42.6,0,0,1-.88,6.9c-.72,3.41.88,5.13,3.75,6.61C110.83,58.06,121.56,60.5,134.12,61Zm73.43,34.77c-2.41-1.29-4.15-2.67-6.12-3.21-11.78-3.19-21.59-9.22-29-19.05-.63-.83-3.17-1.47-3.51-1.08-3.55,4.13-8.36,8.09-9.64,12.94-.8,3,3.82,7.49,6.1,11.25a9,9,0,0,0,2.18,2C179.91,108.55,193,107.81,207.55,95.73ZM1326.29,70.55c-8.55,2.61-17.32,5.41-22.4,14.25-1.74,3-2.65,6.06.41,9,5.59,5.44,11,11.05,16.6,16.49a4.63,4.63,0,0,0,3.34,1.41c2.95-.55,9.1-8.58,8.58-11.65-1.64-9.63-3.69-19.19-5.59-28.78C1327.21,71.18,1327,71.1,1326.29,70.55ZM205.75,142.75A71.19,71.19,0,0,1,192.5,111a3.49,3.49,0,0,0-2.71-2,9.53,9.53,0,0,0-8.74,9.5c0,4,0,8,0,12l-2,0V114.35c-4.07,1.72-6.93,2.93-9.79,4.15s-3.52,3.47-1.84,6c3,4.56,5.66,9.53,9.43,13.37C186.21,147.51,193.07,148.51,205.75,142.75ZM1868.93,245.4c-.44,12.45,1.72,24.13,9,34.47,4.76,6.73,8.1,6.9,11.58-.67,3.58-7.78,5.73-16.21,8.43-24.39,1.76-5.33-1.59-8.86-4.13-13C1881.51,255.77,1878.54,253.32,1868.93,245.4ZM96.53,27.13l-1.22-.89c-1.73,1.15-3.44,2.33-5.19,3.45C84.37,33.34,79,37.79,72.75,40.36c-6,2.49-8.56,6.34-10.19,12.18-2.26,8.08-5.38,15.92-8.15,23.94.65.08,1,.25,1.25.13a23.11,23.11,0,0,0,2.58-1.5C71,66.45,81.76,55.71,91.91,44.2,96.49,39,96,33,96.53,27.13ZM91.67,82a36.79,36.79,0,0,0-1.25,3.58c-2.25,9.24-2,9.64,7.43,11.39,18.56,3.43,35.29-1.72,51-11.29,8.91-5.45,17.27-11.57,21.71-20.07C160,71.09,148.9,77.48,137.28,82.73c-9,4.06-18.82,6-28.77,4.15C103,85.89,97.74,83.81,91.67,82ZM619.86,24.63l-.65-1.08c-3.61-.46-7.21-1-10.82-1.37-15.17-1.68-28.52,4.52-42,9.88-.67.26-1.21,3.26-.64,3.86,5.48,5.74,12,9.67,20.29,8.52C600.1,42.5,608.09,30.44,619.86,24.63Zm1162,33.84a13.61,13.61,0,0,0-1.84,1.59c-6.42,9.47-14.51,16.8-25.62,20.47-1.71.57-3.09,2.15-5.61,4,5.43,3.22,9.64,6.82,14.5,8.38,11.07,3.53,26.51-7.38,27.88-19a4.53,4.53,0,0,0-.7-2.79C1787.8,66.95,1785,62.9,1781.91,58.47ZM679.27,21.33l-.16,1.52c4,3.52,7.88,7.07,11.87,10.55,1.25,1.09,2.51,2.58,4,2.93,5.38,1.24,11.08,3.53,16.22,2.69,6.72-1.1,13-4.74,19.49-7.41a15.93,15.93,0,0,0,3.16-2.32c-4.7-1.93-9.43-2.84-12.81-5.49-5.61-4.4-11.6-5.16-18.23-4.76-3.65.22-7.35-.24-11,.13C687.61,19.59,683.45,20.58,679.27,21.33Zm1073.35,112c8.06,4.81,13.29,4.75,19.62-2.5,4.61-5.28,7.95-11.73,11.51-17.85.64-1.11.2-3.89-.75-4.69-2.3-1.92-5.2-3.13-9.37-5.47V120l-1.69-.1c0-3.91.09-7.82,0-11.73-.2-7.3-1-8.2-7.74-10.57Zm28.09-81.84c6.61,12.86,16.93,21.69,29.16,28.18,11.53,6.13,23.87,8.42,36.68,4.08,1.53-.52,3.7-2.42,3.67-3.63-.11-3.72-1.15-7.42-2-12-16.26,12-31.47,6.67-46.15-1.78C1794.65,62.15,1787.93,56.62,1780.71,51.54ZM224.61,138.3c-6.33-11.92-12-22.73-17.84-33.47-.63-1.16-1.91-2.65-3-2.74-4.3-.37-9.13,4.72-8.54,8.89,1.47,10.35,4.69,20.06,11.2,28.41.93,1.19,2.74,2.8,3.83,2.59C215.36,141,220.34,139.44,224.61,138.3ZM1813.07,47a46.25,46.25,0,0,0,27.7-8.44c1.55-1.06,2.45-4,2.43-6.12s-17.53-7.42-19.57-6.49c-5.29,2.4-10.63,4.68-15.93,7.07-1.32.59-3.13,1.1-3.71,2.18-3.38,6.33-.07,11.69,7.08,11.79ZM156.44,87.34c-5.29,5.58-10,10.42-14.51,15.52-.6.69-.26,3.17.52,4,11.32,11.42,30.49,11.81,43.21.82C171.76,107.26,163.49,98.73,156.44,87.34ZM54.91,207.27c-8.09,1.81-13.87-.46-19.07-4.89-1.18-1-3.45-2.17-4.39-1.68-1.23.64-2.23,2.83-2.3,4.4-.28,5.8.56,11.73-.32,17.4-1.11,7.19,2.91,10.22,8.1,13.12,2.73,1.53,4.32.74,5.58-1.8,1.92-3.87,4-7.68,5.79-11.59C50.44,217.66,52.4,213,54.91,207.27ZM1735,127.62c2.65,1,5.8,2,8.7,3.47,3.51,1.77,6,.74,7.14-2.61,3.11-8.88,6.38-17.76,8.71-26.86,1.81-7.08-.13-9.24-7.17-11.38ZM952.37,33c-4,.33-8.1,1.18-12.08.89-17.2-1.23-34.37-2.86-51.56-4.16-1.77-.13-3.63,1-5.45,1.51,1.29,1.59,2.32,4.21,3.91,4.61,15.3,3.83,30.66,7.12,46.61,7.31C942.09,43.27,947.2,38.81,952.37,33ZM1880.1,64.73c-3-10.63-6-20.13-8.19-29.83-1.91-8.56-13.73-13.85-22.4-7.81-.76.53-1.27,2.86-.78,3.56C1857.6,43.06,1867,55,1880.1,64.73ZM1769.43,96.35l-.45,1.94c5.74,2.2,11.37,5.74,17.26,6.25,7.12.62,13.31-3.71,18.34-8.88.86-.89,1.73-3.1,1.26-3.75-4-5.56-8.26-10.9-12.84-16.8C1787.63,86,1781.36,94.39,1769.43,96.35ZM920.5,141.59c2.46-8.48,4.62-16,6.81-23.42.8-2.72.31-5.18-2.87-4.87-9.9,1-19,4.12-25.18,12.43-.87,1.16-.46,5,.49,5.51C906.53,135,913.6,138.22,920.5,141.59ZM186.08,29.53c-4.34-1.78-8.27-3-11.83-4.93-7.36-4-14.53-5.72-22.84-2.35-4,1.6-5.8,3.27-5.38,7.43a41.08,41.08,0,0,1,0,5c-.06,2.88,1.25,4.4,4.2,4.26C162.65,38.31,174.52,35.72,186.08,29.53ZM216.25,24c12.77,15,42.21,14.6,54-.22-2.31-.22-4.18-.47-6.06-.58-10.28-.58-20.55-1.49-30.83-1.55C227.88,21.58,222.42,23.06,216.25,24ZM155.05,85.5l-.66-.74L152.49,86c-14.45,9.4-30,15.23-47.54,14-4.29-.29-8.5-1.54-12.78-2-1.35-.15-2.81.74-4.22,1.16.73,1.45,1.09,3.51,2.27,4.22,2.38,1.42,5.16,2.79,7.86,3,8.92.61,17.89,1,26.83.81,3.83-.07,8.58-.52,11.26-2.77C143,98.69,148.82,91.87,155.05,85.5ZM1891.3,230l2.08.76c2.66-3,7.24-5.69,7.62-8.91,1-8.66.34-17.53.06-26.31-.09-2.83-2.23-4.17-4.32-1.83-4.25,4.76-9.28,7.25-17.05,6.64ZM34.21,196.89c-6.53-9-6.79-18.2-7.28-27.31-.15-2.71.14-5.57-3.93-5.45-3.54.1-4.83,1.93-5,5.37a137.17,137.17,0,0,1-1.76,15.81c-1.22,6.8-2.94,13.5-4.75,21.58Zm211.15-56.07c-5.37,2.91-10.41,2.64-15.27-.54a3.3,3.3,0,0,0-2.39-.39c-8.45,2.31-16.88,4.71-25.49,7.13,7.6,9.31,23.82,11.76,36.14,6.41C243.8,151.06,246.68,147.93,245.36,140.82ZM100.6,25.19c9,8.81,20.4,13.22,34.8,13.74,8.48.31,8.64.15,8.58-8.37,0-6.13-.14-6.2-6.19-5.29-7.42,1.12-14.62,1.76-21.89-1.74A13.66,13.66,0,0,0,100.6,25.19ZM29,166c.74,5.93,1.16,10.58,1.95,15.16a58.35,58.35,0,0,0,2.59,10.09c.88,2.41,2.8,3.95,5.47,1.91,3.57-2.73,7.18-5.44,10.47-8.47.77-.71,1-3.39.4-4-4.56-4.33-5.82-10-6.8-15.76-.5-2.93-1.65-4.21-4.63-3.53-1.95.44-4.09.47-5.82,1.33S29.81,165.24,29,166Zm24.85,49c-.86,3.32-3.43,7.8-2.67,11.62,1,5.16,4.3,10,7.3,14.55,1.08,1.63,4.28,2.86,6.27,2.57,1.67-.24,4-2.82,4.26-4.61,1.1-8,1.55-16.07,2.17-23.34ZM878.49,27.77c-7.82-2-14.57-4.37-21.5-5.1a24,24,0,0,0-13.16,3c-1.44.79-.51,5.95-.64,9.11a5.67,5.67,0,0,0,.16,1.49c.9,3.91,4.47,6.55,8.21,5.17,7.46-2.76,14.77-6,22-9.29C875.46,31.28,876.86,29.27,878.49,27.77ZM26.1,159.88l.69,1.34c2.26-.69,4.84-.91,6.74-2.17,8.88-5.88,13.43-14.47,14.55-24.94a4.17,4.17,0,0,0-.89-3.18c-4.85-4.12-9.86-8.05-15.61-12.68C32.56,133.31,35.24,147.4,26.1,159.88ZM4.27,207.26l2,.58c1.09-1.47,2.85-2.82,3.15-4.44,2-10.92,3.82-21.89,5.46-32.87.32-2.14.6-4.9-3-5.23-5.79-.54-9.48,1.1-9.58,4.93-.19,7.64-.1,15.3.24,22.93C2.82,197.87,3.69,202.56,4.27,207.26Zm1749.7-70c-7-2.51-14-5-21-7.41a3.6,3.6,0,0,0-2.79.52c-4,2.81-8.13,3.21-13.76.1.9,4.24.59,7.93,2.29,10C1726.69,149.94,1746.93,148.11,1754,137.24ZM39,50c7-2,13.22-3.74,19.36-5.7,5.21-1.67,9.19-8.68,8.4-14.28-.5-3.53-5.33-6.76-11.06-6.89a5.53,5.53,0,0,0-4.23,2.28C47.34,33.15,43.51,41.06,39,50ZM1891,152.09c-.2.26-.53.49-.59.77-1.39,7-1.81,14.25-6.79,20-.45.52-.1,2.4.51,3,3.47,3.66,7.14,7.15,11.47,11.41,1.17-2.7,2.11-4.1,2.36-5.62,1.1-6.54,2.45-13.1,2.87-19.7C1901.42,153.26,1900.35,152.5,1891,152.09ZM1865.67,209c.74,8.1,1.19,16.35,2.36,24.48.62,4.31,4.37,5.57,7.26,3.13,6.89-5.83,8.87-21,3.88-28.47Zm20.67,78.38c6.16,4.25,12.49,3.87,18.73,3.29,1.06-.1,2.65-2.08,2.79-3.33.6-5.43.88-10.9,1-16.36,0-1.53-.95-3.07-1.46-4.61l-1.63.3v21.76c-3.56-10.69,1.1-22.34-5.06-33.87C1897.94,267.25,1894.79,278.2,1886.34,287.41ZM72.91,165.52c-5.42,14.87-10.6,29-15.65,43.19-.35,1,.17,3.29.6,3.37,3.3.64,6.9,1.74,9.94.94,1.8-.47,3.67-4,3.94-6.38.81-7.07,1-14.22,1.15-21.34C73,178.92,72.91,172.54,72.91,165.52ZM47.34,291.32c-10.48-8-13.54-19.6-17.58-31.1-1.65,2.63-3.41,5.27-3.56,8-.43,7.8-.3,15.64-.15,23.45,0,1.09,1.28,3,2.1,3.1C34.59,295.31,41,295.12,47.34,291.32ZM924,107.89c4.84-7.7,9-15.45,14.24-22.33S950,72.5,956,66l-.75-1.23c-2.46.72-5.5.76-7.28,2.28-7.29,6.23-14.6,12.54-21.06,19.58-3.1,3.38-4.65,8.35-6.33,12.82A6.22,6.22,0,0,0,924,107.89Zm980.21,43.57c-7.92-13.94-6.89-28.46-4.9-43.3-14.3,10-16.33,16.52-9.68,30.73a24.63,24.63,0,0,0,3.15,5.08C1895.57,147.4,1898,151.5,1904.19,151.45Zm-939-128.29c-3.28,1.06-6.52,2.23-9.83,3.15-12.25,3.38-24.84,5.28-36.13-1.83-12.57-7.92-23.68-1-36.58.93a14.51,14.51,0,0,0,2.44,1.29,290.26,290.26,0,0,0,64.07,4.13C955.25,30.53,961.34,29.24,965.21,23.16ZM155.27,125.36c-12.7,2.05-14.28,4.35-11.34,16.2.24,1,.48,1.94.78,2.89,2.56,8,11,10.48,18,5.41-1.65-4-3.61-7.87-4.85-12S156.11,129.54,155.27,125.36ZM10.89,95.83c4,5.4,19.91,10.58,26.53,8.17a2.32,2.32,0,0,0,1.22-.79C41.8,97.42,44.91,91.6,48,85.85ZM350,25.1c-4-4.5-8.55-6.59-14.37-6.1-4.29.36-8.66-.15-13,.14s-8.69,1.09-13.82,1.77C323.49,33.15,338.59,34.52,350,25.1ZM199.2,89.45,181,54.8c-2.4,3.54-5,6.63-6.67,10.15-.87,1.82-1,5,0,6.55A42.79,42.79,0,0,0,199.2,89.45Zm735.86-41-.48-2.23c-7-.83-14.12-1.38-21.1-2.56-8.37-1.41-16.63-3.43-25-5-1.22-.23-2.64.55-4,.86.37,1.38.45,3,1.21,4.08A6.72,6.72,0,0,0,889,45.77c11.72,4,23.67,7.09,36.18,6.07C928.56,51.57,931.78,49.66,935.06,48.5ZM184.71,148.25l.3-1.53c-9.79-5.13-16.05-13.29-20.81-22.85-.44-.88-3-1.79-3.38-1.42-1.19,1.07-2.76,3-2.47,4.23,1.59,6.74,3.54,13.42,5.73,20,.5,1.5,2.53,3.61,3.76,3.55C173.48,149.93,179.09,149,184.71,148.25Zm-21.86-29.1a50.25,50.25,0,0,1-5.17-1.77c-5.32-2.64-10.86-5-15.83-8.18-4.53-2.93-7.91-2.25-8.41,3.27-.41,4.54.34,9.24,1.15,13.77.18,1,3.13,2.53,4.22,2.15C146.48,125.72,154,122.62,162.85,119.15Zm227.46-100C383.74,21,377,22.37,370.67,24.93c-5.05,2.06-9.63,4.37-15.16,2a4.66,4.66,0,0,0-3.35.19C348,29,343.88,31,339,33.34c11.32,2.61,21.75,1.87,32.1-.69C378.85,30.74,386.93,29.29,390.31,19.18ZM1865.06,159c0,11.27,0,23.37,0,35.47a42,42,0,0,0,.53,5c.12,1,.27,2,.46,3,.82,4.07,3.69,4.85,7.17,4.16s5-2.75,3.76-6.54q-4-12.1-7.55-24.32C1867.75,169.85,1866.35,163.93,1865.06,159ZM39,121.69c2.73,1.68,5.49,4.84,8.17,4.77,9.6-.27,19.26-1.2,27.68-6.77,6.89-4.56,9.77-10.6,9-19.18C73.21,114.73,61.86,121.41,39,121.69Zm46.4-11.62c-.82,3.49-1.4,7-2.52,10.42-1.45,4.37.52,6.65,4.43,6.89a89.63,89.63,0,0,0,16.78-.31c3.8-.48,7.41-2.44,11.11-3.74-5.55-2.57-10.84-3.28-15.62-5.21S90.46,113,85.41,110.07ZM1885.83,73.42c1.58,4,3.39,8.59,5.25,13.19,2.59,6.42,3,6.69,10,5.46,3.09-.54,6.37-.93,9.1-2.3s5-3.94,7-5.62Zm-991.77,50.2,1.52-.9c-1.5-2.22-2.56-5.76-4.57-6.43-9.54-3.19-19.29-5.85-29.09-8.15-4.22-1-7.37,1.8-9.85,5.15ZM1788.24,141c10.39,3,13.33,1.37,15.33-8.79a49.26,49.26,0,0,0,.48-5.94c.59-8.08-.48-9.42-9-11.28Zm-16.09-99.34-14.79,34.64c.44,0,1,.26,1.36.09,8.95-4.1,15.44-10.8,20.05-19.36a4.64,4.64,0,0,0,.06-3.74C1776.88,49.47,1774.61,45.85,1772.15,41.64ZM779.46,94.86a50.16,50.16,0,0,0-7,.44c-1.34.29-3.23,1.06-3.58,2.07s.8,2.74,1.76,3.67a105,105,0,0,0,9,7.88c2.52,1.94,5.36,3.46,8.07,5.16q2.58-5.55,5.15-11.11a1.5,1.5,0,0,0,.05-.49c.29-3.72-1-6.11-5.08-6.52C784.7,95.64,781.58,95.15,779.46,94.86ZM250.24,38.29c6.36,2.65,26.43,2.32,34.11-1.33,1-.48,2.33-1.86,2.27-2.73a4.84,4.84,0,0,0-2.17-3.39,76.09,76.09,0,0,0-10-4.43,5,5,0,0,0-3.61.49C263.67,30.77,256.57,34.77,250.24,38.29Zm1539.12,70.35c6.09,3,12.27,6.19,18.59,9.06.81.37,3.33-.73,3.38-1.3.49-5.73,1.16-11.54.67-17.23-.26-3-2.52-4.6-6.09-1.72C1800.93,101.47,1795.3,104.69,1789.36,108.64Zm-.39,2-1.72.63c-3.43,10.53-9.66,19.11-19.62,26.74,4.93.86,8.35,1.24,11.65,2.09,4.39,1.12,6.78-.77,7.72-4.76,1.6-6.76,3.13-13.55,4.29-20.39C1791.5,113.64,1789.79,112,1789,110.61ZM86.82,105.8c6.62,9.58,16.66,12.64,27.88,13.11,5.89.25,12.49-4.2,14.38-8.85-6.88,0-14,.55-21-.15S94,107.24,86.82,105.8ZM56.34,156.86c-3.32.9-6.1,1.5-8.73,2.47-.84.31-2,1.78-1.85,2.46,1.17,5.11,2.19,10.34,4.16,15.15,1.35,3.29,4.39,3.33,6.7.37s5.24-5.91,6.31-9.35c.57-1.85-2.21-4.72-3.44-7.16a10.76,10.76,0,0,0-1-2.27A11.77,11.77,0,0,0,56.34,156.86Zm1836.91-47.41c-8.49,1-16.26.09-22.59-4.34-6-4.2-11-9.91-16-14.57,1.31,13.94,3.85,18.41,19.25,23.35,2.67.85,5.6.85,8.33,1.52C1887.45,116.69,1890.23,113.78,1893.25,109.45Zm-1864,12c-5.1,2.76-6.32,5.89-6.34,10.12,0,10.34-.76,20.62-6.75,29.66-.1.16.17.56.27.85,5.57-.37,6.43-.61,8.94-4.88C31.89,146.2,30.14,134.33,29.3,121.48Zm1799-10.86c4.82,6.43,20.48,9,25.72,4.79a5.52,5.52,0,0,0,1.5-4.29c-.48-4.06-1.45-8.07-2.36-12.78C1846.25,105.53,1838.39,109.67,1828.34,110.62ZM481.06,117.87l-.11,1.53c1.32.18,3,1,3.92.43,5.72-3.24,10.5-7.5,10.06-14.78-.53-8.94-1.44-17.86-2.46-26.76-.28-2.48-1.52-4.85-2.32-7.27-1.43,11.82-2.68,23.39-2.44,34.92C487.83,111.85,486.41,115.55,481.06,117.87Zm846.36-92.7c-4.62,1.27-8.6,2.24-12.47,3.55-.81.27-1.55,1.72-1.74,2.74-1,5.38,4,14.22,9.27,15.81,1.39.42,4.7-.73,4.73-1.28C1327.54,39.32,1327.42,32.63,1327.42,25.18Zm-404.32,32-.46-1.57c-1.06-.26-2.11-.55-3.18-.77-9.26-1.92-18.49-3.94-27.79-5.64-1.68-.31-3.61.71-5.42,1.11,1,2,1.68,5.36,3.11,5.73a165.15,165.15,0,0,0,24.3,4.74C916.65,61,919.94,58.42,923.1,57.14ZM60.1,193.21c-3.91-.86-7.73-1.84-11.61-2.48a6,6,0,0,0-3.59,1,66.39,66.39,0,0,0-5.72,3.93c-3.47,2.53-3.64,4.46.13,6.68C49.55,208.36,57.59,208.13,60.1,193.21Zm84.57-40.42C143,146,141.57,140,139.8,134a4.09,4.09,0,0,0-3.36-2.07c-6.06.86-7.74,2.91-7.29,8.92a34.8,34.8,0,0,0,1.78,8.7c.45,1.3,2.07,2.93,3.32,3.08A86.84,86.84,0,0,0,144.67,152.79ZM959.16,60.92c-5.28-8.16-2.74-17.19-1.78-26.88-2.78,1.88-4.55,3.06-6.3,4.26-6.42,4.41-7.33,6.93-5,14.26a41.4,41.4,0,0,0,2.31,6C950.79,63.47,953.6,64.12,959.16,60.92ZM1307.7,29.47l-.12-1.28c-10.05,2.64-18.19-2.08-26.64-6-3.1-1.43-6.72-1.75-10.1-2.57l-.49,1.76c8.6,5.33,18.15,8.32,28,10.9a30.79,30.79,0,0,1-9.68-.93c-3.11-.76-6.15-1.84-10-3,8.77,10.69,24.28,13.32,27.8,5.15l-4.58-1.63ZM1852,94.07c-5.91,1.59-11.69,3.78-17.66,4.56s-12.27.17-19.55.17c4,3.3,7,7.28,10.87,8.64C1832.34,109.77,1849.44,103.81,1852,94.07ZM880.1,31.1c-4.78,2.55-9.19,5.13-13.79,7.3s-9.56,4-15.21,6.38c3.57,2.62,4.91,7.15,9.62,5.39a71.44,71.44,0,0,0,13.13-6C880.11,40.26,881.58,36.45,880.1,31.1Zm-47.43,86.39c2.85,4.36,3,4.41,7,1.49,6-4.47,8.81-23.89,4.16-29.86-.66-.85-2.15-1-3.26-1.54a32.54,32.54,0,0,0-1,3.51C838.08,100.08,839.56,109.85,832.68,117.49Zm1054.9,36.06c-.48-1.17-.69-3-1.47-3.3a29.9,29.9,0,0,0-8.91-2c-1.46,0-4.8,11-4,12.43a54.89,54.89,0,0,0,4.21,6.74c.93,1.21,2.82,2.93,3.69,2.65a6.33,6.33,0,0,0,3.41-3.74C1885.81,162.23,1886.57,158,1887.58,153.55ZM327.45,33.48c-6.12-3-11.72-5.46-17.11-8.34-6.94-3.71-12.08-1.31-14.12,7.38C306.45,34.63,316.61,36.19,327.45,33.48ZM851.77,48.72l-5.92,35.52c8.74-3.39,9-11.14,10.62-17.32C858.3,60.16,859.34,52.64,851.77,48.72ZM702,42a9.54,9.54,0,0,0,1.23,1.7q16.87,14.4,33.82,28.71c.88.74,2.34.79,4.27,1.39C735.84,62,712,43,702,42Zm142.49-.41c-4,4.3-4.46,8.06-3.87,13.18,1.09,9.42.31,19.05.31,28.6l1.72.08c4.06-11.63,6.18-23.6,5.1-36C847.59,45.51,845.73,43.71,844.5,41.58ZM7.76,128c7.19,1.69,12.3-.8,12-5.78A68,68,0,0,0,18.05,109c-.66-2.55-2.81-4.72-4.78-7.84Zm887.24.47c-14-6-28-11.62-43.51-11.51A19.19,19.19,0,0,0,836,126C856.21,117.59,875.55,123.68,895,128.52ZM491,26.2c-1.15,3.71-2.35,7.29-3.36,10.93s1.09,5.81,4.13,4.14a77.23,77.23,0,0,0,13.71-9.62c2.63-2.31,1.32-5.14-2.25-5.38C499.14,26,495,26.2,491,26.2ZM1803.32,142.1c7.83,2.33,11.08,1.23,12-4.9,1.72-11.62,1.39-14.87-7.13-16.11ZM1770,25.59a24.34,24.34,0,0,0,2,2.68c4.4,4.4,22.63,7.18,28,4.17a3.68,3.68,0,0,0,1.7-2.66,3.18,3.18,0,0,0-1.83-2.44C1790.09,25.34,1780.39,24,1770,25.59ZM927.59,111.13l1.26.16,32.39-45.8a132.14,132.14,0,0,0-30.9,35.66C928.67,104,928.47,107.78,927.59,111.13Zm20.6-46.23c-2.22-6.65-3.65-11.37-5.44-16-.35-.9-2.69-2-3-1.76-2.6,2.17-6.37,4.36-6.95,7.14s1.4,7.38,3.74,8.89C939.33,65,943.7,64.38,948.19,64.9ZM847.26,86.11v25.95l2,.8c2.22-2.8,5.87-5.39,6.33-8.46.71-4.73-.38-9.87-1.43-14.67C853.22,85.55,850.39,84,847.26,86.11ZM892.15,113c1.06-5.38-1-7.28-11.34-10.89-9.27-3.22-14.51-2.22-17,2.86ZM497.64,99.73c6.07-7.72,6-24,.54-30.2-.84-1-2.79-.92-4.23-1.35-.25,1.3-.89,2.66-.68,3.88.71,4.07,1.92,8.06,2.57,12.14C496.6,89,497,93.9,497.64,99.73Zm293.14-67.4c-5.94,3.06-8.44,11.07-6.51,22,.72,4.07,1.77,8.3,6.51,9.75Zm5.3-8.21-.67-1.74c-4.1,0-8.57-1.06-12.21.23C776.53,25,770.91,23.69,765,20.7c-1.41-.72-3.51-.09-5.29-.08,1.22,1.44,2.27,3.93,3.68,4.16a233.77,233.77,0,0,0,25.08,2.92C791,27.82,793.55,25.38,796.08,24.12Zm-755.75,134c8.5-.46,16.61-8.92,16.05-18.22-.11-1.9-2.52-3.66-3.7-5.26Zm81.76-38c-3.52,2.7-6.88,4.51-9.07,7.25-1.29,1.62-1.27,4.84-.73,7.07.21.87,3.58,1.67,5.29,1.35,3.17-.6,6.18-2,9.37-3.18ZM502,99c7.06-3.45,14.47-6.94,21.7-10.75,1-.55,1.77-2.71,1.64-4-.08-.74-2.23-1.87-3.4-1.82C512.52,82.92,504.67,89.71,502,99ZM941,69.09,940.33,68c-1.66.73-3.66,1.09-4.92,2.25a202.94,202.94,0,0,0-14.89,14.62,32.28,32.28,0,0,0-5.82,10.24c-.69,1.88.56,4.47.93,6.74l2.08.13C919.78,87,931,78.48,941,69.09Zm-19.44,40.59c-4.07-4-10.46-3.51-18.92,1.58-5.42,3.26-6.42,5.61-5.07,10.35ZM909.72,96l19.93-25.68a14.65,14.65,0,0,0-2.92,0c-6.23,1.33-18.18,15.06-18.44,21.44C908.23,93.3,909.3,94.85,909.72,96ZM147.1,59.9,173,49.57c-7.29,0-13.06.46-18.73-.11C146.08,48.64,144.68,50,147.1,59.9ZM712.79,41.45c7.05,3.47,23.13-.32,26.88-6,.64-1,.25-3.12-.43-4.28-.34-.58-2.63-.57-3.66-.06-4.3,2.1-8.37,4.67-12.7,6.72C719.83,39.23,716.51,40.12,712.79,41.45Zm175,17.22c-.61,5.46,1.35,8.23,6.26,8.84,3,.37,5.89,1.17,8.85,1.35,3.58.22,6.78-.64,8.16-4.89ZM480,33.84c4.29.72,5.73-1.9,5.82-6.09s-2-5.84-5.83-5.54c-3.24.24-7.14,0-7.52,4.6C472.14,31.14,475,33.77,480,33.84Zm379.56,69.63c7.43-4.27,8.42-14.1,2.39-18.74-1.08-.83-3.09-.81-4.58-.59a3,3,0,0,0-1.68,2.44C856.79,92.08,858.16,97.52,859.56,103.47ZM26.42,226.71V202.83c-3.43,2.54-8.43,1.71-8,6.55C19,215.47,21.34,221.14,26.42,226.71ZM796.14,28.59c-5.51,11.92-4.92,32,0,36.29Zm1096.52,7.25c-4-11.74-7.73-14-17.17-11.46a4.75,4.75,0,0,0-2.71,2.32c-.21.45,1,2.1,1.89,2.45C1880.28,31.38,1886,33.39,1892.66,35.84ZM726.19,45.7c3.07,1,5.18,1.68,7.31,2.3,4.83,1.42,9.65-.09,12-4.36.72-1.31.13-3.64-.49-5.27-.28-.75-2.41-1.62-3.12-1.27C736.93,39.6,732.12,42.4,726.19,45.7Zm1096.24,63c-.79,3.12-1.14,4.73-1.6,6.3-2.23,7.64-2.19,7.5,5.14,10.47,3.46,1.4,4.37,0,5-3.05C1832.38,115.5,1826.05,113.9,1822.44,108.74Zm-941-67.2-19.6,12.13c2.4,4,5.64,3.79,9,1.85C881.93,49,884.34,46.85,881.44,41.55Zm-41.82-4.64c-2.39-3.44-3.77-6.86-6.3-8.38-1.07-.64-6.92-.8-7.08,3.84s4.64,10.2,8.32,9.52C836.15,41.59,837.37,39.22,839.62,36.91ZM104.11,151.15c10.74,3,13.08.74,12.81-11.81C108.37,140,107.25,141,104.11,151.15ZM1801.9,45.33c0-2.76.29-4.91-.11-6.92-.23-1.13-1.59-2.85-2.49-2.89-6.25-.25-12.51-.13-19.1-.13C1786.77,39.78,1793.09,44.14,1801.9,45.33ZM128.63,152.56c-.91-4.6-1.67-9-2.71-13.24-.25-1-1.46-2.57-2.18-2.54a3.9,3.9,0,0,0-3,2c-1.2,4.37-2,8.84-3,13.75ZM760.8,27.42l-1.16,1.2c1.37,1.18,2.56,3,4.14,3.43,5.12,1.38,10.37,2.25,15.58,3.3,4,.8,5.95-1.34,7.23-4.53Zm26.93,66c-2.83-4.74-13.24-9.65-17.53-7.91-1.46.59-2.53,3-3,4.84-.18.76,1.68,2.88,2.69,2.93C775.8,93.57,781.69,93.42,787.73,93.42Zm538.58,27.15c2.62.77,4.41,1,5.94,1.8,6.42,3.18,8.17,3.12,12.41-1.59.74-.82.33-2.67.45-4-1.38.12-3-.19-4.09.47-1.72,1.08-3,2.79-4.54,4.24l-.52-.67,4.16-8.21-1.38-1ZM763.58,95.1c-1.84-9.44-14.44-22.25-22.15-19Zm97.48-37.9-6.43,24.62c7.67-1.13,7.25-7.38,8.63-11.77S867.17,60.69,861.07,57.2ZM789.24,91l1.08-.5c.78-7,1.68-13.93,2.21-20.92.07-.92-1.58-2.51-2.68-2.79-.7-.18-2.61,1.42-2.71,2.35a114.73,114.73,0,0,0-.83,15.77C786.37,87,788.2,89,789.24,91ZM114.77,156.62,113.7,155c-3.22.18-6.51,0-9.64.68-1.65.34-3,2.09-4.5,3.21,1.56,2,2.79,4.57,4.81,6,1.13.78,4.19.34,5.26-.7C111.76,162,113.1,159.16,114.77,156.62ZM81.49,128.79c-1,2.24-3.1,5.61,2.15,6.42,7.57,1.17,14.61-.74,21-4.83ZM50.72,130.1c4.28,5.14,9.32,1.71,13.85.39,9.16-2.68,14.44-6.77,14.75-9.54ZM929,54.92c-3.15,2.43-5.91,4.08-7.94,6.37-.76.86-.25,4.47.36,4.67,4.11,1.29,8.46,3.06,13-.3Zm-14.52,48.48c-2.31-3.6-6.27-2.49-9.86-1.94-3.81.58-7.63,1.54-9.2,5.78-.28.75-.54,2-.17,2.38.93.85,2.6,2.11,3.32,1.78C903.85,109,909,106.17,914.44,103.39ZM827.85,49.34c-2.26,9,.81,13.93,8.52,14C838,54.79,835.82,51,827.85,49.34ZM781.6,40.91c-4.5,1.9-7.37,4.08-6.12,8.84,1.2,4.57.74,10.28,7.39,12.38ZM528,82.88,551.31,66.7C542.21,65.08,526.37,75.79,528,82.88Zm377,8,12.16-17.94c-6,.35-13.52,6-14.72,11C901.67,86.88,902.12,89.47,904.92,90.85Zm-126.68-53c-4.63-1-8.76-2.1-12.93-2.85-1.22-.22-2.59.45-3.9.71.32,1.53.15,3.48,1,4.52C767.22,45.75,774.16,44.87,778.24,37.87Zm1047.42,91.24c1.63,4.7,2.74,9.22,4.91,13.15.48.86,4.71-.34,7.52-.63C1835.35,135.52,1835.09,128.74,1825.66,129.11Zm1.07,13.53c-3.42-5.56-.52-12.63-6.84-17.44l-3,17.88ZM6.2,290.35A81.62,81.62,0,0,0,15,293.2c.79.17,2.69-1.1,2.74-1.8.26-4.32.13-8.66.13-13l-1.2-.19ZM1828.8,146.12c1.94,7.5,4.81,11.07,7.76,9.32a10.13,10.13,0,0,0,4.37-6.86C1841.16,145.87,1834.05,144.47,1828.8,146.12ZM508.48,25.89c4.31,2.82,17.39,2.78,20.55,0,1.28-1.12,1.7-3.22,3-5.91Zm78,22c-6.69-.88-23,9.93-26,16.45l.82,1.21Zm282,11c3.5,4.51,5.85,4.61,11.59,1.49,4.13-2.25,4.63-5.43,2.88-10-2.45,1.68-4.49,3.26-6.71,4.55C873.92,56.41,871.39,57.52,868.52,59ZM573.65,45.32c-3.77-3.07-7.44-6.28-11.38-9.1-.83-.6-2.83-.1-4,.49a3.13,3.13,0,0,0-1,2.83C559,45.36,568.3,48.57,573.65,45.32ZM783.53,82.13c.46-5.24,1-9.83,1.12-14.42a4.11,4.11,0,0,0-2.52-3.06c-.93-.22-2.78,1-3.31,2C776.33,71.46,778.25,78.13,783.53,82.13Zm1100.14,37.79-25.79-10.28c5.1,7.24,12.09,10.43,20,11.91C1879.48,121.85,1881.38,120.6,1883.66,119.91ZM158.38,154.15l-19.56,1.35C146.36,163.1,154.24,162.66,158.38,154.15ZM57.76,135.3c4.61,4.4,9.05,1.3,13-.17,6-2.22,7.65-4.82,7.27-8.37ZM573.33,48.8c-2.7.58-4.65.52-6,1.39A147,147,0,0,0,554.73,59c-1,.75-1,2.68-1.46,4.07,1.63-.27,3.69,0,4.8-.9C562.93,58.22,567.51,54,573.33,48.8ZM549,39c-6.43-1.46-11.51-2.8-16.67-3.65-1.16-.19-2.6,1.32-3.91,2,.67,1,1.16,2.7,2,2.94C536.28,42,542.12,42.77,549,39ZM505.38,83.74c3.68-5.6,4.12-11.5.89-15.5-1.25-1.54-3.55-2.24-5.37-3.32l-.68,1.23ZM107.72,131c-4.27,4.13-10.42,5-12.82,10.94a47.52,47.52,0,0,0,9.67-1.91C110.92,138.3,110.91,138.29,107.72,131ZM23.28,295.13V270.36C19,274.85,18.74,288.36,23.28,295.13ZM745.89,70.42l18.94,17A31.84,31.84,0,0,0,752,70.26C750.81,69.46,748.52,70.3,745.89,70.42Zm1076-47.9V21c-5-2.49-10.45-1.95-15.79-1.36-.81.09-1.7,2.15-1.93,3.41-.08.43,1.84,1.82,2.73,1.72C1811.9,24.16,1816.89,23.29,1821.89,22.52ZM508.74,84.43c4.33-1.5,8.23-2.66,12-4.25,1.14-.49,1.79-2.15,2.66-3.28-1.37-.8-2.87-2.43-4.1-2.24C514,75.42,509.91,77.84,508.74,84.43ZM207,31l22,4.94a152.43,152.43,0,0,0-14.43-8.72C211.4,25.4,209.33,26.63,207,31ZM482.75,69c-2.15,1.77-5.09,3-5.38,4.71-.41,2.38,1,5.17,2,7.59.18.4,3.35.33,3.94-.45C486,77.42,484.91,73.79,482.75,69Zm3.87,26.44c-2.17-2.46-3.36-5.07-5-5.42-3.11-.65-4.84,1.45-4.44,4.85.33,2.85.49,6.39,4.15,6.18C482.91,101,484.36,97.93,486.62,95.44Zm386.22,1.74,19.07,6.59C890.25,96.35,880.29,93,872.84,97.18Zm986.66,18.74c2.25,8.68,12.06,13.45,17.26,8.72ZM553,36.76l.33-1.89c-6.43-1.94-12.84-4-19.31-5.72-.88-.24-2.09.75-3.15,1.17.65.95,1.15,2.56,2,2.73C539.53,34.44,546.28,35.56,553,36.76Zm-533.32,68,11.64,10.06,5.35-8.16Zm720.74-77c3.77,4.86,12.15,6.88,15.62,4.58.88-.58,1.29-2.09,1.52-3.25.06-.29-1.42-1.25-2.21-1.27C750.77,27.69,746.19,27.75,740.42,27.75Zm598.13,8.07c-.85-4.08-1.35-7.44-2.35-10.65-.25-.82-2.07-1.58-3.15-1.55-.65,0-1.62,1.51-1.85,2.48C1329.83,32,1331.27,34.28,1338.55,35.82Zm506.34,96.53,1.27-1.93-11-9.51-2,1c.55,2.29.36,5.65,1.8,6.64C1837.75,130.51,1841.51,131.16,1844.89,132.35Zm-516.08-77a23.38,23.38,0,0,1-2.7-1.47c-1.15-.85-2.19-1.82-3.28-2.74-.88,1.33-2.52,2.69-2.49,4,.06,2.19,1.18,4.35,2,7l2.94-2,2.14,4.12ZM492.43,47.8V65.33C497.14,62.45,497.93,52.1,492.43,47.8ZM129.35,115.15c-4.5,3.24-4,13.61.41,15.57.52.23,1.62.28,1.79,0a4.09,4.09,0,0,0,.77-2.6C131.48,123.93,130.43,119.77,129.35,115.15ZM864.66,82,869,96.21l1.69.39c.84-2.16,2.62-4.48,2.31-6.46C872.34,86.19,870,83,864.66,82ZM528,30h-12.8a2.07,2.07,0,0,0-1,.08c-.92.56-2.07,1-2.55,1.87-.25.43.54,1.86,1.21,2.33C515.59,36.21,525.94,33.38,528,30ZM780.8,84.26c-2.38-5.71-6.62-7.13-11.83-6-1.08.23-2,1.74-2.66,2.88-.15.27,1.2,1.94,2,2C772.33,83.68,776.4,83.9,780.8,84.26Zm15.18,15c.29-4.93.78-8.84.67-12.74s-.83-7.59-1.28-11.38L794,75.3C792.62,83.15,791.84,91,796,99.27ZM561.55,47.7c-2.65-2.45-4.71-4.85-7.26-6.45-1.05-.66-3.18.39-4.82.66.26,1.28.12,2.87.85,3.77C553.13,49.19,556.7,49.95,561.55,47.7Zm265.1,47c1.71,2.69,2.74,5.67,3.74,5.67,4.08,0,4-3.84,4.17-6.61.08-1.12-1.83-2.39-2.84-3.59ZM1330.4,67.62c2.09,2,3.21,3.88,4.64,4.15,2.91.55,4.08-1.48,3.85-4.28-.21-2.55-.48-5.57-3.86-5C1333.54,62.74,1332.43,65.26,1330.4,67.62ZM543.18,65c-6.27-2.3-17.71,4.26-17,9.8Zm328,17a64.7,64.7,0,0,0,3.71,5.69A14.17,14.17,0,0,0,878.1,90c.88-1.47,2.45-2.93,2.5-4.43C880.74,80.84,876.49,79.27,871.21,82ZM836.5,79.94c-1-2.62-1.14-5.32-2.53-6.29s-4.82-1.15-5.91-.13-.71,4-1,6.42ZM246.13,133.2l-14.39,5.35C239.36,142.43,244.33,140.83,246.13,133.2Zm1567.6-12.13c6.24-6,6.72-14.57,1.93-17.52Zm86.27-18,8.77-9.87-13.64,2.51Zm-1391.51-70-14.7,10.64C499.95,45.48,508.28,39.46,508.49,33.07ZM867.72,62.3l-4.44,17.28C869,77.21,871.3,68.71,867.72,62.3Zm39.69,35.28c-3.79-3.43-7.5-3.29-10.79-1-1.51,1.05-2,3.65-3.3,6.4ZM747.27,35.64c1.38,3.93,6.48,6.61,9.67,4.94a3.73,3.73,0,0,0,1.66-3A3.53,3.53,0,0,0,756,35.35,83,83,0,0,0,747.27,35.64Zm584.11,16.87c3-1.18,6.67.52,6.23-4.07-.32-3.35-1.62-6.15-6.23-5Zm-48.07-16.3L1281,50.81c3.35.36,4.47-2.34,5.36-5C1287.66,42.06,1287.14,38.65,1283.31,36.22ZM22.36,122.35l1.41.77c1.5-2.17,4.53-4.67,4.15-6.43-.55-2.53-3.58-4.52-6.46-7.76ZM741.71,24.57c10,2.87,14.7,1.54,14.35-4Zm.83,24.09.73,2c2.89.43,6,3.82,8.5-.46.62-1.06-.76-3.29-1.22-5Zm24.53,18.4-1.92.78c.28,2.38-.23,5.51,1.09,6.93s4.39.75,6.71,1l.59-1.66Zm951.54,56.46-1.72,1.07c.86,1.6,1.35,3.72,2.67,4.69,2.72,2,5.75,2,9.16-1.26ZM298.69,23.21c-3.18,0-5.26-.45-7,.16-1.15.41-2.19,2.21-2.49,3.56-.23,1,.8,2.29,1.27,3.45a16.2,16.2,0,0,0,3.68-1.86C295.52,27.35,296.54,25.79,298.69,23.21Zm-205,126.65c5.5,2,8.67.8,9.68-3.11a3.25,3.25,0,0,0-.34-2.67,2.72,2.72,0,0,0-2.65-.16C98.08,145.68,96,147.7,93.64,149.86ZM274.3,24.24l11.87,5.1C287.14,22.91,284.35,21.71,274.3,24.24ZM477.07,41.62c0,3.6.55,6.51,4.69,6,1-.13,2.65-2.34,2.52-3.42C483.74,39.66,480.49,40.82,477.07,41.62ZM872.66,67.45l-2.29,10.43L871.72,79c1.46-1.25,3.58-2.22,4.24-3.8C877.15,72.36,876.54,69.51,872.66,67.45ZM69.24,162.23l-5.4-7.69c-1,.92-3,2.25-2.77,2.69a29.93,29.93,0,0,0,4,6.85C65.29,164.34,67.54,163,69.24,162.23ZM901.55,72.74l-.28-1.43c-3.08-.57-6.15-1.33-9.26-1.61-.87-.08-1.87,1.22-2.82,1.88.81,1,1.7,3,2.42,2.91A95.24,95.24,0,0,0,901.55,72.74ZM773.8,60l1.49-1.41-2.82-9.51-1.75-.18c-.76,2.11-2.56,4.55-2,6.25C769.33,57.13,772,58.44,773.8,60ZM875.56,65.1c2.65,3.84,5.83,3.14,8.71,2.27.73-.22,1.26-2.44,1.12-3.65-.06-.58-2.05-1.52-2.92-1.31A53.66,53.66,0,0,0,875.56,65.1ZM903.83,76l-1.21-1.27a81.4,81.4,0,0,0-7.43,7c-.23.26,2.27,2.88,3.64,4.56Zm914.8-49.32c-16.53,1-15.47.18-14.07,5.2ZM525.35,36l-12.71,1.9C517.91,42.48,522.33,41.77,525.35,36Zm12.93,10.25-.1-1.86c-3.08-.63-6.13-1.42-9.24-1.77-1-.11-2.06,1-3.09,1.57.69.8,1.36,2.25,2.08,2.28C531.37,46.65,534.83,46.4,538.28,46.29ZM1325.67,114l1.52,2c2.6-1.5,5.28-2.87,7.73-4.58.61-.42.44-1.95.63-3-1.07-.14-2.52-.8-3.14-.34C1330,109.81,1327.89,112,1325.67,114Zm545,40.92c4.58-4.25,4.67-8.32.09-10C1870,148.21,1866.7,151.39,1870.68,154.88ZM53.45,154.21c7.2-5.23,9.68-10.81,5.73-13.39Zm720.73-82.3,1.48-.55c.3-2.09,1.09-4.27.72-6.23-.24-1.28-2.16-2.25-3.33-3.36-.54,1.26-1.73,2.66-1.5,3.75C772,67.74,773.27,69.79,774.19,71.91ZM539,49.74l10.61,1C545.7,43.33,544.35,43.16,539,49.74Zm777.56-2.53-6.4-14.56C1307.27,38,1309,42,1316.52,47.21Zm-521,56.53c-1,2.58-2,4.77-2.68,7a2.76,2.76,0,0,0,.63,2.5,3.36,3.36,0,0,0,2.72-.31C799.2,111.3,799.1,108.23,795.48,103.74Zm1111.14,7.39,1-12.26C1900.82,105.63,1900.72,106.68,1906.62,111.13ZM485.28,109.26l-1.07-1.06-7.83,1.27-.57,1.76c1.9.81,3.93,2.43,5.67,2.16C482.92,113.17,484,110.72,485.28,109.26Zm1359.89,32.32.7-1.6a14.06,14.06,0,0,0-2.29-3.12,37.15,37.15,0,0,0-4.75-2.77c.49,2,.5,4.26,1.61,5.74C1841.29,141,1843.54,141,1845.17,141.58Zm-1345-95.24.61,1.62c3.19-1.35,6.44-2.58,9.52-4.16.62-.32.58-2,.84-3-1-.05-2.27-.52-3-.09C505.4,42.45,502.82,44.45,500.17,46.34ZM226.56,88l-11.77,7.44C221.3,96.88,224.17,92.67,226.56,88ZM201.4,32.17c-5.36-3.59-6.75-2.6-9.48,6.5Zm550.2,34,9.77,11.1L762.68,76C760.22,68.62,757.71,66,751.6,66.21ZM880.14,91.27l.22,1.55L889,94.73l.92-1.47c-1.26-1.26-2.4-3.39-3.8-3.57C884.24,89.43,882.15,90.67,880.14,91.27Zm430.75-39.11,6.77,7.27C1318.19,51.29,1317.58,50.61,1310.89,52.16ZM481.56,63c1.46-2.18,2.76-3.33,2.9-4.61.09-.82-1.71-2.72-2.3-2.58-1.25.29-3,1.47-3.17,2.52S480.24,60.8,481.56,63Zm811-15,8.8,6.25c.72-4.57-2.62-6.17-5.26-7.95C1295.54,46,1293.85,47.42,1292.53,48.09ZM63.64,140c5.56,1.78,10.94-.57,12.53-5ZM1332.69,80.07l-.3,1.8c1.67.6,3.45,1.83,5,1.58,1.08-.18,1.82-2.38,2.72-3.67l-1.19-1.19Zm459.62-57.63.21,1.17a42.56,42.56,0,0,0,6.71.89c.82,0,1.62-1.44,2.43-2.22-.83-.55-1.73-1.65-2.46-1.54A60.79,60.79,0,0,0,1792.31,22.43ZM909.87,69.49,910.6,71l9.68-2.17c-2-1.95-3.48-3.82-3.88-3.62A57,57,0,0,0,909.87,69.49ZM504.42,60.38l1.38,1c.71-1.25,2-2.51,2-3.74-.05-1.67-1.13-3.31-1.77-5l-1.59.56ZM881.84,78.69,881,80l3.47,6.95,2.91-6ZM754,42.52l-1.28,2.23,5.5,3.66a27.22,27.22,0,0,0,1.41-3.08A62.2,62.2,0,0,0,754,42.52Zm47.28,26.92c-1.57,2.26-3,3.41-2.86,4.35.18,1.29,1.54,2.41,2.39,3.6.8-1.07,2.07-2.05,2.27-3.22S802.27,71.86,801.28,69.44Zm99.31,23.14.3-1.78c-1.81-.38-3.73-1.29-5.39-.94-1,.21-1.61,2.36-2.39,3.64l1,.85Zm978.76,193.23-8-11.81C1871.42,279.86,1873.55,283.41,1879.34,285.81Zm-31.86-158.23c4.35,3.05,7.59,3,10.74.86l-.08-1.63Zm-1084-83.7-1.52.94c.75,1.26,1.27,3.25,2.32,3.59,1.41.46,3.24-.36,4.88-.63l0-1.55Zm71.58,64-8.3,1.3C830.23,113.85,831.85,113.73,835,107.93Zm459.75-67.44c2.91,2.37,5.93,3.26,8.95,1.6v-1.6Zm566.07,83.82c3.62,5.77,6.17,6.91,10.12,5.07ZM64.23,144.46l-5.55,8.89C63.93,152.49,65.88,150.24,64.23,144.46Zm424-87.13,1-.08V46.79l-1.59.11Zm50.48-1-.55-1.63-7.54,2.69C535.32,61.06,537,58.57,538.72,56.36Zm-25-8.54-1.29-2.39L506.12,49l1.06,2Zm.06,24.46.66,1.32,6.72-2.45C517.68,68.41,515.45,69.43,513.83,72.29ZM94.24,156l.49-2-8.06-1.88L86.21,154ZM1289.4,41.29l-1.65,8.41C1292.42,46.67,1292.7,45.63,1289.4,41.29Zm586.77,102-4.54-8.06C1870.71,141.47,1870.92,141.84,1876.17,143.28ZM532.51,64.13c-3.82-.22-7.14.56-8.94,3.73l.8,1.28ZM799.36,47.62l2.57.44c.12-1.6.3-3.2.27-4.8a9.7,9.7,0,0,0-2.11-.39ZM1310.9,49l1.66-1.54L1307.43,42l-1.37,1.22ZM510.37,71.49l1.83-.54-3-7.24-1.66.67ZM1345,107.74l-2.24,1,2.53,5.3,1.8-.79ZM801.8,24.58,799.5,24c-.2,1.55-.44,3.1-.51,4.66,0,.15,1.1.34,1.69.51Zm-280,20.59,0-1.43H516.1v1.43Zm-449.26,191,1.07,0V222.33h-.42Zm1773.66-92,.66,2.07,6.19-2.17-.48-1.52ZM476,155.55l1,1.22,5.25-4.23L481,151.11Zm-381-9L93.86,145l-4.93,3.59,1.13,1.53ZM800.83,80.77c-.68,1.42-1.34,2.21-1.33,3,0,.56.92,1.11,1.42,1.67.59-.65,1.6-1.26,1.66-1.95S801.72,82.06,800.83,80.77ZM524.23,48.53l-.2,1.73h5.32l0-1.19Zm779.36,9.16,1,.64c.86-.94,2-1.76,2.48-2.87.27-.65-.56-1.76-.89-2.66l-1.6,1Zm559.86,171.68.82-.06-.53-10.85-.29,0ZM885,74.46l1.92-.88a23.55,23.55,0,0,0-1.69-3c-.11-.15-1.12.36-1.72.56ZM803.31,35.95c-.9-.86-1.45-1.78-1.92-1.73a2.38,2.38,0,0,0-1.75,1.32c-.15.49.71,1.84,1,1.8A10.46,10.46,0,0,0,803.31,35.95ZM342.22,74.59l.71.91L349.44,70l-.65-.77Zm451.91,43.84c-.67,1.16-1.52,2-1.34,2.43.32.73,1.26,1.2,1.94,1.78.42-.57,1.27-1.24,1.17-1.69C795.72,120.17,794.95,119.53,794.13,118.43Zm9-25.72a11.81,11.81,0,0,0-2.33-2c-.19-.09-1.34,1-1.3,1.48a2.36,2.36,0,0,0,1.37,1.67C801.31,94,802,93.29,803.12,92.7Zm1044.57,41.95-2,2,3.87,3.5,1.71-1.73Zm-1779,21.9,1.2.46L72,152.16l-1.52-.59ZM752.64,61l1.18-.81-3.1-4.58-1.2.82Zm952.74-36.76-.05.89,6.86-.75-.16-1.18ZM801,65.78l1.84-.27-.49-3.36-1.56.17Zm79.26,7.86-1.06,1.49c1,.52,1.94,1.05,2.94,1.52.07,0,.38-.43.85-1ZM801.49,54l-1.6-.17V57L801,57Zm-35.43,5.1L765,60.37,768.05,63l1-1.17ZM83.35,143.67l.09-1.47-4.69-.5L78.63,143Zm1783.42-.92-1.36.39,1.41,4.26,1-.3ZM892.95,87.5l1.32-1L892.15,84l-.95.67ZM513.09,65l1.62-.51A22.69,22.69,0,0,0,513.58,62c-.06-.1-.82.19-1.25.31ZM890.8,77.84l.46,1.52,2.6-1.05-.34-1ZM756.21,54.56l.68-1-2.46-1.79-.77,1.11ZM473.29,150.68l-1.59,1.5c.1.45.19,1.29.31,1.3a12.48,12.48,0,0,0,2.19-.21ZM87.47,143.75l.6,1.09,3.45-1.89L91,142ZM519.12,51.66l1-1.34a5,5,0,0,0-1.36-.91c-.19-.05-.89.7-.82.86A6.22,6.22,0,0,0,519.12,51.66Zm-7.6,4.63-1.16.06.38,2.45.78-.08Zm25.83-4.48-.12-1.3-3.2.32.06,1Zm1318.16,87.66,0-1.08H1853l0,.78ZM82.77,148.3l.11.94L86,149l-.17-1.08Zm391.89-2.61a5.78,5.78,0,0,0-1.17-1c-.15-.07-.73.33-.71.45.06.4.22,1,.51,1.1S474,146,474.66,145.68ZM1301.34,44.91c-.53.62-1.06,1-1,1.23a1.53,1.53,0,0,0,.89,1c.3.09.74-.32,1.12-.51Zm554.22,87.42.25.93,3.06-.73-.28-1Zm-6.59-.24-.47,1.09,2.91,1.14.29-.7Zm-1087-71.42-1.26-.85c-.23.36-.71.79-.64,1.07s.63.61,1,.9ZM74.11,145.94l.07-1.27c-.69,0-1.39.08-2.08.17a2,2,0,0,0,0,.78C72.78,145.78,73.45,145.85,74.11,145.94Zm1264.27-40.81-1.15.85c.28.34.52.87.87,1s.71-.37,1.08-.59ZM74.79,141.29l-.38-.67L71.7,142l.45.74ZM68,149.11l.71.24.71-1.5-1.11-.37ZM487.64,65.74l.75.1c.15-.27.47-.61.41-.81a3.68,3.68,0,0,0-.75-1Zm1380.49,71.38-1,.21.51,2.37.71-.11ZM514.75,52.37c-.15-.26-.25-.63-.46-.71s-.57.08-.86.14a3.4,3.4,0,0,0,.54.93C514,52.8,514.48,52.5,514.75,52.37Zm-310.91-24-.54.58c.21.17.55.51.62.47a4.29,4.29,0,0,0,.72-.77ZM518.47,65.51a6.49,6.49,0,0,0-.47.64s.23.28.3.26a4,4,0,0,0,.7-.34Zm247-10.37c-.26.14-.66.22-.72.42s.13.55.22.83l1-.53Zm-5-2.81-.46-.75-.85.63c.22.21.41.53.66.58S760.29,52.51,760.52,52.34Zm30.72,64.13-.66.59.78.7c.17-.24.45-.48.46-.73S791.45,116.66,791.24,116.46ZM469.51,146.69c-.23-.19-.47-.54-.64-.5s-.45.37-.68.57l.82.67Zm1245.16-23.78c.13-.23.41-.51.35-.67s-.41-.36-.64-.53c-.13.23-.4.51-.34.67S1714.45,122.74,1714.67,122.92ZM801,99.22l.12-.42a7.47,7.47,0,0,0-.79-.17,2.45,2.45,0,0,0-.12.4Zm1063.29,35.93-.33-.27a7,7,0,0,0-.45.64s.2.17.31.26ZM797.63,116.62c.25-.21.58-.37.66-.61s-.13-.53-.21-.79c-.23.18-.57.33-.65.57S797.55,116.32,797.63,116.62ZM472.94,140.76l-.06.4.37-.13Zm946.91-12,.44-.06a2.5,2.5,0,0,0-.41-.45s-.23.14-.35.23ZM1305.92,48.21a6.55,6.55,0,0,0-.67-.27,2.48,2.48,0,0,0-.17.35,6.6,6.6,0,0,0,.67.27A2.52,2.52,0,0,0,1305.92,48.21Zm536.59,96.16-.36.18.34.58.37-.57ZM1308.33,52.1l.58-.39c-.08-.1-.21-.31-.24-.29a5.22,5.22,0,0,0-.59.37ZM888.61,86.34l-.3-.25a5.43,5.43,0,0,0-.39.58s.19.16.29.25ZM756.33,58.1l.59-.39c-.08-.1-.21-.31-.24-.3a5.29,5.29,0,0,0-.6.37Zm-228.82-.58c-.11-.11-.21-.26-.34-.3a1.25,1.25,0,0,0-.47.06,4.08,4.08,0,0,0,.44.52S527.37,57.62,527.51,57.52ZM98.88,154.21l-.34.29c.11.09.3.28.33.26a3.69,3.69,0,0,0,.46-.48ZM466,144.78l-.33-.06.09.31ZM73.45,161.69l.17-.27-.26,0ZM210.31,94.46l.28.18,0-.28Zm264.08,54.89.07.32.28-.2ZM523,53.93l-.19-.27-.15.3Zm-445.38,92,.33.06-.09-.31Zm43.73,35.73.3-.06-.18-.27ZM764.64,64.08l.22.28.13-.3Z" transform="translate(-1 -1)"/><path d="M633,100c2.05,3.2,4.05,6.44,6.17,9.6a8.86,8.86,0,0,1,.61,9.85,81.83,81.83,0,0,1-5.2,9c-1.16,1.61-3.22,2.57-5.49,3.32,3.3-8.34,10.19-16.06.66-24.68l-3.37,3.79c-3.95-3.22-5.57-5.25-10.36.21L615,103l0,0c-12.32,3.9-12.8,4.78-13.84,24.35-1.14-2-2.58-3.85-3.31-6-.57-1.65-.23-3.6-.36-5.41-.73-9.71.07-11.09,8.66-15.63A50.67,50.67,0,0,0,611,97l.37-.29L611,97c-5.89,1.64-12.46,2.18-17.47,5.25-4.85,3-8.09,8.55-12.23,13.2-3.2-2.64-1.43-5.2-.07-7.81,5.46-10.51,14.27-15.75,25.92-16.57a26.37,26.37,0,0,0,2.94-.48c.14,0,.25-.2.86-.7-4.21-1.53-8.1-3.05-12.07-4.36-9.46-3.1-9.8-3.23-10.45-13.08a40.94,40.94,0,0,1,1-11.37c.4-1.82,2.4-3.29,3.68-4.92l1.46.78c-.32,4.55-.53,9.1-1,13.63-.53,5.1,1.33,8.35,6.48,9.57,3.87.92,7.71,2,12.83,3.37-3-4.93-5.3-9-7.77-12.9-3.29-5.25-.74-9.63,2.1-13.84,2.52-3.74,3.77-9.05,10.4-9.27C615.23,52,613,56,611.07,60.16c-2.19,4.61-.28,11.47,4,14.06a4,4,0,0,0,3.41-.36c7.12-4.52,8.27-4.3,12.72,2.87.76,1.23,1.55,2.45,2.38,3.76,13.7-6.3,8.87-16.65,6.05-26.5,4.53.88,9.52,9.06,9.8,17.43.28,8.22-8.8,10.52-12.89,18,6.36-1.23,11.71-1.92,16.81-3.46,1.59-.48,3-3.06,3.6-5,1.61-5.4,2.73-10.94,4.08-16.42.14-.59.49-1.12,2.13-1.91a42.79,42.79,0,0,1,1.52,6.49,19.68,19.68,0,0,1-.61,5.91c-3.75,16.4-3.88,16.48-20.83,18a17.62,17.62,0,0,0-5.77,1.3c13.23,5.61,19.9,15.38,20.39,29.18,0,1.31-1.26,2.66-2.92,4.3C652,114.71,645.71,104.72,633,100Z" transform="translate(-1 -1)"/><path d="M74.49,296.23v-6.69l1.16-.06.31,6.65Z" transform="translate(-1 -1)"/><path d="M1862.59,285.32v7.41h-.82v-7.51Z" transform="translate(-1 -1)"/><polygon points="1587.22 53.12 1586.82 53.15 1586.98 52.8 1587.22 53.12"/><polygon points="395.76 66.06 396.02 65.76 396.15 66.13 395.76 66.06"/><polygon points="1768.64 177.08 1768.99 177.06 1768.86 177.36 1768.64 177.08"/><polygon points="182.92 185.64 182.94 185.99 182.64 185.86 182.92 185.64"/><path d="M29.09,233.09l-.63,3.62-1.27-.38,1.73-3.39Z" transform="translate(-1 -1)"/><path d="M1902,227l.85,1.95-.65.17L1902,227Z" transform="translate(-1 -1)"/><path d="M1905.21,298.07c-.34-.3-.74-.54-.71-.65a5,5,0,0,1,.57-1.06c.21.17.6.37.58.52A4.94,4.94,0,0,1,1905.21,298.07Z" transform="translate(-1 -1)"/><path d="M1705,90h0Z" transform="translate(-1 -1)"/></g></g></svg>