<svg xmlns="http://www.w3.org/2000/svg" viewBox="0 0 541.53 774.75"><title>Ресурс 8</title><g id="Слой_2" data-name="Слой 2"><g id="Слой_1-2" data-name="Слой 1"><path d="M253.25,478.75c-17.27-2.3-35.15-2.55-51.64-7.45-18.58-5.52-35.92-15.23-55.13-23.7-21.94,4.64-48.3-13.74-59.58-43.24-17.45-45.66-9.1-86.59,19.71-119.92-17.25,0-37.66,1.85-57.52-.65-13.39-1.68-27.22-7.65-38.63-15.11C0,261.82-.47,249.31,9.76,240.75c8.82-7.37,19.68-12.29,30.55-16.51-5.36,4.48-12.24,8-15.65,13.69s-6.09,14.46-4,19.89c1.73,4.43,11,8.25,16.93,8.32,26.54.31,50.3-7.45,72.88-22.72,21.65-14.64,46-25.29,69.55-37,8.86-4.43,12.5-9.92,11.61-20.05-.38-4.26,4.65-8.76,6.1-13.49,2-6.43,4.17-13.25,3.89-19.8-.35-8.09-3.91-16-4.71-24.13-1.15-11.6-1.19-23.31-1.36-35,0-2.15,1-5.1,2.61-6.35,10.12-7.93,3.63-10.73-3.5-14.91-2.51-1.47-2.81-6.9-3.88-10.58-.94-3.21-1-6.75-2.43-9.71-1.56-3.3-4.16-6.09-6.37-9.19l-4.82,7.7C162,47.75,152.09,54.66,141.81,66.1c-19,21.19-80.57,22.33-94.46,6.79,14.4-1.12,32.26.37,48-4.73,10.56-3.42,22.07-14.59,26.21-25,10.45-26.39,32-32.94,55.57-36.47C189.69,4.78,203.43,4.82,215.58,8c7.76,2.05,17.88,10.59,19.4,17.81,4,18.84,16.48,28.78,29.63,40.38,14.74,13,26.67,29.21,39.82,44,2.94,3.32,5.87,6.64,9,10.22l-39,8.09c9.28,2.93,17,3.91,22.83,7.74,3.83,2.51,5,9.13,9.3,18,18.33,4,19.57,27.47,28.64,44.61,15.09,28.52,41.55,35.8,70.05,40.82,9.09,1.6,18.63,4.07,26.47,8.69,26.83,15.79,54.06,9.25,81.27,2.77,2.81-.67,7-8,6.05-10-6.55-12.92-13.38-26-22.3-37.24-2.68-3.38-12.3-1.27-18.75-1.67,1.69,4.86,3.24,9.78,5.15,14.56.65,1.64,2.2,2.92,6.59,8.51-7.86-4.13-12.68-5.12-14.65-8-3.37-5-7.54-11.72-6.48-16.68.91-4.26,8.32-9.4,13.42-10.12,21.35-3,34.79,10.65,46.88,25.39A69.58,69.58,0,0,1,539.35,234c11.79,29.43.77,49.69-36.46,59.75-23.05,6.22-47.59,6.93-69.24,9.82,3.08,11.25,9.11,27.08,11.57,43.44,6.63,44.19-12.33,85.57-47,101.66-13.8,6.41-29.4,9.33-44.45,12.54-29.65,6.33-59.5,11.75-89.26,17.54Zm19.5-38.27,2.45,14.37,6.94-14.35-7.4,2.46.69-3.24-2.79.86,8.8-14L297,438.36l46.75-18.75,2.19,2.56-2.77-7.21-15.77-10.7L313,432.19l-8.87-15.84-.41,6.25-6.27-14.2h-20.6l-21.7,22.3L222.24,398,211,413.81l-2.13-3.45-6.93,9.32-9.34-23.74,3.53,13.43-2.89,4-1.09-2.13-3,2.07-7.16-.65,31.66,19.48,17.52-9.93L235,433.7l-3.1,1.19L228.06,427l6.76,24.18,2.08-10.74Zm38.83-89,68.53-16.23L361.2,317.68l1.95-2.6-10.06-6.21C320.54,329.29,313.55,336.6,311.58,351.44ZM151.3,328.17,225,344.09c-.91-24-27.73-23.9-38.05-40.33Z" transform="translate(-2.33 -5.4)"/><rect x="205.25" y="468.14" width="48.82" height="310.22" transform="translate(71.49 -27.83) rotate(6.66)"/></g></g></svg>