<svg xmlns="http://www.w3.org/2000/svg" viewBox="0 0 592.54 392.12"><title>Ресурс 13</title><g id="Слой_2" data-name="Слой 2"><g id="Слой_1-2" data-name="Слой 1"><path d="M696.07,342.48l-33-26.07c-2.74.53-4.44,1.45-5.57,1-5.2-2.16-10.13-5-15.36-7.06-13.59-5.35-24-14.9-34.63-24.52a98.61,98.61,0,0,0-20.3-14.34c-4.89-2.56-11-3.22-16.71-3.66-6.94-.54-14,.07-21,.08a9.37,9.37,0,0,1-5.38-1.67l6.92-1.87-10.61-6.43,3-1.2-1.53-4.53c-7-1.57-14.93-3.34-22.83-5.08-8.08-1.78-18.68,7.81-18.63,15.24,0,3,3.48,6.59,6.27,8.77,4.28,3.35,9.28,5.8,14.06,8.47,4.62,2.57,9.36,4.93,14,7.34-2.37,10.91-1.64,13.7,8.91,18.06,11.35,4.69,23.34,7.86,34.63,11.55-15.51,9.65-32.91,17.86-51.91,22.37-12.48,3-25.14,5.54-38,2.93-7.92-1.61-15.63-4.23-22.15-6-3.15,1.26-5.44,2.92-7.75,3-4.6.07-9.21-.74-13.85-1.19-1.65,6-.3,8.92,4.91,11.54A12.79,12.79,0,0,1,453.8,353c3.42,4.65,6.63,9.47,10,14.34l-9.3,7.79-6.39-4.41-1.66.41c4.76,7.65-2.23,9.8-5.1,14-7.57,11.21-18.37,12.3-30.23,10.23a105.61,105.61,0,0,1-10.59-3l.19-1.9c1.48-.24,3-.5,4.44-.71,6.71-.94,12.35-4.1,15.05-10.24,5.76-13.08,11.23-26.33,7-41.28-1-3.44-2.21-5.59-5.77-6.49a90.26,90.26,0,0,1-8.67-3.07c3.45,5.64,6.47,11.26,10.16,16.39,2.74,3.8,1.76,5.84-1.87,7.76a24.35,24.35,0,0,0-3,2.07l-7.17-4.36-1.09,1.33,3,5.15c-5.14,4.83-10.42,9.63-15.51,14.62-7.46,7.33-16.62,6.45-25.78,5.56-4-.39-8.33-.46-11.61-5.62,4.23,0,7.61.05,11,0,6.39-.12,9.95-3.8,12-9.51,2.8-8,5.8-15.83,8.53-23.81,2.92-8.56,1.73-16.76-4.59-23.2-15.52-15.81-31.45-31.2-47.21-46.77-2.6-2.57-5.23-5.12-7.71-7.8-5.16-5.58-5.12-10.65.38-16.18,6.81-6.86,15.75-9.86,24.73-12.15,14.61-3.74,29.4-6.78,44.11-10.14a6.19,6.19,0,0,0,3.42-2c-7-1.8-14.08-3.47-21.06-5.43q-52-14.6-104-29.36Q225.19,169.71,170.93,154c-4.3-1.24-8.55-2.69-12.87-3.84-3.38-.9-4.89-2.85-3.89-6.22,1.07-3.61,3.62-3,6.43-2.11,19.46,6.12,39,12.1,58.44,18.21,7.16,2.25,14.09,2.67,21.48.26,3.6-1.17,8.19-.6,12,.41,7.2,1.92,13.84,1.27,20.84-1,4.3-1.42,9.19-1.08,13.83-1.43,20.85-1.58,40.07-7.66,58.7-17.54,18.12-9.6,37.63-16.58,56.53-24.71.75-.32,1.49-.69,3-1.38-8.22-6.66-16.36-11.49-27.11-9.74a24,24,0,0,1-17-3.25l6.84-5.6c-7.83-5-.47-11,.26-18.32l-16.17,8.26c-1.11-3.15,2.39-11.73,5.72-13.58,7.56-4.22,7.72-11.8,8.68-18.94.1-.74-2.11-2.56-3.28-2.59-7.13-.16-14.26.06-21.4.13a82.16,82.16,0,0,1-8.49-.07,44.14,44.14,0,0,1-6.33-1.5l.26-1.2c2.6-.13,5.3.14,7.77-.51,2.81-.74,7.1,1.19,8-3.93.13-.72,2.25-1.43,3.5-1.54,5.12-.45,10.29-1.12,15.4-.86,6.69.34,9.24-.47,12.47-6.56,5.08-9.58,11.41-17.94,21.19-23.19,12.91-6.93,26.6-8,41.08-7.27,12.87.68,23.91,5.86,34.51,11.64,12.79,7,25.06,7,38.14,2.22,5.3-1.93,10.78-3.4,16.17-5.09,5.68-1.78,11.22-1.61,16.32,1.67,8,5.12,15.86,10.36,23.74,15.61a34,34,0,0,1,3.55,3.14l-.82,1.25c-1-.4-2-.75-3-1.22-16.18-7.89-32.68-11.08-49.89-3.31a17.28,17.28,0,0,0-5.13,3c-7.46,7.39-16.47,7.64-26.05,6.33-7.9-1.08-15.85-2.09-23.81-2.42-7.48-.31-14.67,1.06-19.09,8.67,15.6,7.31,30.93,15.13,46.82,21.58,5.33,2.16,12.06.9,18.16,1.09,1.76.06,3.53-.28,5.48.27l-7.38,2.94c14.06,3.2,25.9.73,36.65-7.45-6.64,11.3-16.3,19.22-27.55,26.23L533.2,89c-10.44,9.92-41.38,17.59-79.46,7.23,4.46,5.05,14.95,9,27,11.22l-14.11,1.84,8.84,2.33H455.56c11.62,6.85,22.62,12.69,32.93,19.55,20.6,13.71,40.79,28,61.2,42,16.39,11.22,34.35,16.37,54.2,13.12,7.44-1.22,12.45,2.23,13,9.71a33.27,33.27,0,0,1-3.08,17.89c-2.09,4.23-2.73,9.17-4.14,13.75-2.28,7.45-5.18,9.78-12.6,9.23-10.25-.75-20.8-.65-30.6-3.27s-19.2-7.92-28.54-12.5c-3.8-1.86-7-4.92-11.18-7.94,2.45,9.44,1.17,17.87-5.82,25.79,9.18,1.85,17.4,3.56,25.65,5.14,3,.57,5.13-.37,6.83-3.37,2.78-4.92,5-5.36,8.9-1.17,8.66,9.25,18.86,9.83,30.21,6.9,10.27-2.65,20.65-4.86,31-7.29a79.73,79.73,0,0,1,37.06-.19,274.59,274.59,0,0,0,58.09,7.27l-15.24,5,.22.76,19.28-1.25-11.22,8,16.77,8-17.77,4.12-.17,2.34,18.11,6-.07.56-8.43.37-.19.77,26.43,13.19-.25.8-27.94-6.36-.42.78,12,8.9-.27.47L696,288.53l-.47,1,11,9.73-9.59-3.34,37.23,28.68-.87,1.29C727.54,323,722,318.42,716,317.65c-8.17-1-14-6.54-22.74-8.63l23.81,22.41-.69,1.06C702.83,323.23,688.79,315,672.2,312l24.92,29.6ZM449.22,208.86l.81-1.51c-1.59-1.19-3.24-2.3-4.75-3.59-13.8-11.72-27.56-23.49-41.41-35.15a5.79,5.79,0,0,0-4.24-1.42C379,172,358.33,176.83,337.8,182.13c-4.75,1.23-9,4.27-13.53,6.48l.38,1.57C354,197.81,383.37,205.5,412.77,213a31.81,31.81,0,0,0,12.13.94C433.08,212.69,441.12,210.6,449.22,208.86Zm-165.65-28c-6.56-8.61-6.56-8.61-18.28-5.18Z" transform="translate(-153.86 -4.1)"/></g></g></svg>