<svg xmlns="http://www.w3.org/2000/svg" viewBox="0 0 1126.14 614.17"><defs><style>.cls-1{fill:#3a184c;}.cls-2{fill:#fefefe;}.cls-3{fill:#40194f;}.cls-4{fill:#481b54;}.cls-5{fill:#471a53;}.cls-6{fill:#451a52;}.cls-7{fill:#131016;}.cls-8{fill:#9a4e1e;}.cls-9{fill:#35123e;}.cls-10{fill:#ebc349;}.cls-11{fill:#d9965d;}.cls-12{fill:#a5361a;}.cls-13{fill:#e37e24;}.cls-14{fill:#4e5126;}.cls-15{fill:#ae3f1b;}.cls-16{fill:#d56420;}.cls-17{fill:#cd5c1f;}.cls-18{fill:#c5521f;}.cls-19{fill:#231329;}.cls-20{fill:#dd7425;}.cls-21{fill:#b36729;}.cls-22{fill:#cc3044;}.cls-23{fill:#ea586f;}.cls-24{fill:#9e2f19;}.cls-25{fill:#e2cd8c;}.cls-26{fill:#c04c1e;}.cls-27{fill:#731811;}.cls-28{fill:#972818;}.cls-29{fill:#d5d2c7;}</style></defs><title>Ресурс 38</title><g id="Слой_2" data-name="Слой 2"><g id="Слой_1-2" data-name="Слой 1"><path class="cls-1" d="M.59.32H722.75A282.06,282.06,0,0,1,751.37,15.9,364.15,364.15,0,0,1,801.87,53a358.72,358.72,0,0,1,63.25,72.5,364,364,0,0,1,57.45,153.38c1.79,13.11,2.63,26.3,3.23,39.54.39,8.54,0,17-.37,25.49a342.9,342.9,0,0,1-5.79,48.68,360.22,360.22,0,0,1-25.06,81.18,366.63,366.63,0,0,1-48.92,80.6A346.56,346.56,0,0,1,817.25,586c-10,9.69-20.21,19.11-31.49,27.31a3,3,0,0,1-2,.91H716.23c-2.25-.43-1.08-1.57-.35-2.33a16,16,0,0,1,4-2.62,321.1,321.1,0,0,0,38.41-25.22,329.09,329.09,0,0,0,40.08-36.45,319.86,319.86,0,0,0,48.44-67.33,321.6,321.6,0,0,0,37.92-132.65,339,339,0,0,0,.31-37.74,310.79,310.79,0,0,0-12.66-74.77,318.77,318.77,0,0,0-65.53-120.21,328.91,328.91,0,0,0-78.45-66.15A322.14,322.14,0,0,0,621.5,8.22a291.3,291.3,0,0,0-35.7-4.56c-8.87-.56-17.73-1.21-26.63-1a337.16,337.16,0,0,0-67.23,7.59,321,321,0,0,0-78.84,28.37,312.27,312.27,0,0,0-60.69,40.71c-7.88,6.81-15.59,13.8-22.84,21.27a326.88,326.88,0,0,0-49.2,65,314.31,314.31,0,0,0-26.56,59.84,318.91,318.91,0,0,0-13.54,60.26c-1.25,10.33-1.69,20.71-2.36,31.08-.62,9.59-.05,19.11.36,28.62a294.71,294.71,0,0,0,7.18,51.9,344.18,344.18,0,0,0,16.63,53,6.27,6.27,0,0,1,.61,4.13c-.22,1.07-1.18,1.57-1.82,2.31a2.72,2.72,0,0,1-.65.49,12.54,12.54,0,0,0-4.61,2.71,3.22,3.22,0,0,1-.7.35,6.2,6.2,0,0,0-2.15,1.57c4.49.29,8.83-1.15,13.18-.18,1.5.87,2.1,2.41,2.79,3.84a334.15,334.15,0,0,0,20.78,37.13,304.09,304.09,0,0,0,30.75,40C334.36,558,349.35,572.45,366,585a331.83,331.83,0,0,0,38.5,25.1,7.07,7.07,0,0,1,2.73,2c.79,1.19.86,2.19-1.05,2.15H.79c-.76-1.32-.47-2.48-.47-3.58Q.3,307,.32,3.4C.32,2.37.06,1.3.59.32Z" transform="translate(-0.02 -0.32)"/><path class="cls-1" d="M784.68,613.86a16.7,16.7,0,0,1,2-2.58c5.58-4.78,11.32-9.38,16.82-14.25,5.72-5.07,11.46-10.16,16.75-15.66,9.15-9.51,18.15-19.19,26-29.82,6.23-8.41,12.64-16.72,18.4-25.44,5.56-8.42,10.51-17.25,15.49-26,3.26-5.75,6.4-11.61,9.09-17.65q7-15.78,13.37-31.86a293.73,293.73,0,0,0,12.83-43.72c2-8.9,3.48-17.92,5-26.92,1.12-6.77,2-13.58,2.77-20.4.44-3.93.46-7.9.67-11.86.37-7.25,1.06-14.49,1-21.74,0-8.67-.36-17.36-1.14-26A395.86,395.86,0,0,0,912.56,234a331,331,0,0,0-15.4-45.58c-3.83-8.94-7.67-17.92-12.19-26.52q-8.3-15.78-17.81-30.92c-5.56-8.86-11.68-17.39-17.92-25.79-4.6-6.19-9.65-12.07-14.79-17.84-5.84-6.56-11.77-13.06-18.07-19.16-7.38-7.15-15.12-13.93-22.86-20.69A288.12,288.12,0,0,0,758,21.4c-7.65-4.85-15.59-9.24-23.45-13.75-3.28-1.88-6.7-3.51-10-5.36-.73-.41-1.18-1.3-1.76-2h402.84c.53,1,.27,2,.27,3.07q0,303.69,0,607.39a14.67,14.67,0,0,1-.12,3c-1,.73-2.11.42-3.11.42q-167.47,0-334.94,0C786.7,614.22,785.61,614.58,784.68,613.86Z" transform="translate(-0.02 -0.32)"/><path class="cls-2" d="M784.68,613.86c1,0,2.08.09,3.12.09h337.79V.32c.19.09.54.18.54.29,0,.75,0,1.51,0,2.27V614.49H0v-2.88Q0,307.24,0,2.87A12.33,12.33,0,0,1,.59.32V613.81c.94.05,1.76.14,2.57.14h402c.76,0,1.51-.06,2.27-.09a3.8,3.8,0,0,1,2.82-1.1c1.14,0,2.27,0,3.41,0q147.75,0,295.5,0c2.11,0,4.4-.63,6.23,1.11,5.37,0,10.75.08,16.12.09q25,0,50.09,0C782.61,614,783.65,613.89,784.68,613.86Z" transform="translate(-0.02 -0.32)"/><path class="cls-3" d="M715.37,613.86c-.94,0-1.89.09-2.83.09H410.24c-.94,0-1.89-.06-2.83-.09a8.77,8.77,0,0,0-1.84-1.92,336.92,336.92,0,0,1-38.81-25,216.81,216.81,0,0,1-17.21-14.22c-8-7.23-15.91-14.54-23.37-22.3-7.24-7.53-14.11-15.48-20.68-23.61-5.39-6.66-10.29-13.75-15.08-20.86a339.8,339.8,0,0,1-24.48-43.76c0-1.15,1-1.05,1.63-1.08,7.44-.32,14.84-1.18,22.25-1.82q12.38-1.07,24.74-2.44c10.67-1.19,21.25-3,31.88-4.51a10,10,0,0,1,3.1.05c1.29.42,1.84,1.57,2.47,2.61a236.87,236.87,0,0,0,42.68,52.08,245.37,245.37,0,0,0,85.53,51.41A257.87,257.87,0,0,0,536,571.24a218.61,218.61,0,0,0,36.83,1.13,247.74,247.74,0,0,0,154-63.69,252.26,252.26,0,0,0,31.51-34.53,32,32,0,0,0,3.37-4.87c2.61-2,5.81-1.28,8.72-1.85a85.91,85.91,0,0,0,13.18-3.13,10.4,10.4,0,0,0,2.57-1.16c2.15-1.53,2.09-2.93-.17-4.26a21.71,21.71,0,0,0-4.17-1.73,4.76,4.76,0,0,1-3.1-2.28,8.06,8.06,0,0,1-.34-3.07c0-10.92,0-21.83,0-32.75,0-1.52.38-3,.47-4.48,3.56-6.28,5.37-13.23,7.5-20a219.23,219.23,0,0,0,9-46.14,257.23,257.23,0,0,0,.25-38.84,231.25,231.25,0,0,0-10.2-53.95,220.15,220.15,0,0,0-17.13-40.45,247.19,247.19,0,0,0-25.46-37.88A235.59,235.59,0,0,0,618.94,99a223.06,223.06,0,0,0-36.61-6.07c-8.49-.69-17-1.41-25.49-1-12.27.56-24.54,1.23-36.62,3.78a7.58,7.58,0,0,1-3.09.27c-2.2-.65-2.92-2.58-3.65-4.41-2.76-6.94-3.06-14.16-2.41-21.49.49-5.44,1.49-10.81,2.57-16.6-4.81,1.08-8.51,3.42-12.14,5.92-7.88,5.43-14.16,12.45-19.86,20.05-2.72,3.63-5.29,7.38-8,11-2.43,3.26-4.09,3.13-6.12-.35a62.24,62.24,0,0,0-4.82-7.87c-1,1.2-.83,2.64-1.34,3.8-.81,1.86-1.61,3.83-3.94,4s-3.27-1.6-4.29-3.23a9.38,9.38,0,0,1-.89-1.84,32.29,32.29,0,0,0,.47,13.48c.81,3.82-.2,4.81-4.14,4.34a108,108,0,0,0-52.87,6.77,42.17,42.17,0,0,1,13.21,6.62c1.15.86,2.7,1.65,2,3.6-.13.14-.29.36-.44.34-5.41-.63-8.52,3.35-12.11,6.19a233.46,233.46,0,0,0-26.13,24.37,262,262,0,0,0-62.73,119.2,251.59,251.59,0,0,0-5.56,38.11,275.1,275.1,0,0,0-.32,32.9A235.19,235.19,0,0,0,313.28,398c1.1,3.62,2.14,7.26,3.43,10.82,1.19,3.25,1.28,6.13-2.12,8.15a3,3,0,0,1-1.37.85c-.75.67-1.44,1.4-2.12,2.08l.07-.08c.7-.7,1.35-1.4,2.07-2a2.84,2.84,0,0,0,1.36-.84c2.3-1.93,3.93-1.78,5.07.86,2.4,5.54,4.58,11.18,7.07,16.68a4,4,0,0,1,0,3c-.9,1.58-2.81,1.74-4,2.89a2.75,2.75,0,0,1-.71.34,12.81,12.81,0,0,1-2.56-.1c-.52-.33-.57,0-.55.41-3.36,1.95-7.08,3-10.12,4.38,2.71-1.12,5.94-2.34,9.1-3.75,2.82-1.26,3.39-.92,3.37,2.09a16.18,16.18,0,0,0,2,7.56,4.71,4.71,0,0,0,.55.53,4.83,4.83,0,0,1,.54.56l.26.3a4.21,4.21,0,0,1,.48.67c.07.13.13.25.19.38a2,2,0,0,1,.15.87,1.46,1.46,0,0,1-.39.81c-4,1-8.2,1.13-12.3,1.62-7.21.85-14.44,1.54-21.66,2.15-7.52.64-15,1.5-22.56,1.83-1.89.08-3.69.87-5.61.6-.9-.13-1.92.25-3-1.06,6.59-2,13.18-3.29,18.53-5a106.69,106.69,0,0,1-11.73,3.06c-4.28.69-8.17,3.57-12.77,2.91-.05-1.45.71-1.67,1.09-2.17l.08-.06c1.75-.78,3.28-2,5-2.78l.09-.07a8.45,8.45,0,0,1,1.35-1,.64.64,0,0,0,.31-.44s0-.27,0-.27a23.6,23.6,0,0,0-.68-3.56c-3.56-10.16-7.3-20.26-10.73-30.46-4.25-12.63-6.88-25.68-9.3-38.76-1.11-6-1.83-12.09-2.55-18.16a227.22,227.22,0,0,1-1.77-29.06c0-4-.58-7.92-.47-11.86.22-8.1.47-16.22,1.17-24.29A326.27,326.27,0,0,1,257.67,211,301.59,301.59,0,0,1,273,176.6c4.26-8,8.86-15.83,13.69-23.49s9.87-15,15.14-22.22a183,183,0,0,1,11.66-14.2c6.73-7.53,13.43-15.12,20.6-22.21,6.76-6.69,14.07-12.84,21.24-19.11a255.58,255.58,0,0,1,29.85-21.95,317.32,317.32,0,0,1,38.11-21.25,323.36,323.36,0,0,1,41.76-16.1A305.88,305.88,0,0,1,508.3,6q11-1.7,22.11-2.78C536.68,2.58,543,2.32,549.3,2s12.84-.7,19.25-.51c8,.24,16,.87,23.95,1.63,7.77.75,15.56,1.52,23.23,2.92C626,8,636.24,10.2,646.38,12.75a225.26,225.26,0,0,1,22.74,7c9.66,3.55,19.18,7.49,28.62,11.58,17.93,7.78,34.55,17.92,50.55,29.06,6.88,4.79,13.5,10,19.95,15.34,6.16,5.12,12,10.59,17.85,16.12s11.49,11,16.79,16.84a306.88,306.88,0,0,1,23.91,29.73,341.2,341.2,0,0,1,24,39.44,326.9,326.9,0,0,1,15.83,36,316.27,316.27,0,0,1,10.82,35.49c2.6,10.8,5,21.66,6.15,32.74.81,8,1.87,15.9,2.18,23.88.49,12.56.66,25.14.55,37.71,0,5.9-.94,11.81-1.63,17.7-.85,7.28-1.61,14.6-2.91,21.81a328.67,328.67,0,0,1-10.17,41.47A349.06,349.06,0,0,1,856.81,463a275.9,275.9,0,0,1-20,36.54q-8.26,12.69-17.19,24.94a181.59,181.59,0,0,1-12.5,15c-6.88,7.53-13.72,15.14-21.11,22.16C778.2,569,769.86,576,761.52,582.91c-11.81,9.78-24.81,17.86-37.92,25.75-2.1,1.27-4.33,2.33-6.44,3.58A11.53,11.53,0,0,0,715.37,613.86Z" transform="translate(-0.02 -0.32)"/><path class="cls-4" d="M517,95.22c6-1,12.06-2,18.11-2.86a188.89,188.89,0,0,1,31.62-1.65c7,.23,14.08,1,21.11,1.59a164.34,164.34,0,0,1,30.86,5.38c10.91,3,21.7,6.6,32.29,10.6,16,6,30.75,14.5,44.75,24.26a201.47,201.47,0,0,1,23.94,18.94c3.35,3.19,6.81,6.27,10.08,9.55a224.93,224.93,0,0,1,25.87,31.42,237.7,237.7,0,0,1,20.47,35.62,227.63,227.63,0,0,1,17.15,54.14c1.63,8.89,3.18,17.8,3.38,26.87.24,10.68.94,21.38.42,32a213.68,213.68,0,0,1-5.23,37.14,264,264,0,0,1-9.94,33.08c-.42,1.14-.66,2.44-2.21,2.63-1-.63-.88-1.77-1.2-2.71a8.4,8.4,0,0,1,.25-2.49c1-5.66,1.89-11.35,2.76-17a92.23,92.23,0,0,0,.8-9.3,100.5,100.5,0,0,0,.14-15c-.41-4.2-1.49-5.84-5.43-7.35-3.49-1.34-7.19-1.49-10.79-2.18-4.56-.55-9.13-.09-13.69-.22-1.64,0-3.19-.15-4.16-1.74a4.26,4.26,0,0,1,.92-5.19c1.82-1.4,4.28-1.67,5.92-3.49,1.11-1.23,2-2.43,1.86-4.14.81-5.33-.82-10.27-2.46-15.18-1.85-5.55-4.31-10.87-6.13-16.44A69.57,69.57,0,0,1,745,294.08c-.61.26-1,.76-1.61.77-1.28-.34-1.66-1.47-2.06-2.5a128.39,128.39,0,0,0-14.76-26.89A151.59,151.59,0,0,0,693,232.58c-4.65-3.3-9.38-6.38-15.12-7.39a36.84,36.84,0,0,0-12.38,0,6.37,6.37,0,0,1-3.35,0,9.35,9.35,0,0,1-3.33-3c-7.41-9.4-17.32-13.64-29.07-13.87-4.14-.08-8.3-.32-12.43.36a7,7,0,0,1-4.82-1.26,22.26,22.26,0,0,1-5.66-3c-4.08-3.41-9.08-5.35-13.38-8.4-1.31-.92-2.74-1.67-4-2.61-2.2-1.59-2.4-2.71-.81-5,1.31-1.85,2.75-3.6,4-5.48a7,7,0,0,0,.06-8.41c-3.13-4.95-6.46-9.75-9.72-14.61-3-4.54-3-4.91.5-9.06.85-1,2-1.68,2.69-2.87a3.91,3.91,0,0,1,.46-.68c1.66-1.45,1.62-3.1.48-4.81a36.46,36.46,0,0,0-15.29-13.16c-2.54-1.18-4.88-.91-6.84,1.51-3.16,3.91-6.24,7.84-8.41,12.42a8.63,8.63,0,0,0,.81,9.33c3.24,4.67,6.83,9.07,10.34,13.54,1.52,1.94,2.95,3.94,4.36,6,2.14,3,2,5.95-.18,8.91a51.22,51.22,0,0,1-11.46,11.74c-6.31,4.52-12.7,8.92-18.87,13.63a8,8,0,0,1-2.42,1.47c-3.75.28-7.54.06-11.27.81-9.49,1.92-17.57,6.26-23.81,13.78-1.32,1.6-2.76,2.95-5,2.46-13-2.75-23.71,1.91-33.61,9.81a127.39,127.39,0,0,0-23.26,23.89A124.18,124.18,0,0,0,425.62,291c-.57,1.68-1.68,3.2-1.55,5.1-1.4,5.34-2.81,10.68-3.77,16.12a204.7,204.7,0,0,0-2,27.35c0,2.92.95,5.8.36,8.74.82,6.56,1.47,13.14,2.75,19.63,1.8,10.93,5.36,21.32,9.61,31.52,2.77,6.65,6.66,12.65,10.18,18.87.82,1.38,2,2.47,2.78,3.91.47.93,1,1.84.46,2.93a8.37,8.37,0,0,1-3.13,2.38,205.34,205.34,0,0,1-52.1,18.79c-11.71,2.6-23.43,5.13-35.28,7a6.36,6.36,0,0,1-3.88-.26c-3.92.46-7.85.89-11.77,1.38-5.32.66-10.63,1.38-16,2-4.57.56-9.15,1.07-13.73,1.59-2.06.23-4.12.46-6.18.65-6.47.59-12.93,1.19-19.41,1.73-5.26.44-10.52.77-15.78,1.19a4.49,4.49,0,0,0-1.26.52l-16.16.73a10.15,10.15,0,0,1,5.33-3.54l-.64,2,27.78-7.19.18.65c-7,2.36-14.29,3.87-21.43,6.08.65,0,1.29.11,1.94.13a15.25,15.25,0,0,0,2,0c5.43-.54,10.85-1.15,16.28-1.63,5.16-.46,10.33-.74,15.48-1.21,4.68-.43,9.34-1,14-1.54,4.12-.44,8.24-.82,12.35-1.32a6.51,6.51,0,0,0,2-1.05,2.17,2.17,0,0,1,1.76-.72c11-.88,21.92-2.74,32.8-4.63a1.72,1.72,0,0,0,.72-.43c8.81-.72,17.3-3,26.14-4.93a21.66,21.66,0,0,0-2.81-5.19,171.39,171.39,0,0,1-10.31-18.54c-1-2.16-1.94-4.39-5-3.81-.37.07-.67-.3-.89-.62-.07-.18-.18-.43-.1-.55,2.33-3.27.66-6.26-.56-9.32a184.37,184.37,0,0,1-7.27-21.5,7.27,7.27,0,0,0-1.59-3.71c-2.13.77-3.26,2.75-4.86,4.13-1,.86-1.81,2-3.14,2.38s-2.23-.33-1.8-1.8a5.54,5.54,0,0,1,2.22-2.89c5.87-4.1,6.71-9.15,5.06-16.11-4-16.85-4.5-34.15-3.55-51.37a206.47,206.47,0,0,1,18.51-75.33c.59-1.29,1.12-2.61,1.69-3.91,1.75-3.93,3.58-7.73,8-9.43a4.72,4.72,0,0,0,2.45-2.28,3,3,0,0,1,2.93-.81c1.68.79,3,3,5.31,1.23,1.1-2.1,1.83-4.37,3.05-6.41,1.41-2.35,2.67-2.8,5.21-1.8,2.28.9,4.35,2.29,7,3-.41-1.9-1.18-3.5-1.57-5.2-.73-3.17,0-4.44,3.15-5,2.14-.39,3.24-1.27,3.64-3.53a20,20,0,0,1,4.07-8.66c.8-1,1.74-2,1.38-3.55-.08-2.93-2.21-4.95-3.31-7.42-1.72-3.84-1.46-6.5,1.54-9.46a192.56,192.56,0,0,1,38.56-29.67c3.11-1.81,6.39-3.29,9.36-5.42,2.44-1.74,5.45-2.64,8-4.18,3.08-1.82,5.88-1.71,8.58.6.73.62,1.38,1.32,2.47.9a1.91,1.91,0,0,1,1.44.69c.46,1,.48,2.57,2.32,2,.55,0,1.09.41,1.78,0-.26-4.35-1.12-8.71-1.12-13.15,0-6.39.14-6.52,6.54-6.08s6.39.44,9.3-5.38a37.16,37.16,0,0,1,14.15-15.87,3.55,3.55,0,0,0,1.53-1.3C518,97.89,515.86,96.9,517,95.22Z" transform="translate(-0.02 -0.32)"/><path class="cls-4" d="M260.2,456.6c-1.34,1.53-2.86,2.73-5,2.78C256.52,457.86,258,456.64,260.2,456.6Z" transform="translate(-0.02 -0.32)"/><path class="cls-4" d="M262.58,454.92l-2.3,1.6,1.66-1.69h.55Z" transform="translate(-0.02 -0.32)"/><path class="cls-5" d="M350,453.16c2.55-.55,5.09-1.12,7.65-1.64,9.6-1.93,19.26-3.57,28.78-5.84s19.2-4.91,28.61-8A147,147,0,0,0,443.44,425a3.33,3.33,0,0,1,.81-.22c1.32-.07,2.08.81,2.78,1.7a124.67,124.67,0,0,0,10.55,11.47,6.09,6.09,0,0,1,2.24,3.52c-.45,2.53-1,5-3.51,6.39a3.49,3.49,0,0,1-2.23-1.08,28,28,0,0,0-13.53-5.37,6.89,6.89,0,0,0-2,0c-3.45.49-4,1.16-2.77,4.38a22.7,22.7,0,0,1,1.13,9.21,33.06,33.06,0,0,0-.51,7.89c.05,3.07.59,3.4,3.62,2.43,1.87-.6,3.59-1.75,5.68-1.59a35.89,35.89,0,0,1,6.49,1.95c2.3,1.05,2.45,2.15.59,3.69-3.12,2.57-3,3.5.79,5,6,2.4,12.43,3,18.8,3.74,7.61.85,15.26.68,22.9.58a170,170,0,0,0,23-2.33,7.89,7.89,0,0,0,2.83-1.24,13.07,13.07,0,0,1,5.72-.19c11.22.38,22.45.64,33.67,1.08,16.35.65,32.7.48,49,.24,10.65-.16,21.33-.29,32-1,13.63-1,27.28-1.73,40.89-3.17,9.2-1,18.36-2.18,27.46-3.77,1.3-.23,2.67.26,3.89-.47a12.23,12.23,0,0,1,5.16-.56c3.09,1.1,6.36.78,9.53,1.16,8.76,1,17.56.65,26.35.45.35.07.78.12,1,.39,1.46,1.94,2.81,1.44,4.15-.13a1.72,1.72,0,0,1,2,.55c-.89,1.72-1.52,3.65-2.72,5.13-4.92,6.08-9.88,12.13-15.07,18a164.3,164.3,0,0,1-13.57,14.07c-7.61,6.75-15.42,13.31-23.55,19.41a223.92,223.92,0,0,1-36.83,22.22,227.9,227.9,0,0,1-42.91,16.12q-13.27,3.4-26.74,6c-5.25,1-10.65,1.19-16,1.92-9.87,1.36-19.79,1.29-29.69,1-7-.18-14.1-.76-21.1-1.64-8.3-1-16.57-2.42-24.78-4-5.82-1.13-11.58-2.68-17.27-4.37a248.24,248.24,0,0,1-42.58-17,261.28,261.28,0,0,1-38.26-24.19,224.35,224.35,0,0,1-31.1-28.46c-7.07-7.81-13.36-16.33-19.79-24.69-3-3.88-5.53-8.1-8.2-12.22A32.07,32.07,0,0,1,350,453.16Z" transform="translate(-0.02 -0.32)"/><path class="cls-6" d="M360.84,448.67a1.45,1.45,0,0,1-1.45,1.66c-7.77,1.1-15.52,2.27-23.28,3.41-1.66.24-3.33.59-5,.67-2,.1-4.05,0-6.08-.08l-.09-.11-.42-.42-.15-.14-.43-.43-.13-.13-.44-.44-.1-.12a17.17,17.17,0,0,1-2.25-10c.08-1,.06-1.89,1.09-2.38l.12-.08c1.25-.85,2.93-1,3.9-2.29a30.46,30.46,0,0,0-1.07-4.28c-1.86-4.61-3.94-9.13-5.76-13.75-1.49-3.79-1.49-3.89-5.07-2.31l-.08-.1c.08-.27.08-.65.27-.79,2.63-2.14,2.12-4.6,1.15-7.41a229.78,229.78,0,0,1-9.1-34.15c-1.07-5.82-1.59-11.74-2.52-17.59-2.37-14.92-1.75-30-1.56-45,.09-6.93,1.34-13.84,2.08-20.76a173.48,173.48,0,0,1,6.41-32.11c3.4-11.19,7.21-22.29,11.46-33.19a226.21,226.21,0,0,1,10.91-23.06,256.56,256.56,0,0,1,23-35.64,246.13,246.13,0,0,1,28.8-31.55c6.28-5.81,13.15-11,19.77-16.45,1.16-1,2.34-1.5,3.82-.37.51.39,1.44.21,2.18.28l.34.19c.58,1.62,1.93,1.95,3.42,2,4.08,2.43,6.49,6.52,9.64,9.87a34.76,34.76,0,0,1,4,5.47,2.77,2.77,0,0,0,3.79,1.3,29.61,29.61,0,0,1,17-.7,25.67,25.67,0,0,1,8.23,3.79c1.41-1.19,2-2.81,3-4.17a48.39,48.39,0,0,1,7-7.82c1.4-1.28,2.91-1.79,4.57-.5,3,2.39,6.1,4.77,9,7.37.69.63,1.37,1.35,1,2.45-.35.31-.76.93-1,.87a3.49,3.49,0,0,1-1.33-.95c-3.24-2.86-3.87-3-7.68-1.07-2.62,1.3-5.52,2.26-7.79,4-3.57,2.75-7.84,4.15-11.5,6.6-7.89,5.28-15.75,10.66-23.24,16.48-5.34,4.14-10.09,9-15.05,13.66-1.26,1.17-1,4.77.14,7s2.18,4.94,3.25,7.42c-2,.49-2.91-1.09-3.75-2.35-2.74-4.13-3.75-8.83-4.17-13.69-.14-1.59-.05-3.21-.89-4.82-2.39,1-3.89,3-5.44,4.84-3.61,4.34-5.88,9.45-8.08,14.59-.26.61-.49,1.23-.75,1.84-1.71,4-2.93,4.2-6.15,1.19a5.63,5.63,0,0,0-1.26-1c-.71.89-.66,2.26-1.68,3s-2.17,0-3.28.05a18.46,18.46,0,0,0,1.28,4.69c.85,2.66.22,3.75-2.54,4.09A56.25,56.25,0,0,0,361,211.65a49.27,49.27,0,0,0-4.77,2.87c7,1.13,12.79,4.64,18,9,1.67,1.4,3.06,1.91,5,.75,1.08-.63,2.39-1.35,3.63-.09-.79,2.15-2.88,2.78-4.51,4a9.23,9.23,0,0,0-2.86,2.91A205.77,205.77,0,0,0,359,275.61a232.29,232.29,0,0,0-5.1,29.19,219.88,219.88,0,0,0-.86,34,169.5,169.5,0,0,0,4.86,34c.51,2.07.28,3.49-1.39,4.94-2.29,2-4.33,4.23-6.46,6.39a5.24,5.24,0,0,0-1.36,2.14c3.7-2.07,6-5.78,9.8-8.44a20.31,20.31,0,0,1,1.19,2.36c3,8.94,5.89,17.94,9.1,26.81,1.17,3.25,1.93,6.06-1.08,8.61l-.13.35c-.39.5-1,.68-1.45,1.13a2.49,2.49,0,0,1-.6.42,3.42,3.42,0,0,0-1.21.78,2.8,2.8,0,0,1-.62.38,7.73,7.73,0,0,0-2.16,1.25,2.6,2.6,0,0,1-.6.42,5.84,5.84,0,0,0-2.09,1.46,2.45,2.45,0,0,1-.71.34c-2.6,1.63-4.94.68-7.11-.48.69.8,2.14.58,3.36,1.67a29.41,29.41,0,0,0,4,21.33c.16.17.32.35.49.51a4.42,4.42,0,0,1,.57.81,5,5,0,0,1,.35.49c.12.14.23.3.34.46l.18.22a2.56,2.56,0,0,1,.35.45l.15.24a1.46,1.46,0,0,1,.15.54Z" transform="translate(-0.02 -0.32)"/><path class="cls-7" d="M481.87,138.87c-2.78-2.4-5.55-4.8-8.35-7.18-1.14-1-2.32-1.9-3.67-3-4.91,4.26-9.14,9-11.79,14.9-8.86-7.15-18.47-6.87-28.69-3.13a101.41,101.41,0,0,0-15.07-18,6.35,6.35,0,0,1-3.44-2.85l0,0a25.85,25.85,0,0,0-2.81-2.68,36.41,36.41,0,0,0-13.76-6.45,11.5,11.5,0,0,1-1.79-.8c19.45-8.28,39.16-10.53,59.9-7.56-1.86-6.94-2.65-13.41-.59-20.4A54.5,54.5,0,0,0,454.7,87c.64.93,2,2.27,2.64,2.1a4.59,4.59,0,0,0,2.58-2.62,68.34,68.34,0,0,0,2-7.38c3.72,4.07,5.52,9,8.65,13.53,2-2.75,3.73-5.2,5.57-7.55,4.65-5.94,9-12.17,14.12-17.67A57.56,57.56,0,0,1,514,51.63a4.9,4.9,0,0,1,1.16,0l-1.27,6.62c-1.3,6.77-2.33,13.59-1.94,20.5.28,4.9,1,9.78,3.37,14.21A21.86,21.86,0,0,0,517,95.22c.66.9,1.27,1.83,2,2.69,1.28,1.56,1.2,2.16-.51,3-5.93,2.79-10.12,7.44-13.45,12.9a66.38,66.38,0,0,0-3.73,7.6c-1,2.27-1.29,2.49-3.8,2.16s-5.21-.69-7.82-1a12.3,12.3,0,0,0-2,.12c-.72,7.13.53,14.11,1.54,21.58l-3.93-2.54c-1.57.14-1.65-1.33-2.33-2.16Z" transform="translate(-0.02 -0.32)"/><path class="cls-8" d="M779.47,411.14l.17,2.82q0,20.75,0,41.49c1.71,2.23.92,4.29-.54,6.21a10.86,10.86,0,0,1-7.34,3.91c-9.14,1.44-18.31,2.7-27.6,2.41-1.41,0-2.87.14-4.05-.9-1.19-1.34-1-3-1-4.59q0-18.44,0-36.88c0-4.74-.25-5.17-3.9-5.9a6,6,0,0,1-3.64-2.58,21.94,21.94,0,0,1-3.85-13.88c.73-1.35,1.47-.76,2.16,0a7.13,7.13,0,0,1,1.14,2.26,33.37,33.37,0,0,0,2.82,5.85c1.94,3.09,4.34,3.16,6.42.24a35.45,35.45,0,0,0,2-3.42,31.72,31.72,0,0,1,3.33-5.24c4-4.71,9.15-4.9,13.41-.42a31.91,31.91,0,0,1,4.69,6.35,48.69,48.69,0,0,0,5.36,7.93c2.8,3.23,5.17,2.93,7.18-.8.54-1,.85-2.1,1.34-3.11C778,412.11,778.2,411,779.47,411.14Z" transform="translate(-0.02 -0.32)"/><path class="cls-9" d="M740.33,466.68c10.71.64,21.28-.67,31.82-2.42a12.5,12.5,0,0,0,1.92-.47c4.09-1.37,5.36-3.26,5.61-8.34,2.56.92,5.21,1.65,7.66,2.8s2.61,3.07.6,4.94a9.45,9.45,0,0,1-3.08,1.89,71.17,71.17,0,0,1-19.57,4c-1.12.08-2.22.36-3.33.55h-2.27c-1.33,1.27-2.66,1.09-4,0-8.26,0-16.52.14-24.78,0-3.64-.07-7.27-.71-10.9-1.13a4.81,4.81,0,0,1-1.26-.54c0-1.56,1.24-1.83,2.27-2a18.24,18.24,0,0,0,3.73-1.28c4.23-.65,8.37.47,12.56.66A4.09,4.09,0,0,1,740.33,466.68Z" transform="translate(-0.02 -0.32)"/><path class="cls-10" d="M606.15,65a4.84,4.84,0,0,1-4.78,4.95,4.81,4.81,0,0,1-.31-9.61A4.92,4.92,0,0,1,606.15,65Z" transform="translate(-0.02 -0.32)"/><path class="cls-4" d="M322.12,440.12a15.3,15.3,0,0,0,.42,9.78,24.48,24.48,0,0,1,.73,2.63c-2.14-1.9-2.42-4.56-2.78-7.14a32.21,32.21,0,0,1,0-4l-15.37,6-.35-.67c.65-.33,1.28-.71,2-1,3.57-1.47,7.15-2.89,10.7-4.4.52-.22.88-.8,1.31-1.21l.08-.08Z" transform="translate(-0.02 -0.32)"/><path class="cls-4" d="M326.15,437.75l1.2-.34.24.68-5.35,2Z" transform="translate(-0.02 -0.32)"/><path class="cls-6" d="M310.76,420.14l2.31-2.24.08.1-2.3,2.25Z" transform="translate(-0.02 -0.32)"/><path class="cls-6" d="M310.85,420.24l-1.58,1.63c-.43-1.62.58-1.62,1.5-1.73Z" transform="translate(-0.02 -0.32)"/><path class="cls-4" d="M317,439c-1.19,0-2.12-.36-2.29-1.72l.08-.08,2.29,1.72Z" transform="translate(-0.02 -0.32)"/><path class="cls-6" d="M310.84,430.15l-.59.54c-.15-.18-.43-.36-.43-.54s.28-.36.43-.54Z" transform="translate(-0.02 -0.32)"/><path class="cls-4" d="M311.85,432.61l.41,1.44-.48.12-.33-1.46Z" transform="translate(-0.02 -0.32)"/><path class="cls-6" d="M309.25,424.71l-.08-1.61.37,0,.09,1.61Z" transform="translate(-0.02 -0.32)"/><path class="cls-6" d="M309.43,426.6c-.14.05-.32.19-.42.14s-.12-.27-.17-.41c.14-.05.32-.19.42-.14S309.38,426.45,309.43,426.6Z" transform="translate(-0.02 -0.32)"/><path class="cls-4" d="M262.5,454.83c.19-.12.39-.25.59-.36,0,0,.09.11.14.18l-.65.28Z" transform="translate(-0.02 -0.32)"/><path class="cls-6" d="M313.07,417.9l1.1-.59.08.1-1.1.59Z" transform="translate(-0.02 -0.32)"/><path class="cls-4" d="M313.12,435.49l.58.58-.08.09-.58-.59Z" transform="translate(-0.02 -0.32)"/><path class="cls-4" d="M323.38,452.65l.44.44Z" transform="translate(-0.02 -0.32)"/><path class="cls-4" d="M323.95,453.23l.43.43Z" transform="translate(-0.02 -0.32)"/><path class="cls-4" d="M324.52,453.8l.42.42Z" transform="translate(-0.02 -0.32)"/><path class="cls-4" d="M313.71,436.08l.57.57-.08.08-.57-.57Z" transform="translate(-0.02 -0.32)"/><path class="cls-4" d="M314.74,437.28l-.55-.55.08-.08.55.55Z" transform="translate(-0.02 -0.32)"/><path class="cls-4" d="M317.12,438.92l.19.16L317,439Z" transform="translate(-0.02 -0.32)"/><path class="cls-4" d="M318.73,440.12l-.19-.16.27.08Z" transform="translate(-0.02 -0.32)"/><path class="cls-4" d="M313,435.58l-.19-.16.27.08Z" transform="translate(-0.02 -0.32)"/><path class="cls-11" d="M763.08,409.45c-1.4-1.88-2.76-3.81-4.22-5.64-2.68-3.36-6.45-4.63-9.43-2.8a15.58,15.58,0,0,0-4.26,4.4c-1.56,2.23-2.65,4.79-4.16,7.06-2.31,3.48-5.73,3.42-7.87-.18a70.44,70.44,0,0,1-3.13-6.64c-.51-1.1-1-2.22-1.51-3.32a2.28,2.28,0,0,1-1.47-1.86,29.21,29.21,0,0,0-1.71-4.77c-1.53-2.63-2.77-3-5.62-1.95-2.2.85-4.15,2.25-6.45,2.88-1,.29-1.82,1.06-2.92,1.1a2.63,2.63,0,0,1-3-1.35c-1.24-10.07-1-20,2.75-29.61,1.76-4.55,4.82-7,10.07-7.21,6.77-.28,13.54-1,20.33-1.27a7.76,7.76,0,0,1,3.09.23c.92.2,1.55,1,2.43,1.32,1-.23,1.3-1.53,2.34-1.8,4.47-.73,9-.2,13.44-.32a16.39,16.39,0,0,0,4.7-.59,31.52,31.52,0,0,1,11.9,2.11,7.22,7.22,0,0,1,5.16,7,130.3,130.3,0,0,1-2.14,32.62c-.67,3.31-1.23,6.64-1.84,10C778.61,410,777.3,410,776,410c-3.17.09-6.36-.21-9.51.45A3.86,3.86,0,0,1,763.08,409.45Z" transform="translate(-0.02 -0.32)"/><path class="cls-12" d="M459.32,441.22l-15.07-16.46-3.76-5.7c.76-1.84,2.53-2.19,4.12-2.68,10.13-3.1,20.24-6.25,30.39-9.26,6.49-1.93,6.56-2,3.73-8.24a220.28,220.28,0,0,1-9.54-25.18,9.76,9.76,0,0,1-.56-3.34,2.35,2.35,0,0,1,.34-.85c2.25-2.21,3.95-.14,5.8.75a2.9,2.9,0,0,1,1,1.48c3.07,9.33,5.88,18.75,9.69,27.82.29.7.55,1.41.88,2.09,1.59,3.29,2.52,3.78,6,2.79,7.82-2.2,15.55-4.72,23.32-7.07,2.71-.82,5.4-1.75,8.14-2.43,2.34-.58,4.18-2.13,6.43-2.81,1.39.42,1.76,1.62,2.06,2.81,1.93,7.49,4.32,14.83,6.62,22.21,1.54,4.93.65,6.58-4.37,8.21-7.89,2.56-15.87,4.81-23.78,7.31a17.19,17.19,0,0,0-4,1.41c-2.14.65-4.06-.31-6.06-.81-10.56-2.65-21-2.51-31.28,1.36a3.68,3.68,0,0,1-.72.48c-.48.26-1,.5-1.43.79a25.22,25.22,0,0,0-5.49,4.31C461.07,440.61,460.46,441.59,459.32,441.22Z" transform="translate(-0.02 -0.32)"/><path class="cls-13" d="M607.43,203.72l5.1,2.83c1.23,2.48-.7,3.27-2.32,3.77-3.82,1.18-7.54,2.84-11.66,2.81a6.94,6.94,0,0,0-2.18.49c-2.27.65-4.52-.06-6.72-.35-11-1.48-21.37,1-31.6,4.52-4.1,1.43-8.06,3.22-12,5-1.28.57-2.72,1.47-3.95.3s-.29-2.62.19-3.94a13.57,13.57,0,0,0,.84-2.11,47.67,47.67,0,0,1-3.77,8,2.35,2.35,0,0,1-.9.89c-5.11.87-10.28,1.4-15.26,3a87.62,87.62,0,0,0-30.71,17.24c-1.18,1-2.52,2.76-4.12,1.53-1.84-1.41-.19-3.12.58-4.51,1.42-2.55,2.86-5.1,3.8-6.43-1.08,1.46-2.49,4.24-4.1,6.89a4.8,4.8,0,0,1-2.29,2.4c-13.34,4.83-27.07,8.43-40.58,12.73-1.48.47-3.13,1.1-4.44-.5a79.3,79.3,0,0,1,14.26-16.42c5-4.36,10.23-8.4,15.54-12.34,8.34-6.19,17.83-7.44,27.8-5.59a3.29,3.29,0,0,0,3.76-1.41c7.65-9.52,17.68-14.55,29.82-15.4,2.25-.16,4.51,0,6.77,0a6.33,6.33,0,0,1,4.14-.46c2.77.86,5.14,0,7.56-1.27a64.68,64.68,0,0,1,34.75-7.24C593.27,198.62,600.72,199.83,607.43,203.72Z" transform="translate(-0.02 -0.32)"/><path class="cls-14" d="M607.43,203.72a23.13,23.13,0,0,1-2.72-.58,73.6,73.6,0,0,0-26.17-4,64.48,64.48,0,0,0-27.63,7.53c-2.57,1.33-4.91,2.14-7.74,1.07a21.49,21.49,0,0,0-3.89-.73c7.07-5.2,14.19-10.32,21.18-15.63a50.08,50.08,0,0,0,11.22-11.91c1.4-2.07,1.5-4.05,0-6-3.56-4.76-7.18-9.48-10.76-14.22-1.37-1.81-2.61-3.71-4.08-5.43-3.58-4.2-3.06-8.58-.38-12.79,2.53-4,5.57-7.6,8.26-11.47,1.76-2.54,4.22-2.67,6.47-1.53a61.57,61.57,0,0,1,10,6.23c2.35,1.82,4.18,4.34,6.15,6.62a9.08,9.08,0,0,1,1.4,2.45c1,2.43.63,3.35-1.86,4.7a33.56,33.56,0,0,1-15.12-9.13A32.72,32.72,0,0,0,586.95,148l-4.58,6c-.33.44-.68.86-1.13,1.42,2.63,3.87,5.27,7.64,7.79,11.48,2,3,3.8,6.07,5.68,9.13a4.76,4.76,0,0,1,0,5.36c-1.57,2.45-3.26,4.84-4.9,7.24-.57.83-1.15,1.65-1.84,2.63,6.08,3.78,11.92,7.39,17.74,11A18.57,18.57,0,0,1,607.43,203.72Z" transform="translate(-0.02 -0.32)"/><path class="cls-15" d="M469.34,370.2A211.87,211.87,0,0,0,481,400.87a9.39,9.39,0,0,1,.77,1.82c.58,2.44,0,3.48-2.37,4.23-9.46,2.93-18.94,5.8-28.39,8.73-3.51,1.09-7,2.27-10.48,3.41-10.08-14.78-16.18-31.2-20-48.57a11.5,11.5,0,0,1-.09-2c1.54-1.23,2.87-.24,4.17.45a43.06,43.06,0,0,0,16.29,5.33,52.79,52.79,0,0,0,24.94-3.45C467,370.39,468,369.59,469.34,370.2Z" transform="translate(-0.02 -0.32)"/><path class="cls-16" d="M662.59,224.58c6.75-1.49,13.58-1.9,20,.88A70.08,70.08,0,0,1,695,232.7a137.39,137.39,0,0,1,27,25.19c1.89,2.31,3.58,4.78,5.36,7.18-1.92,1.8-3.52.49-5-.67a124.79,124.79,0,0,0-14.66-10.1c-8.82-5.21-18.25-9-27.81-12.57-1.42-.53-2.72-1.29-4.14-1.73-.92,1.08.19,1.66.61,2.34a128.26,128.26,0,0,1,9.86,19.45c.59,1.44,1.48,3,.21,4.53-.26.13-.59.27-.81.14-3.66-2.07-7.45-4-10.12-7.41-2.15-7.92-5.71-15-12.2-20.3a8.9,8.9,0,0,0-4.63-2c-1.85-.22-2.87.55-3,2.47a26.09,26.09,0,0,0,1,8.13c.7,2.94,1.57,5.83,2.35,8.74a2.73,2.73,0,0,1-.94,2c-4.82,2.23-10,3.38-15.07,4.85a4.84,4.84,0,0,1-4.06-.77c-1.44-1.16-1.73-2.89-2.16-4.51a206.15,206.15,0,0,0-12.14-32.86c-.58-1.25-1.51-2.52-.26-3.91,2.19-1.38,4.63-.91,6.92-.68,8.27.84,16.5,2,24.34,5C658,226.22,660.45,226.34,662.59,224.58Z" transform="translate(-0.02 -0.32)"/><path class="cls-16" d="M419.42,311.68l3.7-16a114.34,114.34,0,0,1,15.75-18.42c11.58-10.91,24.24-20.19,39.6-25.18,1.37-.45,2.83-1.33,4.25,0,.62,1.4-.07,2.6-.65,3.77a174.2,174.2,0,0,0-14,39.16,5.65,5.65,0,0,1-1.29,2.8c-3.25,2.46-7.19,3.19-11,4.35-10.72,3.3-21.43,6.62-32.18,9.79C422.24,312.4,420.75,313,419.42,311.68Z" transform="translate(-0.02 -0.32)"/><path class="cls-17" d="M419.42,311.68c1.93-.43,3.89-.73,5.77-1.3q18.43-5.6,36.83-11.3c1.51-.47,3-1.07,4.47-1.6,1.45,1.44.37,3,.27,4.57a3.26,3.26,0,0,1-.23.86,8.58,8.58,0,0,1-.7,1.15c-6.89,7.94-10.09,17.3-10.68,27.67-.12,2.13.49,4.37-.84,6.35-2.16,1.7-4.85,2-7.35,2.8-8.29,2.58-16.59,5.15-24.91,7.62-1.39.41-2.83,1.3-4.3.12a150.36,150.36,0,0,1,1.1-34.44C419,313.32,419.22,312.5,419.42,311.68Z" transform="translate(-0.02 -0.32)"/><path class="cls-18" d="M417.75,348.6q15.79-4.85,31.59-9.68c1.52-.46,3.1-.74,4.65-1.1,1.24.76,1,2.14,1.34,3.27.85,2.78,2.27,3.32,4.89,2,1.39-.69,2.61-2.48,4.53-1.06,1.21,3.2,1.19,6.62,1.77,9.93.76,4.35,1.58,8.68,2.63,13,.37,1.53,1,3.09.2,4.68q0,.28,0,.56c-4.88,3.38-10.52,4.36-16.22,5.1a59.74,59.74,0,0,1-6.16.56A45,45,0,0,1,423,369.48a16.76,16.76,0,0,0-2.56-1Z" transform="translate(-0.02 -0.32)"/><path class="cls-19" d="M383,224.21l-6.59,2.47c-6.32-5.41-13.11-10.82-22.51-11.45A53.56,53.56,0,0,1,383.38,204c-1.13-3.51-3-6.49-2.5-10.34l3.34,2.76c1.42-1.42,1.42-1.42,1.82-5.69l5.89,5.64c.51-1,1-1.8,1.28-2.62,2.46-6.14,4.94-12.29,9.21-17.43a88.76,88.76,0,0,1,7-6.79l.7.36q.37,3.58.74,7.16c.47,4.53,1.31,9,3.91,12.84a23.25,23.25,0,0,0,2.91,3c1,.78,1.13,1.43.13,2.49a21.13,21.13,0,0,0-6,13.67l-6.3,1.16c-.91,2,.21,3.71.74,5.46s1.15,3.34,2,5.68c-3.42-1.59-6.29-2.89-9.13-4.24s-3.08-1.41-4.5,1.49c-1.07,2.19-2,4.44-3,6.66a13.92,13.92,0,0,1-5.7-1.64Z" transform="translate(-0.02 -0.32)"/><path class="cls-18" d="M675.58,239c14.5,5,28.6,10.85,41.24,19.73a63.33,63.33,0,0,1,6.47,5,4.9,4.9,0,0,0,4.12,1.34c4.85,6,8.45,12.72,11.76,19.61,1.59,3.31,2.79,6.8,4.17,10.21.66,2.6-.3,4.84-2.89,6.77-2.28-.48-2.29-2.56-2.75-4.18a74.84,74.84,0,0,0-10.31-21.95,21.3,21.3,0,0,0-5.45-6.07c-1-.7-2.12-1.49-3.36-.68s-.78,2.17-.56,3.36a37.11,37.11,0,0,0,1.87,5.64c.41,1.13,1,2.3,0,3.48-6.33,1.15-12.33,3.5-18.52,5.16-4,1.07-5.51.28-6.73-3.79a160.65,160.65,0,0,0-7.83-21,180.89,180.89,0,0,0-10.56-19.39C675.69,241.26,674.59,240.35,675.58,239Z" transform="translate(-0.02 -0.32)"/><path class="cls-10" d="M740.34,301.43l3-6.54,2.51-4.14c.36,3.68.54,7,1,10.27,1.17,7.6,4.05,14.67,6.91,21.75,2.08,5.16,4,10.38,4.38,16a43,43,0,0,1-.2,4.75c-2.2,4.31-6.43,4.93-10.51,5.57-6.79,1.07-11-2.63-14.18-8.07-1.43-2.45-2.08-5.24-3.35-7.77-.6-1.77.42-3.38.46-5.09a43.77,43.77,0,0,1,2.83-12c1.54-4,2.92-8.16,4.77-12.09C738.51,302.95,739,301.83,740.34,301.43Z" transform="translate(-0.02 -0.32)"/><path class="cls-6" d="M367.66,415.62c4.15-1.28,4-1.21,6.25,2.86,4.28,7.76,8.73,15.42,13.1,23.12.41.72.75,1.47,1.31,2.55-1.31.39-2.33.78-3.39,1-7,1.49-14,3-21,4.35-.94.18-2.06-.53-3.1-.83l-.1-.13-.42-.42-.15-.15-.41-.41-.16-.16-.41-.41-.13-.16c-.25-.29-.21-.71-.47-1l-.09-.12a30.61,30.61,0,0,1-5.1-17.56c0-3.64,1.79-5.71,5.08-6.78l.13-.1c.63-.66,1.54-.94,2.17-1.6l.12-.09A11.78,11.78,0,0,0,363.6,418l.13-.1a7.61,7.61,0,0,0,1.58-1l.12-.1c.63-.51,1.51-.53,2.14-1Z" transform="translate(-0.02 -0.32)"/><path class="cls-20" d="M662.59,224.58l-.3,3.15a60.94,60.94,0,0,1-7.6-1.54,81,81,0,0,0-20.41-4.27c-3.29-.23-6.58-.36-9.87-.53a1.1,1.1,0,0,1-1.54-.18c-.7-1.12-.73-2.55-1.51-3.38.28.61,1.09,1.4.37,2.33a2.14,2.14,0,0,1-2.62.39,185.05,185.05,0,0,0-21.75-6.24c-.67-.16-1.53-.41-1.32-1.48,3.81-1,7.63-1.89,11.43-2.86,1.09-.28,2.14-.74,3.24-1a2.06,2.06,0,0,0,1.82-2.42c2.16,1.25,4.4,1,6.8.81,7.06-.58,14.14-.54,21.07,1.21a35.13,35.13,0,0,1,19.7,13.32A35.54,35.54,0,0,0,662.59,224.58Z" transform="translate(-0.02 -0.32)"/><path class="cls-20" d="M482.44,252.05c-11.58,3-21.84,8.75-31.12,16.13a200.42,200.42,0,0,0-16.17,14.48c-3.66,3.62-6.69,7.87-10.05,11.78a8.31,8.31,0,0,1-2,1.28,109.48,109.48,0,0,1,11.65-27.59c2-3.42,4.36-6.61,6.55-9.9a32,32,0,0,0,4.43-.72c13.09-4,26.16-8.08,39.25-12.12a8,8,0,0,1,1.4-.18c.84,2.75-1.44,4.34-2.39,6.42A1.36,1.36,0,0,1,482.44,252.05Z" transform="translate(-0.02 -0.32)"/><path class="cls-21" d="M763.08,409.45l16.47-.6-.08,2.29c-1,2.22-1.84,4.51-3,6.65-1.6,3-4.79,3.6-7.12.89S765.16,412.55,763.08,409.45Z" transform="translate(-0.02 -0.32)"/><path class="cls-11" d="M731,333.27a43.06,43.06,0,0,0,2.75,6.46,33.38,33.38,0,0,0,5.25,6.53c2.74,2.6,6.32,2.05,9.66,1.55a18.33,18.33,0,0,0,9.35-4.29c-.55,4.25-3.07,6.65-7.81,7.46-1.73.76-3.46,1.48-5.4.83a18.11,18.11,0,0,1-14.87-14.9C729.69,335.59,729.23,334.07,731,333.27Z" transform="translate(-0.02 -0.32)"/><path class="cls-10" d="M766.48,357.14c-.7,1.58-2.05,1.71-3.55,1.7-5,0-10,0-15,0-1.3-1.51-1.4-2.71.87-3.28a8.65,8.65,0,0,0,2.65,1c3.83.12,7.68,0,11.51.08A27.74,27.74,0,0,1,766.48,357.14Z" transform="translate(-0.02 -0.32)"/><path class="cls-21" d="M748.76,355.53l-.87,3.28a2.48,2.48,0,0,1-.13.81c-.36.66-.71,1.73-1.21,1.82s-1.34-.62-1.94-1.09c-.24-.19-.26-.66-.39-1a3.55,3.55,0,0,1-1.18-2.54c.37-2-.56-4.25,1.29-5.91l5.82.09C748.69,352.19,748.91,353.92,748.76,355.53Z" transform="translate(-0.02 -0.32)"/><path class="cls-10" d="M551.83,123.85a3,3,0,0,1-2.91,3.15,3.11,3.11,0,1,1-.1-6.2A3,3,0,0,1,551.83,123.85Z" transform="translate(-0.02 -0.32)"/><path class="cls-10" d="M751.93,264.81A2.91,2.91,0,0,1,749,262a3,3,0,0,1,2.74-3,3,3,0,0,1,3.08,3A2.9,2.9,0,0,1,751.93,264.81Z" transform="translate(-0.02 -0.32)"/><path class="cls-10" d="M641.78,183.4a2.68,2.68,0,0,1-5.35-.09,2.68,2.68,0,0,1,5.35.09Z" transform="translate(-0.02 -0.32)"/><path class="cls-6" d="M385.82,223.67a7.53,7.53,0,0,1,5.7,1.64C388.83,226.17,387,225.64,385.82,223.67Z" transform="translate(-0.02 -0.32)"/><path class="cls-6" d="M483,139.55l2.33,2.16C483.1,142.67,483.07,142.65,483,139.55Z" transform="translate(-0.02 -0.32)"/><path class="cls-3" d="M258.93,461.2l.17.32c-.08,0-.17.1-.23.08a2.3,2.3,0,0,1-.38-.22Z" transform="translate(-0.02 -0.32)"/><path class="cls-9" d="M714.26,468.46c-3.77.77-7.53,1.66-11.32,2.28-5.1.83-10.23,1.5-15.36,2.17-2.43.32-4.87.51-7.31.69q-8,.61-16.06,1.16c-6,.4-12,.86-18,1.12-10.46.45-20.93.92-31.4,1.12q-24.81.47-49.64.55c-6.79,0-13.59-.26-20.38-.57-6-.27-12-.75-18-1.14-.73-1.05,0-1.78.63-2.45,1.5-1.7.88-2.82-.88-3.73A29.09,29.09,0,0,0,522,468c-1.06-.35-2.18-.58-2.83-1.65.79-3.78,4.17-5.34,7.27-3.44,3.4,2.09,6.12,5,9.08,7.58a8.4,8.4,0,0,0,2.52,1.72c1.09.49,2.12,1.23,3.46,1,.75-1.91-.84-4.36,1.49-5.77a102.47,102.47,0,0,0,14.67-1,7.78,7.78,0,0,1,3.34.53,68.2,68.2,0,0,0,14,2.2c6,.46,12.09.51,18.13.49,9.42,0,18.66-1.18,27.52-4.57a15.6,15.6,0,0,1,6.38-1.1,82.24,82.24,0,0,0,32.54-5.14,16,16,0,0,1,7.31-.43,42.78,42.78,0,0,0,27.1-6.18c2.82-1.68,5.4-3.86,8.68-4.7,3,.35,6.22-.36,8.64,2.19a11.28,11.28,0,0,1,.22,5.37c-1.06,1.83-3.12,1.91-4.76,2.73s-4.06,1-4.12,3.31,2.46,2.49,4.06,3.27c1.79.87,3.8,1.08,5.65,1.75C713.37,466.45,714.93,466.61,714.26,468.46Z" transform="translate(-0.02 -0.32)"/><path class="cls-22" d="M537.49,473a32.6,32.6,0,0,1-3-2c-3.42-2.87-6.78-5.81-10.41-8.93l-4.72,4.19c-.06,1.68-1.4,2.36-2.52,3.17a44.55,44.55,0,0,1-12.16,5.8,50.91,50.91,0,0,1-36-1.6,23.39,23.39,0,0,1-12.28-10.87A3.17,3.17,0,0,0,455,461.1c-3.11,1.09-6,3.25-9.59,3.38-2.49.87-4.95,1.85-7.48,2.59-2,.58-2.76,0-2.71-2,.09-3.39.48-6.77.74-10.16,1.89.07,2.06,1.76,2.59,2.95,1,2.17,2.3,3,4.68,2.24s5.08-1.36,7.28-2.82c-.69-3.6-.7-3.62,2.89-5.4a2.56,2.56,0,0,0,1.33-1.71,4,4,0,0,1,1.56-2.6l3-6.36,1.94-1.76a2.42,2.42,0,0,1,1.21,2.39c.6,12.18,9,19.79,19.81,21.84,8.15,1.55,16.12,1.23,23.8-2.34,5.29-2.46,8.9-6.56,11.81-11.43a6.82,6.82,0,0,1,2-2.7c1.88-.61,3,.46,4,1.82a3,3,0,0,0,.38.39,1.6,1.6,0,0,1-.13-.53,1.18,1.18,0,0,1,.7-.83,2.13,2.13,0,0,1,2,.23c1,.92.92,2.21,1.17,3.39a5.74,5.74,0,0,0,4.46,4.88c2.82.72,3,1.1,1.54,3.66a2.73,2.73,0,0,0,.15,3.13,35.73,35.73,0,0,1,3.22,6C537.85,470.5,538.63,471.74,537.49,473Z" transform="translate(-0.02 -0.32)"/><path class="cls-9" d="M445.41,464.49l10.4-5.52a2.09,2.09,0,0,1,.49.64c2.43,6.88,7.62,10.91,14.1,13.46,10.75,4.23,21.73,4.49,32.83,1.48.45-.12.92-.2,1.37-.3,4.19-.82,8.39-.12,12.59-.08,1.53,0,3,.18,3.88,1.75-.56.4-1.07,1-1.68,1.15-4.44.8-8.87,1.88-13.35,2.14-8.29.48-16.61.76-24.9.57a102.3,102.3,0,0,1-25.68-3.39,19.34,19.34,0,0,1-4.69-1.94c-2.53-1.53-2.49-3.62,0-5.25.91-.61,1.89-1.11,3.11-1.81Z" transform="translate(-0.02 -0.32)"/><path class="cls-23" d="M456.29,447.58a28,28,0,0,0-.51,3.32c-.06,1.59-1,2-2.35,2.29a16.86,16.86,0,0,0-2.66,1.06c.57.77,1.15,1.54,1.71,2.32a4.58,4.58,0,0,1,.3.8,7,7,0,0,1-1.63,1.17c-2.92,1-5.84,2.1-8.81,2.95-2.45.69-3.11.29-4.25-2-.75-1.51-1.42-3.06-2.13-4.59a21.73,21.73,0,0,0-1.71-10.18c-1.12-2.56-.5-3.63,2.37-4.05a19.59,19.59,0,0,1,6.12,0C447.92,441.62,452.73,443.41,456.29,447.58Z" transform="translate(-0.02 -0.32)"/><path class="cls-19" d="M521.07,475.92c-4.59-.39-9.18-.77-13.76-1.18-.91-.08-1.8-.32-2.7-.49a48.38,48.38,0,0,0,14.75-8c2.52.78,5.11,1.37,7.53,2.4,3.45,1.47,3.61,3.34.79,5.91a8.64,8.64,0,0,0-1,1.3Z" transform="translate(-0.02 -0.32)"/><path class="cls-19" d="M714.26,468.46a19.6,19.6,0,0,0-2.77-1.51c-2.57-.92-5.2-1.66-7.77-2.59-1.47-.54-2.62-1.42-2.59-3.31a3.22,3.22,0,0,1,2.45-3.11c2.37-.9,4.79-1.68,7.18-2.5.93.49.85,1.52,1.24,2.3.61,3,2.74,4.35,5.43,5.06,1.54.41,3.13.6,4.67,1,1,.25,2.09.37,2.45,1.59L718.76,468Z" transform="translate(-0.02 -0.32)"/><path class="cls-3" d="M755.7,469.66h4c-.48.68-.89,1.85-1.46,1.95A2.08,2.08,0,0,1,755.7,469.66Z" transform="translate(-0.02 -0.32)"/><path class="cls-4" d="M358.47,421.39c-.31.34-.56.85-.94,1-2.87,1.07-3.47,3.35-3.56,6.1a28,28,0,0,0,3.26,14.13,33.28,33.28,0,0,1,1.26,3.11c-2.19-.95-2.51-3.21-3.2-5-1.8-4.75-3.27-9.63-2-14.84.1-.42-.2-.91-.19-1.37a6.15,6.15,0,0,1,.3-1.27L350,421.88l0-.59A11.26,11.26,0,0,0,358.47,421.39Z" transform="translate(-0.02 -0.32)"/><path class="cls-4" d="M345.89,429.08l-5.84,2.72-.34-.71,5.74-2.87Z" transform="translate(-0.02 -0.32)"/><path class="cls-4" d="M328.73,436.57l4.71-2.29.38.8-4.71,2.29Z" transform="translate(-0.02 -0.32)"/><path class="cls-3" d="M410.86,119.59l3.44,2.85C411.46,122.29,411.32,122.18,410.86,119.59Z" transform="translate(-0.02 -0.32)"/><path class="cls-4" d="M347.91,426.73l2.68-1.34.38.7-2.64,1.47Z" transform="translate(-0.02 -0.32)"/><path class="cls-4" d="M363.6,418c-.3,1.55-1.51,1.58-2.72,1.61Z" transform="translate(-0.02 -0.32)"/><path class="cls-4" d="M360.77,419.69l-2.17,1.6Z" transform="translate(-0.02 -0.32)"/><path class="cls-4" d="M367.57,415.7l-2.14,1Z" transform="translate(-0.02 -0.32)"/><path class="cls-4" d="M365.31,416.85l-1.58,1Z" transform="translate(-0.02 -0.32)"/><path class="cls-4" d="M358.59,445.84l.47,1Z" transform="translate(-0.02 -0.32)"/><path class="cls-4" d="M359.19,447l.41.41Z" transform="translate(-0.02 -0.32)"/><path class="cls-4" d="M360.32,448.12l.42.42Z" transform="translate(-0.02 -0.32)"/><path class="cls-4" d="M359.76,447.56l.41.41Z" transform="translate(-0.02 -0.32)"/><path class="cls-21" d="M724.57,465.39c-2.56-.48-5.15-.85-7.67-1.47-3-.75-5.54-2.22-5.93-5.78.35-3.47.1-7,.25-10.41.42-9.88.3-19.76.68-29.64.19-4.9,0-9.81.07-14.72a9.3,9.3,0,0,1,.31-3.63,38.82,38.82,0,0,1,8.41-5.57c2.05-1.08,3.81.12,5,2,.85,1.36,1.16,3,2.26,4.22l.56,1.93c.51,4.79,1.08,9.54,3.78,13.74a6.71,6.71,0,0,0,4.9,3c2.83.46,3.16.74,3.16,3.6q0,22,0,44Z" transform="translate(-0.02 -0.32)"/><path class="cls-24" d="M708,396.37l3,.26c1.29,1.34,1.1,2.87.56,4.45a5.4,5.4,0,0,1-3.26,2.05c-5.92,1.95-11.94,3.59-17.88,5.49-1.45.46-3,.91-4.3-.29s-1-2.94-.5-4.5c3.43-10.41,6.79-20.83,9-31.59a3.2,3.2,0,0,0,.07-2c-.81-.74-2.24-.15-3-1.19a4.23,4.23,0,0,1-.33-3.28c1.54-8.72,3.55-17.37,4.31-26.22a5.47,5.47,0,0,1,1.16-3.44c2.16-1.17,3.58,0,4.85,1.57.8,2.81,0,5.6-.2,8.39a178.32,178.32,0,0,1-2.66,18.44c-.36,1.94.38,2.76,2.08,3.3s3.6.59,4.75,2.24c1.12,2.34-.11,4.6-.19,6.91-.2,5.51-1.12,11.07.94,16.45A9,9,0,0,0,708,396.37Z" transform="translate(-0.02 -0.32)"/><path class="cls-10" d="M708,396.37c-.92-.82-2.2-1.48-2.67-2.51a15.87,15.87,0,0,1-1.23-5.15,73.71,73.71,0,0,1,1.22-18.47c-1.35-5.31,3.27-11.85,9.54-12.33,8.52-.65,17-1.72,25.58-1.95,1.22,0,2.48-.07,3.36,1.06l.46,2.31c-6.89.21-13.78.38-20.67.66a36.94,36.94,0,0,0-5.6.73,8,8,0,0,0-5.83,4.52A43.14,43.14,0,0,0,708,382.18C707.75,386.9,708,391.64,708,396.37Z" transform="translate(-0.02 -0.32)"/><path class="cls-25" d="M743,369.64h-9.66c-1.18,0-2.39,0-2.57-1.56s1-2,2.16-2c3.2-.13,6.4-.13,9.6-.1,10.28.11,20.59,1.41,30.81-.83,1.1-.24,2.16-.68,3.26-1s2.37-.49,2.86,1-.45,2.19-1.64,2.52c-2.63.73-5.28,1.76-8,1.92-5.44.32-10.91.16-16.36.18-3.5,0-7,0-10.51,0Z" transform="translate(-0.02 -0.32)"/><path class="cls-10" d="M710.78,401.46l.21-4.82,2-.87a2.15,2.15,0,0,1,.17,3.4c-.06,5.1-.08,10.19-.18,15.29-.16,7.92-.29,15.83-.59,23.74-.23,6.2-.68,12.4-1,18.59a7.24,7.24,0,0,1-.34,1.35l-.2-2.7v-5.7c-1.32-1.36-1.18-3.07-1.11-4.75a8.88,8.88,0,0,0,0-3.05c-.15-.91.22-1.81.08-2.73-.36-11.66-.13-23.32-.13-35A3.56,3.56,0,0,1,710.78,401.46Z" transform="translate(-0.02 -0.32)"/><path class="cls-8" d="M713.12,399.17l-.17-3.4c2.47-1.15,4.9-2.41,7.42-3.42s4.18-.39,5.35,2a60.14,60.14,0,0,1,2.23,6c-.79-1-1.64-1.92-2.36-3-2.38-3.42-3.58-3.57-6.75-.93C717.19,397.88,715.54,399.4,713.12,399.17Z" transform="translate(-0.02 -0.32)"/><path class="cls-24" d="M526.52,448.52l-2,.14c-1,0-1.47-.77-2-1.44a37.36,37.36,0,0,0-12.84-10.49c-1.29-.67-2.92-1.07-3.2-2.89.64-1.7,2.23-1.83,3.67-2.27,8.66-2.65,17.32-5.28,26-8,2.52-.79,3-1.75,2.29-4.27-2.51-8.59-5.08-17.16-7.64-25.73a6.69,6.69,0,0,0-.66-1.22c-1.11-.61-1.36-1.74-1.66-2.82-.76-2.8-1.35-5.65-1.95-8.49-.36-1.69-.67-3.48,1-4.65s3-.16,4.39.71a12.75,12.75,0,0,1,1.24.65,2.09,2.09,0,0,1,.66,1.24c2.81,11.16,5,22.46,8.16,33.56,1.72,6.11,1.84,6.25,7.92,4.45,8.33-2.46,16.56-5.27,25-7.54,2.56,0,4.67,1.52,7.1,2a28.53,28.53,0,0,0,11.42.13c5.35-1,9.28-4.2,12.69-8.2a26.14,26.14,0,0,0,5.29-8.53,74.75,74.75,0,0,0,3.38-8.89,5,5,0,0,1,1.53-2.62c2.46-1.49,5.29-2,8-2.93,4.19-1.49,8.34-3.07,12.43-4.81,1.28-.54,2.59-1.31,4-.36,1,1.21.9,2.64.74,4.06-1.54,14.29-3.63,28.5-6.13,42.65-.73,4.14-3.13,6.49-7,7.66-12,3.63-24.06,7.35-36.1,11-4.07,1.24-8.19,2.36-12.19,3.79a31.12,31.12,0,0,1-16.73,1.1,5.85,5.85,0,0,0-1.12-.18c-.93,0-2-.32-2.66.55s.19,1.76.65,2.54a30,30,0,0,0,6.88,7.48c1.32,1.1,3.17,1.91,3.12,4.09-1,1.26-2.3,1.1-3.62.94a19.39,19.39,0,0,1-3.83-1c-4.48-1.49-8.76-2.74-13.26.46a10.08,10.08,0,0,1-7.38,1.23c-2-1.11-1.72-3-1.54-4.76a72.71,72.71,0,0,1,1.64-8.86c.75-3.26-.12-4.22-3.45-3.62-3.07.55-5.75,2.24-8.62,3.36C528.88,448.19,527.82,448.84,526.52,448.52Z" transform="translate(-0.02 -0.32)"/><path class="cls-23" d="M520.56,447.45a36.5,36.5,0,0,1-6.84,10A27.44,27.44,0,0,1,498.54,465a43.27,43.27,0,0,1-19.31-.89c-10.53-3-17.93-11.62-17.89-23,0-.57,0-1.13-.08-1.7l6.18-4.62a4.06,4.06,0,0,0,.78-.46l-.05,0a57.35,57.35,0,0,1,31.25-.45c7.52,1.94,13.73,6.59,19.92,11.1A2.39,2.39,0,0,1,520.56,447.45Z" transform="translate(-0.02 -0.32)"/><path class="cls-15" d="M533,378.17l-4.9-1.43c-1.25,1.06-.74,2.44-.44,3.8.85,3.94,1.68,7.87,2.52,11.81-1,2.12-2.86,2.7-4.92,3.31-11.2,3.33-22.36,6.79-33.54,10.19-2.76.84-4.65.24-5.7-2.49-3.21-8.35-6.22-16.78-9.23-25.21-.73-2-1.16-4.17-1.73-6.26,1.12-.89,2.19-.29,3.19.19,10.66,5.06,22,5.95,33.54,5.37,3.57-.18,7.15-.59,10.72-1,2.19-.26,2.78-1.35,2.39-3.24-1.33-6.49-2.15-13-3-19.61-.45-3.46-.65-6.95-1.19-10.4-.22-3.66-.9-7.34.45-10.94,2.69-1.26,5.24-.55,7.41,2.07,1,3.39.63,6.93.94,10.39.86,9.78,2.09,19.49,3.85,29.14C533.59,375.3,534.16,376.83,533,378.17Z" transform="translate(-0.02 -0.32)"/><path class="cls-26" d="M521.63,343.5c.36,1.91.82,3.81,1.08,5.74,1.22,9,2.38,18.06,3.62,27.51a11.62,11.62,0,0,1-2.46.79,130.08,130.08,0,0,1-23.7,1.14c-8.51-.53-16.8-2.2-24.33-6.57a3,3,0,0,0-.82-.2l-.58-1.12a19.81,19.81,0,0,1-3.05-12.55c3.26-1.5,6.84-1.92,10.24-3,12.59-4.05,25.39-7.46,37.87-11.87A2,2,0,0,1,521.63,343.5Z" transform="translate(-0.02 -0.32)"/><path class="cls-25" d="M520.56,447.45c-6.9-5.34-14-10.32-22.6-12.56a51.68,51.68,0,0,0-19.64-1.25c-3.36.42-6.76.53-10.15.78,4.77-2.75,10-3.52,15.4-3.92a53.2,53.2,0,0,1,23,3.34c2.37,1.33,4.76,2.63,7.1,4a28.43,28.43,0,0,1,10.92,10.82l-.12,1.12,0,0Z" transform="translate(-0.02 -0.32)"/><path class="cls-15" d="M471.62,358.27l2.82,12.51c-1.76-.08-3-2.32-5.09-1.14-1-4.17-2.32-8.3-3.08-12.52-.91-5.07-1.39-10.22-2-15.33,1.25-2.76,2.48-3.41,5.12-2.71,1,1,1,2.32,1.2,3.63.49,4,1.15,7.94,1.83,11.9C472.61,356,472.69,357.22,471.62,358.27Z" transform="translate(-0.02 -0.32)"/><path class="cls-25" d="M468.22,434.38l-.78.46Z" transform="translate(-0.02 -0.32)"/><path class="cls-16" d="M483.54,251.44l2.85-6.23,8.67-13.07.78.45-7.78,14.24.5.6a7.41,7.41,0,0,0,1.89-.93,83.25,83.25,0,0,1,23.64-15.37c7.64-3.32,15.51-6,24-5.79,1.06,1.24.46,2.53,0,3.71a197.36,197.36,0,0,0-8.57,26.82c-.32,1.24-.48,2.65-2,3.14-1.89-1.06-1.62-3-2-4.72-.62-2.9-.92-3.13-3.8-2.51a105.22,105.22,0,0,0-23.49,8.17c-2.63,1.27-2.73,1.75-1.21,4.28l.74,1.21c1.7,2.75,1.78,2.79,4.69,1.44a97.57,97.57,0,0,1,20.86-7.16c1.49-.31,3.15-1.07,4.48.52.8,2.2-.11,4.29-.51,6.38-1.19,6.2-2.23,12.41-2.87,18.69a7.58,7.58,0,0,1-1.31,4.26,3.09,3.09,0,0,1-3.22.16c-5.25-2-10.77-2.58-16.3-3.16a42.71,42.71,0,0,0-12.85,2.23,4,4,0,0,1-.84.33,2.89,2.89,0,0,1-.88.13,40.61,40.61,0,0,0-13.47,7.09c-1.28,1-2.61,2.91-4.39,1.74s-.67-3.16-.37-4.77a168,168,0,0,1,10.74-34.92C482.46,256.2,483.91,254.06,483.54,251.44Z" transform="translate(-0.02 -0.32)"/><path class="cls-16" d="M596,212.82c2.71.68,5.45,1.29,8.13,2.07,4.7,1.36,9.37,2.84,14,4.26l3.45,1.07-2.29-5.41c1.9,1.29,3,3,3.91,6,.4,3,2.23,5.46,3.3,8.21.69,1.78,1.42,3.49.75,5.43a8.46,8.46,0,0,1-4.16,3.64,2.45,2.45,0,0,1-1.77-1.3,41.33,41.33,0,0,0-7.09-11.18,23.22,23.22,0,0,0-14.89-7.44c-8.21-.78-16.46-.47-24.24,2.82-8.35,3.53-12.58,10.09-13.81,18.92a62.54,62.54,0,0,0-.15,14.38q1.46,6.44,3.55,12.7c.5,1.5,1.25,3,.24,4.57-3.35,1.52-7,2.14-10.46,3.23-6.56,2-13.11,4.12-19.72,6-1.44.42-2.92.9-4.34-.12-1.3-1.55-1-3.38-.76-5.14,2.4-15.93,5-31.83,9.45-47.34a3.39,3.39,0,0,0-.52-3.44c1.51-4.21,3.76-8,5.77-12l.82.37-3.32,10.07c2.31-1,4-1.65,5.66-2.41a99.1,99.1,0,0,1,22.13-7.62c6.36-1.27,12.76-2.29,19.3-1C591.33,212.6,593.7,212.62,596,212.82Z" transform="translate(-0.02 -0.32)"/><path class="cls-18" d="M538.67,224.76l2.72-.53c-1.2,4.79-2.47,9.21-3.39,13.69-2,9.58-3.85,19.18-5.57,28.81-.81,4.52-1.16,9.13-1.72,13.7a19.45,19.45,0,0,1-1.14,12.5,6.33,6.33,0,0,1-6.83-3.39c.67-5.31,1.23-10.64,2-15.94.69-4.55,1.67-9.06,2.52-13.59a.78.78,0,0,1,.08-1.18c1.52-5.32,2.91-10.68,4.6-15.94,1.61-5,3.53-9.91,5.3-14.86.32-.88.55-1.79.82-2.69Z" transform="translate(-0.02 -0.32)"/><path class="cls-16" d="M496.93,231.14l-.43.16c-.05-.14-.19-.32-.14-.42s.27-.12.41-.18Z" transform="translate(-0.02 -0.32)"/><path class="cls-16" d="M545.71,211l.17.06a.56.56,0,0,1-.08.19s-.11,0-.17-.06Z" transform="translate(-0.02 -0.32)"/><path class="cls-11" d="M586.95,148c-7.33-.82-16.42-7.13-18.51-13.27a65.85,65.85,0,0,0,6,5.25c4.09,2.81,8.36,5.36,12.56,8Z" transform="translate(-0.02 -0.32)"/><path class="cls-26" d="M734.21,316.27l-3,11.9a4.59,4.59,0,0,1-2.14,1.75c-3.24,1-6.43,2-9.62,3.15a2.31,2.31,0,0,1-1.91-.1c-1-.82-1-2-1.06-3.09a44.3,44.3,0,0,0-8.37-23.25,10,10,0,0,0-2-2,3.67,3.67,0,0,1-1-.78,4.66,4.66,0,0,0-2-1.77c-2.84-2.32-5.3-5.08-8.27-7.26a3.26,3.26,0,0,1-1.34-2.1,159.92,159.92,0,0,0-7.11-24.7,1.83,1.83,0,0,1-.06-1.71,33.46,33.46,0,0,0-1.69-5.6c-3.48-7-7.13-13.87-10.71-20.8a2.91,2.91,0,0,1-.31-2l1.91,1c1.06,1.88,2,3.82,3.2,5.61a129.1,129.1,0,0,1,13.66,27.59c1.34,3.72,2.45,7.53,3.63,11.31.71,2.29,1.63,2.82,4,2.11,5.15-1.54,10.28-3.17,15.47-4.58,1.36-.37,2.91,0,4.38,0s1.84,1.12,2.31,2.07c4.41,8.95,8.64,18,11.37,27.62A32,32,0,0,1,734.21,316.27Z" transform="translate(-0.02 -0.32)"/><path class="cls-18" d="M686.83,267.32c1.32,3.17,2.85,6.27,3.89,9.53,1.26,3.91,2.14,7.95,3.09,12a36.81,36.81,0,0,1,.52,4.15c-1.24,1-2.33.23-3.38-.37-2.13-1.21-4.44-2.06-6.56-3.27a5.41,5.41,0,0,0-3-.6,60.6,60.6,0,0,0-13.66-2.21c-6.9.62-13.63,1.93-19.93,5-1,.5-2.06,1-3.21.3-1.56-2.4-1.38-5.25-1.89-7.89-1.15-6-2.28-12-3.83-18-.37-1.4-1-2.94.33-4.26,2.17.95,4.19.13,6.25-.47,4.13-1.19,8.27-2.34,12.4-3.51-.24,3.34,2.56,4.34,4.58,5.93,1.92,3.22,3.86,6.44,6.73,8.91,3.23,2.79,5,2.79,8.39.3,2.15,0,3.53-1.37,5-2.76C683.77,268.89,684.67,267.09,686.83,267.32Z" transform="translate(-0.02 -0.32)"/><path class="cls-27" d="M686.83,267.32l-7.18,6.82L677.9,273c-.28,0-.63.15-.83,0-4.89-3.28-10.67-5.07-15.13-9.06-1-.45-2-1-3.06-1.32-1.77-.59-2.42-1.56-1.49-3.33a9.14,9.14,0,0,0,.5-1.59l.58-1.72c-.39-4.11,1.07-5.31,4.88-3.92a73.9,73.9,0,0,1,10.11,4.46c1.08.59,2.23,1.1,2.55,2.47l10.37,7.36Z" transform="translate(-0.02 -0.32)"/><path class="cls-20" d="M676,259l-15.84-7.17L658.46,256c-1.1-3.38-2.39-6.72-3.23-10.17a29,29,0,0,1-.61-7c0-2.57,1-3.29,3.56-3.24,4.07.07,6.9,2.53,9.28,5.34a41.24,41.24,0,0,1,8.68,16.07A6.39,6.39,0,0,1,676,259Z" transform="translate(-0.02 -0.32)"/><path class="cls-26" d="M639.23,261.67c1.22,5.48,2.57,10.93,3.63,16.44.86,4.49,1.37,9,2,13.56-.06,1.45-1.38,1.8-2.23,2.57a2.64,2.64,0,0,1-2.31.08c-1.8-1.29-1.6-3.27-1.79-5.14-.41-3.94-1.25-7.83-1.49-11.79-1.63-7.05-2.62-14.23-4.4-21.26-1.52-6-3.19-12-5.11-17.9a11.36,11.36,0,0,1-.8-3.84c-.06-4.22-2.46-7.66-3.77-11.47-.24-.7-1.54-1.67.3-2.13l1.11.58a10.73,10.73,0,0,0,.6,2.16,183.84,183.84,0,0,1,14,37.61A3.45,3.45,0,0,0,639.23,261.67Z" transform="translate(-0.02 -0.32)"/><path class="cls-18" d="M483.54,251.44c1.73,0,1.77.76,1.22,2.17-2.63,6.65-5.55,13.23-7.65,20-2.38,7.71-4,15.65-5.93,23.49,0,.14.13.34.34.86,1.5-1.16,2.88-2.33,4.36-3.36,4.1-2.85,8.22-5.67,13.4-6.21a2.65,2.65,0,0,1-.93,2.8c-5.29,5.39-9.61,11.57-14.17,17.55a7.34,7.34,0,0,0-2.7,2.43c-3.23,4.2-6.73,8.19-10.08,12.29-1,1.25-2.1,2.89-4.23,1.9-1-1.28-.61-2.67-.27-4a43.84,43.84,0,0,1,8-16.6c.51-.65,1.27-1.18,1-2.18l.54-5.14a149.86,149.86,0,0,1,9.06-29.94c2.15-5.22,4.58-10.32,6.89-15.48Z" transform="translate(-0.02 -0.32)"/><path class="cls-10" d="M463.69,284.13a3.35,3.35,0,0,1-3.43,3.65,3.9,3.9,0,0,1-3.72-3.54,4,4,0,0,1,3.63-3.72A3.5,3.5,0,0,1,463.69,284.13Z" transform="translate(-0.02 -0.32)"/><path class="cls-20" d="M465.95,302.61c1.25.2,1,.79.41,1.52a41,41,0,0,0-6.82,12.52c-1,2.8-1.43,5.77-2.11,8.66.77,1,.39,2.19.68,3.69a26.5,26.5,0,0,0,3.6-4c1.65-2.07,3.28-4.15,5.08-6.09.94-1,2-2.21,3.57-.84.84,1.88.2,3.51-.82,5.08-4,4.17-7.47,8.86-11.12,13.36a2.18,2.18,0,0,0,.14,2.88c.78.86,1.76.43,2.59,0a13,13,0,0,0,3.62-2.65,4.24,4.24,0,0,1,2.86-1.62c4.67-2.25,9.36-4.45,14.45-5.61,4.15-2,8.68-2.37,13.12-3.07,11.73-1.86,23,.67,34.05,4.09.29.06.59.11.89.15.71.12,1.39.36,2.09.51a92.42,92.42,0,0,1,18.19,10.53,1.85,1.85,0,0,1-.48,2.53c-1.21.81-2.4.22-3.46-.41a100.46,100.46,0,0,0-15-7.3,7,7,0,0,1-3.55-2.21l-6.3-2.23c-1.26,1.08-2.7.67-4.06.39-15.89-3.3-31.12-1.62-45.58,6-1,.53-2,1.11-3.19.48l-4.55,2.84c-1.33.88-2.64,1.79-4,2.63-2.44,1.5-4.9.64-5.71-2.16a25.85,25.85,0,0,1-.52-4.44c.3-4.58.23-9.22,1-13.72a41.66,41.66,0,0,1,10.39-20.93l.58-.57Z" transform="translate(-0.02 -0.32)"/><path class="cls-18" d="M465.94,302.6l-.58.57Z" transform="translate(-0.02 -0.32)"/><path class="cls-17" d="M734.21,316.27c-.82-2.48-1.58-5-2.46-7.44-1.55-4.36-3-8.77-4.79-13-2.16-5-4.69-9.89-7.05-14.83-1-3-2.11-6-3.1-9.08-.52-1.6-.65-3.19,1-4.31s3.15-.29,4.58.77c4.64,3.4,7.27,8.34,10,13.17A66.82,66.82,0,0,1,739,298.06a25.51,25.51,0,0,0,1.36,3.37Z" transform="translate(-0.02 -0.32)"/><path class="cls-15" d="M717.66,332.73l13.59-4.55-.28,5.1c-1,5.86,3.26,12.9,8.46,15.44,1.61.79,3.27,1.46,4.91,2.18l-.57,6.14c-9.23.62-18.46,1.22-27.68,1.87-3.74.26-6.75,1.87-8.45,5.32-.95,1.93-1.57,4-2.35,6-2-.56-3.94-1.27-6-1.62-1.86-.33-2.33-1.27-2-3,.78-4.71,1.59-9.42,2.25-14.15.63-4.54,1.08-9.11,1.61-13.66,1.32-.78,2.35.1,3.4.66,2.42,1.29,4.58,3,6.94,4.38,2.84,1.68,4.67.73,5-2.61.17-1.88,0-3.78.17-5.66A2.2,2.2,0,0,1,717.66,332.73Z" transform="translate(-0.02 -0.32)"/><path class="cls-25" d="M744.47,329.79c2.66,3.64,4.79,7,5.8,11,.45,1.75.53,3.69-1.1,4.58a7.49,7.49,0,0,1-4.8.69c-1.83-.4-2.26-2.3-2.33-4.1a23.37,23.37,0,0,1,1.17-9.45C743.54,331.71,744,330.92,744.47,329.79Z" transform="translate(-0.02 -0.32)"/><path class="cls-16" d="M619.09,213.53c-.14.05-.32.19-.42.14s-.12-.27-.18-.41c.14-.05.32-.19.42-.14S619,213.39,619.09,213.53Z" transform="translate(-0.02 -0.32)"/><path class="cls-27" d="M541.79,461.09a56.14,56.14,0,0,0,5.74-1.22,14.06,14.06,0,0,0,5-2.34c1.42-1.24,2.49-1,4-.6,4.38,1.28,8.63,3.17,13.33,3a6.28,6.28,0,0,1,4.43-.39,52.2,52.2,0,0,0,11,.65,104.67,104.67,0,0,0,21.36-2.29c7.14-1.61,14.09-3.6,20.34-7.54a6.73,6.73,0,0,1,6.27-.54,52.59,52.59,0,0,0,11,2.51c5.35.8,10.24-1.17,15.05-3.2a11.76,11.76,0,0,0,2.54-1.25c4.94-3.73,10.49-3,16.06-2.4a37,37,0,0,0,16-1.56c4.21-1.41,8.5-2.58,12.59-4.35,1.35-.58,2.82-1.34,4.26-.1l0,2.35a11.53,11.53,0,0,1-7.89,6.2c-6.08,3.81-12,7.94-19,10a41.93,41.93,0,0,1-17,1.52,17.62,17.62,0,0,0-8.33.81c-8.47,3-17.21,5.1-26.29,4.68a40.26,40.26,0,0,0-15.75,2.57c-6.71,2.41-13.8,2.89-20.87,3.12a138.27,138.27,0,0,1-14.18-.05c-6.46-.46-13.1-.06-19.29-2.26-3.26-1.16-6.27-.41-9.41-.35-3.37.06-6.74-.05-10.11-.09C540.55,466,540.29,463.91,541.79,461.09Z" transform="translate(-0.02 -0.32)"/><path class="cls-23" d="M541.79,461.09l.84,6.88.45,6.74a8.57,8.57,0,0,1-5.58-1.72c-1.22-2.64-2.24-5.41-3.71-7.9-2.18-3.7-2.32-3.62.38-6.9-.1-.13-.21-.37-.31-.37-4.07,0-6.77-1.54-7.16-7.61,0-.56-.11-1.13-.16-1.69a34.84,34.84,0,0,1,13.83-5.37c2.49-.45,3.75,1,3.25,3.52s-1.41,5.3-1.78,8A46,46,0,0,0,541.79,461.09Z" transform="translate(-0.02 -0.32)"/><path class="cls-5" d="M702.88,448.07l7.89-6.2v7.87Z" transform="translate(-0.02 -0.32)"/><path class="cls-25" d="M524.43,449.77l.26,0-.23-.09Z" transform="translate(-0.02 -0.32)"/><path class="cls-25" d="M441.88,451.85c.62-1.67,1.68-3.09,1.42-4.21s-1.84-1.89-2.87-2.85c2.54-2,5.63-1.14,8.85,2.42l-3.19.66,4,2.77Z" transform="translate(-0.02 -0.32)"/><path class="cls-28" d="M710.8,439.52c-.81.21-1.63.4-2.43.65-6.64,2.1-13.21,4.5-19.95,6.19-3.3.83-6.93.48-10.41.4-3.19-.07-6.36-.55-9.55-.74-.57,0-1.18.45-1.75.76-5.23,2.83-10.49,5.47-16.43,6.62-4.36.84-8.43-.27-12.57-1.07-1.93-.37-3.76-1.21-5.69-1.59-1.12-.22-2.64-.38-3.48.18-8.7,5.86-18.69,7.75-28.72,9.48a59.13,59.13,0,0,1-8.72.67c-4.59.1-9.19.15-13.77,0a67.29,67.29,0,0,1-7.43-1.08c-2.4-2.11-4.92-4.1-7.15-6.37a38.4,38.4,0,0,1-4.52-5.77c-1.62-2.44-.9-3.71,2-3.75a16.38,16.38,0,0,1,3.37.26,28,28,0,0,0,14.05-.47q15.81-4.94,31.65-9.8,9.88-3,19.78-6a6.6,6.6,0,0,0,4.92-5.53c1.61-9.64,3.25-19.29,4.61-29,.85-6,1.21-12.16,1.79-18.24a.81.81,0,0,1,0-.93,5.34,5.34,0,0,1,6.86-1.17,2.13,2.13,0,0,1,.56.78c.45,4.95-.82,9.74-1.43,14.59-1.14,9.09-3.17,18-5,27-.74,3.67-.16,4.18,3.33,3.12q15.18-4.59,30.35-9.24a8.31,8.31,0,0,0,6-5.78c2.92-9.38,5.73-18.78,8-28.33.42-1.75,1-3.42,1.63-5.11a1.64,1.64,0,0,1,1.33-1.19l4.48-1.16c-.14,1.09-.2,1.86-.35,2.62A277,277,0,0,1,686.79,404a5.27,5.27,0,0,0-.43,1.34c0,.79-.21,1.85.21,2.31a2.68,2.68,0,0,0,2.25.25c5-1.46,9.91-3,14.88-4.53,2.34-.7,4.72-1.27,7.08-1.9Q710.79,420.49,710.8,439.52Z" transform="translate(-0.02 -0.32)"/><path class="cls-15" d="M647.19,374.18q0-.28,0-.56c-1.85-2.34-.66-5-.5-7.4.65-9.53,1.12-19.05,1-28.6a10.81,10.81,0,0,1,.53-4.76c1.24-2.21,3.57-2.36,5.63-2.76,13.51-2.57,26.82-2,39.74,3.08,1.43.56,3.55.59,3.6,3-.84,6.2-1.59,12.41-2.53,18.6-.73,4.8-1.7,9.57-2.57,14.35l-.58,1.13A7.7,7.7,0,0,1,687.4,373a46.53,46.53,0,0,1-14.06,2.8,152.84,152.84,0,0,1-23.68-.47A3.8,3.8,0,0,1,647.19,374.18Z" transform="translate(-0.02 -0.32)"/><path class="cls-17" d="M697.18,336.13A49.45,49.45,0,0,0,682.92,331c-6.7-1.52-13.52-1.47-20.27-1-4.63.32-9.19,1.78-13.78,2.73-1.79,2-4.36,2.25-6.69,3a103.09,103.09,0,0,0-17.44,8.48c-.94.59-2.05,1.28-3.14.48s-1.09-2.08-.45-3.28c3.95-1.92,7.4-4.7,11.32-6.67,1.9-1.13,4-1.9,5.95-2.93a7.55,7.55,0,0,1,1.09-.4,4,4,0,0,1,.75-.18,14.56,14.56,0,0,0,1.87-.53c.28,0,.56-.1.84-.18,21.09-6.95,41.5-5.52,61.21,4.88,2.1,1.11,4,2.52,6.06,3.69s2.91.78,3.43-1.46c1-4.41.47-8.81-.33-13.19A43.24,43.24,0,0,0,707,308c-.81-1.28-2.09-2.61-.76-4.32,3.44,2.45,5.25,6.16,7,9.73a39.33,39.33,0,0,1,4.39,19.3c0,2.46-.07,4.92,0,7.38a4.91,4.91,0,0,1-2.48,4.77c-1.64.91-3-.15-4.42-1-3.17-2-6.41-4-9.62-6Z" transform="translate(-0.02 -0.32)"/><path class="cls-26" d="M621.68,341.1v3.6c2.5-1.41,4.46-2.65,6.54-3.66,4.21-2.05,8.47-4,12.72-5.95a3.6,3.6,0,0,1,1.11-.12,2.2,2.2,0,0,1,1.11,1.88c0,4.53.53,9.06-.29,13.57-1.07,1.58-2.74,2.2-4.46,2.71-7.3,2.17-14.51,4.63-21.88,6.58-1.51.52-2.85-.33-4.27-.55-6.31-1.12-12.63-2.2-19-2.73-8.48.13-17,.31-25.31,2-3.31.65-3.86,1.22-3.6,4.82a92.64,92.64,0,0,0,4.89,23.74,22.32,22.32,0,0,0,1.29,3.73c.94,2.22,2.2,4.32,2.46,6.78-.73,2.85-1.72,5.53-4.8,6.7-1.68-.29-2.48-1.65-3.31-2.89a49,49,0,0,1-5.25-10.66,4.71,4.71,0,0,0-3.81-3.3,134,134,0,0,1-18.2-5.38c-1.68-.61-3.44-1.11-4.6-2.63l0-1.09c-2.87-14.47-5-29-5.06-43.81,6.22,1.42,11.75,4.44,17.3,7.43,1.37.74,2.71,1.55,4.54,2.61l.17-2.84c-1.59-2.6-.5-5.14.15-7.7,2.07-2,4.84-2.45,7.43-3.23q29.52-8.93,59-18c1.89-.58,3.79-1.17,5.72-1.62,1.4-.32,2.84-.5,3.82,1,.64,2.86-1.46,5-1.88,7.64-1.82,3.07-1.31,6.59-1.8,9.89a29,29,0,0,0,.12,8.48C622.64,339.12,622.69,340.25,621.68,341.1Z" transform="translate(-0.02 -0.32)"/><path class="cls-12" d="M533,379.27c2.85.93,5.68,1.94,8.56,2.79,5.23,1.54,10.44,3.17,15.75,4.39a3.62,3.62,0,0,1,3,2.76c2,5.2,4.12,10.32,7.91,14.53,2.08.38,3.15,2.13,4.59,3.38.94.81,2.57,1.09,2.25,2.88a47.18,47.18,0,0,1-4.63,2c-7.75,2.39-15.53,4.7-23.29,7-3.1.94-4.55.29-5.34-2.94C538.77,403.82,535.91,391.54,533,379.27Z" transform="translate(-0.02 -0.32)"/><path class="cls-15" d="M616.44,358.85,638,352c1.34-.42,2.69-.77,4-1.16,1.79,1.45,1.27,3.48,1.06,5.25-.54,4.48-.58,9-.94,13.46-.16,1.95-.43,3.71-1.8,5.17q0,.28,0,.56c-6.13,2.32-12.26,4.67-18.41,6.94-1.75.65-3.59,1.06-5.39,1.59-1.44-1.42-.65-3-.36-4.58,1-4.86,1.18-9.84,2-14.73C618.57,362.22,616.65,360.85,616.44,358.85Z" transform="translate(-0.02 -0.32)"/><path class="cls-20" d="M617.08,379.29l-.51,4.56-4.51,11.51a4.17,4.17,0,0,1-4.53-1.93,4.94,4.94,0,0,1,.08-3.29,90.91,90.91,0,0,0,2.12-9.82,5,5,0,0,1,1.38-3C614,376.38,615.48,376.87,617.08,379.29Z" transform="translate(-0.02 -0.32)"/><path class="cls-8" d="M606.86,403.87c-3.45,5.25-8.72,7.59-14.55,8.92a18.83,18.83,0,0,1-10.49-.47,3.34,3.34,0,0,1,2.24-4.22c2.66-.41,5.11.82,7.69,1a9.55,9.55,0,0,0,3.31.13c3.11-.85,4.87-3.3,6.7-5.67.89-1.16,1.56-2.63,3.33-2.74C606.84,401.17,607.77,402,606.86,403.87Z" transform="translate(-0.02 -0.32)"/><path class="cls-20" d="M584.21,408.77l-2.39,3.56L575,410l-2.83-2.3a6.49,6.49,0,0,1,3.34-6c3,.22,4.23,3.17,6.64,4.35C583.19,406.59,584.39,407.22,584.21,408.77Z" transform="translate(-0.02 -0.32)"/><path class="cls-21" d="M606.86,403.87c.1-1.59-.82-2.22-2.24-2.39-.8-2.53.85-6.37,3.44-8l4,1.88C611.23,398.75,609.18,401.4,606.86,403.87Z" transform="translate(-0.02 -0.32)"/><path class="cls-18" d="M468.78,338.95A64.46,64.46,0,0,1,490,330.82a68.39,68.39,0,0,1,21.61-.45c3.34.45,6.65,1.16,10,1.75q0,5.68,0,11.37c-8,4-16.91,5.56-25.34,8.45-6.14,2.11-12.42,3.81-18.62,5.75-2,.62-4,1.16-6,.57-.66-4.32-1.32-8.64-2-13C469.34,343.19,469.07,341.07,468.78,338.95Z" transform="translate(-0.02 -0.32)"/><path class="cls-25" d="M522.74,289.54,529,292.9c2,0,3.35.76,3.25,3-.53,1.22-1.65,1.46-2.78,1.62-11.89,1.69-20.16,12-19.81,24.07,0,1.41,0,2.86-1.45,3.77s-3.11.2-4.67.1c-3.64-.24-7.3,0-10.95-.12a7.43,7.43,0,0,1-3.57-.49c-1.29-.81-1.49-2.13-1.49-3.47,0-13.53,4.53-25.16,14.31-34.64a10.29,10.29,0,0,1,1.68-1.06,45.15,45.15,0,0,1,17.1,3.08C521.31,289.07,522,289.29,522.74,289.54Z" transform="translate(-0.02 -0.32)"/><path class="cls-10" d="M503.51,285.72a22.91,22.91,0,0,1-2.34,3.46,41.92,41.92,0,0,0-11.94,25.26c-.35,3.16-.36,6.36-.52,9.55-.85,1.56-2.3,1.35-3.71,1.24-3.78.5-7.5,1.38-11.31,1.65-.78,0-1.42.52-2.18.58a3.17,3.17,0,0,1-3.05-1.08,2.35,2.35,0,0,1,.38-3.31L470,318c-.61-4,1.33-7,3.88-9.69,3.4-4.63,6.73-9.3,10.21-13.86,1.59-2.09,3.47-4,5.21-6l0,0a2.51,2.51,0,0,1,.64-.58A32,32,0,0,1,503.51,285.72Z" transform="translate(-0.02 -0.32)"/><path class="cls-27" d="M527.38,258.83,527.3,260a97,97,0,0,0-28.07,9.75c-1.55-2.39-3-4.6-4.41-6.8-.9-1.38-.4-2.31.95-2.94,3.34-1.54,6.64-3.2,10.06-4.56a91.78,91.78,0,0,1,20-5.54Z" transform="translate(-0.02 -0.32)"/><path class="cls-18" d="M489.88,287.84l-.64.58Z" transform="translate(-0.02 -0.32)"/><path class="cls-13" d="M560.26,254.29a46.2,46.2,0,0,1,.84-18.77,21.42,21.42,0,0,1,12.53-15.14c9-4.08,18.65-4.58,28.29-2.94,8.65,1.47,14.38,7.07,18.45,14.53a37.44,37.44,0,0,1,1.82,4.7c0,2.34-1.74,2.9-3.48,3.47-8.79,2.89-17.66,5.51-26.52,8.18-8.2,2.47-16.36,5.11-24.58,7.51-.73.21-1.43.49-2.16.68C562.47,257.32,561.8,257,560.26,254.29Z" transform="translate(-0.02 -0.32)"/><path class="cls-20" d="M560.26,254.29c1.65,1.83,3.42,1.67,5.68.94,6.16-2,12.67-3.16,18.59-5.71,3.63-1.56,7.45-1.91,11-3.4s7.55-2.35,11.33-3.49c4.06-1.23,8.14-2.39,12.15-3.76a14,14,0,0,0,3.15-2.18l1.13,1.14a2.92,2.92,0,0,1,1.6,1.9,66.35,66.35,0,0,1,3.52,19.16,4.17,4.17,0,0,1-.52,2.18c-1.24,1.71-3.11,2.42-5,3-16.32,4.92-32.6,10-48.93,14.9a7.46,7.46,0,0,1-5.76-.14,8.75,8.75,0,0,1-3.41-7.48c-1.11-3.76-2.26-7.52-3.3-11.3C561,258.15,560.67,256.21,560.26,254.29Z" transform="translate(-0.02 -0.32)"/><path class="cls-17" d="M564.8,271.33l3.4,6.82a6.54,6.54,0,0,1,2.52,2.6,94.67,94.67,0,0,0,5.22,8.39c.72,1.05,1.67,2.15.73,3.58-5.58,2-11.36,3.39-17,5.23-4.84,1.58-9.73,3-14.61,4.45a9.08,9.08,0,0,0-3.72,2,1.6,1.6,0,0,1-2-.52,56.83,56.83,0,0,0-6.69-6.88,3,3,0,0,1-.69-1.53L529,292.9c.38-3.15.73-6.31,1.13-9.46.13-1,.37-2,.56-3,2.09-.48,4.22-.84,6.27-1.45,7.72-2.32,15.4-4.77,23.13-7.07A27.66,27.66,0,0,1,564.8,271.33Z" transform="translate(-0.02 -0.32)"/><path class="cls-17" d="M627.31,261.12A68.09,68.09,0,0,0,624,240.56c-.28-.89-.43-1.83-.64-2.74l3.45-3.42a11.08,11.08,0,0,1,1.59,2.42,221.06,221.06,0,0,1,9.19,38c.11.74.35,1.46.53,2.19a6.2,6.2,0,0,1-3.75,2.76,34.94,34.94,0,0,0-5.57,1.94,1.73,1.73,0,0,1-2.49-.47,11.68,11.68,0,0,1-.06-5.31,79.78,79.78,0,0,0,.45-11.25A7.86,7.86,0,0,1,627.31,261.12Z" transform="translate(-0.02 -0.32)"/><path class="cls-10" d="M551.58,229.27a3.21,3.21,0,0,1-3.2-3.26,3.26,3.26,0,0,1,3.51-3c1.86.11,2.76,1.19,2.69,3.25S553.49,229.32,551.58,229.27Z" transform="translate(-0.02 -0.32)"/><path class="cls-21" d="M706.25,303.7c1.16,2.21,2.36,4.41,3.47,6.65,2.16,4.38,4.29,8.78,4.52,13.8.39.73.53,1.49-.3,2a1.94,1.94,0,0,1-2.12-.41c-3-2.12-5.67-4.72-8.53-7.06a11.08,11.08,0,0,0-2.46-1.89,4.09,4.09,0,0,1-1.27-1.85c-3.35-9.31-9.59-16.64-16.17-23.74-.85-.92-2.11-1.74-1.54-3.35,3.25,1.28,6.5,2.55,9.74,3.85.93.38,1.83.85,2.74,1.28l9.63,8.51a5.2,5.2,0,0,0,1.77,1.71Z" transform="translate(-0.02 -0.32)"/><path class="cls-17" d="M705.74,303.16,704,301.46Z" transform="translate(-0.02 -0.32)"/><path class="cls-25" d="M642.56,293.47l2.35-1.8a49,49,0,0,1,18.72-5.8c1.31-.11,2.62-.1,3.94-.15,8.37,6.88,13.3,15.75,15.4,26.31a43.58,43.58,0,0,1,.57,9.59,3.59,3.59,0,0,1-1.43,3.23,52.58,52.58,0,0,1-15.67.12c-1.56-.89-1.75-2.45-1.61-4,1-11.14-7.79-23-19.44-25.52C644.22,295.24,642.94,294.92,642.56,293.47Z" transform="translate(-0.02 -0.32)"/><path class="cls-10" d="M682.37,324A46.13,46.13,0,0,0,679.06,303c-2.2-5.34-5.68-9.74-9.41-14a26.31,26.31,0,0,1-2.09-3.22,32.47,32.47,0,0,1,14.29,2.1c3,3.36,6.08,6.65,9,10.11a56.36,56.36,0,0,1,10.38,18.29c2.14,1.95,2.46,4.62,2.72,7.24.29,2.87-1.24,4.23-4.11,3.89-5.14-.6-10.2-1.82-15.39-2.07A2.21,2.21,0,0,1,682.37,324Z" transform="translate(-0.02 -0.32)"/><path class="cls-16" d="M661.94,263.93c5.73,2.29,11.28,4.9,16,9.05-1.37,3.07-4.3,4-7.32,2A22.51,22.51,0,0,1,661.94,263.93Z" transform="translate(-0.02 -0.32)"/><path class="cls-18" d="M626.74,281.58,638.08,277c.6,4.89,1.15,9.78,1.83,14.65a9.13,9.13,0,0,0,1.17,2.46c.16,1.62-1.12,2.31-2.11,3.08-4.55,3.51-7.88,8-10.83,12.86-.6,1-.92,2.37-2.54,2.23a8.2,8.2,0,0,0-2.88-.26c-6.71,1.94-13.38,4-20.06,6l-45,13.68c-2.34.71-4.69,1.4-7,2.1-1.26-.77-1.16-2-1.22-3.25-.43-8-2.51-15.52-7.13-22.21-.82-1.19-1.95-2.38-1.38-4.08-.16-1.55.77-2.12,2.09-2.52,7.86-2.36,15.68-4.84,23.55-7.13,3.32-1,6.76-1.54,10.14-2.3,2.67-.1,3.49,2.29,4.86,3.79a44.15,44.15,0,0,0,13.12,10.2c9.74,4.77,19,2.23,24.93-6.79,2.87-4.35,4.29-9.22,5.48-14.2C625.43,284,625.37,282.48,626.74,281.58Z" transform="translate(-0.02 -0.32)"/><path class="cls-29" d="M625.61,312.29c2.08-3.14,3.88-6.53,6.32-9.36,2.75-3.19,6.08-5.89,9.15-8.81l1.47-.65c3.27,1.16,6.79,1.9,9.77,3.58,8.47,4.78,13.29,12,13.59,22q.08,2.69.16,5.38c-1,1.79-2.93,1.64-4.51,1.88a93.08,93.08,0,0,0-19.61,5.1l.14.12-.14-.13c-.23.85-1.21.17-1.57.76l-.63.26a.78.78,0,0,0-.54.29L633,335.53c-1.2.7-2.2.13-3.07-.61-4.88-4.17-7.54-9.28-6.6-15.88Z" transform="translate(-0.02 -0.32)"/><path class="cls-16" d="M473.86,308.26,470,318c-2.94.77-3.79,3.69-5.63,5.58-2.38,2.45-4.41,5.25-7,8.44-.65-2.66-.75-4.65.13-6.66,3.11-1,4.25-4.06,6.2-6.25,2.92-3.28,5.66-6.73,8.54-10C472.53,308.59,473.28,308.5,473.86,308.26Z" transform="translate(-0.02 -0.32)"/><path class="cls-20" d="M468.19,301.45l.12-.21-.11.22Z" transform="translate(-0.02 -0.32)"/><path class="cls-20" d="M468.21,301.46l-.13.2.11-.22Z" transform="translate(-0.02 -0.32)"/><path class="cls-29" d="M540.93,304.31a44.81,44.81,0,0,1,9.63,27.57c0,.66.06,1.31.1,2l-.75,7.72a17.85,17.85,0,0,1-2.7-1c-5.16-2.78-10.29-5.61-15.42-8.43-.39-.64-1.26-.06-1.66-.66l.05,0c-5.74-2.62-11.86-3.91-18-5.05-1.39-.26-2.82-.31-3.61-1.76.14-2.8.11-5.63.46-8.41,1.31-10.31,10.08-18.82,21-20a6.55,6.55,0,0,0,1.89-.89C535.68,297.63,538.28,301,540.93,304.31Z" transform="translate(-0.02 -0.32)"/><path class="cls-13" d="M468.85,323.06v3.4l5.09-.52c1.07,1.41.13,2.48-.63,3.54-1.71,2.37-3.77,4.44-5.69,6.64a5.06,5.06,0,0,0-1.5.54c-1.65,1.31-3.16,2.81-4.88,4a2.68,2.68,0,0,1-3.82-.37c-.87-1-.78-3.71.08-4.73,3.19-3.78,6.37-7.59,9.6-11.34A7.72,7.72,0,0,1,468.85,323.06Z" transform="translate(-0.02 -0.32)"/><path class="cls-8" d="M508.56,324.74c6.16,1.69,12.34,3.35,18.48,5.12a16.38,16.38,0,0,1,3.14,1.69c-3.64-.93-7.28-1.92-10.94-2.79-12.63-3-25.07-1.76-37.41,1.69-1.84-.49-.92-1.66-.53-2.53a10,10,0,0,1,3.43-3.55l4-.38Z" transform="translate(-0.02 -0.32)"/><path class="cls-21" d="M484.73,324.37c-.62,1-1.23,2-1.86,3s-2.06,1.58-1,3.07l-14.22,5.66c-.25-1.73,1-2.73,1.93-3.86,1.19-1.45,2.48-2.8,3.62-4.29a7.51,7.51,0,0,0,.77-2Z" transform="translate(-0.02 -0.32)"/><path class="cls-8" d="M530.13,331.53l1.66.66Z" transform="translate(-0.02 -0.32)"/><path class="cls-25" d="M539.23,445.21l-2.46,4.32c4.06,1.55,3.18,4.34,2.44,7.32a60.93,60.93,0,0,0-.93,7.42,5.1,5.1,0,0,1-1.91-3.94c0-.75.09-1.51.07-2.27-.05-1.5.33-3.32-.39-4.41s-2.53-1.23-3.85-1.83a6.71,6.71,0,0,1-1.08-.88c2.33-2.6,4.47-5.16,8.09-5.75Z" transform="translate(-0.02 -0.32)"/><path class="cls-25" d="M539.22,445.2l.1-.24-.09.26Z" transform="translate(-0.02 -0.32)"/><path class="cls-24" d="M647.19,374.18c7.54.19,15.08.5,22.62.54a51,51,0,0,0,20.35-4.11,13,13,0,0,1,1.34-.41c-1.66,6.58-3.23,13.19-5,19.73-1.37,5-3.06,9.92-4.53,14.9a8.13,8.13,0,0,1-5.89,5.62c-10.64,3.29-21.31,6.5-32,9.74a11.57,11.57,0,0,1-1.91.53c-1.48.18-2.47-.42-2.36-2a51,51,0,0,1,.66-5.32c2-11.3,4.06-22.59,6.06-33.89C646.86,377.74,647,376,647.19,374.18Z" transform="translate(-0.02 -0.32)"/><path class="cls-12" d="M640.38,374.77l1.68-23.89q0-8,0-15.91l6.83-2.23a319.21,319.21,0,0,1-1.7,40.88Z" transform="translate(-0.02 -0.32)"/><path class="cls-20" d="M641.95,331.39c4.36-1.63,8.65-3.49,13.1-4.82a111.15,111.15,0,0,1,11-2.17l16.3-.39,20.31,2.26c.55-3.6-1-6.76-1.46-10.06,2.54,1.9,5.1,3.77,7.61,5.71,1.61,1.25,3.15,2.59,5,4.1l.45-1.88a31.15,31.15,0,0,1,.46,15.31,1.9,1.9,0,0,1-2.46,1.72,10.69,10.69,0,0,1-3.3-1.45,70.8,70.8,0,0,0-29.61-11.43A75.19,75.19,0,0,0,645,330.89,20.14,20.14,0,0,1,641.95,331.39Z" transform="translate(-0.02 -0.32)"/><path class="cls-25" d="M623.3,319c.81,4.67,1.7,9.36,5.08,13a34.11,34.11,0,0,0,4.59,3.52l-10.47,6.58-.81-1c-.57-5.18-1.08-10.36,0-15.54C622.07,323.37,622.73,321.21,623.3,319Z" transform="translate(-0.02 -0.32)"/><path class="cls-20" d="M640.38,332.14l1.57-.76Z" transform="translate(-0.02 -0.32)"/><path class="cls-20" d="M639.21,332.7l.54-.29Z" transform="translate(-0.02 -0.32)"/><path class="cls-25" d="M584.21,408.77l-8.57-6.84c-2.5-.51-2.66-2.75-3.41-4.57l-2.48-6.07c.25-3.75.34-7.49,1.46-11.15,2.92-9.5,8.34-17,16.89-22.23,1.63-1,3.5-1.38,5.12-2.35a84.41,84.41,0,0,1,19.31,2.72c2,3.69,1.61,7.42.23,11.17-1,1.22-2.46,1.29-3.9,1.17-8.64-.72-15.2,2.85-19.27,10.28-4.25,7.75-3.4,15.46,1.83,22.64a20,20,0,0,0,3.06,3.33c1,.89,1.94,1.9,1.05,3.42C591.59,411,587.92,409.8,584.21,408.77Z" transform="translate(-0.02 -0.32)"/><path class="cls-10" d="M593.22,355.56a12.67,12.67,0,0,1-2.4,2.13c-11.37,5.81-17.3,15.47-19.72,27.63-.22,1.09.09,2.29-.13,3.37a11.72,11.72,0,0,1-1.22,2.59c-1.59-4.93-3.55-9.77-4.68-14.8a126,126,0,0,1-2-15.14c-.29-2.88-.14-3,2.61-3.62A100.44,100.44,0,0,1,593.22,355.56Z" transform="translate(-0.02 -0.32)"/><path class="cls-16" d="M612,369.6l.5-11.32,3.91.57c3.32,1,3.19,3.71,2.88,6.35-.51,4.38-1.13,8.76-1.74,13.13a3.3,3.3,0,0,1-.51,1l-5.56-1.71A7.72,7.72,0,0,1,612,369.6Z" transform="translate(-0.02 -0.32)"/><path class="cls-16" d="M572.24,397.35l3.41,4.57-3.46,5.78-4-4Z" transform="translate(-0.02 -0.32)"/><path class="cls-29" d="M612,369.6l-.51,8-3.46,15.9-3.44,8c-1.7,2.19-3.26,4.51-5.16,6.51-1,1.06-2.6,1.55-3.93,2.3a7.8,7.8,0,0,0-1.38-2.31,21.83,21.83,0,0,1-4.41-29.63c3.43-4.91,8.07-8.18,14.22-8.69C606.63,369.43,609.34,369.6,612,369.6Z" transform="translate(-0.02 -0.32)"/><path class="cls-16" d="M626.74,281.58c-.8,7.84-3,15.23-8.12,21.33s-11.74,8.22-19.52,6.27a29,29,0,0,1-13-7.18c-3.26-3.08-6.28-6.41-9.41-9.63l-8.52-14.21c2.5,1,4.82-.1,7.1-.79,10.1-3,20.15-6.21,30.24-9.3,5.4-1.65,10.84-3.18,16.23-4.85,1.88-.58,3.69-1.4,5.53-2.1.17.32.48.64.49,1A89.88,89.88,0,0,1,626.74,281.58Z" transform="translate(-0.02 -0.32)"/></g></g></svg>