<svg xmlns="http://www.w3.org/2000/svg" viewBox="0 0 1128.34 579.13"><defs><style>.cls-1{stroke:#000;stroke-miterlimit:10;}</style></defs><title>Ресурс 12</title><g id="Слой_2" data-name="Слой 2"><g id="Слой_1-2" data-name="Слой 1"><path class="cls-1" d="M186,568.26c3-7.13,6.7-14,8.91-21.37s2.72-14.31-5.18-19.92c-2.4-1.7-2.81-8.3-1.87-12.09,1.27-5.11,4.18-10.07,7.35-14.39,5.35-7.27,9.06-14.87,10.12-24,1.21-10.4,5.13-19.51,15.13-24.79a40.64,40.64,0,0,0,6.12-4.31c6.13-4.87,10.85-10.08,10.63-19.06-.17-6.83,2.09-13.73,3.32-20.59.52-2.88,1.15-5.74,1.94-9.61-10.52,4.2-20.84,6.08-28.21,14.06a6.16,6.16,0,0,0-1.6,2.41c-2.14,8.68-4.19,17.39-6.26,26.09a5.17,5.17,0,0,0-.22,1.48c1.11,17.21-5.53,32.08-13.35,46.85-3.94,7.44-9.85,12.37-16,17.48a18.54,18.54,0,0,0-5.21,6.83c-8.15,19.79-8.5,40.53-7,61.45a7,7,0,0,1-.36,3c-6-13.43-8.71-27.36-4.66-41.86,2.72-9.75,6.41-19.22,9.49-28.87,1-3,2.74-6.61-2.92-7.41-.75-.11-1.86-2.84-1.6-4.1A171.74,171.74,0,0,1,169,478.88c1.26-3.94,3.64-7.56,4.66-11.54,1.24-4.86,2.37-10,2.17-14.94-.82-19.5.52-38.26,14.06-54,3.39-3.94,6.43-8.2,9.62-12.31l-1-1.21c-2.48.72-4.93,1.59-7.45,2.14-4.19.92-8.46,1.48-12.62,2.49a33.79,33.79,0,0,0-8.29,2.92c-8.45,4.64-16.59,9.88-25.15,14.3s-17.83,6.1-27.46,6.66a23.85,23.85,0,0,0-11,3.86c-10.74,6.92-22.6,8.53-34.9,8.13-2.48-.08-5.06-1.62-7.33-2.94-3.38-2-5.79-1.69-7.71,1.93-7.32,13.8-14.72,27.57-22.07,41.36-1,1.85-1.83,3.79-2.73,5.69l-1.62-.27c.54-6.82.55-13.73,1.77-20.43,1.09-6,2.68-12.26,5.59-17.56,2.6-4.73,7.38-8.23,11.06-12.39a43.58,43.58,0,0,0,5.5-7.23c3.73-6.62,9.77-10.09,16.42-12.85a26.62,26.62,0,0,1,4.25-1.46c19.71-4.49,36.45-15.58,54.36-24.11,7.75-3.69,16.31-5.63,24.41-8.61,8.57-3.15,17.09-6.45,25.5-10,2.44-1,4.41-3.15,6.59-4.78l-.63-1.14c-6.56,1.4-13.09,3.05-19.71,4.09-3.36.53-6.89-.12-10.35-.13-2,0-4.24-.43-5.81.4-11.44,6.1-23.52,4.72-35.69,3.82-4.33-.32-9.17-.38-13,1.23-13.31,5.52-25.18,4.29-36.31-5.06-1.86-1.56-4.81-2.15-7.35-2.54-11.25-1.75-21.79.61-31.87,5.77-7.39,3.78-15,7.18-23.64,11.29,4.77-8,9.57-14.21,16.87-18.24a71.27,71.27,0,0,1,36-8.93c7.29.1,14.07-1.06,20.41-4.73A19.77,19.77,0,0,1,80.43,335c12.36-2.35,24.72-4.77,37.16-6.59,6.54-1,12.82-1.19,19-4.74,4-2.31,10.05-2,15.07-1.56a99.29,99.29,0,0,0,28.76-1.48c8.08-1.65,16.55-1.39,24.84-2a4.66,4.66,0,0,0,3.1-1.24c-1.56-.61-3.12-1.25-4.69-1.82-12-4.37-24.22-8.43-36.1-13.21-5.81-2.34-11-6.19-16.65-9-3-1.5-6.35-3.11-9.57-3.19-14.27-.32-27.93-12.5-31.94-23.82-20.94,4.11-39.92,13.92-59.5,22l-1.16-1.89c6.78-5,12.95-11.34,20.46-14.64,20-8.81,41.42-12.35,63.32-12.1a26.38,26.38,0,0,1,9.59,2.38c7.05,3,13.87,6.49,20.91,9.51a84,84,0,0,0,10.32,3.21c5.12,1.45,10.31,2.68,15.4,4.22,7.78,2.36,15.37,5.05,23.74,5.27,4.27.11,8.68,2.14,12.67,4.06,6.56,3.15,13.13,5.27,20.57,5.17,7.14-.09,13.59,2.51,19.27,7,5.16,4.12,10.9,7.29,17.72,7A33,33,0,0,1,302.13,313c4.7,3,9.36,3.61,15.09,2.6,7.91-1.4,15.54-3.34,22.68-6.79,2.75-1.33,5.7-3.79,6.91-6.48,3.5-7.78,9-12,17.46-12.73,14-1.28,26-7.06,37.09-15.68,27.26-21.09,55.07-41.47,82.42-62.44,16.06-12.31,31.6-25.31,47.52-37.81,9.89-7.76,20.14-15.05,30.06-22.77S581.5,135.38,591,127c6.1-5.39,13.62-6.34,20.7-8.74,12.1-4.11,24.29-8,36.45-11.91a19.64,19.64,0,0,1,4.53-1c4.86-.35,9.74-.54,15.19-.83-5.67,29.08-11,57.79-16.94,86.39-4.36,21.08-15.42,38.71-29.56,54.67C608,260.6,595.11,276,581.89,291.21a10.31,10.31,0,0,1-5.2,3.22q-23,4.86-46,9.29C510,307.68,491,316.2,472.18,325c-21.25,10-42.08,20.83-63.05,31.37-3.72,1.87-7.16,4.27-10.91,6.07-6.53,3.14-13.24,5.91-19.8,9-2.62,1.24-5.55,2.45-7.45,4.5-6.75,7.32-14.16,12.71-24.62,13.7-5.89.56-10.79,4.13-13.65,9.81-3.24,6.44-6.12,13.13-10.07,19.1-1.92,2.91-5.66,5.08-9,6.49-11.21,4.68-22.83,8.42-33.86,13.47-4.59,2.1-8.38,6.3-12,10.09-2.58,2.73-4.42,6.25-6.22,9.62A34.23,34.23,0,0,1,247,472.85c-3.48,1.86-6.3,5.28-8.91,8.43-10.83,13.07-21.47,26.29-32.19,39.46a2.28,2.28,0,0,1-.72.68c-8.63,3.87-8.42,10.9-7.19,18.72.69,4.38.13,8.95.13,13.43C198.17,562,192.29,565.4,186,568.26Z"/><path class="cls-1" d="M1019.34,5,646.92,106.51c-42.67,15.09-126.1,115.66-110.23,160.57h0c15.87,44.91,50.55,23.52,93.23,8.43l405-128c42.67-15.09,106.31-43.62,90.44-88.53h0C1109.48,14.08,1062-10.1,1019.34,5Z"/></g></g></svg>