<svg xmlns="http://www.w3.org/2000/svg" viewBox="0 0 700 726.87"><title>Ресурс 4</title><g id="Слой_2" data-name="Слой 2"><g id="Слой_1-2" data-name="Слой 1"><path d="M1,488c16.55,4.42,33.12,5.74,49.72.26A53.27,53.27,0,0,0,79,466.7c6.06,4.25,12.44,5.93,19.44,3.51,7.38-2.55,9.93-8.76,11.39-15.86,15.63,17.15,39.54,18.43,54.89,3.24,15.05-14.9,12.5-36.48-6.71-55l5.55-3.14c-2-4.37-3.63-8.69-5.86-12.71-.68-1.23-2.89-1.61-4.4-2.38-.74,1.52-1.87,3-2.12,4.58-.31,2,.12,4.11.23,6.35-5.44-2.53-3.08-14.64-13.62-9.32-6.92,3.49-7.1,3.13-6.24,13.46l-4.94-7.88c-8.33,1.22-15.67,5.89-16.25,10.81-7.34-2.44-4.79,2.91-4.64,7.07-7.54-7.22-15.94-9-25.52-7.38q8-3.94,16-7.87c5.22-2.55,10.44-5.08,16.11-7.85L94.78,346.11l-19,8.15c6.32-7.29-1.83-11.68-3-17.19-.2-.92-1.94-1.5-2.5-1.9l-4.43-14c6.19,1.45,2.68,11.39,11.78,9.87l-4,2.8,6.7,13.8c6-7.48,10.71-15.17,11.61-23.89.54-5.21-2.18-10.93-6.62-13.31l-2.83-11-5.6,2.63c1.09-2.28,2.83-4.28,2.78-6.24,0-2.31-1.61-4.6-2.56-6.87s-1.87-4.26-2.81-6.39l2.29-1.09c1,2,2.3,4,2.79,6.13,1.33,5.81,4.8,8.53,10.3,8l-5.67,2.77,6.13,9.26,2.17,8.91c5.31-12.49,2-35.12-6.92-54.34l-3.81,1c5.94-6.83-3.69-11.37-2-17.93,6,2.72,2.17,12.81,11.66,13.4L67.14,198.82c-1.67,1.12-2.87,2.27-4.31,2.79a11.36,11.36,0,0,1-4.62.27c6.22-2.64,7.67-6.1,5.11-12.44-2.18-5.41-4.24-10.87-6.58-16.2-.68-1.56-2.15-2.78-3.7-4.71l.82-7.7L60,166c0,2.23-.47,4.11.08,5.62,2.11,5.79,4.51,11.47,6.85,17.17s6.43,6.8,11.58,3.34l.69,1.27L70.7,198l21.39,53c5.87-5.71,6.58-8.92,3.77-15.93-2.48-6.16-5-12.32-7.56-18.77l-4.74,1.21,2-19.05,9,9.85,1.61-1.25L73.68,153.59l-11.57,5c8.5-12.27,9.77-25.47,7.11-38.69,5.15,4.52,10.52,9.34,16,14,1.17,1,2.84,1.37,5.58,2.63L84.56,122.9l2.15-1c.74,2,1.86,4,2.14,6.07.8,5.9,4.39,9.77,10.42,10.64,1.47.21,3,.32,5.82.61l-12.64,6.1,10,22.94C113.34,152.14,116.1,135,114,115.7l6.05,6.48.85-.41-5.58-14L97.52,115.1c2.62-4.76,6.86-9.67,7.79-15.13.61-3.63-3.51-8.06-5.52-12.14l-1.34.69V81.39c3,2.25,5.24,3.7,4.86,8-.26,2.89,2.37,6,3.76,9.19,3.76-4.48,4.1-6.23,5.09-24.47C118.1,78.22,124,83.77,131,86.75s15,3.27,22.63,4.78l-19.82,8.41c1.66,2,2.69,4.11,4.36,5.2,12.25,7.94,25.91,10,40.2,9.17,3.72-.22,7.42-.68,11.11-1-1.09,3.18-7.46.66-6.26,6.12-4.07-3.58-6.75.75-10.62,1.47l5.19,13.28,1.64-.14,3.69-14.74c8.95,7.77,19.57,11.65,32.14,14l-7.51-19.43-12.59,4.72c10.38-12.66,12.07-25.89,9.4-40.26,7.92,12.88,18.94,20.61,34.39,22.46l-12.22,5.32c3.62,9,7.06,17.83,10.75,26.52a4.27,4.27,0,0,0,3.37,2c6-.39,11.88-1.13,18.75-1.85l-6.59-15,2.23-.89c.58,1.73,1.06,3.5,1.77,5.17,1.64,3.8,1.31,8.86,6.78,10.62l-14.54,5.79c2,5.35,3.63,10.55,5.87,15.48.5,1.09,3,1.74,4.63,1.77,8.46.17,16.92.08,23.64.08l-15.9,5c3.52,9.93,6.81,19.48,10.4,28.92.43,1.13,2.41,2.14,3.81,2.36,7.05,1.12,14.15,2,21.53,3.73l-47.75,17.3,26.7,82.8-.8.31c-3.66-7-7.09-14.15-11.09-21-1.65-2.81-2.53-8-8.19-5.29-.41.2-1.55-1.62-2.54-2.06-1.56-.69-3.68-1.83-4.83-1.27s-2.16,3-2.07,4.54a44.79,44.79,0,0,0,1.78,10.8c4.47,14.3,9.21,28.52,13.85,42.76a14.18,14.18,0,0,1,1.05,5.44l-22.54-44.71-2.53,4c-.83-1.15-1.4-2.48-2.41-3.2a63,63,0,0,0-6-3.45c-1,2.13-2.9,4.32-2.77,6.38A96.24,96.24,0,0,0,235.64,305c1.12,4.8,2.86,9.47,4.55,14.91-3.09-3.24-5.37-6.17-8.21-8.38-1.62-1.26-4.16-1.32-6.28-1.92-.49,2.29-1.31,4.57-1.36,6.86,0,1.73.9,3.48,1.66,6.07a24.23,24.23,0,0,0-2.22-1.69c-1.65-.93-3.35-1.79-5-2.68-.32,2.15-1.48,4.62-.81,6.41C221,332.83,224.61,340.89,228,349c.83,2,1.79,3.86,2.91,6.25-.9-.27-1.29-.41-1.69-.51l-6.73-1.69c-.39,2.48-1.64,5.2-1,7.4A94.69,94.69,0,0,0,242,398.39a18.92,18.92,0,0,0,5.49,4.23c2.21,1.12,3.55.39,4.83-2.31,3.13-6.57,2.48-12.86-.88-20.49,4.57,5.18,7.77,9.51,11.72,13,2,1.79,5.43,2,8.21,3,.41-3,1.9-6.28,1-8.8-3.49-10.23-7.71-20.22-11.65-30.3a11.07,11.07,0,0,1-1.06-5.37c2.73,4.63,5.27,9.4,8.24,13.86a195.88,195.88,0,0,0,11.75,16.11c1.36,1.65,4.14,2.14,6.28,3.16.66-2.12,1.4-4.22,1.94-6.37.23-.93,0-2,.81-3.38.88,1.42,1.68,2.9,2.68,4.23,1.7,2.25,3.19,4.88,5.4,6.47s5.72,3.52,7.83,2.81,4.19-4.51,4.21-7c.07-8.79-.74-17.58-1.24-26.37a7.49,7.49,0,0,1,0-2c10.81,29.58,21.67,59.11,44,82.47,3,3.09,6.38,5.73,10.38,9.27-1-4.17-2.09-7.16-2.41-10.23-.84-8.09,5.51-13.6,13.33-11.83,5.49,1.24,6.1,2.38,4.36,9-.63-.86-1.07-1.44-1.49-2-2.07-3-4.91-3.41-7.92-2-3.23,1.53-3.76,4.37-2.9,7.64,2,7.78,11.35,13.71,20.54,12.26,5.27-.83,10.35-2.93,15.33-4.41-1.78,6.74-1.78,6.74,4,6.81l-.64,3.66c.53.17.9.42,1.1.32,11-5.07,19.78-11.89,20.22-25.36.32-9.83-5.73-16.74-14.56-16.67-6.73.05-10.05,4.58-8,11,.85,2.63,1.87,5.2,2.82,7.79l-1.22.71c-2.52-3.71-5.25-7.31-7.42-11.23-.53-.95.45-3.18,1.34-4.37,2.26-3.05,4.86-5.86,7.95-9.5l-4.48-2.68.73-1.18,21.05,7.57.58-7.32c7.66,10.42,7.54,21.8,8.15,33.77a27.52,27.52,0,0,0,3.35-2.84A49.12,49.12,0,0,0,447,400.09,13.89,13.89,0,0,0,441.28,389c-12.65-10-27-11.61-42.14-8.42-7.61,1.61-15,4.36-23.11,6.79-8.4-12.57-18.18-24.86-35-31.39,2.79-.43,4.1-1,5.25-.75,5.49,1.13,6.78-1.82,7.2-6.5,1.29-14.43,3.22-28.82,4.09-43.27.4-6.64-1.11-13.39-1.75-20l4.18,3c14.2-8.48,26.53-18.5,29.88-35.51,2.43.91,3.79,1.94,5,1.81,11.52-1.2,16.42,2.51,18.26,14.75-4.31-6.5-9.58-10.41-17-10.9-3.4-.23-5.83.51-6.5,4.39-1.68,9.78-5.25,18.24-17.77,20.94,6.77,1.56,11.21.6,14.75-2.78s6.83-7.24,12.9-4.69,6.62,7.77,7.28,13.11c.08.65,0,1.31,0,3.23-3.86-7-7.6-12.92-15.89-10.64-1.38.38-2.19,2.82-3.84,5.1-5.16.9-11.55,2-17.93,3.12-4.44.79-6.54,2.94-5.68,7.94.83,4.84.7,9.84,1,15.2l13.94-12c.66,8.17,8.5,6.14,11.69,10.38-5.15,3.22.06,7.83-1.55,12.32-.74-1.47-1.19-2.49-1.74-3.45-5-8.79-13.31-9.23-18.93-.73-5.23,7.9-7.23,17-9.09,26.54,9.21-5,17,.11,18.7,11.42-2.32-2.07-4.49-4.75-7.29-6.22-1.82-1-4.58-.11-6.91-.08.08,2.29-.61,5,.41,6.77a42.64,42.64,0,0,0,7.61,9.19,6.68,6.68,0,0,0,5.35,1.26,87.11,87.11,0,0,1,51.65,2.29,15.89,15.89,0,0,0,2.54.23l-39.16-33.11a22.47,22.47,0,0,1,3.65,0c5.12,1.13,8.18-1,10.08-5.75,5.16-13,10.62-25.89,15.75-38.9a10.12,10.12,0,0,1,7.34-6.68c7.55-2,15-4.18,21.07-5.87,2.48,2.23,3.8,4.15,5.62,4.93,6.53,2.79,9,7.94,9.43,15.31-2.08-2.73-3.73-4.93-5.43-7.09-4.19-5.31-9.63-7.8-16.29-6.22a85.66,85.66,0,0,0-14.6,4.83c-1.45.64-2,3.34-3,5.1,1.79,0,3.69.47,5.34,0,4.92-1.38,9.74-3.12,14.6-4.72l-2.47,3.48c3.19,1.64,6.74,2.83,9.51,5,6.89,5.39,7.95,13.48,3.07,22,.22-8.71-2.28-16-9.38-20.62-2.17-1.42-5.48-1.09-8.27-1.54-.14,0-.31.12-.47.16-10.41,2.37-17.48,8.14-20.23,18.9-1.27,5-3.86,9.62-5.11,14.6-.61,2.45-.46,6,.92,7.89,8.08,11.22,18,20.52,30.63,26.56,1.84.88,4.31.46,6.48.64-.22-2.07,0-4.29-.73-6.17-2.89-7.71-3-7.75,4.05-11.72,10.75-6,21.56-11.95,33.5-18.55-2.19,3.3-3.79,5.6-5.27,8-1.6,2.57-1.4,4.78.87,7.15a107.91,107.91,0,0,1,7,8.87l-.83.89c-.79-.6-1.62-1.16-2.37-1.8-9.09-7.71-19.75-8.27-29.25-1.1a7.11,7.11,0,0,0-2.3,5.81c1.59,8,3.46,15.83,10.21,21.68,2.56,2.21,3.64,6.19,5.19,9.47a57.28,57.28,0,0,1,2.13,6.28c4.36-1.85,4.32-5.46,4-8.54-.91-8.6-2.31-17.15-3.52-25.72a6.78,6.78,0,0,1,.19-3.65c1.21,2.61,2.43,5.21,3.62,7.83,1.46,3.19,3.57,4.25,6.72,2.1.69-.47,1.46-.8,2.15-1.27,7.11-4.83,8-6.06,17.29,1.32,8.68,6.92,9,13.4,1.28,23.56.34-4,.74-7.43.9-10.84s-5.83-9.56-10.23-10.69-7,1.54-8.85,4.86a35.57,35.57,0,0,0-3.51,8.76c-1.88,7.78-.37,9.16,8.34,6.5l-3.85,4.64c-12.08,14.59-22,30.39-24,49.65-.68,6.69.77,13.86,2.56,20.46,1.5,5.54,6.64,8.48,12.36,8.48,2.31,0,4.62-2.36,6.92-3.65-1.21-2-2-4.52-3.72-5.73-2.39-1.68-2.47-3.06-1.33-5.35,4.64-9.37,11-10.57,19-3.33-2.61-.16-5.3-1-7.5-.27a9.28,9.28,0,0,0-5.22,4.56c-1.59,3.73,1,6,9,8.83-9.09,7.38-8.56,10.71,2.5,15,3.86,1.51,7.82,2.78,11.32,4,1-3,1.12-6.62,3-8,2.49-1.92,6.29-2.13,9.53-3.08l1.28,2c-.63.12-1.49,0-1.84.4-1.77,1.92-5.15,4.51-4.73,5.85a10.6,10.6,0,0,0,6,6.14,92.06,92.06,0,0,0,18.54,3.85c6.09.63,12.3.14,17.64.14l5.7-7.48c.21-3.74.38-6.86.56-10,.21-3.43.43-6.87.62-9.85l12.73,4.2,1-1.5c-3.47-4.53-6.83-9.15-10.52-13.5-.54-.64-2.73-.38-3.9.1-3.62,1.47-7.12,3.24-11.12,4.13l11.68-8.45-6.53-8.92,4.14-1.24-5.08-11.39.53-.44a33.28,33.28,0,0,0,3.74,4.55c1,.9,2.6,1.16,3.93,1.71-1.84,5.67,4.14,7,5.41,11.37l9.53-6.26L574,435.7l-8.8,4.15c-.6-4.79,4.47-4.79,6.21-7.24l-3.3-8.57,1.51-.66,5.14,7.27,6.69-3.71c1.68,4.64-3.78,4.27-4.45,6.91,2.24,6.45,6.34,10.3,14.6,9.13l-5.9,4.15c3.21,6,6.36,11.48,13.69,12.72,6.88,1.17,10.59,6.37,13.93,12l1-.75c-1.45-2.12-3.05-4.15-4.3-6.39-1.41-2.54-3.05-5.15-3.58-7.92s.21-5.62.51-8.44.74-5.53,1.14-8.39c12.47,2.13,22.6,7,27.78,19.29l1.43-.84c-.3-1.85,0-4.11-1-5.49-5.38-7.61-11.06-15-17-22.91l-10,6.68-.21-1.39-6.76,1,13.64-10.49-13.58-18.74c2.92,2.62,4.74,5.64,6.93,5.95,5.69.8,6.77,6,10.57,9.44l9.58-6.93-18.8-28.35-28.64,19.36,3.37-7.58-1.08-1.37c-9,2.38-16,8.89-24.64,12.26l43.56-32.32-40.5-57.36.93-.77C573.08,330,581,342,591.73,351.16l1.46-.77-1-8.24L612,370.76l33.27-24.22-6,11.55c10.38-1.06,16.6-7.66,24.71-10.2L619.23,381l20.12,32.08,1.33-.35c.91-5.67,2-11.31,2.69-17,.5-4.16,2.39-5.33,6.36-4.36,6.15,1.5,12.33,2.91,18.55,4,8.37,1.46,15,5.59,19.48,12.67s8.84,14.65,13.24,22V595c-2.93,5.45-7.45,7.11-13.59,7.1q-157.89-.21-315.77-.1h-6.2c.88,15.05,1.71,29.49,2.57,43.92q2.78,46.62,5.58,93.24c1.2,20.61,2.28,41.22,3.41,61.84H328c-.09-3.82-.07-7.65-.3-11.47q-4.88-82.52-9.82-165c-.44-7.42-1-14.83-1.49-22.49h-6.53q-147.64,0-295.28.1c-6.15,0-10.64-1.69-13.59-7.1ZM103.69,171.06c6.3,14.44,12.32,28.33,18.42,42.19,3.12,7.08,10.08,8.35,16.1,2.84l-22.15-50.48Zm-10,83.86c4.54,11.23,9.16,21.57,12.86,32.24,2.4,6.89,6.6,11.64,12.56,15.41,6.72,4.26,7.12,4.38,14.42-.58l-5.23-12.72-8.87,3.28-17.13-41.31ZM623.05,427.26l15.85,21.09,7.6-7.4-14-21Zm-49.8,27.05,15.87,22.42c0-3.44-.68-6.72.13-9.58,2.21-7.79-2.2-12.81-6.62-18.46ZM102.16,285.73c-3.26-8.08-6.41-16.21-9.91-24.19-.44-1-2.75-1.2-5.34-2.22C90.92,270,94.07,279.2,102.16,285.73Zm-.53-55.8c3.27-6.56-.89-10.72-2.44-15.34-.26-.79-1.51-1.25-2.31-1.86-.21,1.11-.88,2.37-.56,3.3C97.82,220.39,99.58,224.66,101.63,229.93Z" transform="translate(-1 -74.13)"/></g></g></svg>