<svg xmlns="http://www.w3.org/2000/svg" viewBox="0 0 515.52 369.66"><defs><style>.cls-1{fill:#fd00bc;}.cls-2{fill:#070005;}.cls-3{fill:#f900b2;}.cls-4{fill:#0a0105;}.cls-5{fill:#0d0107;}.cls-6{fill:#fd7801;}.cls-7{fill:#080400;}</style></defs><title>Ресурс 17</title><g id="Слой_2" data-name="Слой 2"><g id="Слой_1-2" data-name="Слой 1"><path class="cls-1" d="M515.25,229.11c-1.46-5.69-4.86-11-7.85-16.17-3.77-6.57-7.29-13.48-12.13-19.22-6.87-8.15-14-16.42-24.35-20.57-.36-.14-.53-.76-.79-1.15a12.06,12.06,0,0,1,1.9-.24c13.25.38,22.7-8.55,21.64-21.59-.3-3.64-3.36-7.46-6-10.41-5.59-6.23-11.21-12.68-17.85-17.65-6.23-4.65-13.57-8.1-20.86-11-8-3.12-16.29-6.07-24.71-7.09A74.22,74.22,0,0,0,391,107.63a179.62,179.62,0,0,0-26.64,11.56,134.37,134.37,0,0,0-27.63,19.66c-.93.86-4.76.48-5-.13A38.66,38.66,0,0,1,330,129.5c-.79-8.29,0-17-2.5-24.75-1.91-5.94.3-11.83-1.79-16.95-2.67-6.56-.1-13.4-2.17-19.36a31.84,31.84,0,0,1-1.55-11c0-7.7-2.09-15.19-2.69-22.85a96,96,0,0,0-1.42-12.94c-1.19-5.44-4.12-10.77-4.11-16.14s-5.13-2.63-6.1-5.46c-2.45,2.23-5.14,4.26-7.28,6.76-1.58,1.86-2.37,4.38-3.65,6.52q-4.09,6.85-8.33,13.6c-2.35,3.76-4.87,7.4-7.13,11.21-2.44,4.12-4.69,8.36-7,12.57-1.83,3.36-3.38,6.89-5.42,10.11-2.75,4.34-6.15,8.29-8.73,12.71-5.07,8.68-9.82,17.55-14.62,26.38-2.4,4.41-4.4,9-7,13.31-1.88,3.07-3.92,7.21-6.83,8.25-8,2.85-16.58,3.89-24.69,6.45s-16,6.54-24.28,9.1c-2.66.83-6.33-.39-9.11-1.62-1.45-.64-1.59-3.75-3-5.06-9.78-9.21-19-19.18-29.83-27-9-6.5-19.64-10.73-29.83-15.36-4.71-2.15-10-3.06-15.15-4.21C86.4,81.6,77,79,67.46,78c-9.23-1-18.65.08-28-.31-7-.29-16.47,9.34-17.4,14.81-2.58,15.28,6.34,23.77,20.87,25.18,12.48,1.21,25.07,1.32,37.59,2.2a32,32,0,0,1,10,2.4A225.11,225.11,0,0,1,111,131.88c5,2.75,10.15,5.81,14.25,9.75,6.38,6.13,11.75,13.29,17.93,19.64,2.08,2.14,4.31,3.49,2.18,6.72-1.61,2.44-3.12,4.94-4.76,7.35-.15.23-.94.19-1.36,0-5.79-1.88-11.47-4.22-17.37-5.63-9.7-2.31-19.46-4.91-29.33-5.76-12.71-1.09-25.45.36-37.29,5.8-7.56,3.47-15.84,6.26-22.13,11.39C24.75,188,17.87,196.7,10.61,204.83c-1.93,2.16-3.11,5.08-4.29,7.8-1.57,3.6-2.74,7.38-4.22,11a3.52,3.52,0,0,1-.24.46,12.79,12.79,0,0,1-.93,2.72,22.42,22.42,0,0,0-.73,3.45c-.08.79-.15,1.6-.19,2.4.85,6.87,4.84,13.63,11.21,16.5,3.34,1.5,7.78,3.14,10.82,2.1,4.17-1.43,7.7-4.69,11.48-7.33a2.06,2.06,0,0,1,.52-.58h0c-.26.19.19-.26,0,0h0a2.17,2.17,0,0,1,.37-.37c.53-.94,1.11-1.85,1.69-2.75.58-1.1,1.21-2.17,1.87-3.22a24.11,24.11,0,0,1,2.44-4.27,1.59,1.59,0,0,1,.54-.9,4.62,4.62,0,0,1,1.45-1.8,1.33,1.33,0,0,1,.18-.26c6.51-7.52,13.51-14.64,20.73-21.5,1.71-1.63,4.84-2,7.41-2.44,5.82-1,11.69-1.63,16.53-2.28,6.82.45,12.58.8,18.33,1.23a8.61,8.61,0,0,1,2.14.75,6.94,6.94,0,0,1-2.19,1.17c-3.92.43-7.92.37-11.76,1.12-9.53,1.86-19,4.43-26.64,10.65-6.62,5.36-12.56,11.53-19,17.11l0,0c-.11.15-.21.31-.33.45l-.25.28c-.08.11,0-.07-.08.13a1.45,1.45,0,0,1-.45.45l-.07.1-1,1.17c-1.76,2.33-3.56,4.63-5.22,7l0,0c-.16.32-.3.65-.44,1-.45,2-1.48,3.94-2.06,6-1.24,4.34-2,8.85-3.58,13.06s-4.6,14.9-4.6,18.58c0,4.83.32,9.69-.07,14.49-.86,10.71,10.37,19,18.92,19.3,6.31.2,12-1.83,15.28-7.93,2-3.79,4.83-7.47,5.62-11.53.89-4.52-.13-9.39-.1-14.12a1.64,1.64,0,0,1,0-.19,24.76,24.76,0,0,1,2.88-12.61,1.65,1.65,0,0,1,0-.19c-.18-1.4.83-3.05,1.61-4.17a9.69,9.69,0,0,1,2.45-2.32c1.42-3.94,5.42-9.7,7.89-10.8,5.82-2.6,11.61-5.27,17.44-7.85a7.2,7.2,0,0,1,2-.19c8.13-1,16.26-2,24.4-2.9,1.16-.13,2.39.45,3.59.71-1.07.4-2.17.75-3.22,1.22-7.14,3.17-15,5.3-21.22,9.79C98.51,261,90.92,269,82.91,276.42a38.88,38.88,0,0,1-2,3.76c-.24.56-.52,1.11-.8,1.66.22,1.09.34,2.14-1.15,2.38-.27.63-.53,1.28-.79,1.93.15.87.14,1.66-.83,2a17.4,17.4,0,0,1-1.21,2.28c-.61,2-1.09,4.1-1.64,6.21a3.48,3.48,0,0,1-.12.82c-1.28,4.43-3.9,8.68-4.25,13.14-.69,8.78-.36,17.65-.1,26.48.07,2.33,1.66,4.58,2.16,6.95.89,4.2.45,9,2.44,12.56,2.9,5.13,5.93,10.35,13.36,11.66,6.95,1.22,12.15,1.33,17-3.8,2.3-2.42,4.8-4.88,6.29-7.79l.13-.27a33.75,33.75,0,0,0,.73-10.64c-.71-1.84-.16-3.53-.25-5.36-.07-1.32-.09-2.65-.18-4-.71-10.9-2.5-21.69,1.88-32.49,3.11-7.67,8.91-12.41,15.44-15.9a125.85,125.85,0,0,1,25-9.85c4-1.12,9.12-.25,13.09,1.33,7,2.8,13.51,6.94,20.32,10.33a108.75,108.75,0,0,0,22.3,8.38c10.73,2.68,21.23,6,32.41,5.57,13.21-.52,26.47-.74,39.59-2.17a120.17,120.17,0,0,0,24.78-5.93c8.73-2.92,17.35-6.18,25.18-11.51,5.51-3.75,11.42-8.46,19-6.29,5.86,1.67,11.5,4.09,17.35,5.8,10,2.9,16.58,10.15,22.88,17.59,3.79,4.48,4.4,10.54,4.91,16.26.41,4.63.21,9.31.3,14a8.93,8.93,0,0,1,.14,2.15c-1.42,5.74-4.25,11.53-4,17.15a18.31,18.31,0,0,0,7.43,13.11c6,4.56,11.85,8.18,19.27,3.85,4.09-2.39,8.35-4,10.85-9.36,1.43-3.09.86-5.48,1.51-8.11,1.14-4.63,4.52-9.19,4.21-13.59-.74-10.53,2.6-21.06-1.87-31.9-1.66-4-2.36-9.76-4.2-14.34-2.28-5.69-5-11.63-9-16.1-5.78-6.41-13-11.57-19.49-17.3-7.76-6.8-17.18-10.17-26.72-13.45-.75-.26-3.39-.85-3-2.51l0-.16c-.78-2.6.35-5.81,1.22-8.2a12.59,12.59,0,0,1,4.29-6.1,9.85,9.85,0,0,1,4.5-2.75c4.78-1.7,10.34-1.85,14.53-4.39,6.61-4,11.75-.41,17.19,1.64,7.11,2.67,10.21,8.8,13.66,15.33,4,7.47,6.57,15.26,9.32,23.08,1.86,5.28,10.57,12.16,16.49,12.25,6.93.11,12.48-2.42,17.24-7.75,4.47-5,5.78-14.66,2.07-20.43-.72-1.12-.14-3.34.37-4.88.23-.69,1.74-1,2.67-1.42.41.89.75,1.81,1.23,2.65,1.6,2.87,2.2,6.47,5.84,7.85,3.39,1.29,6.63,3.31,10.12,3.87,9.27,1.48,16.88-1.57,20.83-10.51C514.49,237.42,516.17,232.71,515.25,229.11Zm-15.95,13c-5,2.5-9.92.63-13.17-5-4.86-8.37-9.24-17.08-14.73-25C463,200,450.72,193.74,436.3,191.41a7.72,7.72,0,0,0-1.5,0l-8.13.32c2.09,1.87,4.06,3.9,6.29,5.57,12.72,9.49,20.8,22.33,26.51,36.82,1.8,4.55,3.16,9.28,4.57,14,1.8,6-1.07,11.46-6.89,13.34-5.47,1.77-10.78-1-12.78-6.78-4.23-12.23-7.92-24.71-16.79-34.7-5.7-6.41-12.51-10.13-21.36-10.66a57,57,0,0,0-33,8.09,14.19,14.19,0,0,0-5.25,6.32c-2.8,6.41-4.86,13.15-7.58,19.61-1.7,4-.94,5.77,3.48,7,24.29,6.52,44.82,18.37,56.26,42,6.48,13.4,8,27.67,5.72,42.35-.71,4.53-1.55,9-2.3,13.57-1.35,8.1-6.94,12.78-13.37,11.17s-8.85-8.19-7.21-16c3.57-17,5-34.15-5.68-49.52-8.42-12.08-21.1-18.15-34.68-22.29-6.52-2-13.38-2.9-20.13-4.07a5.83,5.83,0,0,0-4.14,1c-16,12.76-34.57,20-54.41,23.81-40.41,7.68-78.12,1.33-112.42-22.45-3-2.08-7.93-2.87-11.61-2.24-14.58,2.52-28.65,6.71-40.94,15.59-14.87,10.75-19.82,25.72-18.55,43.22.51,7,2.05,14,3.11,20.93.72,4.76-3.33,11.19-7.57,12-6.09,1.19-12.09-2.12-13.34-8.24-1.81-8.84-3.94-17.81-4.06-26.75-.24-17,4.79-32.63,15.83-46.1,12.46-15.2,29.18-22.89,47.46-28.22,2.38-.69,6.34-3.86,6.16-4.22-1.78-3.63-4.08-9.68-6.58-9.85-17.9-1.19-35.92-2.2-53.13,5.2S64.24,263,61.6,280.28c-.85,5.53-1,11.16-1.69,16.72-.81,6.77-4.95,11.17-10.35,11.3s-11.31-5.38-11.1-11.94c.66-20.21,4.6-39.54,17.78-55.83C68.52,225.36,85,217.8,103.83,215.32c9.59-1.26,19.4-.73,29.1-1.24,2.14-.11,4.23-1.19,6.35-1.83-1.55-2.23-2.62-5.58-4.73-6.47a172.24,172.24,0,0,0-22.24-7.6c-15.38-4.11-31.08-4.69-46.41-.35-16.9,4.78-27.11,17.29-34.37,32.65-2.43,5.14-4.44,11-11.84,10.91s-12.3-6.86-9.59-13.72C21,200.08,40.25,181.61,69.74,175.24c23.81-5.14,46.3.83,68.23,9.57,4.38,1.75,7.31,2.29,9.82-2.78,2.17-4.38,5.72-8.07,8.12-12.36.94-1.68,1.32-4.68.44-6.21-14.56-25.38-36.31-41.77-64.21-50a152.65,152.65,0,0,0-49.37-5.82,11.23,11.23,0,0,1-11.5-8.9c-.92-5,2.51-10.11,8.48-11.5a46.13,46.13,0,0,1,11.81-1c21.83.7,43.11,4.3,63.16,13.36,23.14,10.45,42,26.1,55.78,47.48,3.15,4.88,5.86,4.75,10.32,2.08,16.83-10.08,35.24-15.6,54.6-18.18,1.33-1.07,2.69-2.11,4-3.22,2.89-2.47,5.68-5.07,8.68-7.39.78-.61,2.21-.39,3.34-.55a.52.52,0,0,0,.24-.62c-3.85-2.8-.69-5.79.48-7.83C257.32,102.41,263,93.79,268.49,85a2.7,2.7,0,0,0,.08-2.34c-1.68-2.76-1.73-3.75,1.8-2.12.43.2,1.75-.77,2.19-1.48,4.64-7.55,9.4-15,13.61-22.83,1.33-2.46,1-5.78,1.7-8.65a10.1,10.1,0,0,1,1.89-4.26c3.21-3.67,7-6.88,9.89-10.75,2.13-2.84,3.05-6.56,4.87-9.68.55-1,2.28-1.23,3.46-1.82a16.54,16.54,0,0,1-.57,3.23c-1.05,2.72-2.07,4.65,1.66,6.92,1.72,1,1.13,5.93,1.54,9.07a30,30,0,0,1,.61,6.5c-.19,2-1.19,3.92-1.83,5.88,1,.45,2.71.83,2.76,1.37,1,11.23,1.82,22.48,2.68,33.73l2.08,8.33a5.81,5.81,0,0,0-1.2-1.1c-.22-.11-1,.21-1,.38-.14,1.4-.63,3.87-.16,4.08,6.4,2.8,3.64,8.52,4.33,13.05,1.21,8,2.39,16.05,3.16,24.12.23,2.41-1.09,4.94-1.38,7.45-.1.84.8,1.79,1.24,2.69l.39-1.28.37.25-.74,1,1.87,1c8.64,6.79,14.39,2.94,21.57-3.76a119.2,119.2,0,0,1,47.14-27c28.82-8.77,54.09-1.88,76.66,17a91.58,91.58,0,0,1,12.35,12.15c3.95,4.85,3,10.41-1.45,14.33-4,3.56-9.39,3.07-13.89-1.4-8.48-8.42-17.32-16.33-28.71-20.71-16.05-6.17-32.39-5.81-47.43,1.68-12.53,6.25-23.76,15.14-35.44,23-3.65,2.47-4.22,5.4-.67,9a35.28,35.28,0,0,1,5.8,8.58c2.07,4,4.66,4.15,8.6,2.81,13.11-4.44,26.11-9.53,39.57-12.5,30.73-6.77,62.73,4.39,82.4,31.73,5.62,7.81,9.76,16.73,14.18,25.34C507.33,233.59,504.93,239.34,499.31,242.15ZM459.72,165.8a9.55,9.55,0,0,1-2.58,0c-6.43-1.92-12.76-5.14-19.28-5.59-9.13-.62-18.39.81-27.6,1.36a21.93,21.93,0,0,0-3.94.28c-7.31,1.82-14.59,3.73-21.88,5.62-5.54,1.44-11,3.09-16.65,4.19-1.28.25-2.92-1.39-4.4-2.16.65-1.12,1-2.6,2-3.31,10-7.5,19.73-15.48,32.34-18.5,6-1.44,11.94-3.28,15.63-4.31,14.86,1,25.94,4.65,35.33,12.88,3.1,2.71,6.47,5.11,9.66,7.71A9.19,9.19,0,0,1,459.72,165.8Z"/><path class="cls-2" d="M323.82,147.74c8.64,6.79,14.39,2.94,21.57-3.76a119.2,119.2,0,0,1,47.14-27c28.82-8.77,54.09-1.88,76.66,17a91.58,91.58,0,0,1,12.35,12.15c3.95,4.85,3,10.41-1.45,14.33-4,3.56-9.39,3.07-13.89-1.4-8.48-8.42-17.32-16.33-28.71-20.71-16.05-6.17-32.39-5.81-47.43,1.68-12.53,6.25-23.76,15.14-35.44,23-3.65,2.47-4.22,5.4-.67,9a35.28,35.28,0,0,1,5.8,8.58c2.07,4,4.66,4.15,8.6,2.81,13.11-4.44,26.11-9.53,39.57-12.5,30.73-6.77,62.73,4.39,82.4,31.73,5.62,7.81,9.76,16.73,14.18,25.34,2.84,5.54.44,11.29-5.18,14.09-5,2.5-9.92.63-13.17-5-4.86-8.37-9.24-17.08-14.73-25C463,200,450.72,193.74,436.3,191.41a7.72,7.72,0,0,0-1.5,0l-8.13.32c2.09,1.87,4.06,3.9,6.29,5.57,12.72,9.49,20.8,22.33,26.51,36.82,1.8,4.55,3.16,9.28,4.57,14,1.8,6-1.07,11.46-6.89,13.34-5.47,1.77-10.78-1-12.78-6.78-4.23-12.23-7.92-24.71-16.79-34.7-5.7-6.41-12.51-10.13-21.36-10.66a57,57,0,0,0-33,8.09,14.19,14.19,0,0,0-5.25,6.32c-2.8,6.41-4.86,13.15-7.58,19.61-1.7,4-.94,5.77,3.48,7,24.29,6.52,44.82,18.37,56.26,42,6.48,13.4,8,27.67,5.72,42.35-.71,4.53-1.55,9-2.3,13.57-1.35,8.1-6.94,12.78-13.37,11.17s-8.85-8.19-7.21-16c3.57-17,5-34.15-5.68-49.52-8.42-12.08-21.1-18.15-34.68-22.29-6.52-2-13.38-2.9-20.13-4.07a5.83,5.83,0,0,0-4.14,1c-16,12.76-34.57,20-54.41,23.81-40.41,7.68-78.12,1.33-112.42-22.45-3-2.08-7.93-2.87-11.61-2.24-14.58,2.52-28.65,6.71-40.94,15.59-14.87,10.75-19.82,25.72-18.55,43.22.51,7,2.05,14,3.11,20.93.72,4.76-3.33,11.19-7.57,12-6.09,1.19-12.09-2.12-13.34-8.24-1.81-8.84-3.94-17.81-4.06-26.74-.24-17,4.79-32.63,15.83-46.1,12.46-15.2,29.18-22.89,47.46-28.22,2.38-.69,6.34-3.86,6.16-4.22-1.78-3.63-4.08-9.68-6.58-9.85-17.9-1.19-35.92-2.2-53.13,5.2S64.24,263,61.6,280.28c-.85,5.53-1,11.16-1.69,16.72-.81,6.77-4.95,11.17-10.35,11.3s-11.31-5.38-11.1-11.94c.66-20.21,4.6-39.54,17.78-55.83C68.52,225.36,85,217.8,103.83,215.32c9.59-1.26,19.4-.73,29.1-1.24,2.14-.11,4.23-1.19,6.35-1.83-1.55-2.23-2.62-5.58-4.73-6.47a172.24,172.24,0,0,0-22.24-7.6c-15.38-4.11-31.08-4.69-46.41-.35-16.9,4.78-27.11,17.29-34.37,32.65-2.43,5.14-4.44,11-11.84,10.91s-12.3-6.86-9.59-13.72C21,200.08,40.25,181.61,69.74,175.24c23.81-5.14,46.3.83,68.23,9.57,4.38,1.75,7.31,2.29,9.82-2.78,2.17-4.38,5.72-8.07,8.12-12.36.94-1.68,1.32-4.68.44-6.21-14.56-25.38-36.31-41.77-64.21-50a152.66,152.66,0,0,0-49.37-5.82,11.23,11.23,0,0,1-11.5-8.9c-.92-5,2.51-10.11,8.48-11.5a46.14,46.14,0,0,1,11.81-1c21.83.7,43.11,4.3,63.16,13.36,23.14,10.45,42,26.1,55.78,47.48,3.15,4.88,5.86,4.75,10.32,2.08,16.83-10.08,35.24-15.6,54.6-18.18.91,3.92.83,8.51,2.92,11.65a47.3,47.3,0,0,0,29.26,20.18c15.48,3.51,31.13,2.15,46.46-2.37C320.57,158.5,323.77,154.43,323.82,147.74Zm-116,96.33c12.11.87,27.89-10.44,32.75-27.19,1.51-5.19.84-8.28-5.34-10.61-18.23-6.87-36.11-14.68-54-22.37-3-1.31-4.75-1.12-6.56,1.64-8.3,12.64-9.51,25.83-2.28,39.15C179.23,237.28,190.14,243.77,207.85,244.07Zm87.67.08c20.24-.47,31.5-7.14,38.25-20.56,6.41-12.75,5.48-25.42-2.46-37.31-.93-1.39-3.89-2.87-5.12-2.37q-29.56,11.95-58.84,24.57c-1.43.62-3.27,3.05-3.06,4.34C267.34,231.52,283.85,244.86,295.52,244.15Z"/><path class="cls-3" d="M323.82,147.74c0,6.69-3.25,10.76-9.74,12.68-15.33,4.52-31,5.87-46.46,2.37a47.3,47.3,0,0,1-29.26-20.18c-2.09-3.13-2-7.72-2.92-11.65,1.33-1.07,2.68-2.11,4-3.22,2.89-2.47,5.68-5.07,8.68-7.39.78-.61,2.21-.39,3.34-.55.36,1.63.17,4.18,1.15,4.75,9.07,5.33,13.27,12.75,11.64,23.42-.76,5,1.28,5.42,5.14,2.56,5.93-4.41,11.69-9.54,20-4.06,2.38,1.57,6.06,1.19,9.14,1.7-.6-3.28-.77-6.72-1.91-9.81-1.85-5-2.91-9.44,2.26-13.32,2.05-1.54,3.49-4,5-6.13a14.5,14.5,0,0,0,1.3-3.44c-1.05-.26-2.16-.89-3.15-.74-10.55,1.62-18.24-1.83-22.26-12.14a9,9,0,0,0-1.23-2.14c-1.47-1.93-2.88-2.88-4.19.21-1.38,3.24-2.56,6.64-4.46,9.56-1.61,2.47-3.75,5.18-6.31,6.29-3.65,1.6-7.89,1.84-11.88,2.66-3.85-2.8-.69-5.79.48-7.83C257.32,102.41,263,93.79,268.49,85a2.7,2.7,0,0,0,.08-2.34c-1.68-2.76-1.73-3.75,1.8-2.12.43.2,1.75-.77,2.19-1.48,4.64-7.55,9.4-15,13.61-22.83,1.33-2.46,1-5.78,1.7-8.65a10.1,10.1,0,0,1,1.89-4.26c3.21-3.67,7-6.88,9.89-10.75,2.13-2.84,3.05-6.56,4.87-9.68.55-1,2.28-1.23,3.46-1.82a16.54,16.54,0,0,1-.57,3.23c-1.05,2.72-2.07,4.65,1.66,6.92,1.72,1,1.13,5.93,1.54,9.07a30,30,0,0,1,.61,6.5c-.19,2-1.19,3.92-1.83,5.88-2.19,4.88-3.94,10.13-10.74,10.32A10.94,10.94,0,0,0,294,64.45c-1.29.69-3.14,1.81-3.24,2.87a4.84,4.84,0,0,0,2.28,3.85c7.36,3.5,10.39,9,8.86,17a14.21,14.21,0,0,0,.12,2.47c0,4.56,1.79,4.63,5,2.22,2.48-1.87,5.18-3.44,7.78-5.15l2.08,8.33a5.82,5.82,0,0,0-1.2-1.1c-.22-.11-1,.21-1,.38-.14,1.4-.63,3.87-.16,4.08,6.4,2.8,3.64,8.52,4.33,13.05,1.21,8,2.39,16.05,3.16,24.12.23,2.41-1.09,4.94-1.38,7.45-.1.84.8,1.79,1.24,2.69l0,0Z"/><path class="cls-4" d="M251.68,119.18c4-.82,8.23-1.06,11.88-2.66,2.56-1.12,4.7-3.82,6.31-6.29,1.9-2.92,3.08-6.32,4.46-9.56,1.31-3.09,2.72-2.14,4.19-.21a9,9,0,0,1,1.23,2.14c4,10.31,11.71,13.77,22.26,12.14,1-.15,2.1.47,3.15.74a14.5,14.5,0,0,1-1.3,3.44c-1.52,2.16-3,4.59-5,6.13-5.17,3.88-4.11,8.29-2.26,13.32,1.14,3.09,1.31,6.53,1.91,9.81-3.08-.51-6.76-.13-9.14-1.7-8.31-5.48-14.06-.35-20,4.06-3.85,2.86-5.89,2.41-5.14-2.56,1.63-10.68-2.58-18.09-11.64-23.42-1-.57-.8-3.12-1.15-4.75A.52.52,0,0,0,251.68,119.18Z"/><path class="cls-5" d="M314.84,87.76c-2.6,1.7-5.3,3.28-7.78,5.15-3.2,2.41-5,2.34-5-2.22a14.21,14.21,0,0,1-.12-2.47c1.53-8-1.5-13.55-8.86-17a4.84,4.84,0,0,1-2.28-3.85c.1-1.07,1.95-2.18,3.24-2.87A10.94,10.94,0,0,1,298.66,63c6.81-.19,8.55-5.45,10.74-10.32,1,.45,2.71.83,2.76,1.37C313.17,65.26,314,76.51,314.84,87.76Z"/><path class="cls-3" d="M321.92,146.77l.39-1.28.37.25-.74,1Z"/><path class="cls-6" d="M207.85,244.07c-17.71-.3-28.62-6.79-35.44-19.38-7.22-13.32-6-26.51,2.28-39.15,1.81-2.76,3.51-2.95,6.56-1.64,17.91,7.69,35.79,15.5,54,22.37,6.18,2.33,6.85,5.42,5.34,10.61C235.73,233.62,220,244.94,207.85,244.07Zm-2.24-45.23c-4.92-.27-8.52,2.65-8.84,7.18-.4,5.66,2.84,9.93,8.1,9.53,4.18-.32,7.87-2.21,8.06-7.49S210.39,199.1,205.61,198.84Z"/><path class="cls-6" d="M295.52,244.15c-11.67.71-28.18-12.63-31.23-31.34-.21-1.29,1.62-3.73,3.06-4.34q29.3-12.57,58.84-24.57c1.23-.5,4.2,1,5.12,2.37,7.95,11.89,8.88,24.56,2.46,37.31C327,237,315.76,243.69,295.52,244.15ZM308.88,207c0-5.23-3.07-8.19-8.36-8.18-4.72,0-7.84,3.28-7.79,8.17.06,5.18,3.22,8.54,8.17,8.69C305.56,215.83,308.92,212.17,308.88,207Z"/><path class="cls-7" d="M205.61,198.84c4.78.27,7.51,3.84,7.32,9.23s-3.88,7.17-8.06,7.49c-5.25.4-8.5-3.88-8.1-9.53C197.09,201.49,200.69,198.56,205.61,198.84Z"/><path class="cls-7" d="M308.88,207c0,5.16-3.32,8.82-8,8.69-4.95-.14-8.11-3.51-8.17-8.69-.05-4.89,3.07-8.16,7.79-8.17C305.81,198.82,308.84,201.79,308.88,207Z"/><path class="cls-1" d="M73.85,262.88a32.78,32.78,0,0,0-4.15,7.31c-.74,1.78,2.16,2.56,2.89.8a30,30,0,0,1,3.85-6.6c1.17-1.54-1.44-3-2.59-1.51Z"/><path class="cls-1" d="M80,281.45a30.4,30.4,0,0,0-2.87,7.34c-.46,1.87,2.43,2.67,2.89.8A27.24,27.24,0,0,1,82.59,283c.93-1.69-1.66-3.21-2.59-1.51Z"/><path class="cls-1" d="M82.95,276.58a2.57,2.57,0,0,1-.63.81l2.51,1.46,0-.06L82.43,277a28.43,28.43,0,0,0-2.69,5.24c-.71,1.8,2.19,2.57,2.89.8A24.78,24.78,0,0,1,85,278.49c.93-1.4-1.25-3.12-2.36-1.82a3,3,0,0,0-.74,1.38,1.51,1.51,0,0,0,2.51,1.46,4.94,4.94,0,0,0,1.1-1.41c.89-1.71-1.7-3.23-2.59-1.51Z"/></g></g></svg>