<svg xmlns="http://www.w3.org/2000/svg" viewBox="0 0 561.28 366.52"><defs><style>.cls-1{fill:#252525;}.cls-2{fill:#2d2d2d;}.cls-3{fill:#292929;}.cls-4{fill:#242424;}.cls-5{fill:#383838;}.cls-6{fill:#c6c6c6;}.cls-7{fill:#c5c5c5;}.cls-8{fill:#c4c4c4;}.cls-9{fill:#414141;}.cls-10{fill:silver;}.cls-11{fill:#c2c2c2;}.cls-12{fill:#323232;}.cls-13{fill:#3d3d3d;}.cls-14{fill:#424242;}.cls-15{fill:#393939;}.cls-16{fill:#444;}.cls-17{fill:#4c4c4c;}.cls-18{fill:#333;}.cls-19{fill:#020202;}.cls-20{fill:#3a3a3a;}</style></defs><title>Ресурс 18</title><g id="Слой_2" data-name="Слой 2"><g id="Слой_1-2" data-name="Слой 1"><path d="M199.78,453.12c-20.14-9.48-40.17-19.19-60.44-28.38-21.76-9.87-44.93-11.81-68.42-10.55-5.18.28-5.49-1.06-4.57-5.43C71,386.27,68.67,365,52.23,347.68,46.06,341.15,37.9,336.52,30.67,331c-1.26-1-2.39-2.09-3.58-3.14,1.11-.9,2.19-1.85,3.34-2.7Q47.1,313,63.78,300.92c3.78-6.1,8.64-11.79,11.15-18.38,7.83-20.5,6.68-41.39.95-62.29-3.32-12.12-3.1-12.18,8.42-16.37a7.32,7.32,0,0,0,.93-.37C98,196.77,111.42,191,123.4,183c20.36-13.49,39.82-28.35,59.67-42.61,1.41-1,3-1.83,4.44-2.73a26.4,26.4,0,0,1-1.46,4.95c-10,19.26-18.91,38.82-22.69,60.49-4.22,24.13-2.08,47.35,7.6,69.86,6.67,11.13,13.28,22.3,20.1,33.34.82,1.33,2.79,2,4.22,2.92a22.63,22.63,0,0,0,1.88-4.39c2.78-14,5.42-28.09,8.2-42.13a24.42,24.42,0,0,1,1.78-4.39,22.83,22.83,0,0,1,3.06,3.65c4.56,8.5,9.08,17,13.44,25.64,1.65,3.26,3.58,4.1,7.19,2.91C260,281,294.57,298,305.44,327c.58,1.54,2,2.76,3,4.13.81-1,2-1.8,2.37-2.91,11.24-36.58,38.8-43.9,68.91-40.7,12.85,1.37,12.81,1.72,18.53-10.19,1.83-3.82,3.63-7.65,5.45-11.48l4.25-4.31c.55,2,1.23,4,1.64,6.11,2.36,11.86,4.54,23.77,7.11,35.58.49,2.27,2.46,4.23,3.75,6.33l5.41-5.78c7.08-14.07,15.74-27.58,20.92-42.32,9.56-27.2,4.86-54.77-1.66-82.07-3.49-14.61-13-25.61-20.85-37.7-1.16-1.8-2.29-3.62-3.43-5.43-.75-1.63-1.52-3.26-2.25-4.9-.5-1.11-.95-2.23-1.42-3.35a33.83,33.83,0,0,1,3.26,1.84c15.63,11.18,31.12,22.55,46.92,33.49,4.52,3.13,9.89,5,14.88,7.5,18.75,8,37.53,16,56.18,24.28,1.11.49,2,3.61,1.56,5.11-3.16,11.29-8.51,22.29-9.73,33.74-3.49,32.85,12.84,55.77,40,72.13a158,158,0,0,0,15.52,7.94c3.58,1.65,3.39,2.8.22,4.7-5,3-9.82,6.22-14.71,9.36-9.1,4.23-13.69,12.41-17.33,21-6.72,15.79-7.43,32.27-3.78,48.94.86,3.93,0,5.12-4.31,5.2-8.78.15-17.7.37-26.27,2-9,1.75-17.66,5.22-26.48,7.94-29.83,10.61-56.47,27-83.13,43.83-33.28,21-70,32-109.94,29.81-6.42-1.23-12.79-2.74-19.25-3.65-26.38-3.73-50.32-14-73.43-26.71C204.92,455.16,202.3,454.23,199.78,453.12ZM315,331c-8.69,24.67,1.71,65.56,37.91,75,17.67,4.37,34,2.33,47.93-10.38,16.46-15.9,24.43-35,19.83-57.83-3.33-16.57-13.13-29.07-27.85-37.56-6.18-6.71-14.71-7.65-22.84-8.11C345.15,290.76,323.42,306.44,315,331ZM141,377.83c-1.49,1-2.94,2.07-4.49,3q-14.24,8.14-28.53,16.22l-2.39,2.74c1.17.2,2.53.9,3.48.53,9.26-3.61,19-6.4,27.49-11.42,8.08-4.8,14.8-11.93,22-18.19.73-.64.5-2.38.71-3.6-1.19.18-2.61,0-3.52.61C150.71,370.95,145.86,374.42,141,377.83Zm64,7.31c16.19,26.53,55,33,78.12,13.09,2.48-2.18,5.21-4.12,7.38-6.57,8.55-9.68,12.56-21.35,14.3-34,5.59-40.49-35.82-75.43-72.2-60.88C195.95,311.46,183.21,352.22,205,385.14Zm67.25,41c-5.15,0-10.33-.23-15.42.32-1.4.15-3.87,3.15-3.57,4.18,2.5,8.59,5.4,17.06,8.58,25.43.33.87,4.54,1.42,4.76,1,2.69-5.27,5-10.76,7.37-16.18,1.17-2.35,2.35-4.69,3.5-7.05C281.34,425.78,281.26,425.67,272.2,426.16ZM466,282c-6.79,8.54-13.62,17.05-20.29,25.68-.61.79-.23,2.34-.31,3.54,1.24,0,2.83.47,3.68-.12,11.2-7.78,21.68-16.33,28.88-28.22l10.31-18.78c3.91-11.57,7.85-23.12,11.65-34.72.28-.85-.53-2-.83-3.08-.82.71-2,1.26-2.41,2.16-3.25,6.54-6.36,13.15-9.51,19.73ZM121.32,256.64c1.27,2.68,2.55,5.12,3.6,7.67,8.34,20.28,20.81,37.43,38.43,50.63,1.25.94,3.35.74,5.05,1.07-.52-1.53-.66-3.36-1.61-4.55-6.64-8.32-13.76-16.27-20.12-24.8-7.25-9.73-13.85-20-20.8-29.91a14.69,14.69,0,0,0-2.93-2.46Zm363.17,85.31c12.09-2.91,23.88-5.49,35.48-8.71,3-.84,5.5-3.66,8.22-5.58-3,.11-6,.14-9,.35q-28.83,2-57.65,4.05a19.75,19.75,0,0,0-4.08,1.2c1.08.93,2,2.37,3.26,2.71C468.49,338.05,476.29,339.9,484.49,341.94Zm-357.41-3.56,0-.68c-7.16,0-14.33-.09-21.48.06-1.8,0-3.58.84-5.37,1.3,1.63,1.28,3.13,3.41,4.92,3.69,11.47,1.77,23,3.77,34.52,4.34,5.26.26,10.75-2.35,16-4.15,1.44-.5,2.26-2.78,3.36-4.24-1.66-.51-3.34-1.49-5-1.45C145,337.48,136,338,127.08,338.38Zm378.3,55.25.82-1.23,4-1.37c-1.4-1.27-2.6-2.94-4.23-3.75Q484.41,376.5,462.69,366c-.82-.4-2-.11-3-.14.34.81.47,1.88,1.07,2.4,4.11,3.57,7.88,7.87,12.6,10.36C483.79,384.14,494.68,388.69,505.38,393.63Zm-165.1,30.62c-.42.73-2.73,3.15-2.23,4.08,5.19,9.65,10.7,19.13,16.43,28.48,1.55,2.52,4,2.76,4.91-.81,2.25-9,4.49-18.07,6.23-27.2.23-1.22-2.42-4.22-3.9-4.33C355.29,424,348.8,424.25,340.28,424.25Z" transform="translate(-27.09 -120.6)"/><path class="cls-1" d="M171,273c-9.68-22.51-11.82-45.73-7.6-69.86,3.79-21.67,12.71-41.23,22.69-60.49a26.4,26.4,0,0,0,1.46-4.95c-1.48.91-3,1.72-4.44,2.73C163.22,154.7,143.76,169.55,123.4,183c-12,7.94-25.4,13.72-38.17,20.47a7.32,7.32,0,0,1-.93.37c-11.53,4.19-11.75,4.25-8.42,16.37,5.73,20.9,6.88,41.79-.95,62.29-2.51,6.59-7.37,12.28-11.15,18.38,19.41-28.11,17.81-58.18,8-88.86-1.48-4.63-.86-6.2,4-7.42,22.18-5.65,41.08-18,59.48-30.86,18.12-12.65,35.45-26.43,53.16-39.68a18.26,18.26,0,0,1,3.37-1.59c-.22,1.21-.14,2.57-.69,3.61-10.08,19-19.62,38.17-24.51,59.29-5.65,24.43-4.73,48.53,3.52,72.29A31.12,31.12,0,0,1,171,273Z" transform="translate(-27.09 -120.6)"/><path class="cls-2" d="M493.08,413.19c8.81-2.72,17.48-6.19,26.48-7.94,8.57-1.66,17.49-1.88,26.27-2,4.33-.07,5.17-1.27,4.31-5.2-3.65-16.67-2.94-33.16,3.78-48.94,3.64-8.54,8.23-16.72,17.33-21-22.29,19.28-23.76,44.39-19.52,70.9.82,5.11-.22,5.74-5.23,6.18-15,1.33-29.88,3.62-44.79,5.7A70.93,70.93,0,0,0,493.08,413.19Z" transform="translate(-27.09 -120.6)"/><path class="cls-3" d="M199.78,453.12c2.52,1.11,5.13,2,7.54,3.36,23.11,12.67,47.05,23,73.43,26.71,6.46.91,12.84,2.42,19.25,3.65-21-.49-41.22-5.34-60.42-13.43C225.9,467.64,213,460,199.78,453.12Z" transform="translate(-27.09 -120.6)"/><path class="cls-4" d="M482.24,170.88c-5-2.47-10.35-4.37-14.88-7.5-15.79-10.94-31.29-22.31-46.92-33.49a33.83,33.83,0,0,0-3.26-1.84c.47,1.12.92,2.25,1.42,3.35.73,1.64,1.5,3.27,2.25,4.9-3.68-4.65-7.37-9.28-11-14a4.77,4.77,0,0,1-.46-1.73,7.87,7.87,0,0,1,2.43.77c12.35,9.27,24.44,18.89,37,27.8C459.69,156.82,471.09,163.67,482.24,170.88Z" transform="translate(-27.09 -120.6)"/><path class="cls-5" d="M425.88,303.8l-5.41,5.78c-1.29-2.1-3.26-4.05-3.75-6.33-2.57-11.82-4.74-23.72-7.11-35.58-.41-2.06-1.08-4.08-1.64-6.11l-4.25,4.31,4.16-8.31a71,71,0,0,1,2.89,8.5c2.42,11.55,4.57,23.16,6.95,34.73a62,62,0,0,0,2.25,6.9Z" transform="translate(-27.09 -120.6)"/><path class="cls-6" d="M392.83,300.29c14.72,8.49,24.52,21,27.85,37.56,4.6,22.85-3.37,41.93-19.83,57.83-13.33,8.69-27.75,12.68-43.69,10.25-11.06-3.11-21.38-7.62-28.92-16.71C313.94,372,310.86,352.36,316.15,331,321,319.69,327.4,309.49,338,302.61,355.76,291,374.11,290.88,392.83,300.29ZM353,335h0c-8.18-2.94-16.23.62-19.07,8.43-2.95,8.1,1,16.87,8.83,19.56,8.35,2.88,17.07-1.32,19.68-9.49S361,337.45,353,335Z" transform="translate(-27.09 -120.6)"/><path class="cls-7" d="M488.22,264.08l-10.31,18.78c-1.3,1.22-2.62,2.43-3.91,3.66-7.33,7-14.61,14-22,20.8-1,.94-2.81,1-4.25,1.52a27.42,27.42,0,0,1,1.91-3.84c5.41-7.7,10.89-15.35,16.35-23l21.16-33.82c2.25-3.36,4.47-6.74,6.78-10.07a28,28,0,0,1,2.46-2.73,14,14,0,0,1-.12,3.76C493.64,247.46,490.91,255.77,488.22,264.08Z" transform="translate(-27.09 -120.6)"/><path class="cls-8" d="M121.32,256.64l1.62-2.36a14.69,14.69,0,0,1,2.93,2.46c7,10,13.55,20.18,20.8,29.91,6.35,8.53,13.48,16.48,20.12,24.8.95,1.19,1.09,3,1.61,4.55-1.7-.33-3.8-.14-5.05-1.07-17.61-13.2-30.09-30.35-38.43-50.63C123.87,261.76,122.59,259.32,121.32,256.64Z" transform="translate(-27.09 -120.6)"/><path class="cls-7" d="M484.49,341.94c-8.2-2-16-3.89-23.73-6-1.24-.34-2.18-1.78-3.26-2.71a19.75,19.75,0,0,1,4.08-1.2q28.82-2.1,57.65-4.05c3-.2,6-.23,9-.35-2.73,1.91-5.2,4.74-8.22,5.58C508.36,336.45,496.58,339,484.49,341.94Z" transform="translate(-27.09 -120.6)"/><path class="cls-7" d="M127.08,338.38c9-.4,17.94-.9,26.91-1.14,1.65,0,3.32.94,5,1.45-1.1,1.46-1.92,3.74-3.36,4.24-5.22,1.8-10.71,4.41-16,4.15-11.55-.57-23.05-2.57-34.52-4.34-1.79-.28-3.29-2.41-4.92-3.69,1.79-.45,3.57-1.26,5.37-1.3,7.16-.15,14.32-.06,21.48-.06Z" transform="translate(-27.09 -120.6)"/><path class="cls-8" d="M272.2,426.16c9.06-.49,9.14-.38,5.21,7.68-1.15,2.36-2.33,4.7-3.5,7.05-2.32,4.17-4.58,8.38-7,12.5a16.1,16.1,0,0,1-2.6,2.73,14.56,14.56,0,0,1-2-3.14c-2.23-6.75-4.49-13.5-6.28-20.37-.3-1.14,1.47-3.84,2.72-4.16A135.24,135.24,0,0,1,272.2,426.16Z" transform="translate(-27.09 -120.6)"/><path class="cls-9" d="M205,385.14c-21.74-32.92-9-73.68,27.59-88.31,36.38-14.54,77.79,20.39,72.2,60.88-1.74,12.61-5.74,24.27-14.3,34-2.17,2.45-4.9,4.4-7.38,6.57l-.06-1.07a58.16,58.16,0,0,0,19.65-36c3.48-22.72-3.34-41.69-21.86-55.42-17.38-12.89-36.61-14.54-55.35-3.55-19.73,11.56-31.65,28.94-29.21,52.7,1,9.8,5.84,19.21,8.93,28.79Z" transform="translate(-27.09 -120.6)"/><path class="cls-10" d="M505.38,393.63c-10.69-4.94-21.59-9.49-32-15-4.71-2.49-8.48-6.78-12.6-10.36-.6-.52-.72-1.59-1.07-2.4,1,0,2.15-.26,3,.14q21.69,10.52,43.28,21.25c1.63.81,2.83,2.48,4.23,3.75l-4,1.37Z" transform="translate(-27.09 -120.6)"/><path class="cls-11" d="M107.95,397q14.27-8.1,28.53-16.22c1.55-.89,3-2,4.49-3,3.65-1.84,7.28-3.71,10.95-5.5,1.36-.66,2.8-1.15,4.2-1.71a24.24,24.24,0,0,1-2.62,4.06c-11.57,12-26.35,18.21-41.84,23.09C110.61,398.1,109.19,397.29,107.95,397Z" transform="translate(-27.09 -120.6)"/><path class="cls-12" d="M340.28,424.25c8.53,0,15-.28,21.43.21,1.47.11,4.13,3.11,3.9,4.33-1.73,9.13-4,18.18-6.23,27.2-.89,3.57-3.36,3.33-4.91.81-5.72-9.35-11.24-18.83-16.43-28.48C337.55,427.41,339.86,425,340.28,424.25Zm11,2.07A45.36,45.36,0,0,0,343,426c-1.09.12-3,3-2.72,3.56,4.52,8.31,9.33,16.48,14.19,24.6.49.82,1.77,1.16,2.68,1.73a15,15,0,0,0,1.17-2.6c1.17-4.84,2.08-9.75,3.39-14.55C365.15,426.15,365.22,426.17,351.24,426.32Z" transform="translate(-27.09 -120.6)"/><path class="cls-9" d="M316.15,331c-5.3,21.33-2.22,41,12.08,58.18,7.55,9.09,17.86,13.6,28.92,16.71l-4.24.12c-36.2-9.49-46.6-50.38-37.91-75Z" transform="translate(-27.09 -120.6)"/><path class="cls-9" d="M316.15,331,315,331c8.42-24.56,30.15-40.24,55-38.83,8.13.46,16.66,1.41,22.84,8.11-18.72-9.4-37.07-9.27-54.86,2.32C327.4,309.49,321,319.69,316.15,331Z" transform="translate(-27.09 -120.6)"/><path class="cls-13" d="M107.95,397c1.25.28,2.66,1.09,3.71.76,15.49-4.88,30.27-11.12,41.84-23.09a24.24,24.24,0,0,0,2.62-4.06c-1.4.57-2.85,1.05-4.2,1.71-3.67,1.79-7.3,3.66-10.95,5.5,4.89-3.41,9.74-6.88,14.72-10.17.91-.6,2.33-.43,3.52-.61-.21,1.23,0,3-.71,3.6-7.17,6.27-13.89,13.39-22,18.19-8.45,5-18.23,7.81-27.49,11.42-.95.37-2.31-.32-3.48-.53Z" transform="translate(-27.09 -120.6)"/><path class="cls-14" d="M205,385.14l.21-1.5c6.79,6.25,12.68,14.14,20.54,18.43,19.67,10.72,39.13,7.66,57.3-4.9l.06,1.07C260,418.17,221.14,411.66,205,385.14Z" transform="translate(-27.09 -120.6)"/><path class="cls-15" d="M272.2,426.16a135.24,135.24,0,0,0-13.47,2.28c-1.25.33-3,3-2.72,4.16,1.78,6.87,4,13.62,6.28,20.37a14.56,14.56,0,0,0,2,3.14,16.1,16.1,0,0,0,2.6-2.73c2.41-4.12,4.67-8.32,7-12.5-2.39,5.43-4.68,10.91-7.37,16.18-.22.42-4.43-.12-4.76-1-3.18-8.36-6.08-16.84-8.58-25.43-.3-1,2.17-4,3.57-4.18C261.87,425.93,267.05,426.2,272.2,426.16Z" transform="translate(-27.09 -120.6)"/><path class="cls-16" d="M466,282c-5.46,7.67-10.94,15.32-16.35,23a27.42,27.42,0,0,0-1.91,3.84c1.43-.49,3.23-.58,4.25-1.52,7.44-6.84,14.71-13.85,22-20.8,1.3-1.23,2.61-2.44,3.91-3.66-7.2,11.89-17.68,20.44-28.88,28.22-.85.59-2.43.11-3.68.12.08-1.2-.3-2.75.31-3.54C452.34,299,459.17,290.53,466,282Z" transform="translate(-27.09 -120.6)"/><path class="cls-17" d="M488.22,264.08c2.69-8.31,5.42-16.62,8-25a14,14,0,0,0,.12-3.76,28,28,0,0,0-2.46,2.73c-2.31,3.32-4.53,6.71-6.78,10.07,3.15-6.59,6.26-13.2,9.51-19.73.45-.9,1.59-1.45,2.41-2.16.3,1,1.1,2.24.83,3.08C496.07,241,492.13,252.51,488.22,264.08Z" transform="translate(-27.09 -120.6)"/><path class="cls-18" d="M352.92,406l4.24-.12c15.94,2.43,30.36-1.56,43.69-10.25C386.87,408.38,370.59,410.42,352.92,406Z" transform="translate(-27.09 -120.6)"/><path class="cls-13" d="M353,335c8,2.49,12.05,10.41,9.46,18.51S351.15,365.84,342.8,363C335,360.26,331,351.5,334,343.39,336.8,335.59,344.85,332,353,335c-1.82,0-3.64.06-5.46.16-6.5.33-11.51,4.65-12.47,10.75-1.16,7.3,1.83,13.32,7.74,15.61a14.09,14.09,0,0,0,16.41-4.92,13.11,13.11,0,0,0-1.49-17.26C356.26,337.78,354.6,336.4,353,335Z" transform="translate(-27.09 -120.6)"/><path class="cls-6" d="M283,397.16c-18.17,12.56-37.63,15.63-57.3,4.9-7.86-4.29-13.76-12.18-20.54-18.43-3.09-9.59-7.92-19-8.93-28.79-2.44-23.76,9.48-41.14,29.21-52.7,18.74-11,38-9.33,55.35,3.55,18.52,13.73,25.34,32.7,21.86,55.42A58.16,58.16,0,0,1,283,397.16Zm-32.12-54.22c-4.36,7.24-3.58,15.06,2,19.7,6.16,5.13,13.59,4.92,20.18-.57,4.89-3.89,5.85-9.09,4.19-14.67a14.3,14.3,0,0,0-12.92-10.73C258.81,336.1,253.9,337.72,250.88,342.95Z" transform="translate(-27.09 -120.6)"/><path class="cls-8" d="M351.24,426.32c14-.15,13.91-.17,10.46,12.45-1.31,4.8-2.23,9.71-3.39,14.55a15,15,0,0,1-1.17,2.6c-.91-.56-2.2-.91-2.68-1.73-4.86-8.13-9.67-16.29-14.19-24.6-.32-.59,1.63-3.44,2.72-3.56A45.36,45.36,0,0,1,351.24,426.32Z" transform="translate(-27.09 -120.6)"/><path class="cls-19" d="M353,335c1.58,1.44,3.23,2.81,4.73,4.34a13.11,13.11,0,0,1,1.49,17.26,14.09,14.09,0,0,1-16.41,4.92c-5.91-2.29-8.9-8.32-7.74-15.61,1-6.1,6-10.42,12.47-10.75,1.82-.09,3.64-.11,5.46-.16Z" transform="translate(-27.09 -120.6)"/><path class="cls-19" d="M273.05,362.08c-6.59,5.49-14,5.71-20.18.57-5.56-4.64-6.35-12.46-2-19.7,1.41-.87,2.79-1.8,4.23-2.6,5.42-3,10.89-3.1,16,.55,4.89,3.52,5.78,8.74,4.67,14.28C275.27,357.56,274,359.78,273.05,362.08Z" transform="translate(-27.09 -120.6)"/><path class="cls-20" d="M273.05,362.08c.92-2.3,2.22-4.52,2.69-6.9,1.11-5.54.22-10.76-4.67-14.28-5.07-3.65-10.54-3.55-16-.55-1.45.8-2.82,1.73-4.23,2.6,3-5.23,7.93-6.85,13.45-6.28a14.3,14.3,0,0,1,12.92,10.73C278.9,353,277.94,358.19,273.05,362.08Z" transform="translate(-27.09 -120.6)"/></g></g></svg>