<svg xmlns="http://www.w3.org/2000/svg" viewBox="0 0 512 505.49"><defs><style>.cls-1{fill:#452717;}.cls-2{fill:#e18105;}.cls-3{fill:#767e3c;}.cls-4{fill:#472816;}.cls-5{fill:#462816;}.cls-6{fill:#fbc900;}</style></defs><title>Ресурс 15</title><g id="Слой_2" data-name="Слой 2"><g id="Слой_1-2" data-name="Слой 1"><path class="cls-1" d="M1,309c1.27-6.58,2.44-13.18,3.82-19.74,14.32-67.79,54-115.88,114.81-147.44,18-9.32,36.79-16.4,57.14-18.17,7.25-.63,14.61-.12,21.92,0,2.45,0,4.9.49,7.55.78,3.33-11.94,1.74-23.27-2.58-34-7.78-19.4-5-38.21,2-56.9,5.52-14.79,17.87-22.21,31.89-26.39,27.44-8.18,52.81-1.36,75.85,14,13.77,9.18,17.44,23.29,13.86,39.27-3.32,14.83-11.29,27.16-20.81,39L279.7,84.52c3.42-6.47,7-12.42,9.76-18.71,2.49-5.65,2.71-11.91-2.55-16.07-5.82-4.6-13.4-6.73-20.19-3.79-6.6,2.86-9.18,10.2-9.51,17.07a45,45,0,0,0,2.48,18c7.1,18.2,19,33.07,34.21,45.31a4.61,4.61,0,0,0,3.47.92C339,116.68,376.12,129.07,411,150.37c46.89,28.66,79,69.32,94.3,122.42,3.17,11,4.53,22.46,6.76,33.71a14.79,14.79,0,0,0,1,2.51v49a20.64,20.64,0,0,0-1.11,3c-2.69,12.84-4.4,26-8.18,38.48-10.83,35.81-31,65-63.76,84.3-27.52,16.24-57.66,21.58-89.21,20.16-2.29-.1-4.65-1.56-6.72-2.82-3.11-1.9-5.9-3-9.71-1.37A63.6,63.6,0,0,1,321.8,503c-30.26,5.87-60.81,7.75-91.42,4.43-16-1.73-31.75-5.33-47.46-8.81a13.57,13.57,0,0,0-9.7,1.13c-5.32,2.49-10.78,5-16.46,6.36-6.1,1.44-12.5,1.82-18.8,2.15-36.5,1.91-67.82-9.67-92.62-36.89C21.06,444.77,9.79,412.22,4,377.34,3,371.56,2,365.78,1,360ZM221.12,136.13c11.15-4.07,22.47-7.15,34.54-6.16,2.86.23,5.76,0,8.87,0a6.77,6.77,0,0,0-.61-1.51c-18-18.88-26.61-41.29-23.69-67.32,1-8.58,4-17.05,7-25.24,2.58-7,14.62-12.69,23.67-11.26,8.21,1.3,13.8,6.44,19,12,9.32,10,15.85,24,6.54,38.49A6.1,6.1,0,0,0,296,77c6.94,4.62,8.39,4.24,11.44-2.89.65-1.53,1.23-3.09,1.83-4.64,6.89-18.13,1.56-34.58-14.68-45.14a68.25,68.25,0,0,0-28.43-10.11c-8-1.08-15.7.64-23.22,4.1-18.8,8.64-32.09,44.73-22.23,66.47,7.54,16.63,10.52,34.05.2,51.12l-.39.63ZM299,176c-5.47-6.2-10.6-12.76-16.48-18.55-16.91-16.64-44.59-10.29-55.78,6-3.26,4.74-6.2,9.69-9.6,15,0-1.39,0-2.3,0-3.2.87-15-9.81-22.29-21.91-23.27-2.32-.19-4.66-.14-7-.12-13.47.12-25.75,5-37.89,10C108.31,179,75.31,206.58,54.87,247.66,36.13,285.33,33.32,325.2,41.56,365.94,48.66,401,63,432.43,90.78,456.3c19.43,16.71,41.53,24,67.14,17.76,6-1.48,8.3-4.47,8-10.76-.17-3.23-.69-6.44-1-8.9,6.6,5.12,12.84,11.19,20.16,15.38,17.43,10,37,12.72,56.64,14.15a194.8,194.8,0,0,0,55.6-4.17c22-4.77,44-9.8,60.65-26.79l.08.09q-2.26,7.87-4.52,15.73c-1.22,4.22.74,6.38,4.72,7.05,17,2.88,33.54,1.35,49.21-6.18,23.55-11.32,39.66-30.08,51.06-53,19.69-39.54,24.32-81.5,16.45-124.51-11.23-61.35-44.27-107.25-100.62-135.22-12.94-6.42-26.47-11.75-41.54-10.92-20.23,1.11-32.55,11.9-33.86,30Z" transform="translate(-1 -3.62)"/><path class="cls-2" d="M358,453c-16.65,17-38.67,22-60.65,26.79a194.8,194.8,0,0,1-55.6,4.17c-19.67-1.44-39.21-4.19-56.64-14.15-7.32-4.18-13.56-10.26-20.16-15.38.28,2.46.8,5.67,1,8.9.32,6.29-2,9.28-8,10.76-25.6,6.28-47.71-1-67.14-17.76C63,432.43,48.66,401,41.56,365.94c-8.25-40.74-5.43-80.61,13.31-118.28,20.44-41.08,53.43-68.69,95.51-85.86,12.15-5,24.42-9.85,37.89-10,2.33,0,4.67-.07,7,.12,12.1,1,22.79,8.26,21.91,23.27-.05.9,0,1.81,0,3.2,3.4-5.35,6.35-10.31,9.6-15,11.19-16.26,38.87-22.61,55.78-6,5.88,5.79,11,12.34,16.48,18.55l0,.22L299,176c1.31-18.1,13.64-28.89,33.86-30,15.07-.83,28.6,4.5,41.54,10.92,56.35,28,89.39,73.87,100.62,135.22,7.87,43,3.24,85-16.45,124.51-11.4,22.9-27.52,41.66-51.06,53-15.67,7.53-32.19,9.06-49.21,6.18-4-.67-5.93-2.83-4.72-7.05q2.26-7.86,4.52-15.73l.38-.75Zm-16.89-50.47c4,2.46,7,4.14,9.89,6.14,2.35,1.65,4.28,1.75,6.8.15C396,384.56,424.52,352,442.12,310.17c2.46-5.85,3.76-12.19,5.63-18.45-5.16-1.42-8.11-.57-11,2.93-18.08,21.67-40.31,38.25-65.34,50.92-6.82,3.45-11.7,7-11.46,15.12,0,.17-.42.35-1.11.87-5-7.25-11.45-6.21-18.23-2.65a10.66,10.66,0,0,1-3.31,1.07c-7.91,1.19-14.12,4.29-15.29,13.25,0,.13-.22.25-.57.62a20.69,20.69,0,0,1-2.5-3.62c-1.56-3.76-3.91-4.61-7.85-3.41a46.06,46.06,0,0,1-12.72,2.32c-9.87.11-16.71,3.67-18.67,14,0,.07-.25.1-.52.2-3.42-3.67-6.25-8.85-10.52-10.69s-9.8.19-14.76-.09c-7.12-.4-6.16,7.46-11,9.71-1.5-2.85-2.4-6.87-4.91-8.69s-6.7-1.78-10.19-2.28c-8.9-1.27-17.91-2.63-22.72,7.92,0,.1-.3.11-.7.24a14.82,14.82,0,0,1-1.37-3c-1.46-6.7-5.56-9.92-12.4-10.38a32.66,32.66,0,0,1-10.69-2.29c-8.06-3.5-14.52-2.27-19.58,5.09-.12.18-.58.12-1.15.21-.12-1.63-.32-3.24-.33-4.85,0-4.73-1.9-7.37-6.72-9.33a222.85,222.85,0,0,1-29.14-14.13C104.48,330,88.61,316,78.17,297c-2.73-5-6.11-5.6-11.41-5.66.5,4.88.72,9.49,1.47,14,8.71,52.56,36.82,90.41,85.66,112.33,2,.89,5.17.53,7.24-.44,4.54-2.13,8.73-5,13.84-8.06,0,5.1.2,8.93-.07,12.72-.21,2.92.94,4.19,3.66,4.78,6.66,1.45,13.36,2.77,19.88,4.72,4.65,1.4,7.45,0,10.08-3.75,3.28-4.69,7-9.05,11.09-14.24,1.45,6.86,2.46,12.6,4,18.2a5.56,5.56,0,0,0,3.68,3.36c4.93.71,9.95.72,14.91,1.18,3.34.31,5.51-.71,7.26-3.81,3.65-6.47,7.75-12.68,11.94-19.43,2.47,4.11,5.16,7.46,6.64,11.27,3.89,10.06,10.49,13.22,20.77,10,2.57-.81,3.94-1.41,4.45-4.22,1.2-6.61,2.79-13.15,4.45-20.78,4.79,6,9,11.06,12.94,16.37,1.83,2.5,3.59,2.95,6.34,1.85,5.25-2.09,10.65-3.81,15.89-5.94,8.22-3.34,8.18-3.43,8.21-12.51C341.09,407.13,341.09,405.35,341.09,402.49ZM118.25,236.61c-2.89,4.54-5.3,7.9-7.29,11.5-10.69,19.37-9.31,38.06,4.13,55.51,10.45,13.56,24.76,21.45,41.16,25.63,19.55,5,39.07,6.11,58.31-1.4,7.09-2.77,13-7.13,17-14.42C192.57,289.71,149.86,272.22,118.25,236.61Zm275.89.39c-31,35-73.81,52.61-113.43,76.66,2.47,2.89,4.18,5.91,6.76,7.67,4.48,3.06,9.24,6.09,14.33,7.82,18.07,6.13,36.34,4.77,54.53.15A78.15,78.15,0,0,0,388.52,313C413,292,415.27,262.89,394.14,237Z" transform="translate(-1 -3.62)"/><path class="cls-3" d="M220.85,135.86c10.33-17.07,7.35-34.49-.2-51.12-9.86-21.74,3.43-57.83,22.23-66.47,7.53-3.46,15.21-5.18,23.22-4.1a68.25,68.25,0,0,1,28.43,10.11c16.24,10.56,21.58,27,14.68,45.14-.59,1.55-1.17,3.11-1.83,4.64-3,7.13-4.49,7.51-11.44,2.89a6.1,6.1,0,0,1,.49-1.79c9.32-14.51,2.79-28.53-6.54-38.49-5.21-5.56-10.8-10.7-19-12-9-1.43-21.09,4.21-23.67,11.26-3,8.19-6.06,16.66-7,25.24-2.92,26,5.67,48.43,23.69,67.32a6.77,6.77,0,0,1,.61,1.51c-3.11,0-6,.2-8.87,0-12.07-1-23.39,2.09-34.54,6.16Z" transform="translate(-1 -3.62)"/><path class="cls-3" d="M221.12,136.13l-.65.36.39-.63Z" transform="translate(-1 -3.62)"/><path class="cls-4" d="M341.09,402.49c0,2.85,0,4.64,0,6.42,0,9.08,0,9.17-8.21,12.51-5.24,2.13-10.63,3.85-15.89,5.94-2.75,1.09-4.51.65-6.34-1.85-3.89-5.32-8.15-10.36-12.94-16.37-1.66,7.63-3.26,14.17-4.45,20.78-.51,2.81-1.88,3.41-4.45,4.22-10.28,3.24-16.88.08-20.77-10-1.48-3.82-4.17-7.16-6.64-11.27-4.19,6.75-8.3,13-11.94,19.43-1.75,3.11-3.92,4.12-7.26,3.81-5-.46-10-.47-14.91-1.18a5.56,5.56,0,0,1-3.68-3.36c-1.52-5.6-2.54-11.34-4-18.2-4.08,5.18-7.81,9.55-11.09,14.24-2.63,3.75-5.43,5.15-10.08,3.75-6.51-2-13.22-3.27-19.88-4.72-2.72-.59-3.87-1.86-3.66-4.78.27-3.8.07-7.62.07-12.72-5.11,3-9.29,5.94-13.84,8.06-2.07,1-5.25,1.34-7.24.44-48.84-21.92-77-59.77-85.66-112.33-.75-4.52-1-9.13-1.47-14,5.3.07,8.68.69,11.41,5.66,10.44,19,26.32,33,44.78,43.86A222.85,222.85,0,0,0,152.08,355c4.82,2,6.69,4.6,6.72,9.33,0,1.61.21,3.22.33,4.85.57-.1,1,0,1.15-.21,5.07-7.36,11.52-8.6,19.58-5.09a32.66,32.66,0,0,0,10.69,2.29c6.84.46,10.94,3.68,12.4,10.38a14.82,14.82,0,0,0,1.37,3c.4-.13.65-.14.7-.24,4.82-10.55,13.82-9.19,22.72-7.92,3.49.5,7.61.4,10.19,2.28s3.41,5.84,4.91,8.69c4.87-2.26,3.9-10.12,11-9.71,5,.28,10.6-1.69,14.76.09s7.1,7,10.52,10.69c.27-.1.5-.13.52-.2,2-10.37,8.79-13.92,18.67-14a46.06,46.06,0,0,0,12.72-2.32c3.94-1.21,6.28-.35,7.85,3.41a20.69,20.69,0,0,0,2.5,3.62c.35-.38.55-.49.57-.62,1.16-9,7.38-12.05,15.29-13.25a10.66,10.66,0,0,0,3.31-1.07c6.78-3.56,13.21-4.6,18.23,2.65.69-.53,1.12-.71,1.11-.87-.24-8.15,4.64-11.67,11.46-15.12,25-12.68,47.27-29.25,65.34-50.92,2.92-3.5,5.87-4.35,11-2.93-1.88,6.25-3.17,12.6-5.63,18.45-17.6,41.82-46.1,74.39-84.35,98.62-2.51,1.59-4.45,1.5-6.8-.15C348.14,406.64,345.08,404.95,341.09,402.49Zm-248-79.56-.36-1.6-.6.19.66,1.69c1.93,5.09,3.28,10.51,5.9,15.21,14.93,26.84,38.85,43.15,65.88,55.9,6.44,3,11.94,4.24,17.17-1.67.36-.4,1.14-.43,2-.72a19.72,19.72,0,0,1-.26,3.78c-1.19,4.28.4,6.39,4.73,7.27a165.19,165.19,0,0,1,16.91,4.29c6,1.91,10.89,1.64,14.09-4.69.77-1.51,2.26-2.66,4.07-4.7.69,3.57,1.5,6.1,1.6,8.65.13,3.43,1.63,4.54,4.94,4.62a160,160,0,0,1,16.93,1.14c5.82.76,10-.68,12.13-6.55.4-1.11,1.46-2,2.41-3.2a33.74,33.74,0,0,1,2.62,4.27c1.75,4.21,4.55,6.07,9.26,5.25,3.76-.65,7.62-.76,11.43-1,8.76-.65,8.75-.64,10.73-8.95.1-.44.52-.8,1.11-1.66a56.9,56.9,0,0,0,5,5.69c1.08,1,2.95,2,4.16,1.7,9.5-2.25,18.93-4.82,28.32-7.27V389.61c2.5,1.77,4.32,3.56,6.51,4.47,1.84.77,4.49,1.35,6.12.59,30.95-14.37,53.9-36.84,68-68.06.6-1.33,1-2.74,1.51-4.11-12.84,12.36-26.33,23.28-41.94,31-7.61,3.74-11.44,8.17-10.31,16.57,0,.18-.38.43-.88,1a66.07,66.07,0,0,1-5.92-4.25c-2.8-2.48-5.38-2.92-9-1.21a52.76,52.76,0,0,1-13.22,4.41c-6.5,1.17-10.45,4.22-11,11,0,.18-.41.33-.8.61a9.1,9.1,0,0,1-1.64-1.79c-2.23-4.39-5.33-5.46-10.2-4A55.34,55.34,0,0,1,296.46,378c-7.74.1-12.75,2.86-13.95,11-.15,1.05-.89,2-1.65,3.64-3-3.62-5.53-6.82-8.14-10-2.36-2.85-19.45-3.51-22-.83a21.59,21.59,0,0,0-1.74,2.44l-7.72,11.05c-2.26-4.44-4.24-8.45-6.36-12.39-.58-1.09-1.58-2.75-2.42-2.77-10.13-.32-21.64-6.19-28.74,6.67-.25.45-.93.65-1.61,1.11a67.26,67.26,0,0,1-2.28-6.42c-.91-3.7-2.85-5.41-6.91-5.67a62.69,62.69,0,0,1-13.7-2.61c-7.7-2.28-14.9-2.71-21.28,3.22-.39.36-1.16.3-2,.5-.09-2.12-.29-3.95-.23-5.77.09-2.84-.85-4.32-3.84-5.37C128.08,357.38,106.83,345.26,93.07,322.93Z" transform="translate(-1 -3.62)"/><path class="cls-4" d="M118.25,236.61c31.6,35.61,74.32,53.1,113.32,76.83-4,7.28-9.91,11.65-17,14.42-19.24,7.5-38.76,6.38-58.31,1.4-16.41-4.18-30.72-12.07-41.16-25.63-13.44-17.45-14.82-36.14-4.13-55.51C112.95,244.52,115.36,241.15,118.25,236.61Zm10.9,20L128,257c2.33,7.2,4,14.74,7.15,21.54,5.6,12,14.74,21.23,25.07,29.36,10.61,8.35,22.48,12,35.9,10.07,6.83-1,13.48-2.63,19.15-7-15.38-8.26-30.77-15.47-45-24.48S142.78,266.69,129.15,256.66Z" transform="translate(-1 -3.62)"/><path class="cls-5" d="M394.14,237c21.13,25.9,18.88,55-5.62,76a78.15,78.15,0,0,1-32.2,16.31c-18.18,4.61-36.46,6-54.53-.15-5.09-1.73-9.85-4.76-14.33-7.82-2.58-1.76-4.29-4.79-6.76-7.67C320.32,289.61,363.13,272,394.14,237ZM385,254.88a311.28,311.28,0,0,1-86.58,55.7,21.52,21.52,0,0,0,6.54,4.16c16.71,6.08,32.63,5.23,47.19-5.87C369.63,295.53,382.65,279.35,385,254.88Z" transform="translate(-1 -3.62)"/><path class="cls-1" d="M299,176l.13.15,0-.22Z" transform="translate(-1 -3.62)"/><path class="cls-1" d="M358,453l.46-.66-.38.75Z" transform="translate(-1 -3.62)"/><path class="cls-6" d="M93.07,322.93c13.76,22.33,35,34.44,58.87,42.84,3,1.05,3.93,2.53,3.84,5.37-.06,1.82.14,3.64.23,5.77.84-.2,1.61-.14,2-.5,6.38-5.93,13.58-5.5,21.28-3.22a62.69,62.69,0,0,0,13.7,2.61c4.06.26,6,2,6.91,5.67a67.26,67.26,0,0,0,2.28,6.42c.68-.45,1.36-.66,1.61-1.11,7.09-12.85,18.6-7,28.74-6.67.85,0,1.84,1.69,2.42,2.77,2.12,3.93,4.09,7.95,6.36,12.39L249,384.21a21.59,21.59,0,0,1,1.74-2.44c2.5-2.68,19.59-2,22,.83,2.62,3.16,5.19,6.36,8.14,10,.76-1.62,1.5-2.59,1.65-3.64,1.2-8.11,6.2-10.87,13.95-11a55.34,55.34,0,0,0,14.77-2.22c4.87-1.44,8-.36,10.2,4a9.1,9.1,0,0,0,1.64,1.79c.39-.29.79-.43.8-.61.55-6.81,4.5-9.85,11-11a52.76,52.76,0,0,0,13.22-4.41c3.58-1.71,6.16-1.28,9,1.21A66.07,66.07,0,0,0,363,371c.5-.53.9-.77.88-1-1.13-8.4,2.71-12.83,10.31-16.57,15.6-7.68,29.09-18.59,41.94-31-.5,1.37-.91,2.78-1.51,4.11-14.13,31.23-37.08,53.69-68,68.06-1.63.76-4.28.18-6.12-.59-2.19-.91-4-2.7-6.51-4.47v10.92c-9.39,2.45-18.82,5-28.32,7.27-1.21.29-3.08-.74-4.16-1.7a56.9,56.9,0,0,1-5-5.69c-.59.86-1,1.22-1.11,1.66-2,8.31-2,8.3-10.73,8.95-3.82.28-7.68.39-11.43,1-4.72.82-7.52-1-9.26-5.25a33.74,33.74,0,0,0-2.62-4.27c-1,1.23-2,2.1-2.41,3.2-2.12,5.87-6.31,7.31-12.13,6.55a160,160,0,0,0-16.93-1.14c-3.31-.08-4.81-1.19-4.94-4.62-.1-2.56-.91-5.08-1.6-8.65-1.81,2-3.31,3.19-4.07,4.7-3.2,6.33-8.08,6.6-14.09,4.69A165.19,165.19,0,0,0,188.19,403c-4.32-.88-5.92-3-4.73-7.27a19.72,19.72,0,0,0,.26-3.78c-.86.29-1.64.32-2,.72-5.24,5.91-10.73,4.71-17.17,1.67-27-12.75-50.95-29.06-65.88-55.9-2.62-4.71-4-10.12-5.9-15.21Z" transform="translate(-1 -3.62)"/><path class="cls-6" d="M92.77,323.21l-.66-1.69.6-.19.36,1.6Z" transform="translate(-1 -3.62)"/><path class="cls-6" d="M129.15,256.66c13.63,10,26.77,20.86,41,29.88s29.66,16.23,45,24.48c-5.67,4.34-12.31,6-19.15,7-13.42,1.93-25.29-1.72-35.9-10.07-10.33-8.13-19.47-17.4-25.07-29.36-3.19-6.8-4.82-14.34-7.15-21.54Z" transform="translate(-1 -3.62)"/><path class="cls-6" d="M385,254.88c-2.35,24.47-15.37,40.65-32.86,54-14.55,11.11-30.48,12-47.19,5.87a21.52,21.52,0,0,1-6.54-4.16A311.28,311.28,0,0,0,385,254.88Z" transform="translate(-1 -3.62)"/></g></g></svg>