<svg xmlns="http://www.w3.org/2000/svg" viewBox="0 0 348.26 352.77"><defs><style>.cls-1{fill:#622e00;}.cls-2{fill:#f49b00;}.cls-3{fill:#642f00;}.cls-4{fill:#632f00;}</style></defs><title>Ресурс 16</title><g id="Слой_2" data-name="Слой 2"><g id="Слой_1-2" data-name="Слой 1"><path class="cls-1" d="M407.85,72.44c-20.63,7-41.82,12.37-58.46,27.36,4.46,2.71,8.56,5.29,12.76,7.7a7.52,7.52,0,0,0,3.51.72c5.37.07,10.77-.29,16.12.09,21.35,1.52,41.84,6.1,59.84,18.44,17.12,11.74,29.66,27.22,36.6,46.89a235.39,235.39,0,0,1,8,26.68c1.6,7.13,1.74,14.59,2.5,21.9.29,2.81.7,5.63.73,8.45a299.39,299.39,0,0,1-2.82,46.18c-1.68,11.58-3.77,23-7.67,34a88.15,88.15,0,0,1-18.1,29.67A112.14,112.14,0,0,1,423.44,368c-7.56,3.41-15.6,5.78-23.49,8.42-1.22.41-2.79-.37-4.21-.44-6.88-.35-13,2-18.32,6a47.79,47.79,0,0,1-21.93,9,66.66,66.66,0,0,1-39.57-6.12c-3.71-1.76-6.34.91-9.18,2-16.16,6-31.85,4.76-47.55-1.79A194.94,194.94,0,0,0,239,378.32,141,141,0,0,1,204.64,363,128.91,128.91,0,0,1,176,338.73a126.5,126.5,0,0,1-24.58-41c-3.42-9.39-6.56-19.08-8.12-28.91a142.55,142.55,0,0,1-1.06-40.31c1-7.66.9-15.51,2.45-23a253.1,253.1,0,0,1,8.17-30c3.44-10.15,9-19.27,15.54-27.86a102.84,102.84,0,0,1,30.8-26.9,113.68,113.68,0,0,1,42.33-14.4c12.23-1.63,24.73-1.56,37.1-1.51a18.08,18.08,0,0,0,7.84-1.43c6.09-2.66,12.62-1.78,19-1.74a4.51,4.51,0,0,0,4.43-2.31,155.92,155.92,0,0,1,27.55-33.46c14.36-13.23,31-22.5,50.24-26.45,5.76-1.18,10.8,1.2,15.1,5.06,1.21,1.08,2.22,2.4,3.47,3.41,2.34,1.89,2.68,3.95,1.75,6.85A46.45,46.45,0,0,0,405.73,66C405.61,68.12,407.09,70.31,407.85,72.44Zm-240,170.17c-1.07,15,1.77,29.55,7.22,43.78,14,36.45,41.06,57.91,77.69,68.65,6.22,1.83,12.58,2.88,18.58,5.93a36.68,36.68,0,0,0,16.09,3.47c4.35,0,8.77-2.27,13-3.83,9.47-3.45,19-4.35,28.12.48,10.72,5.69,24.61,6.36,34.94-1.87a44.58,44.58,0,0,1,27.78-9.35,37.15,37.15,0,0,0,15.13-3.36c3.51-1.56,7-3.2,10.35-5.05,16.84-9.3,30.39-21.95,37.17-40.26,3.18-8.59,4.66-17.88,6.19-27A191.81,191.81,0,0,0,463.11,247c.23-10-.67-20.08-1.37-30.1a108.53,108.53,0,0,0-7-31C445,160.17,426.66,144.11,400,137.48c-13.28-3.3-26.82-3.14-40.36-3a8,8,0,0,0-2.5.65c-15.14,5.49-30.57,9.36-46.87,8.33-6.67-.42-12.3-2.68-16-8.6-.48-.76-1.28-1.69-2.06-1.82-5.34-.89-10.7-2.08-16.08-2.22-7.94-.21-15.91.25-23.85.66-10,.53-19.52,3.22-28.69,7-28.06,11.48-43.8,33.39-51.19,61.9A136,136,0,0,0,167.85,242.61Z" transform="translate(-141.23 -39.04)"/><path class="cls-2" d="M167.85,242.61a136,136,0,0,1,4.47-42.23c7.39-28.5,23.14-50.42,51.19-61.9,9.18-3.76,18.71-6.45,28.69-7,7.94-.42,15.91-.87,23.85-.66,5.38.14,10.74,1.33,16.08,2.22.77.13,1.58,1.06,2.06,1.82,3.73,5.92,9.36,8.17,16,8.6,16.31,1,31.73-2.84,46.87-8.33a8,8,0,0,1,2.5-.65c13.54-.17,27.08-.33,40.36,3,26.69,6.63,45,22.69,54.81,48.49a108.53,108.53,0,0,1,7,31c.7,10,1.6,20.08,1.37,30.1a191.81,191.81,0,0,1-2.94,27.21c-1.53,9.09-3,18.39-6.19,27-6.78,18.31-20.32,31-37.17,40.26-3.36,1.85-6.84,3.49-10.35,5.05a37.15,37.15,0,0,1-15.13,3.36,44.58,44.58,0,0,0-27.78,9.35c-10.33,8.23-24.22,7.56-34.94,1.87-9.1-4.83-18.65-3.93-28.12-.48-4.28,1.56-8.69,3.84-13,3.83A36.68,36.68,0,0,1,271.35,361c-6-3.05-12.36-4.11-18.58-5.93-36.64-10.75-63.72-32.2-77.69-68.65C169.62,272.17,166.78,257.6,167.85,242.61Zm214.87,81.17a43.84,43.84,0,0,1,1,4.61c.16,1.61,0,3.25.09,4.87.09,2.25.79,4,3.37,2.33a28.9,28.9,0,0,0,5.77-4.63c10.42-11.34,17.12-24.25,16.28-40.16-.12-2.27,1-5.49-2.35-6.18s-3.57,2.78-4.82,4.75c-.25.4-.19,1-.42,1.42-2.23,4-4.49,8.06-6.74,12.08l-1.56-.29a39.88,39.88,0,0,0-1.5-5.35c-.57-1.34-1.54-3.34-2.56-3.48a5.94,5.94,0,0,0-4.64,1.66c-2.58,3-4.55,6.46-7,9.58-4.74,6.12-9.86,11.8-17.07,15.22-2.65,1.26-4.55,1.24-6.52-1.11a115.43,115.43,0,0,0-8.57-9.33c-3.88-3.71-11.24-2.72-14.49,1.43a32.92,32.92,0,0,1-6.07,6.06c-6.37,4.76-7.52,4.8-11.24-2.14a8,8,0,0,0-14.49.26c-2.62,5.59-7.2,5.51-10.83.41-2.23-3.13-4.52-6.22-6.6-9.44-2.85-4.42-10.21-6-12.55.05a9.64,9.64,0,0,1-2,2.7c-2.51,2.82-4.4,2.5-6.36-.68a48.16,48.16,0,0,0-5.62-7.79,9.5,9.5,0,0,0-14.76,1.15c-3.49,4.92-4.88,4.77-7.89-.56-1.95-3.45-4.09-6.79-6.27-10.09-1.4-2.11-3.39-2.74-5.88-1.64a36.5,36.5,0,0,0-.95,5.86c0,13,1.57,25.44,11.08,35.58,2.23,2.37,4.06,3.75,7.39,2.65.6-5.17-.85-10.85,3.89-15.34a21.3,21.3,0,0,1,3.07,3,80.81,80.81,0,0,1,4.45,7.29c1.63,3,3.94,3.92,6.83,3l4.22-10.35,1.38.1c1.41,2.86,2.68,5.79,4.25,8.55,2.63,4.6,5.07,9.38,8.3,13.54,3,3.86,6.34,3.31,9.37-.55a44.7,44.7,0,0,1,4.87-5.61c4-3.6,7.21-3,9.86,1.78,1.57,2.81,2.91,5.77,4.65,8.48,4,6.24,9.32,6.13,13.48,0a80.43,80.43,0,0,1,7.66-9.88c2.36-2.5,4.34-1.77,6.33,1a61.86,61.86,0,0,0,6.53,7.61,5,5,0,0,0,7.74-1c1-1.43,1.5-3.14,2.45-4.58,4.43-6.75,6.72-7.08,9.52-.53a5.78,5.78,0,0,0,1.19,1.42c5.09,5.54,7.09,5.14,10.83-1.24C372.44,334.32,376.16,328.3,382.72,323.78Zm43.05-109.53L424.43,213c-1.89.33-4,.22-5.62,1.08-6.1,3.29-12,6.9-18,10.38q-22.16,12.86-44.33,25.7c-5.88,3.42-11.82,6.76-17.54,10.42-1.43.92-2.93,3-2.9,4.5,0,1.19,2.26,2.45,3.66,3.48a28.81,28.81,0,0,0,3.58,1.89c7.87,4.21,15.7,8.5,23.62,12.61,3.52,1.83,10.9.07,13-2.81,13.43-18.66,26.91-37.28,40.25-56C422.31,221.16,423.89,217.6,425.77,214.25ZM208,213.73a28,28,0,0,0,2.07,4.67q7.3,10.72,14.82,21.29,13.7,19.16,27.58,38.2c2.8,3.82,6.23,7.09,11.57,5.77a35.54,35.54,0,0,0,7.49-3q11.76-6,23.36-12.29c1.11-.6,2.52-2.1,2.45-3.1-.11-1.61-.9-3.8-2.14-4.61-5-3.26-10.3-6.07-15.47-9.06q-16.28-9.42-32.56-18.86c-8.7-5.06-17.36-10.19-26.07-15.22C217.2,215.28,213.59,212,208,213.73Z" transform="translate(-141.23 -39.04)"/><path class="cls-3" d="M382.72,323.78c-6.56,4.51-10.28,10.54-13.82,16.56-3.74,6.37-5.74,6.78-10.83,1.24a5.78,5.78,0,0,1-1.19-1.42c-2.8-6.55-5.09-6.22-9.52.53-.95,1.44-1.49,3.15-2.45,4.58a5,5,0,0,1-7.74,1,61.86,61.86,0,0,1-6.53-7.61c-2-2.77-4-3.5-6.33-1a80.43,80.43,0,0,0-7.66,9.88c-4.16,6.08-9.48,6.19-13.48,0-1.74-2.71-3.08-5.67-4.65-8.48-2.65-4.74-5.88-5.39-9.86-1.78a44.7,44.7,0,0,0-4.87,5.61c-3,3.86-6.38,4.41-9.37.55-3.23-4.16-5.67-8.94-8.3-13.54-1.58-2.76-2.85-5.69-4.25-8.55l-1.38-.1-4.22,10.35c-2.89.92-5.21,0-6.83-3a80.81,80.81,0,0,0-4.45-7.29,21.3,21.3,0,0,0-3.07-3c-4.74,4.5-3.29,10.17-3.89,15.34-3.34,1.1-5.17-.28-7.39-2.65-9.51-10.15-11.1-22.59-11.08-35.58a36.5,36.5,0,0,1,.95-5.86c2.49-1.1,4.48-.47,5.88,1.64,2.19,3.3,4.33,6.64,6.27,10.09,3,5.34,4.39,5.49,7.89.56a9.5,9.5,0,0,1,14.76-1.15,48.16,48.16,0,0,1,5.62,7.79c2,3.18,3.85,3.5,6.36.68a9.64,9.64,0,0,0,2-2.7c2.34-6.08,9.7-4.47,12.55-.05,2.08,3.22,4.37,6.32,6.6,9.44,3.64,5.09,8.21,5.17,10.83-.41a8,8,0,0,1,14.49-.26c3.72,6.94,4.87,6.91,11.24,2.14a32.92,32.92,0,0,0,6.07-6.06c3.25-4.15,10.61-5.14,14.49-1.43a115.43,115.43,0,0,1,8.57,9.33c2,2.36,3.87,2.37,6.52,1.11,7.21-3.42,12.33-9.1,17.07-15.22,2.42-3.12,4.4-6.61,7-9.58a5.94,5.94,0,0,1,4.64-1.66c1,.15,2,2.14,2.56,3.48a39.88,39.88,0,0,1,1.5,5.35l1.56.29c2.25-4,4.51-8,6.74-12.08.23-.42.17-1,.42-1.42,1.25-2,1.47-5.44,4.82-4.75s2.23,3.91,2.35,6.18c.84,15.91-5.86,28.82-16.28,40.16a28.9,28.9,0,0,1-5.77,4.63c-2.58,1.65-3.28-.08-3.37-2.33-.06-1.62.07-3.26-.09-4.87A43.84,43.84,0,0,0,382.72,323.78Z" transform="translate(-141.23 -39.04)"/><path class="cls-3" d="M425.77,214.25c-1.87,3.35-3.46,6.91-5.67,10-13.34,18.72-26.82,37.35-40.25,56-2.07,2.88-9.46,4.64-13,2.81-7.92-4.11-15.75-8.4-23.62-12.61a28.81,28.81,0,0,1-3.58-1.89c-1.4-1-3.64-2.29-3.66-3.48,0-1.51,1.47-3.59,2.9-4.5,5.72-3.67,11.66-7,17.54-10.42q22.15-12.87,44.33-25.7c6-3.48,11.92-7.09,18-10.38,1.6-.86,3.73-.75,5.62-1.08Z" transform="translate(-141.23 -39.04)"/><path class="cls-4" d="M208,213.73c5.59-1.74,9.21,1.55,13.1,3.8,8.71,5,17.37,10.16,26.07,15.22q16.26,9.46,32.56,18.86c5.18,3,10.47,5.8,15.47,9.06,1.24.81,2,3,2.14,4.61.07,1-1.34,2.49-2.45,3.1q-11.59,6.31-23.36,12.29a35.54,35.54,0,0,1-7.49,3c-5.34,1.32-8.78-1.95-11.57-5.77q-13.91-19-27.58-38.2-7.54-10.55-14.82-21.29A28,28,0,0,1,208,213.73Z" transform="translate(-141.23 -39.04)"/></g></g></svg>