<svg xmlns="http://www.w3.org/2000/svg" viewBox="0 0 405.52 448.04"><defs><style>.cls-1{fill:#2e2e2e;}.cls-2{fill:#eaeaea;}.cls-3{fill:#c6c6c6;}.cls-4{fill:#e7e7e7;}.cls-5{fill:#2f2f2f;}.cls-6{fill:#818181;}</style></defs><title>Ресурс 14</title><g id="Слой_2" data-name="Слой 2"><g id="Слой_1-2" data-name="Слой 1"><path class="cls-1" d="M269,241.31c0-12.5-.13-25,0-37.5.52-40.77,13.68-76.92,39.81-108.28,21.24-25.49,47.48-43.79,79-54.1a161.53,161.53,0,0,1,74.54-6.66c36.47,5.34,67.77,20.84,94.41,46.12,27.17,25.79,44.75,57.15,50.69,93.95,3,18.72,1.64,38.14,2.65,57.22.38,7.23.9,14.73,3.08,21.55,6.2,19.36,20,30.64,39.92,34.35a89,89,0,0,0,10.35,1c6.4.43,10.72,4.92,10.78,11.34.23,23.4-21.4,48.51-44.58,51.66-5.89.8-11.92.89-17.71,2.13a29.06,29.06,0,0,0-22.94,28.76c.44,27-20.35,50.48-46.36,54.88-6,1-12.25.95-18.16,2.35C513.4,442.76,504.83,453.58,504,465c-.12,1.65-.08,3.33-.33,5-1.27,8.19-4.66,10.92-13,11.07-22.48.41-44.84-.35-66.79-6-39.64-10.13-73.2-30.38-100.89-60.42-25-27.15-42-58.66-49.25-94.91-2.72-13.58-3.74-27.57-4.58-41.43C268.41,266,269,253.64,269,241.31Zm319.85-40.23a141,141,0,0,0-10.07-52.93q-17.6-45-58.47-71C500.6,64.59,479,58,456,55.1a93.43,93.43,0,0,0-9.33-1.24C422.38,53,398.8,56.45,376.75,67,320.64,93.69,292.22,138.89,290,200.47c-1,27.45-.21,55-.13,82.46a147.19,147.19,0,0,0,.79,14.93c2.83,27,10.78,52.32,24.88,75.58a176.87,176.87,0,0,0,69.86,66c29,15.33,60.12,21.58,92.81,20.89,4.4-.09,6.32-1.41,7.73-5.62,7-21,28.63-36.94,49.71-37.06,19.92-.12,31.92-11.84,32.58-31.87.53-16,7.17-29,19-39.75,9.09-8.25,19.95-12.25,31.81-14.1,13.37-.07,24.34-4.41,31-16.94,1.8-3.41.61-5.29-2.38-6.62a48.63,48.63,0,0,0-4.77-1.4c-18.25-5.93-32.35-17.12-42.63-33.33C594,263.87,591,253.1,589,242Z" transform="translate(-268.78 -33.07)"/><path class="cls-2" d="M619,331.9c-11.87,1.85-22.72,5.85-31.81,14.1-11.79,10.7-18.44,23.72-19,39.75-.66,20-12.66,31.75-32.58,31.87-21.09.12-42.71,16-49.71,37.06-1.41,4.22-3.33,5.53-7.73,5.62-32.69.69-63.77-5.57-92.81-20.89a176.87,176.87,0,0,1-69.86-66c-14.1-23.26-22-48.6-24.88-75.58a147.19,147.19,0,0,1-.79-14.93c-.07-27.49-.87-55,.13-82.46C292.22,138.89,320.64,93.69,376.75,67c22-10.51,45.63-14,69.9-13.09A93.42,93.42,0,0,1,456,55.1a65.86,65.86,0,0,0,6.38,4.54c32.65,18,57.18,43.52,72.41,77.69.85,1.9.32,4.4.44,6.63-1.86-1.35-3.81-2.61-5.58-4.06-8.12-6.66-17.32-11-27.88-10.11-16.76,1.48-28.69,10.77-36.08,25.58-7.32,14.66-4.41,28.44,5.25,41,16.37,21.34,43.3,23.22,61.74,3.71,5.31-5.62,8.43-13.31,12.56-20,.93,3.57,2.62,7.12,2.66,10.7.26,19.62,0,39.26.19,58.88a111.12,111.12,0,0,0,1.41,17.85c5.77,33.46,31.81,57.74,65.56,61.64C616.43,329.29,617.66,330.94,619,331.9ZM417.74,172.15c.82-20.08-19.72-41.53-40.71-42.52-20.62-1-42.34,19.17-43.39,40.26-1.07,21.34,19.54,43.19,41.38,43.85C395.74,214.38,416.86,193.82,417.74,172.15Z" transform="translate(-268.78 -33.07)"/><path class="cls-3" d="M619,331.9c-1.31-1-2.54-2.62-3.94-2.78-33.75-3.9-59.79-28.18-65.56-61.64a111.12,111.12,0,0,1-1.41-17.85c-.17-19.63.07-39.26-.19-58.88,0-3.58-1.73-7.13-2.66-10.7.24-1.12.57-2.22.69-3.35,1.4-12.53-2.8-23.25-10.7-32.75-.11-2.22.41-4.73-.44-6.63C519.54,103.16,495,77.61,462.36,59.64A65.86,65.86,0,0,1,456,55.1c23,2.87,44.63,9.49,64.34,22.06q40.84,26,58.47,71a141,141,0,0,1,10.07,52.93,4.26,4.26,0,0,0-.54,1.38q-.12,19.19-.14,38.38c0,.37.56.74.86,1.11,2,11.15,4.94,21.92,11.11,31.66,10.28,16.21,24.38,27.4,42.63,33.33a48.63,48.63,0,0,1,4.77,1.4c3,1.33,4.18,3.21,2.38,6.62C643.31,327.49,632.34,331.83,619,331.9Z" transform="translate(-268.78 -33.07)"/><path class="cls-4" d="M589,242c-.3-.37-.86-.74-.86-1.11q0-19.19.14-38.38a4.26,4.26,0,0,1,.54-1.38Z" transform="translate(-268.78 -33.07)"/><path class="cls-1" d="M535.2,143.95c7.9,9.5,12.09,20.22,10.7,32.75-.13,1.13-.46,2.24-.69,3.35-4.12,6.74-7.24,14.43-12.56,20-18.44,19.51-45.37,17.63-61.74-3.71-9.66-12.59-12.57-26.37-5.25-41,7.4-14.81,19.33-24.1,36.08-25.58,10.56-.94,19.76,3.45,27.88,10.11C531.4,141.34,533.34,142.6,535.2,143.95Zm-31.07,49c12.92,0,21-8.15,20.82-21.41-.25-15.57-9.24-21.5-21.46-21.29-15,.25-20.77,8.61-21.23,20.72C481.73,185,490.35,193,504.13,193Z" transform="translate(-268.78 -33.07)"/><path class="cls-5" d="M417.74,172.15c-.88,21.67-22,42.22-42.72,41.59-21.84-.67-42.45-22.51-41.38-43.85,1.06-21.08,22.77-41.23,43.39-40.26C398,130.62,418.55,152.07,417.74,172.15ZM375.89,193c13,0,21.2-8,21.06-21.16-.17-15.7-9-21.63-21.22-21.54-15,.11-20.8,8.27-21.48,20.48C353.48,184.54,362.28,193,375.89,193Z" transform="translate(-268.78 -33.07)"/><path class="cls-6" d="M504.13,193c-13.78,0-22.4-8-21.87-22,.46-12.11,6.22-20.47,21.23-20.72,12.22-.2,21.21,5.72,21.46,21.29C525.16,184.84,517,193,504.13,193Z" transform="translate(-268.78 -33.07)"/><path class="cls-6" d="M375.89,193c-13.61,0-22.41-8.45-21.64-22.23.68-12.2,6.51-20.36,21.48-20.48,12.17-.09,21.05,5.84,21.22,21.54C397.09,185,388.93,193,375.89,193Z" transform="translate(-268.78 -33.07)"/></g></g></svg>