<svg xmlns="http://www.w3.org/2000/svg" viewBox="0 0 889.33 572.72"><defs><style>.cls-1{fill:#fff;}.cls-2{fill:#050505;}.cls-3{fill:#4b4b57;}.cls-4{fill:#656565;}.cls-5{fill:#ded9d7;}.cls-6{fill:#6a3932;}.cls-7{fill:#4b4b56;}.cls-8{fill:#4a4a56;}.cls-9{fill:#646464;}.cls-10{fill:#854a41;}.cls-11{fill:#5e5b61;}.cls-12{fill:#79433b;}.cls-13{fill:#7d7d7d;}.cls-14{fill:#38363f;}.cls-15{fill:#626262;}.cls-16{fill:#ebebeb;}.cls-17{fill:#4c4c58;}.cls-18{fill:#6a3933;}.cls-19{fill:#060404;}.cls-20{fill:#030303;}.cls-21{fill:#040404;}.cls-22{fill:#884b42;}.cls-23{fill:#eb8d00;}</style></defs><title>Ресурс 39</title><g id="Слой_2" data-name="Слой 2"><g id="Слой_1-2" data-name="Слой 1"><circle class="cls-1" cx="344.51" cy="426.04" r="113"/><path class="cls-2" d="M716.75,332.49c-20.85-9-42.74-12.58-65.3-11.91-16.22.48-31.18,5.93-45.62,13-19,9.28-36.16,21-50.69,36.49-1.36,1.45-2.94,2.7-4.13,3.79,4.95,7.67,10,15.18,14.7,22.92,4.12,6.8,4.15,11.38-2.75,16.83A55,55,0,0,1,535,425c-.91,10.12-1.38,20-2.84,29.83-.91,6.08-3.13,12-5.12,17.87-.84,2.47-.67,4,1.28,5.83a54.63,54.63,0,0,0,38.05,15c33.6.18,63.87-10.88,91.4-29.49,11.66-7.88,22.2-17.38,33.6-25.66,26.06-18.94,55.07-31,87.09-35,7.71-1,15.7.1,23.55.4,19.51.76,34.66,10.61,48.08,23.67,7.75,7.54,13.43,16.67,18.08,26l12.11-12.16c6.06,7.9,7.56,16.25,8.86,24.78,1.72,11.32,3.05,22.66-.82,33.67-1.32,3.75-4.3,7.15-7.21,10-1.88,1.86-4.56.94-6.34-1.41Q862.9,492.63,851,477c-4-5.22-8.21-10.32-12.72-16l25.36-1.88c-2.78-3.9-4.63-7.48-7.35-10.17-12.8-12.62-28.38-20-45.95-23.33-13.9-2.62-27.58-.7-41.15,2.37-34,7.68-63.81,23.36-90.32,45.85-29.11,24.69-62.73,40-100.55,45-18,2.42-36,1.11-51.5-10.38-4.46-3.31-8.38-7.35-12.68-11.17-1.21,1.43-2.69,3.25-4.26,5C480.47,535,443.48,554.72,401.59,565.9c-23.24,6.2-47,9.45-71.05,8.66-28.83-.95-56-7.86-79.48-25.46-18.73-14-30.62-32.57-33.75-56.14-1.35-10.14-3-20.28-3.48-30.47-.33-7.9.81-15.9,1.78-23.8.46-3.72.05-6-3.87-7.31-5.18-1.73-10.13-4.11-15.27-6-3.06-1.1-6.07-2.5-9.57-.24-1.05.68-4.36-.53-5.44-1.85-2.38-2.93-5-3-8.21-2.41-13.92,2.37-25.58,9.29-36.5,17.79-2,1.53-4,3-6.12,4.31-.45.29-1.3-.06-2-.12-1.53-5.09,2.14-8.52,4-12.5a17.38,17.38,0,0,1,9.71-9.19c4.12-1.63,7.93-4.06,11.87-6.13,8.13-2,15.57-6.75,24.58-5.35-.12-12,2.31-22.82,7.94-32.85.38-.67-.05-2.12-.56-2.92-3.61-5.71-8-10.38-15.21-11.39a9.66,9.66,0,0,1-2.46-.86c-4.33-1.92-4.86-3.06-4-7.8a41,41,0,0,0,.29-4.84h0l.65-.78c.79-4.9-3.24-7.61-5.11-11.3-1.73-3.16-3.63-6.24-5.12-9.51a6.73,6.73,0,0,0-4.89-4c-8.14-2.12-16.25-4.37-24.37-6.57,2.93.34,5.88.58,8.8,1,5.36.83,10.71,1.78,16.25,2.71-3.57-8.18-7.67-15.71-10.19-23.73-5.45-17.35-10.51-34.84-14.92-52.48-3.68-14.73-6.22-29.74-9.27-44.63-.33-2.61.26-5.54-2.84-7.1-3.67-1.85-7.16-4.09-10.94-5.66-9.28-3.87-18.68-7.46-28-11.16,1.48.11,3,.14,4.43.34,10.84,1.5,20.32,6.49,29.71,11.68,2.19,1.21,4.35,2.46,7,4-.53-5.89-.92-11-1.5-16a3.11,3.11,0,0,0-1.55-2.21c-10.05-3.63-19.94-8-30.29-10.46a211.88,211.88,0,0,0-44.69-6c-5.69-.12-11.38-.5-17.39-.77l.57,3.57c-.22,3.19,1.21,5.39,3.93,7a154,154,0,0,1,33.71,26.49c8.88,9.45,17.84,18.89,25.79,29.1,3.85,4.94,5.47,11.62,8.05,17.53.08.18-.34.58-.52.88l-.57-.26.41.42c2.11,6.89,4.29,13.77,6.32,20.68,3.7,12.56,0,22.69-10.14,30.74a18.52,18.52,0,0,0-4.37,5c-1.26,2.15-1.16,4.1,1.93,5.14,11.25,3.79,18.61,12.88,26.28,21,4.61,4.88,7.07,11.92,10,18.23,6.14,13.23,11.83,26.62,14.17,41.23,1.27,8,3.58,15.74,5.41,23.6h0l-4.35-6.91c-1.54,10.94-4.72,21.3-10.39,30.73-2.28,3.79-1.89,7.24-.18,10.91a20.1,20.1,0,0,1,.71,2.08c-1.33,1.4-2.87,4.13-3.95,4a51.22,51.22,0,0,1-11.19-3.59c-.59-.24-1-2.52-.54-3.41a94.36,94.36,0,0,1,7-12.73,77.5,77.5,0,0,0,12.83-29.92c.84-4.37.29-9.25-.64-13.69-3.6-17.1-8.85-33.6-17.53-49-5.84-10.36-13.36-18.45-24.32-23.21-1.23-.53-2.35-1.3-3.83-2.12-.74,2.84-2.65,2.62-4.58,1.43-5.58-3.45-11.09-7-17.52-11.1,4.58-4.15,8.31-7.63,12.19-10.94A3,3,0,0,1,78,289c2.63,1.86,4.16-.09,6.07-1.28,11-6.82,12.79-16.54,10.41-28.56-4.58-23.1-16.75-41.55-33.27-57.62-5.54-5.39-11.13-10.74-16.55-16.26A50,50,0,0,0,8.53,169.74a67.55,67.55,0,0,1-7-.84c4.21-8.55,10-14.71,13.81-14.56l.61-4.32c16.63,1.5,33.23,2.76,49.78,4.57A135,135,0,0,1,114,169c-1.53-5.35,1.87-6.76,5-8.28,8.06-3.94,16.55-4.75,25.45-4.1,17.66,1.28,33.89,7.33,50.07,13.86,26,10.49,49.37,25.08,68.88,45.17,5.46,5.63,10.4,8.3,18.27,8.46,10,.2,19.9,2.59,29.78,6.51a18.74,18.74,0,0,0-2.19-3.78c-7.35-7.79-16.29-13.45-25.26-19.13-2.13-1.35-3.57-3.8-5.33-5.75,2.11-1.28,4.06-3.15,6.35-3.72,7.7-1.94,15.52-3.42,24.32-5.3,0-5.8-.09-12.38,0-19a188.2,188.2,0,0,1,6.91-48.4c3.55-12.53,9.57-24,16-35.2s3.47-10.24,16.83-7.48c25.36,5.23,49.78,13.32,72.61,25.59,12.19,6.55,23,15.15,33.47,24.37,13.58,12,25.46,25.32,34.16,41.24,3.74,6.85,6.77,14.09,10.45,21.84,2.42-7.65,4.51-14.73,6.89-21.71,4.61-13.54,8.55-27.39,14.31-40.44a139.5,139.5,0,0,1,25.73-39.6c9.74-10.37,18.67-21.49,28.47-31.81,10.63-11.19,23.46-19.69,36.49-27.86C628,24.34,646.45,19.93,664.56,14.5c16.73-5,34.06-6.2,51.14-9C721.24,4.61,726.82,4,732.34,3c8-1.41,7.2-2.34,11.35,4.16,1.62.12,3-.18,3.93.36,9,5.37,18,10.89,26.95,16.36l-.17,1.39c-6.43,1.38-12.82,3.59-19.31,4-16,.93-26.41,9.88-34.58,22.49-10.32,15.92-19.29,32.52-25.91,50.36-4.18,11.26-5.57,22.75-3.28,34.51,1.94,10,3.67,20.14,6.8,29.79,3.7,11.41,11.94,19.34,23,24.19,4.77,2.09,9.48,4.35,14.31,6.31.84.34,2.11-.52,3.2-.63,1.91-.2,4.1-.9,5.69-.24,7.52,3.12,14.88,6.62,22.77,10.2-7.4,6.82-15,11.56-23.74,14.24-.66.2-1.82.45-2,.15-2-2.63-3.93-.93-5.93-.14-19,7.52-31.49,21.84-39,40.16-3,7.26-3,15.85-3.7,23.89-.18,2.14,2,4.66,3.42,6.73,7.85,11.16,18.53,18.93,30.34,25.48,5.84,3.24,11.22,7.3,17,11.12-2.52,5.58-7.39,6.56-11.74,8.45-5.11,2.22-9.15-.3-13.35-2.43,3.53-4.85,3-7.61-1.65-11.19-5.63-4.32-11.48-8.46-16.55-13.38-4.66-4.54-8.41-10-12.52-15l-3,9.15c-.8-.6-.88-1-.85-1.47.53-7.81,1.12-15.62,1.57-23.44.11-1.92-.88-4.09-.28-5.76,4.64-13,10.49-25.36,18.73-36.48s18-19.95,31.64-23.92c.93-.27,2.18-1.53,2.19-2.34a4.23,4.23,0,0,0-1.64-3.25c-4.54-2.6-9.27-4.88-13.9-7.32-18.15-9.55-30.8-23-32.4-44.67-.69-9.25-1.79-18.47-2.69-27.52l-2,8.78-1.11,0c0-3.05-.17-6.12,0-9.15.44-6.38-1.48-12.89,1.39-19.14,6.4-13.93,12-28.26,19.19-41.77C710.6,54.26,717.71,43,728,34.24c3.51-3,6.62-6.45,9.88-9.72,2.82-2.83,3-5.57.63-9.27-1-5.45-1-5.45-6.25-4.54l-4.42.78c-19.32,3.47-39.18,3.59-58,10.35-9.23,3.32-19.24,4.47-28.47,7.78-20.77,7.46-39.7,18.47-55.56,33.87-13.23,12.86-25.42,26.78-38.1,40.21-2.8,3-6.41,5.41-8.42,8.82-4,6.86-8,13.94-10.64,21.42-8.3,23.76-16,47.74-23.79,71.68a8.64,8.64,0,0,0,.31,4.69,148.79,148.79,0,0,1,6,39.81c0,4.1.49,4.49,4.59,4.12,3.28-12,6.45-23.88,9.8-35.73,5.1-18,10-36.06,18.54-52.87,17.94-35.46,41-67,71.06-93.24,10.66-9.29,21.77-18,34.91-23.62,4.74-2,9.94-2.91,14.94-4.31-2.32,1.16-4.61,2.4-7,3.47-24.12,11-44.51,27-62.15,46.6-3.23,3.59-6,7.56-9.06,11.35-5.7,6.76-12.18,13-16.9,20.4-6.44,10.06-11.66,20.91-17.2,31.54-13.73,26.36-22.53,54.57-31,82.91-1.44,4.85-2.67,9.76-4,14.82,12,3.91,22.19,9.92,30.35,18.14,8-4,15.44-8,23.07-11.65,8.21-3.9,16.28-8.48,24.92-11,19.48-5.68,39.25-10.41,59-15.24,7.71-1.89,15.62-3,23.43-4.5-14.13,4-28.14,8.44-42.41,11.85-28.31,6.76-55.4,16.53-80.78,30.86-4.31,2.43-4.51,2.84-1.56,6,1.29,2.12,2.63,4.22,3.87,6.37,3,5.24,2.32,7.63-3.1,10.37-7.89,4-16,7.66-23.63,12-4.4,2.49-8.18,6.06-12.71,9.5,16.69,3.61,31.29,9.32,44.68,18l6.6,8.2,36.38-20.15c7.17-2.86,14.21-6.18,21.57-8.42a72.53,72.53,0,0,1,17.83-3c7.57-.32,15.18.42,22.78.71,3.3.51,6.6,1.07,9.91,1.53,5.89.82,11.82,1.44,17.69,2.41,6.49,1.08,11.33,5.35,16.52,9C714.35,328.19,716.92,329.17,716.75,332.49ZM309,207.89v-4.45h-17.7l-.2.83L306.47,215l3.32,3.12ZM202.15,373l.05,0c-2.48,2.92-5.17,5.69-7.4,8.78-5.2,7.21-8.36,15.2-8.22,24.27l.61,10.62c10.12-8.06,19.33-15.3,28.37-22.73,1-.83,1.34-2.79,1.54-4.28.64-4.81.87-9.68,1.63-14.46.71-4.44,1.9-8.81,2.95-13.49-7.82,1.85-15.28,3.2-19.32,10.68A.7.7,0,0,0,202.15,373Zm-5.85-77.91c7.26-5,14.51-10,24-11.83L201.33,274c-2.45,6.93-5.31,13.53-5.19,20.92l-.26.46Zm653,142,.87.13-.41-.59c-3.5-3.5-6.74-7.32-10.55-10.44-9.11-7.47-19.12-13.38-30.92-15.61-2.35-.22-4.7-.47-7.06-.65a137.33,137.33,0,0,0-53.74,7C723.92,424.54,703.11,437,683.62,452c-11.12,8.59-22.51,16.93-34.38,24.42-8.47,5.34-18,9.08-27,13.53l-24.72,6.82a13.1,13.1,0,0,0-1.86.15c-14.32,3.17-28.68,4.87-43.23,1.5l-17.18-6.39-12.33-9.38a68,68,0,0,0-3.66,6.62,3.68,3.68,0,0,0,.38,3.27c3.59,3.73,7.4,7.25,11.13,10.83,8.77,6.09,18.58,9,29.16,9.59,5.6-.19,11.21-.26,16.8-.63,3.2-.21,6.37-.93,9.55-1.42a18.52,18.52,0,0,0,2.6-.2,201.82,201.82,0,0,0,41.58-13.42c.8-.34,1.62-.65,2.39-1,16.41-8.35,31.38-18.71,45.72-30.31a245.54,245.54,0,0,1,34.11-22.86c29.58-16.62,61-26.8,95.58-24.4,4.55,1.28,9.38,2,13.59,4C831.15,427.11,840.14,432.19,849.25,437ZM882,498.47c2.56-7,2.7-14.31,2.17-21.56-.37-5.16-1.67-10.25-2.56-15.37l-1.48-11-1.3-.09-1.65,2.69c-5.13,6.45-8,12.69-1.32,20.31,3.87,4.42,5.14,10.47,4.94,16.47,0,1.08-1.34,2.11-2.06,3.16l-1.29-1.46c1.08-9.44-4-16.72-8.57-24.14a2.72,2.72,0,0,0-1.68-1.27c-6.25-.52-12.51-.92-18.77-1.35L848,465.9l8.34,9.82c6.55,8.24,13.06,16.51,19.7,24.68.84,1,2.32,1.55,3.5,2.31ZM179.7,357.29l1.53.67a11,11,0,0,0,2.07.8c10,1.74,20,2.4,30.09.34,1.7-.35,3.53,0,6.07,0l6.15-2.87-3.17,16c-.07,1.24,0,2.49-.22,3.71a92.26,92.26,0,0,0,1.16,32.56c1.12,5.36,3,10.56,4.8,16.91l17.9-11.84a18.3,18.3,0,0,0,2.67-3c5.1-9,10.22-18,15.1-27.06,3.15-5.88,5.9-12,8.83-18l.46,3.09c7.72-4.23,15.67-4.54,23.76-3.42l-4.6-6.06,16.4,12.08.76-.93L297.1,355.88l-1.27-7.26,1.25-.3a29.17,29.17,0,0,1,1.1,2.91c2.9,10.91,12.77,16,23.7,12.93,7.95-2.26,14.42-6.79,20.61-11.81,7.72-6.24,16.12-10.89,26-12.52a36.87,36.87,0,0,1,17.72.92c-4.67.63-9.41.49-14,1.27s-9,2.48-13.55,3.78l.22,1.24c15.82-2,30.59,1.73,44.81,8.06,6.12,2.72,12.4,5.4,17.89,9.16,5.09,3.49,9.39,8.21,13.75,12.67A77.81,77.81,0,0,1,457,419.66c1.39,8.73.22,17.87.2,26.83-.2.31-.52.6-.57.92-2.83,19.67-13.45,34.41-28.74,46.47-8.56,6.75-18.59,10.15-28.56,13.58-16.11,5.53-31.86,4.78-46.67-4.5a9.91,9.91,0,0,0-1.93-.72c-8,18.24-19.91,21.46-31.57,22.16-23,1.38-42.67-6.1-57.89-23.84a72.38,72.38,0,0,1-17.61-42.84c-.78-10.93-.58-21.93-.82-32.9l.25-.46-.46.26a44.55,44.55,0,0,0-5.47,3.11c-4,3.08-8,3.79-12,.16-1.37-1.23-2.67-2.53-3.93-3.72-.55,6.05-1.38,12.12-1.61,18.21-.53,14.48,0,28.92,2.91,43.19,6.44,31.86,24.5,54.2,54.46,67,16.93,7.21,34.48,11.42,52.92,11.72,15.91.25,31.49-2.27,47.09-5.07,35.86-6.44,69-19.43,99-40.29a127.27,127.27,0,0,0,33.63-34.25c8.27-12.47,13-26.35,15.08-41.1.81-5.85.8-11.82,1.15-17.58-14-3.24-28.17-2.5-40.3-10.22,12.66,1.28,24.93,6.06,38,3.09,12.84-2.91,24.91-7.32,36.15-14.67l-3.11-5.69L545.67,385c-6.18-7.13-12.33-14.3-18.59-21.36a4.59,4.59,0,0,0-2.91-1.27c-8.8-.56-17.61-1-26.41-1.47l-5.56-1.52a5.07,5.07,0,0,1,3-1.27c15.63-1.56,31.27-3,46.88-4.68a57.72,57.72,0,0,0,20.65-6.35c-1.72-2.11-2.8-4.23-4.52-5.43-12.43-8.7-26.38-14.05-41-17.79-1.47-.38-3.84-.72-4.58.06-3.74,4-8.92,4.17-13.53,5.81-4.28,1.52-8.61,2.9-12.91,4.34a5.9,5.9,0,0,1,2.15-2.75c5.61-4.17,11.26-8.29,16.86-12.48,10.76-8.05,20.22-17.93,33-23.18,1.31-.54,2.33-1.84,3.42-2.87,5.42-5.14,5.41-5.15.07-10.63-8.35-9.9-18.6-16.69-31.56-19.79L509,271a26,26,0,0,0-.84,3.22,61.16,61.16,0,0,1-12.79,30.27c-.72.92-1.51,1.78-2.27,2.67a6.13,6.13,0,0,1,.51-3.79c3.56-9.4,7.46-18.63,9.21-28.7,2.54-14.6,3.55-29.07,1.35-43.84-2.65-17.81-9-34.29-17.47-49.89a148.31,148.31,0,0,0-18.1-26.9c-8.82-10.1-18.84-19.26-29-28a115.57,115.57,0,0,0-21.1-14.16C394.91,99.22,369.71,91,343.38,86.25c-2.16-.39-3.26-.19-4,1.83a19.46,19.46,0,0,1-1.44,2.62c-7.76,13.57-15.44,27.26-18.13,42.86-2.26,13.12-3.75,26.38-5.1,39.63-2.13,20.86-.32,41.67,2.58,62.31,3.72,26.53,12,51.91,20.72,77.17a14.38,14.38,0,0,1,.4,2.19,7.08,7.08,0,0,1-3.53-3.35c-4.24-9.7-9.21-19.2-12.31-29.27-3.95-12.83-6.29-26.14-9.5-39.21-.39-1.58-1.52-3.8-2.8-4.22-7.67-2.51-15.48-4.57-23.24-6.79a27.29,27.29,0,0,0-4-.79c-18.7-.88-37.33-1.79-55.81,2.95-12.49,3.2-24.14,7.76-34.31,15.77l-6.26,4c18.48,16.75,40.57,24.41,63.29,30.9-5.2,1.45-10.3,2.55-15.17,4.3-8.4,3-16.65,6.44-25,9.69-10.18,4.41-17.68,11.88-23.7,21-7.08,10.68-11.32,22.48-13.74,35.31l7.38,2.31Zm-9-99c.73-5,.86-10.22,2.33-15,1.66-5.41,4.53-10.46,6.87-15.66l1.65-2c4.57-5.29,10.46-8.46,17.37-10.81-8.71-6.07-17.52-11.63-26.42-17-.91-.55-3-.66-3.52-.08-4.46,5.49-9.29,10.87-9.77,18.48v26.24A81.65,81.65,0,0,1,156,214.81c2.89-7,5.27-14.25,11.81-19.55a35.37,35.37,0,0,0-5.15-1.82c-5.6-1-11.23-1.93-16.86-2.78-8.89-1.35-11.71-.09-13.3,8.21l-1.79,1.42,3.21-11.49-8.38-2a2.73,2.73,0,0,1,2.07-1.27c14.83-.42,29.37.95,43.09,7.19,6.12,2.78,12.82,4.78,18.17,8.64,10,7.21,20.12,14.45,27.71,24.42,2.64,3.47,5.5,3.62,9,1.8,7.25-1.13,14.47-2.4,21.74-3.35,5.1-.67,10.26-.91,16-1.39a37.75,37.75,0,0,0-3.13-3.81c-5.24-4.82-10.45-9.66-15.84-14.31C223.66,187,198.8,176.89,174.05,167c-9.79-3.92-20.74-5.19-31.3-6.82A40,40,0,0,0,121.09,163c-1.85.78-3,1.76-2.7,4.21.92,7,1.55,14.12,2.29,21.19C123.33,236,150.84,323.64,168.11,339l5-13.28,2.19-3.7,9.78-14.26,3.18-3.6c1.66-2.4,4.16-4.6,4.83-7.25,2-8.13,3.37-16.44,5-24.89-5.56-4.51-11.84-9.57-18.09-14.69-3.37-2.76-3.62-5.24-.22-7.87,5.3-4.09,10.94-7.76,16.43-11.61l18.5-7.93c-4.08-4.12-7.94-8.07-11.88-11.94a2.37,2.37,0,0,0-1.77-.34c-6.41,1-12.33,2.89-16.22,8.63-5,5.19-7.86,11.54-9.57,18.36-2.93,11.69-1.69,23.52-.65,35.32l.53,10.34-1-3.65ZM359,353.52a29.86,29.86,0,0,0-15.93,5.61c-5.09,3.52-10.28,7.2-16,9.51s-11.36,3.45-12,11.79c-8.17-8.08-17.36-10.42-27.35-10.38l-4.56.56c-2.45.85-4.94,1.6-7.35,2.56-3.75,1.5-5.88,4.14-7.47,8.09A205.62,205.62,0,0,1,256,407.53c-3.63,6.26-6.76,12.35-6.86,19.68q-.18,12.27-.35,24.55l5.1,22.56a6.48,6.48,0,0,0,.23,1.46c9.48,23.64,26.21,38.35,51.9,41.86,17.07,2.34,31.71-1.75,42.16-16.45,1.46-2.05,3.15-2.12,5.53-1.5,6.5,1.68,13,3.72,19.67,4.29,32,2.79,62.63-22.33,72.66-43.53,11.89-25.1,4.72-59.17-19.54-82.16-10.56-9.9-21.58-19-36.13-22.62A81.89,81.89,0,0,0,359,353.52ZM217.92,402.33l-16.4,14.14,16.4,7.52ZM758.11,207.9l-14.61-1.35c.5,2.58.62,4.67,1.44,6.44.23.5,2.69.47,3.8,0C751.65,211.65,754.38,210,758.11,207.9Zm.17-186c-2.92-4.63-6.42-6.17-10.84-5l.49,6.05Zm-32,310.16,9.63-1.71v-1.19l-9.22-5.51ZM542.21,366.61l6.35-5.2-.43-.67-11.68.72-.15.82ZM70.37,300.38l-.2.88L80.33,306l-2-7.92Zm44.36,142.43h7.82l-2.7-8ZM17,165.75l.75-.83c-1.24-1.18-2.43-3.23-3.72-3.29s-2.58,1.94-3.87,3l.72,1.09ZM194,367.28H187.5l3,4.36Z" transform="translate(-1.49 -1.96)"/><path class="cls-3" d="M586.83,105.91c3-3.79,5.83-7.76,9.06-11.35C613.53,74.94,633.92,59,658,48c2.36-1.08,4.65-2.31,7-3.47l0,0,2.15-.52c5.27-2.07,10.51-4.2,15.8-6.21,12.41-4.72,24.73-9.73,37.32-13.93,6.07-2,12.7-2.4,16.89-8.18.23-.31.91-.29,1.38-.43,2.36,3.7,2.19,6.44-.63,9.27-3.26,3.27-6.37,6.73-9.88,9.72-10.28,8.76-17.39,20-23.55,31.65-7.16,13.52-12.79,27.85-19.19,41.77-2.87,6.25-1,12.76-1.39,19.14-.21,3,0,6.1,0,9.15l1.11,0,2-8.78c.9,9,2,18.27,2.69,27.52,1.6,21.62,14.25,35.12,32.4,44.67,4.64,2.44,9.36,4.73,13.9,7.32a4.23,4.23,0,0,1,1.64,3.25c0,.82-1.26,2.07-2.19,2.34-13.6,4-23.45,12.86-31.64,23.92S689.67,259.76,685,272.72c-.6,1.67.39,3.84.28,5.76-.45,7.82-1,15.63-1.57,23.44,0,.43.06.87.85,1.47l3-9.15c4.11,5,7.86,10.49,12.52,15,5.07,4.93,10.92,9.06,16.55,13.38,4.67,3.59,5.18,6.35,1.65,11.19l-1.59-1.35c.17-3.33-2.4-4.31-4.64-5.86-5.2-3.61-10-7.88-16.52-9-5.87-1-11.79-1.59-17.69-2.41-3.31-.46-6.61-1-9.91-1.53a93.39,93.39,0,0,1-3-29.17c.21-3.77.49-7.54.74-11.3,3.71-9.2,8.42-17.81,16.38-25.5a24.65,24.65,0,0,0-3.53,0c-6.67,1.4-13.35,2.79-20,4.28q-19,4.27-38.07,8.66c-7.94,1.85-15.85,3.87-23.77,5.81-15.29,1.53-29,8-43,13.56-3-3.19-2.75-3.6,1.56-6,25.39-14.33,52.47-24.1,80.78-30.86,14.26-3.41,28.28-7.87,42.41-11.85l21.46-9.18c-10.13-5.75-15.93-15.26-20.23-25.23-4-9.24-6.48-19.28-8.47-29.2a211.66,211.66,0,0,1-3.8-31c-.6-11.94-.91-23.9,3.67-35.53,6.6-16.73,13.08-33.4,25.61-46.86,2.89-3.1,5.36-6.59,8-9.9l-.57-.77c-4.6,1.68-9.28,3.16-13.78,5.06C670,57.39,649.3,65.37,629.89,76.22a235.41,235.41,0,0,0-40.23,28.2A13.74,13.74,0,0,1,586.83,105.91Z" transform="translate(-1.49 -1.96)"/><path class="cls-3" d="M74.8,175.86c9.35,3.7,18.75,7.29,28,11.16,3.78,1.58,7.27,3.81,10.94,5.66,3.09,1.56,2.5,4.49,2.84,7.1-20.46-8.69-41.37-16-63.23-20.66a22.24,22.24,0,0,0,4.17,4.14c3.95,3.21,8.25,6.06,11.8,9.66,5.76,5.84,11.07,12.14,16.5,18.3,6.25,7.1,12.54,14.15,15.77,23.34,2.15,6.1,5.12,11.94,7,18.12,3,10.08,6.16,20.23,7.93,30.58a37.8,37.8,0,0,1-5.43,26.46l14.84,7.16c8.12,2.2,16.23,4.45,24.37,6.57a6.73,6.73,0,0,1,4.89,4c1.49,3.27,3.39,6.35,5.12,9.51a14.64,14.64,0,0,1-2.61,0c-5.79-1.12-11.54-2.48-17.36-3.39-3.61-.57-7.32-.49-11.87-.76,3.61,6,6.82,10.79,9.38,15.87,3,6,5.46,12.22,8.16,18.35.51,2.91,1,5.81,1.52,8.72q3.37,19.67,6.74,39.34c-3.95,2.08-7.75,4.5-11.87,6.13a17.38,17.38,0,0,0-9.71,9.19c-1.88,4-5.55,7.42-4,12.5l-1.36.66a20.1,20.1,0,0,0-.71-2.08c-1.71-3.67-2.1-7.13.18-10.91,5.67-9.43,8.85-19.78,10.39-30.73l4.35,6.91h0c-1.84-7.86-4.14-15.65-5.41-23.6-2.34-14.61-8-28-14.17-41.23-2.93-6.3-5.39-13.35-10-18.23-7.67-8.13-15-17.21-26.28-21-3.09-1-3.19-3-1.93-5.14a18.52,18.52,0,0,1,4.37-5c10.16-8.06,13.84-18.18,10.14-30.74-2-6.92-4.21-13.79-6.32-20.68l.16-.16c.18-.3.6-.7.52-.88-2.58-5.91-4.2-12.59-8.05-17.53-7.95-10.2-16.91-19.65-25.79-29.1A154,154,0,0,0,25,166.94c-2.72-1.62-4.14-3.82-3.93-7,4.85,2.8,10.07,4.15,15.59,5.19,7.63,1.44,15.06,4,22.56,6.11C64.45,172.71,69.61,174.31,74.8,175.86Z" transform="translate(-1.49 -1.96)"/><path class="cls-4" d="M209.73,298.81c8.31-3.25,16.56-6.67,25-9.69,4.86-1.75,10-2.85,15.17-4.3-22.72-6.49-44.81-14.15-63.29-30.9l6.26-4a19.43,19.43,0,0,0,3.71-.21,762.61,762.61,0,0,1,88.31-16.29c.76-.1,1.43-.93,2.15-1.42,7.76,2.21,15.57,4.28,23.24,6.79,1.28.42,2.41,2.63,2.8,4.22,3.2,13.06,5.55,26.38,9.5,39.21,3.1,10.07,8.06,19.56,12.31,29.27a7.08,7.08,0,0,0,3.53,3.35,14.38,14.38,0,0,0-.4-2.19c-8.67-25.25-17-50.64-20.72-77.17-2.9-20.64-4.71-41.44-2.58-62.31,1.36-13.25,2.84-26.52,5.1-39.63,2.69-15.6,10.37-29.3,18.13-42.86a19.46,19.46,0,0,0,1.44-2.62c.77-2,1.87-2.22,4-1.83,26.33,4.78,51.53,13,75.15,25.56A115.57,115.57,0,0,1,439.62,126c10.18,8.78,20.2,17.94,29,28a148.31,148.31,0,0,1,18.1,26.9c8.47,15.61,14.82,32.08,17.47,49.89,2.2,14.78,1.19,29.24-1.35,43.84-1.75,10.07-5.65,19.3-9.21,28.7a6.13,6.13,0,0,0-.51,3.79c.76-.89,1.55-1.75,2.27-2.67a61.16,61.16,0,0,0,12.79-30.27A26,26,0,0,1,509,271c4.26,1.26,8.58,2.36,12.77,3.83,6.65,2.33,13.22,4.91,19.83,7.39,5.34,5.48,5.35,5.49-.07,10.63-1.08,1-2.1,2.33-3.42,2.87-12.75,5.25-22.21,15.13-33,23.18-5.6,4.19-11.25,8.3-16.86,12.48a5.9,5.9,0,0,0-2.15,2.75c4.31-1.44,8.63-2.82,12.91-4.34,4.61-1.64,9.79-1.84,13.53-5.81.74-.78,3.1-.44,4.58-.06,14.6,3.74,28.55,9.09,41,17.79,1.72,1.2,2.8,3.32,4.52,5.43A57.72,57.72,0,0,1,542,353.47c-15.61,1.69-31.25,3.12-46.88,4.68a5.07,5.07,0,0,0-3,1.27l5.56,1.52c.72.76,1.3,1.79,2.18,2.23q20.34,10.27,40.77,20.37a30.75,30.75,0,0,0,5,1.5l10.83,13.41c-2.26,1.73-4.27,4.25-6.82,5-6.6,2-13.4,4.32-20.18,4.56a212.89,212.89,0,0,1-54.85-4.87c.75,1.45,1.34,2.61,2,3.77,8,15.08,16,30.15,23.92,45.27a3.8,3.8,0,0,1-.23,3.22,30,30,0,0,1-4.29,5.14c-9.15,8.86-20.8,11.08-32.85,12.14-2.38.21-2.81-1.27-2.93-3.32-.41-6.94-.93-13.88-1.54-20.8-.07-.74-1-1.4-1.48-2.1,0-9,1.19-18.1-.2-26.83a77.81,77.81,0,0,0-21.68-42.72c-4.36-4.46-8.66-9.19-13.75-12.67-5.49-3.75-11.76-6.43-17.89-9.16-14.22-6.33-29-10-44.81-8.06l-.22-1.24c4.51-1.3,9-3,13.55-3.78s9.32-.64,14-1.27a36.87,36.87,0,0,0-17.72-.92c-9.85,1.63-18.26,6.28-26,12.52-6.2,5-12.67,9.55-20.61,11.81-10.93,3.11-20.8-2-23.7-12.93a29.17,29.17,0,0,0-1.1-2.91l-1.25.3q.64,3.63,1.27,7.25c-6.06-3.26-11-1-15.71,3-2.78,2.37-5.8,4.45-8.72,6.65-2.93,6-5.68,12.09-8.83,18-4.88,9.1-10,18.08-15.1,27.06a18.25,18.25,0,0,1-2.68,3,35.35,35.35,0,0,0-3.62.7c-4.35,1.3-6.2.67-8.79-3.2a12.05,12.05,0,0,1-2-3.54c-2.62-10.93-5.09-21.89-7.69-32.82a9.29,9.29,0,0,0-1.54-2.47l3.17-16-6.15,2.87c-2.54,0-4.37-.3-6.07,0-10.07,2.07-20.08,1.4-30.09-.34a11,11,0,0,1-2.07-.8l-1.53-.67,0,.09c-4.26-6.07-1.21-11.36,2-16.47,4.68-7.5,9.58-14.86,14.4-22.27,1.28-2,3.37-3.8,3.73-5.92.95-5.67,4.79-8.74,8.92-11.81C209.24,300.49,209.39,299.53,209.73,298.81ZM459.42,325c.37,0,.83,0,1.09-.15,8.26-5.86,13.1-14.41,15.16-23.74s3.43-19.18,2-29.17c-1.95-13.53-3.66-27.09-8.16-40a186.47,186.47,0,0,0-48-74.17c-1.7-1.62-4.12-2.49-6.21-3.7l-1.56-1.39L411.5,151a9.28,9.28,0,0,1-1-.56c-14.68-11.06-30.78-19.21-48.83-23.07-5.59-1.19-11.36-1.53-17-2.26l-.3,1.23,2.78,2.36-9.39,10.07-.13.81.51-.42,1.31-.26c-1.09,2.74-1.88,5.65-3.31,8.21-7.71,13.8-10.92,28.66-10.89,44.35,0,5.37-.07,10.73-.05,16.1,0,8.3-1.06,16.81.39,24.87,3.07,17.12,5.48,34.52,13.21,50.49q6.73,13.93,12.77,28.19c1.58,3.74,4,4.68,7.57,4.08l2.09,0h2.31c.12.73,0,1.78.4,2.13,5.17,4.18,10.15,8.69,15.76,12.2,3.36,2.1,7.65,3,11.65,3.71,8.53,1.51,17.12,2.72,25.72,3.73,5.11.6,10.41,1.36,15.42.64a46.69,46.69,0,0,0,24.8-11.07Zm32.73-17.06-.11.22.17,0Zm-7.44,26.35-.15.18.24,0Z" transform="translate(-1.49 -1.96)"/><path class="cls-4" d="M586.83,105.91a13.74,13.74,0,0,0,2.83-1.49,235.41,235.41,0,0,1,40.23-28.2C649.3,65.37,670,57.39,690.37,48.75c4.5-1.91,9.18-3.39,13.78-5.06l.57.77c-2.66,3.31-5.14,6.8-8,9.9-12.53,13.47-19,30.13-25.61,46.86-4.59,11.63-4.28,23.59-3.67,35.53a211.66,211.66,0,0,0,3.8,31c2,9.92,4.49,20,8.47,29.2,4.3,10,10.1,19.48,20.23,25.23l-21.46,9.18c-7.82,1.48-15.72,2.61-23.43,4.5-19.72,4.83-39.48,9.56-59,15.24-8.64,2.52-16.71,7.1-24.92,11-7.63,3.63-15.09,7.6-23.07,11.65-8.17-8.22-18.38-14.23-30.35-18.14,1.38-5.06,2.61-10,4-14.82,8.43-28.34,17.23-56.56,31-82.91,5.53-10.62,10.76-21.48,17.2-31.54C574.66,118.93,581.14,112.67,586.83,105.91Z" transform="translate(-1.49 -1.96)"/><path class="cls-3" d="M457.2,446.49c.51.7,1.42,1.37,1.48,2.1.61,6.93,1.14,13.86,1.54,20.8.12,2,.55,3.53,2.93,3.32,12-1.06,23.7-3.28,32.85-12.14a30,30,0,0,0,4.29-5.14,3.8,3.8,0,0,0,.23-3.22c-7.91-15.13-15.93-30.19-23.92-45.27-.61-1.15-1.2-2.31-2-3.77A212.89,212.89,0,0,0,529.5,408c6.79-.24,13.58-2.56,20.18-4.56,2.55-.77,4.56-3.3,6.82-5l3.12,5.69c-11.24,7.36-23.3,11.76-36.15,14.67-13.07,3-25.33-1.81-38-3.09,12.14,7.72,26.3,7,40.3,10.22-.35,5.77-.33,11.73-1.15,17.58-2.05,14.75-6.8,28.63-15.08,41.1a127.27,127.27,0,0,1-33.63,34.25c-30,20.86-63.1,33.85-99,40.29-15.6,2.8-31.19,5.32-47.09,5.07-18.44-.29-36-4.51-52.92-11.72-30-12.76-48-35.09-54.46-67-2.88-14.27-3.44-28.7-2.91-43.19.22-6.09,1.05-12.16,1.61-18.21,1.26,1.2,2.56,2.5,3.93,3.72,4.05,3.62,8,2.92,12-.16a44.55,44.55,0,0,1,5.47-3.11l.21.21c.24,11,0,22,.82,32.9a72.38,72.38,0,0,0,17.61,42.84c15.22,17.74,34.89,25.22,57.89,23.84,11.66-.7,23.52-3.92,31.57-22.16a9.91,9.91,0,0,1,1.93.72c14.81,9.28,30.56,10,46.67,4.5,10-3.43,20-6.83,28.56-13.58,15.29-12.06,25.92-26.8,28.74-46.47C456.67,447.09,457,446.8,457.2,446.49ZM343.2,535l-.13,1.34c3.3.59,6.62,1.73,9.9,1.63,4.35-.14,8.07.71,11.37,3.53a10.84,10.84,0,0,0,3.41,2.27c6.73,2.16,13.56,6.56,20.27,0,1.29-1.26,3-2.9,3.07-4.43.11-2.76-.53-5.62-4.13-6.6-2.5-.68-4.75-2.23-7.22-3a9.82,9.82,0,0,0-5.28-.54C364.22,532.06,354.08,535.36,343.2,535Z" transform="translate(-1.49 -1.96)"/><path class="cls-4" d="M738.5,15.25c-.47.13-1.16.12-1.38.43-4.19,5.78-10.82,6.15-16.89,8.18-12.59,4.2-24.91,9.21-37.32,13.93-5.29,2-10.53,4.13-15.8,6.21l-2.15.52,0,0c-5,1.4-10.2,2.3-14.94,4.31-13.14,5.57-24.25,14.32-34.91,23.62C585.1,98.62,562,130.18,544.11,165.65c-8.5,16.81-13.44,34.87-18.54,52.87-3.36,11.85-6.53,23.76-9.8,35.73-4.1.37-4.56,0-4.59-4.12a148.79,148.79,0,0,0-6-39.81,8.64,8.64,0,0,1-.31-4.69c7.8-23.94,15.49-47.92,23.79-71.68,2.61-7.48,6.6-14.56,10.64-21.42,2-3.41,5.62-5.86,8.42-8.82,12.68-13.43,24.87-27.35,38.1-40.21,15.85-15.4,34.79-26.41,55.56-33.87,9.23-3.32,19.24-4.46,28.47-7.78,18.81-6.76,38.67-6.88,58-10.35l4.42-.78C737.51,9.8,737.51,9.8,738.5,15.25Z" transform="translate(-1.49 -1.96)"/><path class="cls-4" d="M665.74,273.25c-.25,3.77-.53,7.53-.74,11.3a93.39,93.39,0,0,0,3,29.17c-7.6-.28-15.21-1-22.78-.71a72.53,72.53,0,0,0-17.83,3c-7.36,2.24-14.39,5.56-21.57,8.42-.76-.26-1.59-.87-2.28-.73-14,2.75-27.86,6.14-40.71,12.69-13.39-8.69-28-14.41-44.68-18,4.52-3.44,8.31-7,12.71-9.5,7.68-4.35,15.74-8,23.63-12,5.42-2.74,6.13-5.13,3.1-10.37-1.24-2.15-2.58-4.25-3.87-6.37,14-5.59,27.75-12,43-13.56,3.5,0,7,.33,10.49-.11,14.06-1.78,27.94-.35,41.73,2.24C654.65,269.71,660.16,271.69,665.74,273.25Z" transform="translate(-1.49 -1.96)"/><path class="cls-5" d="M253.86,474.32c2.06,2.52,4.15,5,6.18,7.55,10.46,13.13,22.57,24.43,39.52,27.72,15.28,3,30,.28,41.51-11.31,3.44-3.47,5.32-8.48,8.16-13.19,5.87.62,12.68,1,19.35,2.12a47.2,47.2,0,0,0,35-7.23c11.26-7.32,21.58-15.7,27.22-28.48a58.41,58.41,0,0,0,4.87-30.87c-.81-7-1.26-14.1-1.54-21.17-.27-6.78-3.52-12.36-6.48-18.12a28.15,28.15,0,0,1-1.16-3c24.25,23,31.42,57.06,19.54,82.16-10,21.2-40.62,46.32-72.66,43.53-6.63-.58-13.17-2.61-19.67-4.29-2.38-.62-4.07-.55-5.53,1.5C337.7,515.9,323.07,520,306,517.64c-25.69-3.52-42.42-18.22-51.9-41.86A6.48,6.48,0,0,1,253.86,474.32Z" transform="translate(-1.49 -1.96)"/><path class="cls-4" d="M125.93,316.89l-14.84-7.16a37.8,37.8,0,0,0,5.43-26.46c-1.77-10.35-4.9-20.49-7.93-30.58-1.86-6.18-4.83-12-7-18.12-3.24-9.19-9.52-16.24-15.77-23.34-5.43-6.16-10.74-12.46-16.5-18.3-3.55-3.6-7.85-6.46-11.8-9.66a22.24,22.24,0,0,1-4.17-4.14c21.86,4.7,42.77,12,63.23,20.66,3,14.89,5.58,29.9,9.26,44.63,4.41,17.64,9.48,35.13,14.92,52.48,2.52,8,6.62,15.56,10.19,23.73-5.54-.93-10.89-1.88-16.25-2.71C131.81,317.47,128.86,317.22,125.93,316.89Z" transform="translate(-1.49 -1.96)"/><path class="cls-4" d="M120.69,188.38c-.74-7.07-1.37-14.15-2.29-21.19-.32-2.45.85-3.43,2.7-4.21a40,40,0,0,1,21.66-2.82c10.56,1.63,21.51,2.9,31.3,6.82,24.74,9.9,49.6,20,70.19,37.73,5.39,4.65,10.6,9.49,15.84,14.31a37.75,37.75,0,0,1,3.13,3.81c-5.69.48-10.85.72-16,1.39-7.27,1-14.5,2.22-21.74,3.35-2.7-3.35-5.09-7-8.16-10-4.26-4.1-9.18-7.51-13.55-11.51-7.86-7.19-16.2-13.82-26.1-17.73-15.36-6.07-30.95-11.67-47.82-11.91a46.1,46.1,0,0,1-5.71-.7c0,2.08.39,3.78-.08,5.18A71.71,71.71,0,0,1,120.69,188.38Z" transform="translate(-1.49 -1.96)"/><path class="cls-6" d="M185.07,307.79l-9.78,14.26c-3-5.11-6.3-10.1-9.1-15.34-8.71-16.27-14.92-33.59-20.89-51-3.05-8.9-6-17.82-9-26.74h0l-.75-2.33q0-.31,0-.62l-.73-1.62q0-.32,0-.64l-.75-2.35-1.56-22.59c1.6-8.3,4.41-9.55,13.3-8.2,5.63.86,11.26,1.75,16.86,2.78a35.37,35.37,0,0,1,5.15,1.82c-6.54,5.3-8.91,12.58-11.81,19.55l-4.47-.4a5.41,5.41,0,0,0-.21,1.58c.7,3.53,1.42,7,2.19,10.56,4.38,19.95,9.75,39.59,18.28,58.23.38.82,1.55,1.28,2.36,1.91l1,3.65Z" transform="translate(-1.49 -1.96)"/><path class="cls-7" d="M135.5,226.05q0,.31,0,.62l.75,2.33h0a30,30,0,0,0,.53,4.78c3,10.91,6.13,21.77,9.07,32.68,5.32,19.73,13.58,38.21,23.67,55.89.78,1.37,2.36,2.28,3.57,3.4l-5,13.28c-17.27-15.39-44.78-103-47.43-150.65a71.68,71.68,0,0,0,3.39-7.43c.47-1.4.08-3.09.08-5.18a46.1,46.1,0,0,0,5.71.7c16.88.24,32.46,5.84,47.82,11.91,9.9,3.91,18.24,10.54,26.1,17.73,4.37,4,9.29,7.41,13.55,11.51,3.07,3,5.47,6.62,8.16,10-3.48,1.82-6.34,1.67-9-1.8-7.58-10-17.73-17.21-27.71-24.42-5.35-3.86-12.05-5.86-18.17-8.64-13.72-6.24-28.26-7.61-43.09-7.19a2.73,2.73,0,0,0-2.07,1.27l8.38,2-3.21,11.49,1.79-1.43L134,221.44l.75,2.35q0,.32,0,.64Z" transform="translate(-1.49 -1.96)"/><path class="cls-8" d="M622.25,490c9-4.45,18.52-8.19,27-13.53,11.87-7.49,23.26-15.83,34.38-24.42,19.5-15.05,40.31-27.51,63.83-35.24a137.33,137.33,0,0,1,53.74-7c2.36.18,4.7.43,7.06.65q0,4.12,0,8.25c-34.55-2.4-66,7.79-95.58,24.4A245.54,245.54,0,0,0,678.57,466c-14.34,11.6-29.32,22-45.72,30.31-.77.39-1.59.7-2.39,1-1-1-2-2-3.09-2.9C625.67,492.94,624,491.48,622.25,490Z" transform="translate(-1.49 -1.96)"/><path class="cls-4" d="M154.26,415.06q-3.37-19.67-6.74-39.34c-.5-2.91-1-5.81-1.52-8.72,4-6.67,8.67-12.67,15.45-16.72a18.89,18.89,0,0,1,3.36-1.24,41,41,0,0,1-.29,4.84c-.83,4.74-.3,5.89,4,7.8a9.66,9.66,0,0,0,2.46.86c7.17,1,11.6,5.69,15.21,11.39.51.8.94,2.24.56,2.92-5.63,10-8.06,20.84-7.94,32.85C169.83,408.31,162.4,413.11,154.26,415.06Z" transform="translate(-1.49 -1.96)"/><path class="cls-5" d="M283.18,370.61c-2.42,20.4-6.94,40.24-17.16,58.27-4.14,7.31-9.4,14-14.26,20.89-.64.91-2,1.34-3,2q.17-12.27.35-24.55c.11-7.33,3.24-13.41,6.86-19.68a205.62,205.62,0,0,0,12.38-26.28c1.59-3.94,3.72-6.59,7.47-8.09C278.23,372.21,280.72,371.45,283.18,370.61Z" transform="translate(-1.49 -1.96)"/><path class="cls-9" d="M74.8,175.86c-5.18-1.55-10.35-3.15-15.55-4.63-7.5-2.14-14.93-4.67-22.56-6.11-5.52-1-10.74-2.39-15.59-5.19l-.57-3.57c6,.28,11.7.66,17.39.77a211.88,211.88,0,0,1,44.69,6C93,165.62,102.85,170,112.9,173.62a3.11,3.11,0,0,1,1.55,2.21c.58,5.06,1,10.14,1.5,16-2.67-1.51-4.83-2.76-7-4-9.39-5.2-18.87-10.19-29.71-11.68C77.76,176,76.27,176,74.8,175.86Z" transform="translate(-1.49 -1.96)"/><path class="cls-10" d="M174.62,280c-1-11.8-2.27-23.63.65-35.32,1.71-6.82,4.59-13.17,9.57-18.36,1.33,1.41,2.63,2.84,4,4.22,2.44,2.47,4.92,4.91,7.38,7.36-5.49,3.85-11.13,7.52-16.43,11.61-3.4,2.62-3.14,5.11.22,7.87,6.25,5.12,12.53,10.18,18.09,14.69-1.65,8.44-3,16.76-5,24.89-.66,2.65-3.17,4.85-4.83,7.25-3.05-5.82-6-11.67-9.19-17.43C177.77,284.4,176.11,282.24,174.62,280Z" transform="translate(-1.49 -1.96)"/><path class="cls-9" d="M202.37,372.3c4-7.48,11.5-8.84,19.32-10.68-1,4.68-2.24,9.05-2.95,13.49-.76,4.79-1,9.65-1.63,14.46-.2,1.49-.53,3.45-1.54,4.28-9,7.44-18.25,14.67-28.37,22.73L186.58,406a10.58,10.58,0,0,0,2.14-2.26c3.18-6.44,6.37-12.88,9.31-19.44,1.64-3.67,2.8-7.56,4.18-11.35l-.05,0c.11,0,.33-.08.33-.11A3.1,3.1,0,0,0,202.37,372.3Z" transform="translate(-1.49 -1.96)"/><path class="cls-5" d="M359,353.52a62.07,62.07,0,0,1-5,5.23c-9.71,8.12-19.52,16.13-29.28,24.19-6.25,5.16-14.55,6.41-21.1,1.91-5.58-3.84-10.33-8.88-15.42-13.42-.32-.28-.33-.91-.48-1.38,10,0,19.18,2.29,27.35,10.38.66-8.34,6.44-9.52,12-11.79s10.87-6,16-9.51A29.86,29.86,0,0,1,359,353.52Z" transform="translate(-1.49 -1.96)"/><path class="cls-11" d="M164.81,349a18.89,18.89,0,0,0-3.36,1.24c-6.78,4-11.49,10-15.45,16.72-2.69-6.13-5.14-12.38-8.16-18.35-2.56-5.08-5.77-9.82-9.38-15.87,4.55.26,8.26.19,11.87.76,5.82.92,11.57,2.27,17.36,3.39a14.64,14.64,0,0,0,2.61,0c1.87,3.69,5.9,6.41,5.11,11.3l-.65.78Z" transform="translate(-1.49 -1.96)"/><path class="cls-6" d="M159.24,216.13c.48-7.62,5.31-13,9.77-18.48.47-.58,2.61-.46,3.52.08,8.91,5.4,17.71,11,26.42,17-6.91,2.35-12.8,5.52-17.37,10.81C175.16,220,167,218.49,159.24,216.13Z" transform="translate(-1.49 -1.96)"/><path class="cls-12" d="M159.24,216.13c7.78,2.36,15.92,3.85,22.34,9.44l-1.65,2a77.53,77.53,0,0,0-16.65-4.66c.32,2.18.49,3.52.72,4.84,1.64,9.22,3.25,18.45,5,27.65.19,1,1.14,1.89,1.73,2.84q1.68,14.22,3.37,28.43c-.8-.63-2-1.09-2.36-1.91-8.53-18.64-13.89-38.28-18.28-58.23-.77-3.51-1.49-7-2.19-10.56a5.41,5.41,0,0,1,.21-1.58l4.47.4a81.69,81.69,0,0,0,3.28,27.57Z" transform="translate(-1.49 -1.96)"/><path class="cls-13" d="M287,232c-.71.49-1.38,1.33-2.15,1.42a762.61,762.61,0,0,0-88.31,16.29,19.43,19.43,0,0,1-3.71.21c10.18-8,21.82-12.57,34.31-15.77,18.48-4.74,37.12-3.83,55.81-2.95A27.29,27.29,0,0,1,287,232Z" transform="translate(-1.49 -1.96)"/><path class="cls-8" d="M586.28,511c-3.18.49-6.35,1.2-9.55,1.42-5.59.37-11.2.44-16.8.63-.94-1.84-1.87-3.68-2.81-5.51q-2.33-4.52-4.68-9c14.54,3.37,28.91,1.68,43.23-1.5a13.12,13.12,0,0,1,1.86-.15c-.68,1.5-1.06,3.27-2.1,4.46C592.52,504.63,589.34,507.75,586.28,511Z" transform="translate(-1.49 -1.96)"/><path class="cls-9" d="M586.28,511c3.07-3.21,6.24-6.33,9.15-9.68,1-1.2,1.42-3,2.1-4.46L622.25,490c1.71,1.48,3.43,2.95,5.12,4.45,1.06.94,2.06,1.93,3.09,2.9a201.84,201.84,0,0,1-41.58,13.42A18.52,18.52,0,0,1,586.28,511Z" transform="translate(-1.49 -1.96)"/><path class="cls-13" d="M209.73,298.81c-.34.71-.49,1.68-1,2.1-4.13,3.07-8,6.14-8.92,11.81-.36,2.12-2.45,3.95-3.73,5.92-4.82,7.41-9.72,14.77-14.4,22.27-3.18,5.11-6.23,10.39-2,16.47l-7.38-2.31c2.43-12.83,6.66-24.64,13.74-35.31C192,310.7,199.55,303.22,209.73,298.81Z" transform="translate(-1.49 -1.96)"/><path class="cls-7" d="M545.67,385a30.75,30.75,0,0,1-5-1.5q-20.43-10.09-40.77-20.37c-.88-.44-1.46-1.47-2.18-2.23,8.81.47,17.61.91,26.41,1.47a4.59,4.59,0,0,1,2.91,1.27C533.34,370.75,539.49,377.91,545.67,385Z" transform="translate(-1.49 -1.96)"/><path class="cls-13" d="M222.43,372.22a9.29,9.29,0,0,1,1.54,2.47c2.6,10.93,5.07,21.89,7.69,32.82a12.05,12.05,0,0,0,2,3.54c2.59,3.87,4.44,4.49,8.79,3.2a35.35,35.35,0,0,1,3.62-.7l-17.9,11.84c-1.83-6.35-3.68-11.55-4.8-16.91a92.26,92.26,0,0,1-1.16-32.56C222.38,374.7,222.36,373.45,222.43,372.22Z" transform="translate(-1.49 -1.96)"/><path class="cls-14" d="M173.1,325.75c-1.21-1.12-2.79-2-3.57-3.4-10.1-17.69-18.36-36.17-23.67-55.89-2.94-10.92-6.09-21.78-9.07-32.68a30,30,0,0,1-.53-4.78c3,8.91,6,17.84,9,26.74,6,17.4,12.18,34.72,20.89,51,2.8,5.24,6.06,10.23,9.1,15.34Z" transform="translate(-1.49 -1.96)"/><path class="cls-6" d="M196.21,237.89c-2.46-2.45-4.94-4.89-7.38-7.36-1.36-1.38-2.66-2.81-4-4.22,3.88-5.74,9.8-7.67,16.22-8.63a2.37,2.37,0,0,1,1.77.34c3.93,3.87,7.8,7.82,11.88,11.94Z" transform="translate(-1.49 -1.96)"/><path class="cls-9" d="M552.44,498.46q2.34,4.52,4.68,9c.95,1.83,1.88,3.67,2.81,5.51-10.57-.61-20.39-3.51-29.16-9.59l4.49-11.34Z" transform="translate(-1.49 -1.96)"/><path class="cls-9" d="M856.31,475.72,848,465.9l.49-1.07c6.26.43,12.52.83,18.77,1.35a2.72,2.72,0,0,1,1.68,1.27c4.6,7.42,9.65,14.7,8.57,24.14-2.58-2.53-5.37-4.88-7.68-7.64C866.18,479.63,862,476.46,856.31,475.72Z" transform="translate(-1.49 -1.96)"/><path class="cls-11" d="M562.83,336.36c12.84-6.55,26.68-9.94,40.71-12.69.69-.13,1.52.47,2.28.73l-36.38,20.15Z" transform="translate(-1.49 -1.96)"/><path class="cls-10" d="M170.73,258.25c-.59-.94-1.54-1.82-1.73-2.84-1.74-9.2-3.35-18.43-5-27.65-.24-1.32-.4-2.66-.72-4.84a77.53,77.53,0,0,1,16.65,4.66c-2.34,5.21-5.21,10.25-6.87,15.66C171.59,248,171.46,253.23,170.73,258.25Z" transform="translate(-1.49 -1.96)"/><path class="cls-15" d="M881.63,461.53c.89,5.12,2.19,10.21,2.56,15.37.53,7.26.39,14.56-2.17,21.56l-3.25-5.41c.72-1.05,2-2.08,2.06-3.16.2-6-1.07-12.05-4.94-16.47-6.67-7.62-3.82-13.86,1.32-20.31Z" transform="translate(-1.49 -1.96)"/><path class="cls-15" d="M808.25,418.73q0-4.12,0-8.25c11.8,2.24,21.81,8.14,30.92,15.61,3.81,3.12,7,6.94,10.55,10.44l-.46.46c-9.12-4.81-18.1-9.9-27.41-14.32C817.64,420.69,812.8,420,808.25,418.73Z" transform="translate(-1.49 -1.96)"/><path class="cls-8" d="M272.67,365.55c2.91-2.21,5.94-4.28,8.72-6.65,4.71-4,9.65-6.28,15.71-3l12.35,14.43-.76.93-16.4-12.08,4.6,6.06c-8.09-1.12-16-.81-23.76,3.42Z" transform="translate(-1.49 -1.96)"/><path class="cls-10" d="M196.13,294.89c-.11-7.39,2.75-14,5.2-20.91l18.94,9.24c-9.46,1.85-16.72,6.84-24,11.83Z" transform="translate(-1.49 -1.96)"/><path class="cls-13" d="M541.64,282.2c-6.6-2.47-13.17-5.05-19.83-7.39-4.19-1.47-8.51-2.56-12.77-3.83l1-8.57C523,265.52,533.3,272.3,541.64,282.2Z" transform="translate(-1.49 -1.96)"/><path class="cls-15" d="M217.92,402.33V424l-16.4-7.52Z" transform="translate(-1.49 -1.96)"/><path class="cls-8" d="M878.76,493.05l3.25,5.41-2.51,4.24c-1.18-.76-2.66-1.28-3.5-2.31-6.64-8.17-13.15-16.44-19.7-24.68,5.72.74,9.87,3.92,13.49,8.23,2.31,2.76,5.1,5.11,7.68,7.64Z" transform="translate(-1.49 -1.96)"/><path class="cls-8" d="M535.26,492.07l-4.49,11.34c-3.73-3.59-7.54-7.11-11.13-10.83a3.68,3.68,0,0,1-.38-3.27,68,68,0,0,1,3.66-6.62Z" transform="translate(-1.49 -1.96)"/><path class="cls-13" d="M202.2,372.93c-1.38,3.79-2.53,7.68-4.18,11.35-2.93,6.56-6.13,13-9.31,19.44a10.58,10.58,0,0,1-2.14,2.26c-.14-9.06,3-17.05,8.22-24.27C197,378.61,199.72,375.85,202.2,372.93Z" transform="translate(-1.49 -1.96)"/><path class="cls-12" d="M174.62,280c1.49,2.25,3.15,4.41,4.44,6.77,3.15,5.76,6.14,11.61,9.19,17.43l-3.18,3.6-9.92-17.46Z" transform="translate(-1.49 -1.96)"/><path class="cls-13" d="M306.47,215l-15.33-10.76.2-.83H309c0,1.32,0,2.89,0,4.45-4.93.3-4.91.29-2.83,5A7.48,7.48,0,0,1,306.47,215Z" transform="translate(-1.49 -1.96)"/><path class="cls-16" d="M758.11,207.9c-3.72,2-6.46,3.75-9.37,5.06-1.12.5-3.57.53-3.8,0-.82-1.77-.94-3.86-1.44-6.44Z" transform="translate(-1.49 -1.96)"/><path class="cls-16" d="M758.28,21.93,747.93,23,747.44,17C751.86,15.77,755.36,17.3,758.28,21.93Z" transform="translate(-1.49 -1.96)"/><path class="cls-16" d="M726.32,332.09l.42-8.41,9.22,5.51v1.19Z" transform="translate(-1.49 -1.96)"/><path class="cls-17" d="M542.21,366.61l-5.91-4.32.15-.82,11.68-.72.43.67Z" transform="translate(-1.49 -1.96)"/><path class="cls-16" d="M70.37,300.38l8-2.28,2,7.92-10.15-4.75Z" transform="translate(-1.49 -1.96)"/><path class="cls-16" d="M114.73,442.81l5.12-8,2.7,8Z" transform="translate(-1.49 -1.96)"/><path class="cls-15" d="M306.47,215a7.48,7.48,0,0,0-.26-2.14c-2.08-4.71-2.1-4.7,2.83-5,.22,3,.45,6.08.75,10.26Z" transform="translate(-1.49 -1.96)"/><path class="cls-8" d="M881.63,461.53l-4.43-8.42,1.65-2.69,1.3.09Z" transform="translate(-1.49 -1.96)"/><path class="cls-16" d="M17,165.75H10.84l-.72-1.09c1.29-1.09,2.63-3.09,3.87-3s2.48,2.11,3.72,3.29Z" transform="translate(-1.49 -1.96)"/><path class="cls-8" d="M194,367.28l-3.52,4.36-3-4.36Z" transform="translate(-1.49 -1.96)"/><path class="cls-13" d="M179.7,357.29l1.53.67Z" transform="translate(-1.49 -1.96)"/><path class="cls-13" d="M202.37,372.3a3.1,3.1,0,0,1,.11.55s-.21.07-.33.11A.7.7,0,0,1,202.37,372.3Z" transform="translate(-1.49 -1.96)"/><path class="cls-10" d="M196.3,295.05l-.42.3.26-.46Z" transform="translate(-1.49 -1.96)"/><path class="cls-3" d="M91.9,241.09l-.41-.42.57.26Z" transform="translate(-1.49 -1.96)"/><path class="cls-3" d="M242.63,424.62l.46-.26-.25.46Z" transform="translate(-1.49 -1.96)"/><path class="cls-15" d="M849.71,436.54l.41.59-.87-.13Z" transform="translate(-1.49 -1.96)"/><path class="cls-4" d="M164.77,349.06l.65-.78Z" transform="translate(-1.49 -1.96)"/><path class="cls-11" d="M665.74,273.25c-5.59-1.56-11.1-3.54-16.78-4.61-13.78-2.58-27.66-4-41.73-2.24-3.45.44-7,.09-10.49.11,7.92-1.94,15.82-4,23.77-5.81q19-4.42,38.07-8.66c6.65-1.49,13.33-2.88,20-4.28a24.65,24.65,0,0,1,3.53,0C674.16,255.44,669.45,264,665.74,273.25Z" transform="translate(-1.49 -1.96)"/><path class="cls-2" d="M665,44.51l2.15-.52Z" transform="translate(-1.49 -1.96)"/><path class="cls-2" d="M141.5,406.75h0Z" transform="translate(-1.49 -1.96)"/><path class="cls-18" d="M363.51,315.16H361.2l.13-1.44a44.2,44.2,0,0,0,2.14-5.32c1.09-4.12,2.21-8.27,5.65-11.05,17.16-13.88,36.25-16.31,56.72-9,5.21,1.87,10.08,4.68,15.67,7.33a50.43,50.43,0,0,1-.73-6.1c.07-11.51-3.93-22-8.38-32.27-2.91-6.74-5.92-13.44-8.88-20.15,12.92,1.57,25.57,4.23,37.39,9.89a6,6,0,0,1,3,3.76c1.24,7.35,2.39,14.74,3,22.16a55.52,55.52,0,0,1-.37,15.18c-2.26,11.35-5.29,22.55-8,33.81-6.26-5.42-13.4-9.49-21.6-10.33-12.35-1.27-24.79-1.85-37.21-2.28a70,70,0,0,0-14,1.44C378.27,312.07,370.9,313.69,363.51,315.16Z" transform="translate(-1.49 -1.96)"/><path class="cls-19" d="M361.33,313.7l-.13,1.44-2.09,0c-3.79-6.86-8-13.55-11.3-20.63a198.63,198.63,0,0,1-16.2-52.25c-1.25-7.59-2.94-15.23-3.06-22.87a350.48,350.48,0,0,1,1.37-38.05,120.9,120.9,0,0,1,5.4-25.41c2.3-7.16,6.27-13.78,9.5-20.65l.28-.5-.48.29-4.37,3.07-.8.8v-.1l-1.31.26-.39-.39,9.39-10.06-2.78-2.36.3-1.23c5.69.73,11.46,1.07,17,2.26,18,3.86,34.14,12,48.83,23.07a9.28,9.28,0,0,0,1,.56l2.19,1.61,1.56,1.39c5.07,5.46,10.17,10.89,15.19,16.39,13,14.28,22.35,30.9,29.6,48.63,6.54,16,9.92,32.84,11.36,50.05.43,5.08,1.46,10.37.54,15.26-2.61,14-4.36,28.33-12.52,40.64l-2.16,1.53,1.29-4.5c2.72-11.26,5.74-22.46,8-33.81a55.52,55.52,0,0,0,.37-15.18c-.61-7.42-1.76-14.81-3-22.16a6,6,0,0,0-3-3.76c-11.82-5.66-24.47-8.32-37.4-9.89-.47-.17-.95-.52-1.39-.48-10.24,1-20.61,1.38-30.69,3.28-11.94,2.24-22.75,7.36-30.41,17.43-1.94,2.54-3.47,5.39-5.19,8.1l.06-2.05a1.62,1.62,0,0,0,.09-.7l.23-1.4,2.14-5c10.52-10.83,23.15-18,38-20.76,6.91-1.27,14.08-1.1,21.13-1.58l3.76,0A167.86,167.86,0,0,1,463,245.18c-1.65-12.28-8.65-31.61-14.56-40.58a5.31,5.31,0,0,0-2.16-1.88c-16.53-7.2-33.6-9.37-51.31-5.44L388.24,199c-3.25.72-6.6,1.12-9.71,2.22-4.12,1.46-8.05,3.47-12.07,5.24l-12.75,9-2.6,2-.83-.87,6.51-6.88.77-.91,0,.06,12.64-8.17,14.66-4.56,6.36-1a95.9,95.9,0,0,1,35.13-1.22c6.09,1,12,3,18,4.53l.5.25-.27-.49c-1-2-1.65-4.23-2.95-6-4.86-6.62-9.89-13.12-14.93-19.59-1.2-1.54-2.47-3.42-4.14-4.13-15.26-6.52-31-8.69-47.41-5-12.6,2.85-22.58,10.1-32.14,18.2-.69.58-1.46,1.07-2.19,1.6a16.59,16.59,0,0,1,7.83-10.46,118.88,118.88,0,0,1,14.76-7.93c11.77-5.09,24-7.08,36.8-4.5,6,1.21,11.94,2.34,17.92,3.51l.5.25-.3-.46c-1.52-1.46-3-2.91-4.56-4.39-7.59-7.4-17.17-11.87-25.88-17.63a74,74,0,0,0-32.21-12.05c-1.26-.16-3.42.55-3.89,1.49-4.3,8.58-8.63,17.17-12.35,26-4.41,10.46-5.51,21.68-5.84,32.9s-.78,22.43,0,33.58c.59,8.87,3.09,17.6,4.39,26.44,2.91,19.92,11.73,37.64,20.22,55.51Z" transform="translate(-1.49 -1.96)"/><path class="cls-17" d="M458.54,322l-1.29,4.5a46.68,46.68,0,0,1-24.8,11.07c-5,.73-10.31,0-15.42-.64-8.6-1-17.19-2.21-25.72-3.73-4-.71-8.29-1.61-11.65-3.71-5.61-3.51-10.59-8-15.76-12.2-.43-.35-.28-1.4-.4-2.13,7.39-1.47,14.76-3.08,22.18-4.35a70,70,0,0,1,14-1.44c12.42.44,24.86,1,37.21,2.28C445.15,312.5,452.29,316.56,458.54,322Z" transform="translate(-1.49 -1.96)"/><path class="cls-7" d="M459.42,325c8.16-12.31,9.91-26.66,12.52-40.64.91-4.88-.12-10.17-.54-15.26C470,251.86,466.58,235,460,219c-7.25-17.73-16.58-34.35-29.6-48.63-5-5.5-10.13-10.93-15.19-16.39,2.09,1.22,4.51,2.08,6.21,3.7a186.47,186.47,0,0,1,48,74.17c4.5,12.94,6.21,26.5,8.16,40,1.44,10,.1,19.74-2,29.17s-6.9,17.89-15.16,23.74C460.25,325,459.79,324.91,459.42,325Z" transform="translate(-1.49 -1.96)"/><path class="cls-7" d="M344.83,135.31c-3.23,6.86-7.2,13.48-9.5,20.64a120.9,120.9,0,0,0-5.4,25.41,350.48,350.48,0,0,0-1.37,38.05c.12,7.64,1.81,15.27,3.06,22.87a198.63,198.63,0,0,0,16.2,52.25c3.32,7.09,7.51,13.77,11.3,20.63-3.58.6-6-.34-7.57-4.08q-6-14.25-12.77-28.19c-7.72-16-10.13-33.37-13.21-50.49-1.45-8.05-.36-16.56-.39-24.87,0-5.37.06-10.73.05-16.1,0-15.68,3.19-30.55,10.89-44.35,1.43-2.55,2.22-5.46,3.31-8.21v.1l.8-.8,4.37-3.07Z" transform="translate(-1.49 -1.96)"/><path class="cls-7" d="M413.69,152.61,411.5,151Z" transform="translate(-1.49 -1.96)"/><path class="cls-19" d="M338.14,139.15l-.51.42.13-.82Z" transform="translate(-1.49 -1.96)"/><polygon class="cls-2" points="490.66 305.94 490.72 306.17 490.55 306.15 490.66 305.94"/><polygon class="cls-2" points="483.22 332.29 483.31 332.5 483.07 332.46 483.22 332.29"/><path class="cls-20" d="M337.63,403.32c.45-3.35.62-6.24,1.24-9,1.86-8.36,9.13-12.59,17.05-9.31a36.9,36.9,0,0,1,11.35,7.59c10.22,10,15.55,22.41,16.32,36.68.59,10.88-6.29,19.14-15.34,17.64-4.28-.71-8.72-3.23-12.09-6.09C344.55,430.94,339.12,417.83,337.63,403.32ZM360.58,406c.58-.61,2.45-1.72,2.92-3.25,1.9-6.17-2.66-11.63-10-12.42-4.54-.49-7,2.55-5.56,6.93S354.68,405.63,360.58,406Z" transform="translate(-1.49 -1.96)"/><path class="cls-21" d="M284.53,425c1.26-4.39,2.08-9,3.89-13.13,2.51-5.78,8-7.34,13.32-4a24.46,24.46,0,0,1,7.17,6.42c8.45,12.19,12.41,25.66,10.38,40.6a16.24,16.24,0,0,1-.39,2.2c-3.2,11.42-12.5,13.88-20.71,5.3s-11.17-19.21-12.67-30.5c-.29-2.22-.33-4.47-.48-6.71ZM308,424c0-5.33-4.26-10.65-8.31-11.54-3-.65-5,.89-4.77,4a12.83,12.83,0,0,0,5.77,10.36c1.42.94,3.93,1.86,5.05,1.22C307.13,427.31,307.59,424.89,308,424Z" transform="translate(-1.49 -1.96)"/><path class="cls-20" d="M343.2,535c10.88.39,21-2.91,31.26-5.79a9.82,9.82,0,0,1,5.28.54c2.48.8,4.73,2.35,7.22,3,3.6,1,4.24,3.84,4.13,6.6-.06,1.52-1.78,3.17-3.07,4.43-6.71,6.52-13.53,2.12-20.27,0a10.84,10.84,0,0,1-3.41-2.27c-3.31-2.81-7-3.67-11.37-3.53-3.28.11-6.6-1-9.9-1.63Zm44.8,6.14c-2.14-4.62-5.32-6.76-9.57-7.16a3.11,3.11,0,0,0-2.51,1.69,53.26,53.26,0,0,0-.12,7.29Zm-25-4.45,9.51,5.24c0-2.06.28-3.5-.1-4.74-.26-.86-1.47-2.06-2.19-2C368.16,535.27,366.14,536,363,536.67Z" transform="translate(-1.49 -1.96)"/><path class="cls-14" d="M136.26,229l-.75-2.33Z" transform="translate(-1.49 -1.96)"/><path class="cls-14" d="M134.76,223.79l-.75-2.35Z" transform="translate(-1.49 -1.96)"/><path class="cls-14" d="M135.5,226.05l-.74-1.62Z" transform="translate(-1.49 -1.96)"/><path class="cls-22" d="M361.33,313.7l-3.14-8.19a5.91,5.91,0,0,0,.24-1.92c-.92-4.21-2.13-8.37-2.86-12.61-1.46-8.48-3-17,.27-25.47,1.72-2.71,3.25-5.56,5.19-8.1,7.66-10.07,18.47-15.19,30.41-17.43,10.08-1.89,20.45-2.27,30.69-3.28.44,0,.93.31,1.39.48,3,6.71,6,13.41,8.88,20.15,4.45,10.32,8.46,20.76,8.38,32.27a50.43,50.43,0,0,0,.73,6.1c-5.6-2.65-10.46-5.46-15.67-7.33-20.47-7.35-39.56-4.92-56.72,9-3.44,2.78-4.56,6.93-5.65,11.05A44.2,44.2,0,0,1,361.33,313.7Z" transform="translate(-1.49 -1.96)"/><path class="cls-6" d="M355.84,265.51c-3.23,8.45-1.73,17-.27,25.47.73,4.24,1.94,8.4,2.86,12.61a5.91,5.91,0,0,1-.24,1.92C349.71,287.65,340.89,269.93,338,250c-1.29-8.84-3.8-17.57-4.39-26.44-.74-11.14-.28-22.39,0-33.58s1.43-22.44,5.84-32.9c3.73-8.84,8-17.43,12.35-26,.47-.94,2.63-1.65,3.89-1.49a74,74,0,0,1,32.21,12.05c8.71,5.76,18.28,10.23,25.88,17.63,1.51,1.47,3,2.92,4.56,4.39l-.21.21c-6-1.17-12-2.3-17.92-3.51-12.77-2.58-25-.59-36.8,4.5a118.88,118.88,0,0,0-14.76,7.93,16.59,16.59,0,0,0-7.83,10.46c.73-.53,1.5-1,2.19-1.6,9.56-8.1,19.54-15.35,32.14-18.2,16.41-3.71,32.15-1.54,47.41,5,1.67.71,2.94,2.59,4.14,4.13,5,6.48,10.07,13,14.93,19.59,1.3,1.77,2,4,2.95,6l-.24.24c-6-1.54-11.92-3.57-18-4.53a95.89,95.89,0,0,0-35.13,1.23c-.36-.87-.49-2-1.12-2.56-2.66-2.42-5.45-4.71-8.24-7-3.5-2.86-7-5.67-10.93-8.79-3.14,7.14-6.1,13.69-8.89,20.31-1.63,3.87-3,7.85-4.47,11.78l0-.06-.77.91-6.51,6.88.83.87,2.6-2a67.76,67.76,0,0,1,.74,7.69c-.14,10-.68,20-.55,30,0,2.7-.91,6.23,2.31,8.27l-.23,1.4c-.1.06-.28.13-.28.18a2.93,2.93,0,0,0,.19.53Z" transform="translate(-1.49 -1.96)"/><path class="cls-6" d="M394.92,197.28c17.71-3.92,34.79-1.75,51.31,5.45a5.31,5.31,0,0,1,2.16,1.88c5.91,9,12.91,28.3,14.56,40.58A167.81,167.81,0,0,0,421.22,234c-2.58-4.63-4.7-9.6-7.83-13.82C407.54,212.32,401.11,204.89,394.92,197.28Z" transform="translate(-1.49 -1.96)"/><path class="cls-22" d="M366.46,206.41c4-1.77,7.94-3.78,12.07-5.24,3.11-1.1,6.46-1.51,9.71-2.22,6,6.37,12.23,12.52,17.87,19.18,4.19,4.94,7.6,10.55,11.35,15.86-7.05.48-14.22.31-21.13,1.58-14.82,2.73-27.45,9.93-38,20.76.21-8,.26-16.1.72-24.13a50.77,50.77,0,0,1,2-11.6C362.5,215.76,364.62,211.13,366.46,206.41Z" transform="translate(-1.49 -1.96)"/><path class="cls-12" d="M357.57,208.84c1.48-3.93,2.84-7.91,4.47-11.78,2.79-6.62,5.75-13.17,8.89-20.31,3.89,3.12,7.44,5.93,10.93,8.79,2.79,2.28,5.58,4.57,8.24,7,.63.57.76,1.69,1.12,2.56l-6.36,1-10.3-7.33-4.35,11.89Z" transform="translate(-1.49 -1.96)"/><path class="cls-12" d="M366.46,206.41c-1.84,4.72-4,9.35-5.41,14.18a50.77,50.77,0,0,0-2,11.6c-.46,8-.5,16.08-.72,24.13l-2.14,5c-3.22-2-2.28-5.56-2.31-8.27-.13-10,.41-20,.55-30a67.76,67.76,0,0,0-.74-7.69Z" transform="translate(-1.49 -1.96)"/><path class="cls-12" d="M417.46,234c-3.76-5.31-7.17-10.91-11.35-15.86-5.64-6.66-11.88-12.81-17.87-19.18l6.68-1.67c6.19,7.61,12.63,15,18.47,22.91,3.13,4.22,5.25,9.19,7.83,13.82Z" transform="translate(-1.49 -1.96)"/><path class="cls-10" d="M370.21,200.67l4.35-11.89,10.3,7.33Z" transform="translate(-1.49 -1.96)"/><path class="cls-6" d="M444.61,198.15l.27.49-.5-.25Z" transform="translate(-1.49 -1.96)"/><path class="cls-6" d="M418.35,163.66l.3.46-.5-.25Z" transform="translate(-1.49 -1.96)"/><path class="cls-7" d="M344.62,135.11l.48-.29-.28.5Z" transform="translate(-1.49 -1.96)"/><path class="cls-12" d="M356.79,209.69l.77-.91Z" transform="translate(-1.49 -1.96)"/><path class="cls-4" d="M340.24,138.18l-.8.8Z" transform="translate(-1.49 -1.96)"/><path class="cls-12" d="M355.9,263.46a2.93,2.93,0,0,1-.19-.53s.18-.12.28-.18A1.62,1.62,0,0,1,355.9,263.46Z" transform="translate(-1.49 -1.96)"/><path class="cls-23" d="M388,541.11l-12.2,1.82a53.26,53.26,0,0,1,.12-7.29,3.11,3.11,0,0,1,2.51-1.69C382.69,534.36,385.87,536.5,388,541.11Z" transform="translate(-1.49 -1.96)"/><path class="cls-2" d="M363,536.67c3.15-.71,5.17-1.39,7.22-1.52.72,0,1.93,1.16,2.19,2,.38,1.24.1,2.68.1,4.74Z" transform="translate(-1.49 -1.96)"/></g></g></svg>