<svg xmlns="http://www.w3.org/2000/svg" viewBox="0 0 401.1 361.21"><defs><style>.cls-1{fill:#0d0d11;}.cls-2{fill:#f17c03;}.cls-3{fill:#a35a27;}.cls-4{fill:#0b0b0d;}.cls-5{fill:#0f1012;}.cls-6{fill:#0e0e11;}.cls-7{fill:#110f13;}.cls-8{fill:#9f521d;}.cls-9{fill:#a05520;}.cls-10{fill:#060608;}.cls-11{fill:#a0541f;}.cls-12{fill:#f2eaea;}.cls-13{fill:#f2f0f0;}.cls-14{fill:#09090b;}.cls-15{fill:#1b1c20;}.cls-16{fill:#faefef;}</style></defs><title>Ресурс 25</title><g id="Слой_2" data-name="Слой 2"><g id="Слой_1-2" data-name="Слой 1"><path class="cls-1" d="M237,164.86c8.69,2.5,16.35,7.11,23.64,12.22,24.71,17.31,39.85,41,46.14,70.43a29,29,0,0,1,.27,4.46c-3,8.06-5.69,16.29-9.16,24.16-7.22,16.39-16.45,31.46-29.85,43.73-22.87,20.93-49.55,28.35-79.73,22-24.45-5.11-42.36-19.29-53.27-41.82a71.29,71.29,0,0,1-6-44.67,56.26,56.26,0,0,1,16.46-31.25c12.39-11.87,27.2-18,44.7-17.41,15.32.49,27.63,6.41,36.76,18.67A41.24,41.24,0,0,1,234.57,259c-2.94,15.09-14.15,25.53-29.55,27.77-13.73,2-27-5.09-30.55-19.43-3-12.16,4.36-23.54,16.78-25.18,7.55-1,14.87,4.7,15.61,12.14.23,2.37-1.31,5.51-3.19,6.33-2.22,1-3.84-.43-5.39-1.63-1.18-.91-2.07-2.19-3.25-3.09-2.81-2.16-5.72-.9-6,2.62-.11,1.28-.17,3,.52,3.85,2.1,2.72,4.18,5.8,7,7.58,9.3,5.87,23.44-2,24.65-13.37,1.75-16.45-12.77-28.31-24.89-28.73-7.52-.26-14.52.94-21.14,4.48l-1.74-1-1.24,2.87v0c-3.36-.33-5.59,1.21-7.27,4a27,27,0,0,1-3.21,3.72l.46,4.23h0c-.64.08-1.53-.07-1.86.29-2.64,2.88-3.58,6.57-3.9,10.26A38.31,38.31,0,0,0,157,266c.83,5.21.63,10.66,4.34,15.21,1.21,1.48,1,4.1,1.44,6.16,1.18.93,2.6,1.94,3.89,3.09,1.82,1.62,3.48,3.43,5.36,5,.47.39,1.49.12,2.26.15l0,.11c.1,1.76.59,3.1,2.67,3.48a4.79,4.79,0,0,1,3,1.59c1.76,2.77,4.68,2.59,7.25,3.24s5.37.51,7.63,1.63c3.76,1.87,7.2,1.36,11,.42,4.14-1,8.12-2.8,12.7-2.23,2,.25,4.27-1.24,6.27-2.25a70.72,70.72,0,0,0,6.06-3.84v-2.8l0,0c1.55.4,3,.64,4.18-.93,1.57-2.06,5.39-2.33,4.84-6.09l0,0c5.69-.11,6.89-1.38,7.78-8.21l.3.07-.3-.1c3.89,0,6.54-2,7.21-6.37,1-6.3,1.43-12.68,2.07-19,.17-1.7.16-3.42.26-5.94l6,4.84c2.45-6.65,3-5.73-2.27-9.68-1.63-1.22-4.56-5.75-5.29-8a3.72,3.72,0,0,0-.47-.87,6.21,6.21,0,0,1,0-7.25c-4.6-.07-6.47-2.6-7.34-6.35a8.19,8.19,0,0,0-1.84-3.83c-3.25-3.27-6.87-6.18-10.05-9.51-1.36-1.42-2.5-2-4.29-1.33l.12-.25-.18.21,1.44-4.28c-6,.76-9.86-1.67-11.6-6.87-3.92-.51-7.63-.53-11-1.57-4.25-1.3-8.3-2.6-12.89-2.78-6.4-.25-12.74-2.65-19.13.14-.42.18-1,0-1.48.06-2.72.51-5.45,1-8.14,1.61-4.92,1.16-9.42,4.11-14.74,3.35-3.11,2.55-5.48,5.93-9.58,7.11-1.52.44-3.52,1.3-4.11,2.54-2.17,4.52-8.52,4.76-9.82,10-4,.76-4.6,4.55-6.31,7.25l-4.24-1c4.34,5.12.9,7.93-1.49,10.67a17.26,17.26,0,0,0-4.61,12,33.43,33.43,0,0,1-1.38,9.18c-.84,3-1,5,.56,8.31l-.09,2c-1.46,0-2.12.67-2,2.14.48,5.56.85,11.13,1.45,16.67A49.63,49.63,0,0,0,114,291a26.64,26.64,0,0,1,.52,13.16c0,.19.3.47.4.62l3.28-.56c2.27,4.42,3.48,8.81,6.29,12.44,1.87,2.42,3.81,4.8,5.49,7.34,2.49,3.76,6.75,6.39,7.32,11.38,0,.12.24.22.55.49l3.24.3c2.55,4.5,6.57,6.81,10.56,8.67a24.31,24.31,0,0,1,5.6,3.54c1.81,1.51,4,3.21,6.18,3.48a20.85,20.85,0,0,1,8.15,3.18c2.24,1.31,4.51,3.07,6.95,3.45,4.68.74,9.5.64,14.3.9l.22-1.41,2,.11c0,1.5.77,1.89,2.19,2,3.27.21,6.52.67,9.79.94a23,23,0,0,0,4.49,0c5-.59,10.07-1.19,15.08-2a15.59,15.59,0,0,1,6.62-.1c2-2.91,5.46-2.73,8.33-3.51,4.82-1.3,9.13-4.89,14.18-3.24,2-1.86,4-3.18,5.18-5a11.15,11.15,0,0,1,5.37-4.09c3.2-1.42,5.9-3.42,6.64-7.17v0c4.16,1,5.63-2.82,8.47-5.28l2.74,6.6-1.82,1.92-2.73-1-1.45,6.07a2.57,2.57,0,0,1-.21.84c-1.78,0-3.54-.18-4.87,1.5-2.27,2.88-4.65,5.68-7,8.51-3-.3-5.35.1-7,3.25-.81,1.57-3,2.45-4.64,3.55-.65.44-1.87.4-2.15.94-1.75,3.41-4.5,3.28-7.63,2.11-2.54,4.21-6.21,5.89-11,5.12-1.28,3.11-3.44,4.24-6.7,4.15-2-.05-4.07,1-6.08,1.64-4.33,1.37-8.54,3.19-13.2,3.25-4.46.05-8.92-1.61-13.43.82-1.57.85-4.17-.19-6.29-.4a31.59,31.59,0,0,0-3.42-.41c-7.79.1-15.26-2-22.84-3.29-.55-.1-1-.8-1.42-1.17l.79-3.85c-2.34-1.48-4.41.35-6.31.1-5.88-.76-11.89-1.51-16.13-6.65a6.18,6.18,0,0,0-4.17-2c-2.83,0-4.4-.89-4.75-3.81-.09-.74-.78-1.41-1.14-2-5.18-.42-5.35-.24-8.91-3.67-3.38-3.25-6.35-6.94-9-9.85.45-1.94,1.25-3.36.92-4.43-.52-1.68-1.91-1-3.28-.51-1.68.59-2.85-.4-3.19-2.18-.4-2.07-.78-4.14-1-5.56-1.84-.46-3.83-.36-4.33-1.18-2.44-4-4.48-8.21-6.9-12.79L91,316c-.36-2.83,1.64-4.32,3.18-6.22L99.36,312c1-2.05,2.81-3.73.85-5.94q0-1.54-.09-3.09l.44,0,.44,0c1.47-1,1.39-2,0-2.95h0a12.62,12.62,0,0,0,.77-3.3c-.15-3.81-.45-7.61-.78-11.4-.53-6,1-12.06,0-18.09a3.63,3.63,0,0,1,0-1c.31-2.6.65-5.2.92-7.8.12-1.15-.36-2.89.23-3.37,1.75-1.42.93-3,1.16-4.66.32-2.17.84-4.7,2.21-6.24,1.95-2.19,3-4.12,1.69-6.34,1.47-1.72,3.16-2.87,3.6-4.38,1-3.49,2.8-6.59,4.21-9.87a19.53,19.53,0,0,0,.82-3.77l.69-.92c2.68.47,2.41-1.35,2.33-3l1.73-2c4.53-1,4.62-1.1,5.33-5.87l1-1c4.37-.76,5.57-1.88,5.94-5.48l1.71-1.57c1.11,3.41,1.11,3.41,4.24,3.17l-2.62-4.59,0-.12c2-.26,4.53.13,6-.91a124.8,124.8,0,0,0,10.07-8.31v-8.39c-3.32-2.15-6.91-4.89-11.63-2.66-2.29,1.08-3.51.46-5-1.83l6.78-.54c.62-1.54-1.59-3.67.83-4.38,4.32-1.26,8.41-3.62,13.06-3.35,4,.23,6.49-1.81,8.51-5.06a22.25,22.25,0,0,0,4.38-.09c.65-.13,1.11-1.23,1.66-1.88a132.93,132.93,0,0,1,26.1-2,36.91,36.91,0,0,0,5,0c.68-.07,1.31-.71,2-1.09l2.95.29c1.27,2.32,2.41,2.48,5.06.7l2,.19c.39.51.68,1.31,1.18,1.48,3.77,1.23,7.52,2.75,11.4,3.33,2.82.42,5.32.83,7.63,2.66C235.77,167.71,237,166.95,237,164.86ZM279.3,220.1c-1.45,1.18-2.69,2.16-3.9,3.19-3.24,2.76-3.2,6.18.15,8.75A41.33,41.33,0,0,0,281,235.8c.69.37,1.9-.26,4-.63l-3.73-1.72,3.6-4.31,1.94,3.91C287.76,226.07,281.57,224.35,279.3,220.1Z" transform="translate(-79.81 -156.86)"/><path class="cls-2" d="M175.14,232.31c6.61-3.54,13.62-4.74,21.14-4.48,12.13.43,26.64,12.28,24.89,28.73-1.2,11.33-15.35,19.24-24.65,13.37-2.82-1.78-4.89-4.85-7-7.58-.69-.9-.63-2.57-.52-3.85.3-3.53,3.21-4.78,6-2.62,1.18.91,2.08,2.18,3.25,3.09,1.55,1.21,3.17,2.6,5.39,1.63,1.88-.82,3.42-4,3.19-6.33-.74-7.44-8.06-13.14-15.61-12.14-12.41,1.64-19.82,13-16.78,25.18,3.59,14.34,16.81,21.43,30.55,19.43,15.4-2.25,26.61-12.68,29.55-27.77A41.24,41.24,0,0,0,227,225.42c-9.12-12.26-21.44-18.18-36.76-18.67-17.5-.56-32.31,5.54-44.7,17.41a56.26,56.26,0,0,0-16.46,31.25,71.29,71.29,0,0,0,6,44.67c10.91,22.53,28.83,36.71,53.27,41.82,30.18,6.31,56.86-1.11,79.73-22,13.4-12.26,22.63-27.34,29.85-43.73,3.47-7.87,6.13-16.09,9.16-24.16.22.23.63.45.64.69.41,6.09,1.31,12.21,1,18.27a177.11,177.11,0,0,1-2.77,21c-.46,2.7-1.84,5.25-2.8,7.86a12.35,12.35,0,0,0-2,2.07A129.66,129.66,0,0,1,275.53,333c-1,.86-1.78,1.89-2.67,2.84v0a36,36,0,0,0-3.37,2C249.17,353.14,226.37,360,201,358.24c-2-.14-4-.13-6-.19l-2-.11a11.39,11.39,0,0,0-1.77-.75c-6-1.42-12.14-2.21-17.85-4.31-28.73-10.55-47.73-30.49-56.71-59.87-2.9-9.48-3.63-19.19-3.69-29l.09-2c.26-.94.58-1.86.77-2.81,1.06-5.19,1.52-10.57,3.22-15.54,9.13-26.69,27.62-43.35,55.05-49.75,20.52-4.78,39.58-1.08,56.86,11.18a14.76,14.76,0,0,0,2.65,1.2l.18-.21-.12.25A46.28,46.28,0,0,0,234.9,210c6.89,6.44,12.74,13.64,16.2,22.49,6,15.32,6.58,30.4-2.58,44.9a10.56,10.56,0,0,0-.8,2.3l.3.1-.3-.07-7.79,8.21,0,0-9,7,0,0c-5.92,2.5-11.68,5.56-17.81,7.37a41.12,41.12,0,0,1-31.37-2.79l-7.41-3.82,0-.11a21.53,21.53,0,0,0-2-2.63c-9.27-8.82-14-19.59-13.13-32.37.32-4.85,2-9.61,3-14.42h0l10-12v0Z" transform="translate(-79.81 -156.86)"/><path class="cls-3" d="M311.25,365.92a1.06,1.06,0,0,1,.75.14c-.07,1.53.68,2.1,2.14,1.84l0,0-.47,4.29L318,371c2.51,2.33,4.66,5.49,7.62,6.77,4,1.72,6.24,5.39,10.18,7.15,3.53,1.58,6.37,4.72,9.47,7.22q18.46,14.85,36.87,29.76a27.7,27.7,0,0,1,3.21,3.61,9.39,9.39,0,0,0,.9,1.18c3.92,3.25,7.49,7.15,11.87,9.57,7.16,4,13.19,9.29,19.59,14.18,5,3.83,9.94,7.79,14.72,11.92,3.7,3.2,7,6.83,10.68,10.08,1.81,1.61,4.07,2.69,6,4.16,7.25,5.52,14.58,10.95,21.62,16.73,3.72,3.05,6.9,6.77,10.16,10-1,.77-2.63,1.4-3.05,2.5-1.1,2.88-4,4.53-4.81,7.53a7.46,7.46,0,0,1-1.59,2.48c-2.29,2.78-2.77,2.89-5.62.63-6.7-5.29-13.27-10.73-20-16-7-5.5-14.33-10.69-21.28-16.3-10-8.08-19.73-16.46-29.63-24.65-2.25-1.86-4.7-3.47-7.05-5.2.12-2.29-.47-3.8-3.22-2.89l0-.11a8.26,8.26,0,0,0-.87-2.08c-3.8-4.78-9.37-7.39-13.9-11.29-3.93-3.39-8.4-6.22-12-9.94a5.25,5.25,0,0,0-5-1.93l0,0L352,418l.41-.71-.42.7a10.28,10.28,0,0,1-8,0l-1.17.14,0,0-.19-4.73c-2.42-.93-4.43-1.11-5.35-2.2-1.4-1.67-2.89-1.1-4.44-1.17l0,0v-3.55c-1.69-.67-3.06-.93-4.05-1.68-1.52-1.15-2.69-2.76-4.18-4-5.15-4.15-10.38-8.2-15.57-12.3-1-.81-1.76-.68-2.22.58-3.72-3.15-7.35-6.41-11.18-9.42-7.08-5.57-14.33-10.92-21.41-16.5-2.69-2.12-5.09-4.62-7.62-6.94a.51.51,0,0,1-.27-.55l4.36-2.92c1.54.24,2.33-.33,2.16-2h0c1.75.13,3.48.23,2.85-2.43l.91-1.05,1.29,1.82c1.35-1.85,1.38-5.09,4.2-4.15,1.56.52,2.71,2.24,4.58,3.88l3.57-.44.11.07c0,.62-.31,1.57,0,1.8,4.21,3.44,8.45,6.83,12.8,10.09.68.51,1.9.29,2.87.41l0,0c.16,2.56,1.47,3.94,4.08,4l-.07,0Z" transform="translate(-79.81 -156.86)"/><path class="cls-4" d="M100.22,306.05c2,2.21.18,3.88-.85,5.94l-5.17-2.21c-1.54,1.9-3.54,3.39-3.18,6.22l-1,0c-4.83-9-7.41-18.75-8.93-28.7A109.82,109.82,0,0,1,88,228.71c4.55-11.27,10.44-21.79,18.81-30.76l1.22,2c-1.34.71-1.42,1.92-.39,2.64.83.58,2.11,2.24,3.23.56s2.83-1,4.3-1.16c-1.16,3.36-5.23,4.9-5.51,8.8-.67.89-1.41,1.73-2,2.67-2.31,3.7-4.58,7.44-6.86,11.16l-3-3.82c-.86,1.07-1.39,2.33-2.3,2.77-6,2.91-6.83,8.93-8.33,14.31-1.41,5.05-.77,10.64-4.21,14.93L85,256c-.71,1.09-1.74,2-1.88,3a85.7,85.7,0,0,0-1,11.78,70.85,70.85,0,0,0,1.07,14.26c1.08,5.08,1.35,10.6,5.49,15.66.61-1.4,1.34-2.28,1.3-3.12-.19-3.6-.85-7.19-.89-10.79-.1-10.26-.39-20.54.95-30.77.27-2-.51-4.4.22-6.18,1.62-3.93,1.23-8.57,4.27-12,.2-.23.43-.67.34-.88-1.93-4.48,3-6.29,3.78-9.74,0-.19.91-.2,1.39-.29-7.61,19.13-10.12,39-8.74,59.45.49,7.2,1,14.43,2.86,21.3C96.78,308.62,98.69,308,100.22,306.05Zm2.05-89.81,5.49-8.45c-3.16-.82-3.18-.84-4.64.63a27.25,27.25,0,0,1-2.21,2.49C98.1,213.11,98.21,214,102.27,216.24Zm-14,89.07c.61,3.53,1.86,5,3.5,4.15V305.1Z" transform="translate(-79.81 -156.86)"/><path class="cls-5" d="M90.05,316l1,0,1.76.11c2.42,4.58,4.46,8.81,6.9,12.79.5.82,2.49.72,4.33,1.18.27,1.42.65,3.49,1,5.56.34,1.78,1.52,2.77,3.19,2.18,1.37-.48,2.76-1.17,3.28.51.33,1.07-.47,2.49-.92,4.43,2.63,2.92,5.6,6.6,9,9.85,3.56,3.43,3.73,3.25,8.91,3.67.36.62,1.05,1.29,1.14,2,.34,2.92,1.92,3.78,4.75,3.81a6.18,6.18,0,0,1,4.17,2c4.23,5.14,10.24,5.88,16.13,6.65,1.9.25,4-1.58,6.31-.1l-.79,3.85c.43.37.87,1.08,1.42,1.17,7.58,1.33,15.05,3.4,22.84,3.29a31.59,31.59,0,0,1,3.42.41c2.13.21,4.72,1.25,6.29.4,4.51-2.43,9-.76,13.43-.82,4.66-.06,8.87-1.88,13.2-3.25,2-.64,4.07-1.69,6.08-1.64,3.26.09,5.42-1,6.7-4.15,4.82.78,8.49-.91,11-5.12,3.13,1.16,5.88,1.29,7.63-2.11.27-.53,1.5-.5,2.15-.94,1.63-1.1,3.83-2,4.64-3.55,1.63-3.15,4-3.55,7-3.25a.91.91,0,0,0,.42.81.51.51,0,0,0,.27.55c-6,3.84-11.81,8-18.05,11.45a111.63,111.63,0,0,1-60.16,14c-27.74-1.43-52.3-11.15-72.87-30.15C104.64,341.56,95.84,329.84,90.05,316Z" transform="translate(-79.81 -156.86)"/><path class="cls-6" d="M108,200l-1.22-2c9.79-12.5,22.24-21.69,36.27-28.83a99.51,99.51,0,0,1,28-9.73L171,161c-.55.66-1,1.75-1.66,1.88A22.25,22.25,0,0,1,165,163c-2,3.25-4.48,5.3-8.51,5.06-4.65-.27-8.75,2.09-13.06,3.35-2.42.7-.2,2.84-.83,4.38l-6.78.54c1.51,2.29,2.73,2.91,5,1.83,4.72-2.23,8.31.51,11.63,2.66v8.39a124.8,124.8,0,0,1-10.07,8.31c-1.51,1-4,.65-6,.91,2.54-2.11,5.11-4.19,7.6-6.36a39.86,39.86,0,0,0,5-4.77c2.5-3.09,1.16-6.84-2.77-7.48a12.19,12.19,0,0,0-6.31.6,53.78,53.78,0,0,0-8.58,4.88c-2.32,1.51-4.45,3.31-6.66,5L122,187c1.27-.29,2.93.66,4.09-1.39-2-.52-3.69-1.61-4.09,1.39-3-.41-4.26,1.68-6.39,4.34a38.62,38.62,0,0,0,4.18.28c1.43-.08,2.86-.37,4.28-.56l-6.8,8.07c-.43-1.09-.78-2.21-1.32-3.25a20.33,20.33,0,0,0-1.75-2.41L111,199q0,.5,0,1Z" transform="translate(-79.81 -156.86)"/><path class="cls-7" d="M272.86,335.87c.89-1,1.71-2,2.67-2.84a129.66,129.66,0,0,0,25.68-31.16,12.35,12.35,0,0,1,2-2.07c.21.38.68.85.59,1.14-4.15,13.06-10.08,25.2-18.8,35.87-.18.22-.59.26-.89.39l-2.74-6.6C278.49,333,277,336.84,272.86,335.87Zm14.86-9.34-.28-.18,0,.3Z" transform="translate(-79.81 -156.86)"/><path class="cls-8" d="M352.85,426.12a5.25,5.25,0,0,1,5,1.93c3.56,3.72,8,6.55,12,9.94,4.52,3.91,10.1,6.52,13.9,11.29a8.26,8.26,0,0,1,.87,2.08,11.53,11.53,0,0,1-2.65-1.21q-14.49-11.75-28.9-23.59C352.95,426.47,352.92,426.27,352.85,426.12Z" transform="translate(-79.81 -156.86)"/><path class="cls-9" d="M306.9,389.23c.46-1.26,1.19-1.39,2.22-.58,5.19,4.1,10.42,8.15,15.57,12.3,1.49,1.2,2.66,2.81,4.18,4,1,.75,2.37,1,4.05,1.68v3.55Z" transform="translate(-79.81 -156.86)"/><path class="cls-10" d="M171,161l.05-1.62c10.18-2.65,20.55-2.71,31-2.38a6.46,6.46,0,0,1,2,.85c-.65.38-1.28,1-2,1.09a36.91,36.91,0,0,1-5,0A132.93,132.93,0,0,0,171,161Z" transform="translate(-79.81 -156.86)"/><path class="cls-10" d="M237,164.86c-.05,2.09-1.28,2.85-2.81,1.64-2.32-1.83-4.81-2.24-7.63-2.66-3.88-.58-7.63-2.1-11.4-3.33-.5-.16-.79-1-1.18-1.48,2.26.22,4.62.11,6.77.71C226.26,161.29,231.64,163.14,237,164.86Z" transform="translate(-79.81 -156.86)"/><path class="cls-11" d="M290.34,348.57l-3.57.44c-1.87-1.64-3-3.36-4.58-3.88-2.82-.94-2.85,2.3-4.2,4.15l-1.29-1.82,1.16-2.46a2.57,2.57,0,0,0,.21-.84L282,341.8Z" transform="translate(-79.81 -156.86)"/><path class="cls-11" d="M306.09,360.94c-1-.12-2.19.1-2.87-.41-4.35-3.26-8.59-6.65-12.8-10.09-.29-.24,0-1.19,0-1.8Z" transform="translate(-79.81 -156.86)"/><path class="cls-8" d="M344,418a10.28,10.28,0,0,0,8,0h0l.88,8.16-9-6.9Z" transform="translate(-79.81 -156.86)"/><path class="cls-9" d="M332.88,410.09c1.55.07,3-.5,4.44,1.17.92,1.09,2.93,1.27,5.35,2.2l.19,4.73Z" transform="translate(-79.81 -156.86)"/><path class="cls-7" d="M282,341.8l-3.92,2.35,1.45-6.07,2.73,1Z" transform="translate(-79.81 -156.86)"/><path class="cls-11" d="M318,371l-4.38,1.14.47-4.29Z" transform="translate(-79.81 -156.86)"/><path class="cls-10" d="M212.06,158.85c-2.65,1.78-3.79,1.62-5.06-.7C208.71,158.22,210.6,157,212.06,158.85Z" transform="translate(-79.81 -156.86)"/><path class="cls-11" d="M310.14,364.91c-2.61-.06-3.92-1.45-4.08-4Z" transform="translate(-79.81 -156.86)"/><path class="cls-8" d="M384.66,451.48c2.75-.91,3.34.59,3.22,2.89Z" transform="translate(-79.81 -156.86)"/><path class="cls-11" d="M314.15,367.9c-1.47.26-2.22-.31-2.14-1.84Z" transform="translate(-79.81 -156.86)"/><path class="cls-11" d="M311.25,365.92l-1.18-1.05Z" transform="translate(-79.81 -156.86)"/><path class="cls-9" d="M344,418l-.1,1.24-1.07-1.11Z" transform="translate(-79.81 -156.86)"/><path class="cls-12" d="M124.65,190.28c2.21-1.67,4.34-3.48,6.66-5a53.78,53.78,0,0,1,8.58-4.88,12.19,12.19,0,0,1,6.31-.6c3.92.63,5.27,4.38,2.77,7.48a39.86,39.86,0,0,1-5,4.77c-2.49,2.16-5.06,4.24-7.6,6.36l0,.12L134.68,200,133,201.53,127,207l-1,1-5.33,5.87-1.73,2-2.33,3-.69.92c-2.65-.07-3.59,2.17-4.56,3.86-2.32,4-4.26,8.22-6.36,12.35-2.52.1-2.53,2.14-3,3.84-.83,2.91-1,6.18-4.4,8.52-.51-1.2-1.38-2.21-1.21-3a94.68,94.68,0,0,1,7.8-21.68c1.89-3.83,4.36-7.37,6.45-11.11.17-.3-.64-1.14-1-1.73.29-3.91,4.35-5.45,5.51-8.8l2.14-2.92,6.8-8.07A5.68,5.68,0,0,1,124.65,190.28Z" transform="translate(-79.81 -156.86)"/><path class="cls-7" d="M231.64,206.31a14.76,14.76,0,0,1-2.65-1.2c-17.28-12.27-36.34-16-56.86-11.18-27.43,6.39-45.93,23.06-55.05,49.75-1.7,5-2.16,10.35-3.22,15.54-.19,1-.51,1.88-.77,2.81-1.56-3.27-1.4-5.33-.56-8.31a33.43,33.43,0,0,0,1.38-9.18,17.26,17.26,0,0,1,4.61-12c2.38-2.74,5.83-5.54,1.49-10.67l4.24,1c1.71-2.7,2.32-6.5,6.31-7.25,1.3-5.21,7.65-5.45,9.82-10,.6-1.24,2.59-2.1,4.11-2.54,4.1-1.18,6.46-4.56,9.58-7.11,5.32.75,9.82-2.2,14.74-3.35,2.69-.63,5.42-1.1,8.14-1.61.48-.09,1.06.13,1.48-.06,6.38-2.79,12.73-.39,19.13-.14,4.59.18,8.64,1.48,12.89,2.78,3.39,1,7.1,1.05,11,1.57,1.73,5.2,5.62,7.64,11.6,6.87Z" transform="translate(-79.81 -156.86)"/><path class="cls-7" d="M113,264c.06,9.82.79,19.53,3.69,29,9,29.38,28,49.32,56.71,59.87,5.71,2.1,11.89,2.89,17.85,4.31a11.39,11.39,0,0,1,1.77.75l-.22,1.41c-4.8-.25-9.62-.16-14.3-.9-2.44-.38-4.71-2.14-6.95-3.45a20.85,20.85,0,0,0-8.15-3.18c-2.19-.27-4.37-2-6.18-3.48a24.31,24.31,0,0,0-5.6-3.54c-4-1.85-8-4.16-10.56-8.67l-3.24-.3c-.31-.27-.53-.37-.55-.49-.57-5-4.83-7.63-7.32-11.38-1.68-2.54-3.62-4.92-5.49-7.34-2.81-3.63-4-8-6.29-12.44l-3.28.56c-.1-.15-.45-.43-.4-.62A26.64,26.64,0,0,0,114,291a49.63,49.63,0,0,1-1.51-8.15c-.59-5.55-1-11.12-1.45-16.67C110.87,264.66,111.54,264,113,264Zm3.72,35.53-.28-.18,0,.3Z" transform="translate(-79.81 -156.86)"/><path class="cls-13" d="M109.62,210.85c.35.59,1.16,1.43,1,1.73-2.08,3.74-4.56,7.28-6.45,11.11a94.68,94.68,0,0,0-7.8,21.68c-.17.78.7,1.79,1.21,3,3.43-2.34,3.57-5.61,4.4-8.52.49-1.7.5-3.74,3-3.84-1.19,4-2.42,8.05-3.55,12.1-.83,3-1.52,6-2.27,9-1.75-.71-1.19-2.17-1-3.41.13-1,.73-1.86.77-2.8.08-2-1.09-2-2.79-1.46-.25,3.91-1.41,7.62-2,11.36-.91,5.74-.92,11.63-1.1,17.47-.07,2.3-.36,5.23.84,6.8,1.91,2.5.32,3.73-1.56,6l5.81.89,1.07,8.11-.34-.11c-.61-.4-1.56-.67-1.76-1.22a16.78,16.78,0,0,1-.55-3.52l-1,.14c-1,3.31.78,6.31,1.09,9.85l2.63-2.3a6.19,6.19,0,0,0,.9.06l.09,3.09c-1.52,1.91-3.43,2.57-6.11,1.7-1.87-6.87-2.37-14.1-2.86-21.3C89.87,266,92.39,246.13,100,227l.77-2.33c2.28-3.72,4.55-7.46,6.86-11.16C108.21,212.57,109,211.73,109.62,210.85Z" transform="translate(-79.81 -156.86)"/><path class="cls-7" d="M247.71,279.7a10.56,10.56,0,0,1,.8-2.3c9.16-14.5,8.56-29.58,2.58-44.9-3.45-8.85-9.31-16.06-16.2-22.49a46.28,46.28,0,0,1-3.19-3.65c1.78-.68,2.93-.1,4.29,1.33,3.18,3.33,6.8,6.24,10.05,9.51a8.19,8.19,0,0,1,1.84,3.83c.87,3.74,2.74,6.28,7.34,6.35a6.21,6.21,0,0,0,0,7.25,3.72,3.72,0,0,1,.47.87c.73,2.27,3.66,6.79,5.29,8,5.26,4,4.71,3,2.27,9.68l-6-4.84c-.1,2.52-.09,4.24-.26,5.94-.63,6.35-1.1,12.73-2.07,19C254.24,277.72,251.6,279.7,247.71,279.7Z" transform="translate(-79.81 -156.86)"/><path class="cls-14" d="M99.21,300.06l-1.07-8.11L97.86,286V274l.06-5a11.71,11.71,0,0,0,.94-9l.33-2.91c.75-3,1.44-6,2.27-9,1.13-4.05,2.36-8.07,3.55-12.1,2.1-4.13,4-8.35,6.36-12.35,1-1.69,1.91-3.93,4.56-3.86a19.53,19.53,0,0,1-.82,3.77c-1.41,3.28-3.19,6.38-4.21,9.87-.44,1.52-2.14,2.67-3.6,4.38,1.31,2.22.25,4.15-1.69,6.34-1.37,1.54-1.89,4.07-2.21,6.24-.24,1.62.59,3.24-1.16,4.66-.59.48-.11,2.22-.23,3.37-.27,2.6-.62,5.2-.92,7.8a3.63,3.63,0,0,0,0,1c1,6-.56,12.05,0,18.09.33,3.8.63,7.6.78,11.4A12.62,12.62,0,0,1,101,300Z" transform="translate(-79.81 -156.86)"/><path class="cls-7" d="M195,358.05c2,.06,4,0,6,.19,25.39,1.79,48.2-5.09,68.52-20.38a36,36,0,0,1,3.37-2c-.74,3.75-3.44,5.74-6.64,7.17a11.15,11.15,0,0,0-5.37,4.09c-1.19,1.84-3.19,3.15-5.18,5-5.06-1.65-9.37,1.94-14.18,3.24-2.87.77-6.3.6-8.33,3.51a15.59,15.59,0,0,0-6.62.1c-5,.8-10,1.4-15.08,2a23,23,0,0,1-4.49,0c-3.27-.26-6.52-.73-9.79-.94C195.77,359.94,195,359.55,195,358.05Z" transform="translate(-79.81 -156.86)"/><path class="cls-7" d="M174.35,295.66l7.41,3.82a41.12,41.12,0,0,0,31.37,2.79c6.13-1.81,11.88-4.87,17.81-7.37v2.8a70.72,70.72,0,0,1-6.06,3.84c-2,1-4.3,2.49-6.27,2.25C214,303.22,210,305,205.9,306c-3.8.94-7.24,1.45-11-.42-2.25-1.12-5.1-1-7.63-1.63s-5.49-.47-7.25-3.24a4.79,4.79,0,0,0-3-1.59C174.93,298.76,174.45,297.43,174.35,295.66Z" transform="translate(-79.81 -156.86)"/><path class="cls-7" d="M162.18,246.14c-1,4.8-2.7,9.57-3,14.42-.84,12.78,3.87,23.55,13.13,32.37a21.53,21.53,0,0,1,2,2.63c-.77,0-1.79.24-2.26-.15-1.87-1.55-3.54-3.36-5.36-5-1.29-1.15-2.72-2.16-3.89-3.09-.43-2.05-.23-4.68-1.44-6.16-3.7-4.55-3.51-10-4.34-15.21a38.31,38.31,0,0,1-.64-9.28c.33-3.68,1.26-7.38,3.9-10.26C160.65,246.07,161.54,246.23,162.18,246.14Z" transform="translate(-79.81 -156.86)"/><path class="cls-15" d="M279.3,220.1c2.27,4.25,8.46,6,7.53,13l-1.94-3.91-3.6,4.31,3.73,1.72c-2.12.37-3.34,1-4,.63a41.33,41.33,0,0,1-5.45-3.77c-3.35-2.57-3.4-6-.15-8.75C276.61,222.26,277.86,221.28,279.3,220.1Z" transform="translate(-79.81 -156.86)"/><path class="cls-7" d="M277.85,345l-1.16,2.46-.91,1.05-2.85,2.43h0l-2.16,2-4.36,2.92A.91.91,0,0,1,266,355c2.34-2.83,4.72-5.63,7-8.51C274.31,344.82,276.07,345,277.85,345Z" transform="translate(-79.81 -156.86)"/><path class="cls-7" d="M172.15,234.15l-10,12-.46-4.23a27,27,0,0,0,3.21-3.72C166.57,235.36,168.79,233.81,172.15,234.15Z" transform="translate(-79.81 -156.86)"/><path class="cls-7" d="M239.92,287.94l7.79-8.21C246.81,286.56,245.61,287.83,239.92,287.94Z" transform="translate(-79.81 -156.86)"/><path class="cls-7" d="M230.92,294.93l9-7c.55,3.76-3.27,4-4.84,6.09C233.91,295.57,232.46,295.33,230.92,294.93Z" transform="translate(-79.81 -156.86)"/><path class="cls-14" d="M120.67,213.89,126,208C125.3,212.79,125.2,212.9,120.67,213.89Z" transform="translate(-79.81 -156.86)"/><path class="cls-14" d="M127,207l5.94-5.48C132.61,205.13,131.41,206.25,127,207Z" transform="translate(-79.81 -156.86)"/><path class="cls-6" d="M134.68,200l1.61-1.43,2.62,4.59C135.79,203.37,135.79,203.37,134.68,200Z" transform="translate(-79.81 -156.86)"/><path class="cls-7" d="M175.14,232.31l-3,1.87,1.24-2.87Z" transform="translate(-79.81 -156.86)"/><path class="cls-4" d="M99.21,300.06,101,300h0v2.95l-.44,0-.44,0a6.21,6.21,0,0,1-.9-.06l-.36-3Z" transform="translate(-79.81 -156.86)"/><path class="cls-14" d="M116.62,218.87l2.33-3C119,217.52,119.29,219.34,116.62,218.87Z" transform="translate(-79.81 -156.86)"/><path class="cls-14" d="M101,302.95V300C102.4,301,102.47,302,101,302.95Z" transform="translate(-79.81 -156.86)"/><path class="cls-11" d="M272.93,350.94l2.85-2.43C276.41,351.17,274.68,351.07,272.93,350.94Z" transform="translate(-79.81 -156.86)"/><path class="cls-11" d="M270.78,352.9l2.16-2C273.12,352.57,272.32,353.14,270.78,352.9Z" transform="translate(-79.81 -156.86)"/><path class="cls-8" d="M352,418l.42-.7L352,418Z" transform="translate(-79.81 -156.86)"/><path class="cls-1" d="M100.76,224.67,100,227c-.48.09-1.35.1-1.39.29-.73,3.45-5.71,5.27-3.78,9.74.09.21-.14.66-.34.88-3,3.4-2.65,8-4.27,12-.74,1.79,0,4.14-.22,6.18-1.34,10.23-1.05,20.5-.95,30.77,0,3.6.7,7.19.89,10.79,0,.84-.69,1.72-1.3,3.12-4.14-5.06-4.41-10.57-5.49-15.66a70.85,70.85,0,0,1-1.07-14.26,85.7,85.7,0,0,1,1-11.78c.14-1,1.17-1.93,1.88-3l-2.08-3.17c3.44-4.29,2.8-9.88,4.21-14.93,1.5-5.37,2.3-11.39,8.33-14.31.92-.44,1.44-1.7,2.3-2.77Z" transform="translate(-79.81 -156.86)"/><path class="cls-1" d="M117.28,199.12,115.14,202c-1.47.2-3.09-.66-4.3,1.16s-2.4,0-3.23-.56c-1-.72-1-1.93.39-2.64h3v-1l3.21-5.54a20.33,20.33,0,0,1,1.75,2.41C116.5,196.91,116.85,198,117.28,199.12Z" transform="translate(-79.81 -156.86)"/><path class="cls-1" d="M102.27,216.24c-4.06-2.23-4.17-3.13-1.36-5.33a27.25,27.25,0,0,0,2.21-2.49c1.46-1.47,1.48-1.45,4.64-.63Z" transform="translate(-79.81 -156.86)"/><path class="cls-1" d="M88.22,305.31l3.5-.21v4.37C90.08,310.31,88.83,308.84,88.22,305.31Z" transform="translate(-79.81 -156.86)"/><path class="cls-1" d="M124.65,190.28a5.68,5.68,0,0,0-.57.77c-1.43.2-2.85.49-4.28.56a38.62,38.62,0,0,1-4.18-.28c2.13-2.66,3.42-4.75,6.39-4.34h0Z" transform="translate(-79.81 -156.86)"/><path class="cls-1" d="M122,187c.4-3,2.11-1.92,4.09-1.39-1.16,2.05-2.82,1.1-4.09,1.39Z" transform="translate(-79.81 -156.86)"/><path class="cls-4" d="M111,199v1Q111,199.5,111,199Z" transform="translate(-79.81 -156.86)"/><polygon class="cls-1" points="207.9 169.66 207.59 169.78 207.63 169.48 207.9 169.66"/><polygon class="cls-1" points="36.9 142.66 36.59 142.78 36.63 142.48 36.9 142.66"/><path class="cls-16" d="M97.85,279v2c-1.58,0-1.91.9-1.87,2.26S95.82,286,97.86,286l.28,5.94-5.81-.89c1.88-2.28,3.48-3.51,1.56-6-1.2-1.58-.92-4.5-.84-6.8.18-5.83.19-11.73,1.1-17.47.6-3.74,1.75-7.44,2-11.36,1.7-.56,2.87-.52,2.79,1.46,0,.94-.65,1.85-.77,2.8-.16,1.24-.73,2.7,1,3.41L98.85,260c-.55.25-1.56.49-1.57.75-.07,2.76-1.27,5.64.63,8.24l-.06,5A3.59,3.59,0,0,0,97.85,279Z" transform="translate(-79.81 -156.86)"/><path class="cls-16" d="M98.87,300l.36,3-2.63,2.3c-.31-3.54-2.1-6.54-1.09-9.85l1-.14a16.78,16.78,0,0,0,.55,3.52C97.31,299.28,98.26,299.56,98.87,300Z" transform="translate(-79.81 -156.86)"/><path class="cls-13" d="M97.92,269c-1.9-2.61-.7-5.48-.63-8.24,0-.26,1-.5,1.57-.75A11.71,11.71,0,0,1,97.92,269Z" transform="translate(-79.81 -156.86)"/><path class="cls-13" d="M97.86,286c-2,0-1.83-1.4-1.87-2.75s.28-2.3,1.87-2.26Z" transform="translate(-79.81 -156.86)"/><path class="cls-13" d="M97.85,279a3.59,3.59,0,0,1,0-5Z" transform="translate(-79.81 -156.86)"/></g></g></svg>