<svg xmlns="http://www.w3.org/2000/svg" viewBox="0 0 590.41 590.54"><defs><style>.cls-1{fill:#f06524;}.cls-2{fill:#a6cd3b;}.cls-3{fill:#f16626;}.cls-4{fill:#6aa43b;}.cls-5{fill:#ce371e;}.cls-6{fill:#190401;}.cls-7{fill:#3a1b0d;}.cls-8{fill:#381a0c;}.cls-9{fill:#180301;}.cls-10{fill:#cf381e;}</style></defs><title>Ресурс 20</title><g id="Слой_2" data-name="Слой 2"><g id="Слой_1-2" data-name="Слой 1"><path class="cls-1" d="M414.88,363.74c-2,.72-4.06,1.33-6,2.17-68.32,29.36-132.56,22-190.73-24.13-37.55-29.79-58.18-70.09-61.22-118.31-3.29-52.33,14.95-96.69,52.77-132.63,34.63-32.92,76.61-48.57,124.17-48.57,79.81,0,149.5,53.51,169.44,129.74,8,30.71,6.79,61.28-2.94,91.49-.91,2.83-1.87,5.64-2.8,8.46a47.64,47.64,0,0,0-3.37,3.45c-3.73,4.64-7.39,9.34-11.07,14a33.57,33.57,0,0,1,.68-3.85c3.93-13.32,8.54-26.48,11.7-40,3.8-16.28,3.62-33,1.23-49.45a137.28,137.28,0,0,0-17-49.6c-3-5.17-7.07-9.73-10.65-14.57l-.4-1.31-.38.26L469,132a8.74,8.74,0,0,0,.2,2c6.18,18.31,6.57,36.93,4,55.93-4.54,33-19.16,60.84-42.16,84.46A145.27,145.27,0,0,1,397,300.3c-18.79,10.38-39,15.4-60.39,13.42-19.91-1.85-38.5-8.6-55.55-19.19-20.87-13-39.92-28.09-54.94-47.8-3.89-5.11-7.62-10.33-11.42-15.5l.05-.08-.65-2.14-.83-4c.75-8.43.53-17.08,2.4-25.25,10.69-46.58,40.17-76,85.22-89.8,25.88-7.93,52.35-7.69,75.93,6.52,36.89,22.23,51.89,57.08,49.13,99.1-3.39,51.58-48.85,66.47-82.59,61.9-24.52-3.32-42.86-25.1-44.59-50.18-1.52-22.1,10.77-35.34,33-35.75,9.84-.18,18.74,2.61,27.25,7.71a25.45,25.45,0,0,0-4.2-6.7c-10.88-11.89-24.21-15.1-39.53-10.81-26.47,7.41-41.08,26.73-38,51,2.75,22,13.91,39,32.72,50.61,18.12,11.21,38.14,13.4,58.75,10.49,29.71-4.19,51.61-19.56,64.07-47.21,9.29-20.61,9.8-42.27,6.07-64.15-6.1-35.81-24.7-62.37-58.41-77.35C362,97,342.45,93.78,322.32,92.71c-32-1.71-59.58,8.54-83.21,29.72-20.26,18.15-32.6,41-38.24,67.49-4.3-16-3.32-32.11-.19-48.09,1.9-9.71,4.85-19.22,7.34-28.82l.75-1.08-.38-.26L208,113a21.84,21.84,0,0,0-3.27,3.62c-6.68,11.84-14,23.42-19.7,35.71-11.6,24.81-17.85,50.76-15.18,78.57a137.35,137.35,0,0,0,20.28,59.73c10.53,17.1,23.92,31.8,39,44.93,12.08,10.51,25.09,19.35,40.55,24.65,30.58,10.49,61.87,12.89,93.75,9.79,23.37-2.28,45.58-8.59,65.88-20.71,2.4-1.43,4.36-3.59,6.53-5.41l0,0,1.18-.74a1.09,1.09,0,0,1,.68-.27l1.31-.78,17-12,5.91-3a29,29,0,0,1-3,4.33C446.05,344.58,430.92,354.79,414.88,363.74Z" transform="translate(-156.53 -42.27)"/><path class="cls-2" d="M516.77,377.93c7.27,7.52,14.47,15.12,21.84,22.55q40.6,41,81.29,81.86,60.82,61,121.68,122c1.54,1.54,2.37,3.79,3.53,5.7l-10.88-9.85c-.56,6.13-3.17,9.87-8.87,11.18-5.47,1.25-9.89.83-14.34-3.67Q605,500.79,498.64,394.22c-1.52-1.53-3.19-2.9-4.79-4.35C496.55,379.65,505.05,375.22,516.77,377.93Z" transform="translate(-156.53 -42.27)"/><path class="cls-3" d="M516.77,377.93c-11.72-2.7-20.22,1.73-22.92,11.94L490,403c-1.05,4-2.15,7.92-3.15,11.9-3.05,12.13-8.33,15-20,10.41-5.55-2.18-10.84-5-16.22-7.61-6.73-3.23-9.24-2.77-13.38,3.46-3.39,5.11-6.18,10.62-9.43,15.84a58.18,58.18,0,0,1-6.16,8.45c-4.95,5.44-8.61,4.62-11.44-2.09-3.21-7.62-2.51-15.32-.68-23,1.38-5.82,2.93-11.6,4.54-17.36,3-10.8,5.09-21.7,4-33,4.08,7.6,3.76,15.84,2.34,23.78-1.66,9.26-4.87,18.23-6.85,27.45-1.19,5.57-2.13,11.43-1.69,17,.4,5.17,4,6.28,7.51,2.68A149.84,149.84,0,0,0,431,426.8c2.62-3.41,4.66-7.28,7.4-10.58,5-6.05,10.35-6.72,17.2-2.86,4.63,2.61,9.31,5.15,14.08,7.48,5.35,2.61,8.32,1.79,10.15-3.85,2.59-7.94,4.25-16.18,6.31-24.29l-1.52-.84-11.89,13.8c-1.56-2.28-2.93-3.62-3.51-5.25-2.11-5.92-4.62-11.81-5.78-17.93-2.28-12.1-1.26-23.63,7.83-33.34a227.8,227.8,0,0,0,18.38-21.54c7.87-10.86,13.89-22.51,7.27-36.46,8.87,2,17.65,5.05,26.62,5.79,7.58.62,15.54-.69,23-2.45,10.54-2.47,19.87-1.08,28,6,8.28,7.17,7.19,15.54-2.14,21.59-6.82,4.42-13.76,8.78-20,14-7.08,6-6.68,11.18,1.1,15.93,10.83,6.61,8.47,18.22-.13,24-7.62,5.13-15.9,5-24.47,3.57C525,378.82,520.85,378.44,516.77,377.93ZM486,348.67,485,350c1.13,1.65,2.13,3.41,3.41,4.93,7.65,9.06,17.82,14.39,28.71,18.09a61.86,61.86,0,0,0,18.48,2.84,15.85,15.85,0,0,0,15-9c2.87-5.55,1.47-9.88-4.35-12.07a11.63,11.63,0,0,0-10.84,1c-3.67,2.22-8.44,4.38-12.44,3.94-7.93-.86-15.74-3.29-23.46-5.55C494.87,352.78,490.48,350.52,486,348.67Zm38.85-17.24c1.32.75,2,1.4,2.64,1.46,17.36,1.5,31.37-5.13,42.49-18.1,1.31-1.52,2-5.88,1.23-6.43-2-1.43-5.25-2.39-7.6-1.83-2.68.63-5.33,2.73-7.31,4.82-6.94,7.35-14.71,13.33-24.34,16.73C529.7,328.87,527.6,330.11,524.83,331.43Z" transform="translate(-156.53 -42.27)"/><path class="cls-4" d="M490,403l3.82-13.11c1.6,1.45,3.27,2.82,4.78,4.35Q604.89,500.9,711,607.7c4.46,4.49,8.88,4.92,14.34,3.67,5.69-1.31,8.31-5.05,8.87-11.18L745.11,610c5.27,13.14-1.15,22.65-15.21,22.78a22.65,22.65,0,0,1-17.57-7.18q-91.45-92.22-183.34-184c-11.64-11.67-23.21-23.41-34.84-35.09C492.87,405.25,491.41,404.16,490,403Z" transform="translate(-156.53 -42.27)"/><path class="cls-5" d="M497,291.13c6.63,13.94.61,25.6-7.27,36.46a227.8,227.8,0,0,1-18.38,21.54c-9.09,9.72-10.11,21.25-7.83,33.34,1.16,6.13,3.66,12,5.78,17.93.58,1.63,2,3,3.51,5.25l11.89-13.8,1.52.84c-2.06,8.11-3.72,16.35-6.31,24.29-1.84,5.64-4.81,6.46-10.15,3.85-4.78-2.33-9.45-4.87-14.08-7.48-6.85-3.86-12.18-3.19-17.2,2.86-2.74,3.3-4.78,7.17-7.4,10.58a149.84,149.84,0,0,1-11.67,14.11c-3.56,3.61-7.12,2.5-7.51-2.68-.43-5.61.5-11.47,1.69-17,2-9.22,5.19-18.19,6.85-27.45,1.42-7.95,1.74-16.19-2.34-23.78a.69.69,0,0,1-.15-.73l-.67-2.22-.86-2.21c12.56,2.18,23.61-1,33.35-9.19,6.61-5.56,13.41-10.9,20.14-16.31,10.49-8.44,20-17.63,23.43-31.32l2.26-17.47Z" transform="translate(-156.53 -42.27)"/><path class="cls-6" d="M493.31,308c-3.46,13.69-12.94,22.88-23.43,31.32-6.73,5.42-13.53,10.75-20.14,16.31-9.75,8.21-20.79,11.37-33.35,9.19l-1.5-1.05c16-9,31.17-19.16,44.11-32.33a29,29,0,0,0,3-4.33l3.09-3.48c2.9,4.27,5.83,2.9,8.74.93a45.83,45.83,0,0,0,4.4-3.23C483.26,316.89,488.27,312.42,493.31,308Z" transform="translate(-156.53 -42.27)"/><path class="cls-7" d="M493.31,308c-5,4.44-10,8.91-15.12,13.31a45.83,45.83,0,0,1-4.4,3.23c-2.91,2-5.84,3.34-8.74-.93L462,327.07l-5.91,3a23,23,0,0,1,1.77-3.36c5.52-7.32,11.27-14.48,16.57-22,1.52-2.14,1.81-5.15,2.67-7.77l6-7.6c3.69-4.68,7.34-9.38,11.07-14a47.64,47.64,0,0,1,3.37-3.45c-.91,2.27-1.54,4.71-2.79,6.77-2.56,4.23-1.73,8,.82,11.77Q494.44,299.24,493.31,308Z" transform="translate(-156.53 -42.27)"/><path class="cls-3" d="M417.24,367l.67,2.22Z" transform="translate(-156.53 -42.27)"/><path class="cls-5" d="M483.1,289.43l-6,7.6c-9.07,8.56-17.64,17.76-27.32,25.57-21.95,17.71-46.86,28.78-75.55,28.16a176.52,176.52,0,0,1-35.46-4.89c-40.21-9.25-75-28-101.09-60.8-12.53-15.73-21.12-33.41-22.89-53.84,3.8,5.17,7.53,10.4,11.42,15.5,15,19.71,34.06,34.83,54.94,47.8,17,10.59,35.63,17.35,55.55,19.19,21.36,2,41.6-3,60.39-13.42A145.27,145.27,0,0,0,431,274.39c23-23.63,37.63-51.47,42.16-84.46,2.61-19,2.22-37.63-4-55.93a8.74,8.74,0,0,1-.2-2l0,0c3.58,4.84,7.64,9.4,10.65,14.57a137.28,137.28,0,0,1,17,49.6c2.39,16.47,2.57,33.18-1.23,49.45-3.16,13.5-7.77,26.66-11.7,40A33.57,33.57,0,0,0,483.1,289.43Z" transform="translate(-156.53 -42.27)"/><path class="cls-8" d="M200.87,189.92c5.64-26.52,18-49.33,38.24-67.49,23.63-21.18,51.21-31.43,83.21-29.72C342.45,93.78,362,97,380.51,105.2c33.72,15,52.31,41.53,58.41,77.35,3.73,21.88,3.22,43.54-6.07,64.15-12.46,27.65-34.37,43-64.07,47.21-20.61,2.91-40.63.72-58.75-10.49-18.82-11.64-30-28.61-32.72-50.61-3-24.29,11.58-43.6,38-51,15.32-4.29,28.65-1.09,39.53,10.81a25.45,25.45,0,0,1,4.2,6.7c-8.51-5.1-17.41-7.9-27.25-7.71-22.22.41-34.51,13.65-33,35.75,1.73,25.08,20.06,46.86,44.59,50.18,33.74,4.57,79.2-10.33,82.59-61.9,2.76-42-12.24-76.87-49.13-99.1C353.31,102.3,326.84,102.06,301,110c-45,13.81-74.53,43.22-85.22,89.8-1.88,8.17-1.66,16.82-2.4,25.25-.63-.72-1.52-1.33-1.85-2.16-2.89-7.35-5.64-14.76-8.53-22.11-.78-2-1.87-3.83-2.82-5.73Z" transform="translate(-156.53 -42.27)"/><path class="cls-5" d="M200.87,189.92l-.73,5.12c.12,12.25-1,24.68.64,36.72,3.51,25.19,15.64,47,31.45,66.39,41.57,51.11,95.67,69.21,160,59.19,15.19-2.37,29.55-7.48,43.63-13.47-2.17,1.82-4.13,4-6.53,5.41C409,361.39,386.81,367.7,363.44,370c-31.88,3.11-63.17.7-93.75-9.79-15.46-5.3-28.47-14.14-40.55-24.65-15.09-13.13-28.48-27.84-39-44.93a137.35,137.35,0,0,1-20.28-59.73c-2.68-27.8,3.58-53.75,15.18-78.57,5.74-12.29,13-23.86,19.7-35.71A21.84,21.84,0,0,1,208,113l0,0c-2.48,9.6-5.44,19.11-7.34,28.82C197.55,157.8,196.56,173.91,200.87,189.92Z" transform="translate(-156.53 -42.27)"/><path class="cls-9" d="M435.85,343.86c-14.08,6-28.44,11.11-43.63,13.47-64.34,10-118.45-8.08-160-59.19-15.8-19.43-27.93-41.2-31.45-66.39-1.68-12-.51-24.47-.64-36.72.95,1.91,2,3.76,2.82,5.73,2.89,7.35,5.64,14.76,8.53,22.11.33.83,1.22,1.45,1.85,2.16l.83,4,.65,2.14-.05.08c1.77,20.44,10.36,38.11,22.89,53.84,26.09,32.75,60.87,51.55,101.09,60.8a176.52,176.52,0,0,0,35.46,4.89c28.69.62,53.6-10.45,75.55-28.16,9.68-7.81,18.25-17,27.32-25.57-.86,2.61-1.15,5.63-2.67,7.77-5.3,7.47-11,14.63-16.57,22a23,23,0,0,0-1.77,3.36l-17,12-1.31.78a1.09,1.09,0,0,0-.68.27l-1.18.74Z" transform="translate(-156.53 -42.27)"/><path class="cls-5" d="M208,113l.39-1.32.38.26L208,113Z" transform="translate(-156.53 -42.27)"/><path class="cls-5" d="M469,132l-.74-1.09.38-.26L469,132Z" transform="translate(-156.53 -42.27)"/><path class="cls-5" d="M214.81,231.15l-.65-2.14Z" transform="translate(-156.53 -42.27)"/><path class="cls-5" d="M437.74,342.89l1.31-.78Z" transform="translate(-156.53 -42.27)"/><path class="cls-5" d="M435.88,343.91l1.18-.74Z" transform="translate(-156.53 -42.27)"/><path class="cls-10" d="M486,348.67c4.51,1.85,8.9,4.11,13.55,5.47,7.72,2.26,15.52,4.68,23.46,5.55,4,.44,8.77-1.72,12.44-3.94a11.63,11.63,0,0,1,10.84-1c5.82,2.19,7.22,6.52,4.35,12.07a15.85,15.85,0,0,1-15,9A61.86,61.86,0,0,1,517.11,373c-10.89-3.7-21.06-9-28.71-18.09-1.28-1.52-2.28-3.28-3.41-4.93Z" transform="translate(-156.53 -42.27)"/><path class="cls-10" d="M524.83,331.43c2.77-1.32,4.87-2.56,7.12-3.35,9.63-3.39,17.4-9.38,24.34-16.73,2-2.1,4.62-4.19,7.31-4.82,2.35-.55,5.57.4,7.6,1.83.78.55.07,4.9-1.23,6.43-11.13,13-25.13,19.6-42.49,18.1C526.79,332.83,526.15,332.18,524.83,331.43Z" transform="translate(-156.53 -42.27)"/></g></g></svg>