<svg xmlns="http://www.w3.org/2000/svg" viewBox="0 0 704.15 543.07"><defs><style>.cls-1{fill:#010000;}.cls-2{fill:#f36e16;}.cls-3{fill:#f26e16;}.cls-4{fill:#040403;}.cls-5{fill:#f36f18;}.cls-6{fill:#2d221b;}.cls-7{fill:#474646;}.cls-8{fill:#727272;}.cls-9{fill:#6a6a6a;}.cls-10{fill:#626262;}.cls-11{fill:#565656;}.cls-12{fill:#f68b44;}.cls-13{fill:#828282;}.cls-14{fill:#f9b689;}.cls-15{fill:#7b7b7b;}.cls-16{fill:#a2a2a2;}.cls-17{fill:#f8ae7d;}.cls-18{fill:#f8a56d;}.cls-19{fill:#f9be96;}.cls-20{fill:#fac3a0;}.cls-21{fill:#f79b5d;}.cls-22{fill:#f6995b;}.cls-23{fill:#8e8e8e;}.cls-24{fill:#fac5a3;}.cls-25{fill:#999;}</style></defs><title>Ресурс 21</title><g id="Слой_2" data-name="Слой 2"><g id="Слой_1-2" data-name="Слой 1"><path d="M393.6,146.5c6.32,2.3,12.77,4.3,18.93,7s12,6,18.09,9.2c.43-7.72,1.07-15.46,1.23-23.2.29-14.22.6-28.44.32-42.66-.25-12.75-1.56-25.47-1.89-38.21-.28-10.54,0-21.11.41-31.65a41,41,0,0,1,2.14-10.72c1.35-4.26,4.52-5.26,7.72-2.13a168.44,168.44,0,0,1,12.31,14c7,8.61,13.76,17.51,20.95,26a50.45,50.45,0,0,0,15.88,12.68q15.34,7.68,28.18-3.95c7.89-7.11,13.23-16,17.55-25.53,3.84-8.44,7-17.19,10.53-25.79a26,26,0,0,1,2.86-5.91A47.57,47.57,0,0,1,554.18.31h3.08c5.11,2.06,7.88,6.4,10.31,10.93C573.07,21.49,576,32.58,577.9,44a86,86,0,0,1-3.29,42.49,55.28,55.28,0,0,0-2.51,12.19c-.44,4.58,1.68,7.19,6,8.78,4.71,1.72,9.63,1.59,14.53,1.83,7.67.38,15.36.76,23,1.56a33.59,33.59,0,0,1,9.42,2.78c5.86,2.5,8.44,7.24,6.59,13.36-1.66,5.49-4.38,10.66-6.65,16-2.57,6-5.64,11.78-7.63,17.93-3.33,10.29.18,18.94,9.21,24.88,7.59,5,16.12,7.54,24.82,9.69,8,2,16.08,3.81,24,6.12a54.6,54.6,0,0,1,17,8.48c12.91,9.47,15.77,22.78,7.94,36.75-6.1,10.87-15.06,19-25.1,26-19.15,13.41-40.47,21.85-63.11,27.21a203.82,203.82,0,0,1-45.49,5.54,185.46,185.46,0,0,1-64.88-10.77c-.75-.27-1.51-.5-2.26-.75,1.28-2.87,1-5.84.59-8.83-.51-3.48-1-7-1.45-10.45-1.43-10.25-3.29-20.36-7.49-29.95a181.34,181.34,0,0,0-25.63-41.61c-19.67-24.25-42.65-44.31-72.08-56Z" transform="translate(-0.57 -0.31)"/><path d="M283.22,414.5a193.16,193.16,0,0,1-17.51,44.41c-12.05,22.25-27.41,41.9-46.76,58.29C207,527.36,194,536,178.88,540.75c-8,2.52-16.14,3.75-24.42,1.29-9.18-2.72-14.26-9.34-16.86-18.14-2.74-9.26-2.44-18.71-1.13-28.12,1.07-7.6,2.77-15.12,3.81-22.73,1.1-8.08,1.57-16.21-.67-24.22-2.62-9.36-9.23-15.1-19-15.5-7.59-.3-15.21.42-22.82.49a79.35,79.35,0,0,1-12.65-.6c-5.23-.8-8-4.15-8.58-9.42-.65-5.82.7-11.41,2.55-16.82,2.32-6.78,5.21-13.36,7.57-20.12a47.21,47.21,0,0,0,2.52-10.61c.51-5-1.75-8-6.68-9a115,115,0,0,0-13.9-2C53.46,364,40.27,357.83,28,349.32c-8.89-6.17-17.2-13-23.36-22.07A28.15,28.15,0,0,1,.9,319.16c-1.13-4,.67-6.77,4.61-8.22,4.78-1.76,9.7-1.1,14.59-.84A173.22,173.22,0,0,0,53,309.21c7.95-1.09,15.71-2.88,22.63-7.21,9-5.61,12.45-13.85,11.36-24.17-1.22-11.61-6.19-21.9-11.56-32C70.85,237.17,66,228.64,61.39,220a38.61,38.61,0,0,1-2.81-7.34c-1.29-4.42.55-7,5.11-6.35a54.17,54.17,0,0,1,14,3.48c14,6,28.23,11.9,41.72,19,25.78,13.63,52.72,24.36,80.11,34.11,3.24,1.15,6.45,2.37,9.68,3.56,0,.58,0,1.17-.1,1.75a139.67,139.67,0,0,0,4.54,54.87c8.28,28.37,24.11,52.25,45.24,72.71A145.87,145.87,0,0,0,283.22,414.5Z" transform="translate(-0.57 -0.31)"/><path class="cls-1" d="M498.65,297.76q-5.18,62.78-53.55,103.12c-.5.42-1.05.78-1.58,1.17-3.35-8.6-6.56-17.25-10.06-25.78a851.66,851.66,0,0,0-41.73-87.16A806,806,0,0,0,347,216.83c-7.33-10.51-15-20.8-22.51-31.18L336,180.08l13.1-4.72,15-3.73,16.21-1.49c4.63.3,9.28.47,13.89.93,3.52.35,7,1.07,10.5,1.62l1.43,1c.28.33.54.68.85,1a471,471,0,0,1,76.84,96.85C489,280.17,493.74,289,498.65,297.76Z" transform="translate(-0.57 -0.31)"/><path class="cls-2" d="M324.44,185.65C332,196,339.63,206.32,347,216.83a806,806,0,0,1,44.77,72.29,851.66,851.66,0,0,1,41.73,87.16c3.51,8.53,6.72,17.18,10.06,25.78l-9.69,7c-.46.33-1,.63-1.44.94l-1,.47.05,0-2.23,1.37,0,0a2.84,2.84,0,0,0-.83.17A219.84,219.84,0,0,1,397,426l-5.89,2.46c-3.37.79-6.7,1.83-10.1,2.32-6.09.87-12.23,1.42-18.35,2.1-2.13-9.8-4.14-19.63-6.4-29.41-5.8-25.14-13-49.89-21.09-74.37q-13.59-40.9-31-80.32c-5.61-12.65-11.65-25.1-17.49-37.64a3,3,0,0,0,.06-.39l1.74-1.29c5.84-4.37,11.52-9,17.57-13.05,5.81-3.9,12-7.23,18-10.81Z" transform="translate(-0.57 -0.31)"/><path class="cls-1" d="M286.69,211.13c5.84,12.54,11.89,25,17.49,37.64q17.46,39.39,31,80.32c8.13,24.48,15.29,49.24,21.09,74.37,2.26,9.77,4.27,19.6,6.4,29.41-8-.19-16,0-23.89-.66A127.19,127.19,0,0,1,304.31,424c-4.5-1.73-8.87-3.79-13.3-5.7-2.94-13.59-5.58-27.25-8.89-40.74a478.26,478.26,0,0,0-20.51-63.71c-5.2-13-10.8-25.79-16.21-38.68.31-1,.55-2,.95-2.91q4.91-11.44,9.88-22.86c.71-1.17,1.43-2.32,2.11-3.5A139.11,139.11,0,0,1,286.69,211.13Z" transform="translate(-0.57 -0.31)"/><path class="cls-2" d="M245.38,275.13c5.42,12.89,11,25.7,16.21,38.68a478.26,478.26,0,0,1,20.51,63.71c3.32,13.49,6,27.15,8.89,40.74l-7.78-3.76a146,146,0,0,1-24.37-18.7c-21.13-20.46-37-44.34-45.24-72.71a139.67,139.67,0,0,1-4.54-54.87c.06-.58.07-1.17.1-1.75,1.2-5.19,2.05-10.49,3.7-15.54,2.48-7.63,5.51-15.07,8.31-22.6.43.32,1,.56,1.27,1,.93,1.51,1.75,3.09,2.62,4.64q0,.24,0,.49a99.5,99.5,0,0,0-9.25,33.83l-.67,16.27,1.44,14.13,3.08,15,5,14.89c2.17,4,4.29,8.08,6.55,12.06.4.7,1.38,1.06,2.09,1.57.48-.82,1.3-1.61,1.39-2.48.69-7.08,1.23-14.17,1.82-21.26.14-.63.32-1.26.4-1.9.43-3.3.76-6.62,1.26-9.91.7-4.58,1.51-9.14,2.27-13.72l4.78-17.72Z" transform="translate(-0.57 -0.31)"/><path class="cls-3" d="M498.65,297.76c-4.92-8.74-9.66-17.59-14.79-26.21A471,471,0,0,0,407,174.7c-.31-.3-.57-.66-.85-1,3,.87,6,1.65,9,2.64s5.62,2.11,9,3.4c-.55-1.28-.77-1.88-1.07-2.44a49.84,49.84,0,0,0-11.89-14.15c-1.52-1.3-3.25-2.36-4.88-3.54-4.77-2.65-9.35-5.74-14.35-7.82-4.66-1.93-9.77-2.78-14.68-4.11l-.92-.41-6.62-5.73L385,144.29l1.21.32a.23.23,0,0,1,.29,0l7,2.52c29.44,11.71,52.41,31.78,72.08,56a181.34,181.34,0,0,1,25.63,41.61c4.19,9.58,6.06,19.7,7.49,29.95.48,3.48.95,7,1.45,10.45.44,3,.69,6-.59,8.83Z" transform="translate(-0.57 -0.31)"/><path class="cls-4" d="M225.07,234c-.86-1.55-1.69-3.13-2.62-4.64-.26-.43-.84-.66-1.27-1A143.91,143.91,0,0,1,266,170.9l5.43,9.93c-4.91,3.92-10,7.66-14.71,11.79A126.52,126.52,0,0,0,225.07,234Z" transform="translate(-0.57 -0.31)"/><path class="cls-4" d="M369.76,141.56l6.62,5.73L373,147l-8.9-.59-9.22.28-10.56,1.34-12.74,3c-4.49,1.47-9,2.81-13.45,4.46s-8.86,3.67-13.29,5.52l-7.16-8.7a147.14,147.14,0,0,1,43.64-10.86,166.72,166.72,0,0,1,28.26.14l.14.11.12-.12Z" transform="translate(-0.57 -0.31)"/><path class="cls-5" d="M297.65,152.31l7.16,8.7a1,1,0,0,0-.05.35c-3.77,1.94-7.67,3.67-11.29,5.85-7.32,4.41-14.49,9.07-21.73,13.63a1,1,0,0,0-.34,0L266,170.9a4.72,4.72,0,0,1,.83-1.18,141.91,141.91,0,0,1,29.79-17.24A4.28,4.28,0,0,1,297.65,152.31Z" transform="translate(-0.57 -0.31)"/><path class="cls-6" d="M397,426a219.84,219.84,0,0,0,31.44-14,2.84,2.84,0,0,1,.83-.17c-2.67,1.64-5.19,3.6-8,4.85-8,3.51-16.09,6.73-24.15,10.06Z" transform="translate(-0.57 -0.31)"/><path class="cls-7" d="M397,426l.09.71-6,1.75Z" transform="translate(-0.57 -0.31)"/><path class="cls-7" d="M393.48,147.18l-7-2.52,7.1,1.84Z" transform="translate(-0.57 -0.31)"/><path class="cls-6" d="M429.23,411.8l2.23-1.37Z" transform="translate(-0.57 -0.31)"/><path class="cls-7" d="M386.21,144.61l-1.21-.32Z" transform="translate(-0.57 -0.31)"/><path class="cls-6" d="M431.41,410.47l1-.47Z" transform="translate(-0.57 -0.31)"/><path class="cls-3" d="M369.81,141.58l-.12.12-.14-.11.15-.28Z" transform="translate(-0.57 -0.31)"/><path class="cls-8" d="M354.86,146.73l9.22-.28a4.71,4.71,0,0,1-.57,1.58q-5.95,6.71-12,13.34c-5,5.44-10,10.83-14.9,16.31-.49.54-.42,1.59-.62,2.4l-11.57,5.57-.37-.08-1.94-3a24.66,24.66,0,0,0,3.23-2.54c5.31-5.8,10.53-11.68,15.82-17.5,3.48-3.83,7-7.58,10.49-11.44C352.87,149.73,353.81,148.18,354.86,146.73Z" transform="translate(-0.57 -0.31)"/><path class="cls-9" d="M336,180.08c.19-.81.13-1.85.62-2.4,4.92-5.48,9.94-10.87,14.9-16.31q6-6.63,12-13.34a4.71,4.71,0,0,0,.57-1.58l8.9.59a5.6,5.6,0,0,1-.68,1.77c-2,2.25-4,4.42-6,6.62-5.19,5.63-10.41,11.24-15.54,16.92a14.06,14.06,0,0,0-1.61,3Z" transform="translate(-0.57 -0.31)"/><path class="cls-10" d="M349.12,175.36a14.06,14.06,0,0,1,1.61-3c5.14-5.68,10.35-11.29,15.54-16.92,2-2.2,4.07-4.37,6-6.62A5.6,5.6,0,0,0,373,147l3.38.24.92.41,3.12,3c-.43,1.12-.59,2.48-1.33,3.32-4.63,5.23-9.4,10.34-14.08,15.53a6.77,6.77,0,0,0-.85,2.1Z" transform="translate(-0.57 -0.31)"/><path class="cls-11" d="M364.15,171.62a6.77,6.77,0,0,1,.85-2.1c4.67-5.2,9.45-10.3,14.08-15.53.74-.84.9-2.2,1.33-3.32l8.44,7.32a11.12,11.12,0,0,1-1.26,2.91c-1.8,2.16-3.86,4.11-5.68,6.25a14.64,14.64,0,0,0-1.54,3Z" transform="translate(-0.57 -0.31)"/><path class="cls-12" d="M406.32,159.63c1.63,1.17,3.36,2.23,4.88,3.54a49.84,49.84,0,0,1,11.89,14.15c.3.56.51,1.16,1.07,2.44-3.4-1.29-6.17-2.45-9-3.4s-6-1.77-9-2.64l-1.43-1-5.06-5.14c1.24-1.31,2.55-2.56,3.71-3.94S405.35,161,406.32,159.63Z" transform="translate(-0.57 -0.31)"/><path class="cls-7" d="M399.69,167.54l5.06,5.14c-3.5-.55-7-1.27-10.5-1.62-4.62-.46-9.26-.63-13.89-.93a14.63,14.63,0,0,1,1.54-3c1.82-2.15,3.87-4.1,5.68-6.25a11.12,11.12,0,0,0,1.26-2.9Z" transform="translate(-0.57 -0.31)"/><path class="cls-13" d="M286.69,211.13a139.11,139.11,0,0,0-28.37,34.74c-.69,1.18-1.41,2.33-2.11,3.5-1,.2-2.27.09-2.89.67-1.79,1.67-3.26,3.69-5,5.46-2.74,2.84-5.57,5.6-8.36,8.39l-2.07-4-2-4.76a10.26,10.26,0,0,0,2-1.26c1.93-2,3.78-4,5.67-6.07,2.49-2.66,5-5.27,7.49-8,6.3-7,12.54-14,18.82-21q4.61-5.11,9.3-10.15c1.37-1.46,2.86-2.79,4.3-4.18l1.3,2.24,2,4A3,3,0,0,1,286.69,211.13Z" transform="translate(-0.57 -0.31)"/><path class="cls-14" d="M286.75,210.73l-2-4c1.07-1,2.22-1.9,3.19-3q12.64-13.89,25.22-27.83a23.17,23.17,0,0,0,1.6-2.25l3.09,3.51,4.23,5.36,1.94,3c-6,3.58-12.21,6.91-18,10.81-6.05,4.06-11.73,8.68-17.57,13.05Z" transform="translate(-0.57 -0.31)"/><path class="cls-15" d="M240,263.89c2.79-2.79,5.62-5.55,8.36-8.39,1.71-1.77,3.17-3.79,5-5.46.63-.59,1.91-.47,2.89-.67q-4.94,11.43-9.88,22.86c-.4.93-.64,1.94-.95,2.91l-.19.07-2-4.31Z" transform="translate(-0.57 -0.31)"/><path class="cls-16" d="M271.41,180.83a1,1,0,0,1,.34,0c.32.8.64,1.6,1,2.39.69,1.65,1.39,3.29,2.09,4.94-3.5,3.72-7,7.41-10.49,11.16-2.83,3.05-5.58,6.17-8.38,9.25q-11.67,12.78-23.34,25.55c-1.57,1.72-3.08,3.51-4.61,5.27l-2.91-4.94q0-.24,0-.49a126.52,126.52,0,0,1,31.62-41.35C261.43,188.49,266.5,184.75,271.41,180.83Z" transform="translate(-0.57 -0.31)"/><path class="cls-17" d="M243.18,270.89l2,4.31-4.78,17.72c-.79.28-1.82.34-2.32.88-3.58,3.84-7,7.81-10.56,11.67-2.56,2.79-5.24,5.47-7.87,8.2l-3.08-15a3.11,3.11,0,0,0,.92-.49c4.77-5.39,9.52-10.8,14.29-16.19,2.56-2.89,5.09-5.8,7.77-8.57A22.59,22.59,0,0,1,243.18,270.89Z" transform="translate(-0.57 -0.31)"/><path class="cls-14" d="M243.18,270.89a22.59,22.59,0,0,0-3.62,2.54c-2.68,2.77-5.21,5.68-7.77,8.57-4.77,5.39-9.52,10.8-14.29,16.19a3.11,3.11,0,0,1-.92.49l-1.44-14.13a5.83,5.83,0,0,0,1.3-.92c.72-.89,1.26-1.92,2-2.79,2.84-3.32,5.64-6.68,8.62-9.87,3.53-3.78,7.23-7.41,10.86-11.11l2.07,4Z" transform="translate(-0.57 -0.31)"/><path class="cls-18" d="M219.66,313.68c2.63-2.73,5.3-5.41,7.87-8.2,3.55-3.86,7-7.83,10.56-11.67.51-.54,1.54-.6,2.32-.88-.76,4.57-1.58,9.13-2.27,13.72-.5,3.29-.83,6.61-1.26,9.91-.08.64-.26,1.27-.4,1.9-.74.25-1.69.29-2.18.78-1.58,1.58-2.9,3.44-4.5,5s-3.44,2.9-5.18,4.33Z" transform="translate(-0.57 -0.31)"/><path class="cls-19" d="M237.93,259.87c-3.63,3.7-7.33,7.32-10.86,11.11-3,3.19-5.78,6.55-8.62,9.87-.74.87-1.28,1.9-2,2.79a5.83,5.83,0,0,1-1.3.92q.34-8.13.67-16.27a6.43,6.43,0,0,0,1.75-1c4.66-5.09,9.26-10.24,13.91-15.33a9.66,9.66,0,0,1,1.93-1.29L236,255.1Z" transform="translate(-0.57 -0.31)"/><path class="cls-20" d="M233.41,250.69a9.66,9.66,0,0,0-1.93,1.29c-4.66,5.09-9.25,10.24-13.91,15.33a6.43,6.43,0,0,1-1.75,1,99.5,99.5,0,0,1,9.25-33.83l2.91,4.94,3.58,6.92Z" transform="translate(-0.57 -0.31)"/><path class="cls-21" d="M224.63,328.57c1.73-1.43,3.57-2.77,5.18-4.33s2.92-3.41,4.5-5c.49-.49,1.44-.53,2.18-.78-.59,7.09-1.14,14.18-1.82,21.26-.08.86-.91,1.65-1.39,2.48-.71-.52-1.7-.88-2.09-1.57C228.92,336.65,226.8,332.59,224.63,328.57Z" transform="translate(-0.57 -0.31)"/><path class="cls-22" d="M399.69,167.54,388.84,158l-8.44-7.32-3.12-3c4.91,1.33,10,2.18,14.68,4.11,5,2.08,9.59,5.17,14.35,7.82-1,1.33-1.86,2.72-2.92,4S400.93,166.23,399.69,167.54Z" transform="translate(-0.57 -0.31)"/><path class="cls-15" d="M322.13,182.54l-4.23-5.36a14.16,14.16,0,0,0,2.26-1.67c3.78-4.13,7.47-8.35,11.25-12.48s7.85-8.42,11.73-12.67a9.54,9.54,0,0,0,1.16-2.29l10.56-1.34c-1.05,1.45-2,3-3.18,4.32-3.45,3.86-7,7.61-10.49,11.44-5.28,5.82-10.51,11.7-15.82,17.5A24.66,24.66,0,0,1,322.13,182.54Z" transform="translate(-0.57 -0.31)"/><path class="cls-13" d="M344.3,148.07a9.54,9.54,0,0,1-1.16,2.29c-3.87,4.26-7.84,8.42-11.73,12.67s-7.47,8.35-11.25,12.48a14.15,14.15,0,0,1-2.26,1.67l-3.09-3.51-1.35-2.13c5-5.33,9.94-10.63,14.83-16a48.5,48.5,0,0,0,3.27-4.5Z" transform="translate(-0.57 -0.31)"/><path class="cls-23" d="M331.55,151a48.5,48.5,0,0,1-3.27,4.5c-4.89,5.38-9.88,10.68-14.83,16l-5.68-6.68-3-3.5a1,1,0,0,1,.05-.35c4.43-1.85,8.8-3.84,13.29-5.52S327.07,152.51,331.55,151Z" transform="translate(-0.57 -0.31)"/><path class="cls-24" d="M304.76,161.36l3,3.5a2.64,2.64,0,0,1-.34.78c-3.58,3.84-7.23,7.62-10.77,11.5-5.27,5.76-10.45,11.6-15.71,17.38a8.38,8.38,0,0,1-1.77,1.16l-.38,0-4-7.47c-.7-1.65-1.4-3.29-2.09-4.94-.33-.79-.65-1.6-1-2.39,7.23-4.56,14.41-9.22,21.73-13.63C297.1,165,301,163.3,304.76,161.36Z" transform="translate(-0.57 -0.31)"/><path class="cls-23" d="M278.8,195.64l.38,0,4.32,8.81c-1.44,1.39-2.94,2.72-4.3,4.18q-4.7,5-9.3,10.15c-6.28,7-12.52,14-18.82,21-2.44,2.71-5,5.31-7.49,8-1.89,2-3.74,4.09-5.67,6.07a10.26,10.26,0,0,1-2,1.26l-2.55-4.42-1.85-4.37a12,12,0,0,0,2.15-1.47q5.64-6,11.18-12.06,10.55-11.58,21-23.21c2.5-2.76,4.95-5.56,7.47-8.31C275.16,199.35,277,197.51,278.8,195.64Z" transform="translate(-0.57 -0.31)"/><path class="cls-19" d="M283.49,204.49l-4.32-8.81a8.38,8.38,0,0,0,1.77-1.16c5.26-5.77,10.44-11.61,15.71-17.38,3.54-3.88,7.19-7.66,10.77-11.5a2.64,2.64,0,0,0,.34-.78l5.68,6.68,1.35,2.13a23.17,23.17,0,0,1-1.6,2.25Q300.62,189.86,288,203.76c-1,1.07-2.12,2-3.19,3Z" transform="translate(-0.57 -0.31)"/><path class="cls-25" d="M278.8,195.64c-1.8,1.87-3.64,3.71-5.39,5.62-2.52,2.74-5,5.54-7.47,8.31q-10.51,11.61-21,23.21-5.54,6.08-11.18,12.06a12,12,0,0,1-2.15,1.47L228,239.39c1.53-1.76,3-3.54,4.61-5.27q11.66-12.79,23.34-25.55c2.8-3.07,5.56-6.19,8.38-9.25,3.47-3.74,7-7.44,10.49-11.16Z" transform="translate(-0.57 -0.31)"/></g></g></svg>