<svg xmlns="http://www.w3.org/2000/svg" viewBox="0 0 446.39 275.56"><defs><style>.cls-1{fill:#000001;}.cls-2{fill:#8e42c2;}.cls-3{fill:#010001;}.cls-4{fill:#8d42c2;}.cls-5{fill:#8c42c0;}.cls-6{fill:#050505;}.cls-7{fill:#8e44c1;}.cls-8{fill:#777;}.cls-9{fill:#6b6b6b;}.cls-10{fill:#616161;}.cls-11{fill:#545454;}.cls-12{fill:#a468ce;}.cls-13{fill:#464647;}.cls-14{fill:#c8a4e1;}.cls-15{fill:#be93dc;}.cls-16{fill:#858585;}.cls-17{fill:#7b7b7b;}.cls-18{fill:#a3a3a3;}.cls-19{fill:#ceaee4;}.cls-20{fill:#c6a0e0;}.cls-21{fill:#b684d8;}.cls-22{fill:#af7bd4;}.cls-23{fill:#d0b2e6;}.cls-24{fill:#838383;}.cls-25{fill:#8d8d8d;}.cls-26{fill:#9a9a9a;}.cls-27{fill:#929292;}</style></defs><title>Ресурс 23</title><g id="Слой_2" data-name="Слой 2"><g id="Слой_1-2" data-name="Слой 1"><path class="cls-1" d="M259.12,383.71l-10.59-17c-2.59,3.64-5.27,7.48-8,11.27-4,5.48-8.26,10.76-11.92,16.44-7.87,12.25-15.19,24.87-23.22,37A125.11,125.11,0,0,1,192,447.87c-3,3.24-4.92,2.55-6.33-1.81-.79-2.43-.76-5.15-1-7.74-.34-4-.55-8-.87-11.93-.7-8.65-1-17.39-4.44-25.56-4.3-10.28-12.86-14.22-24.2-10.78s-21.43,9.69-31,16.75a26.3,26.3,0,0,1-4.17,2.67c-4.69,2.25-8.1.24-8.56-5-.71-8,1.67-15.37,4.18-22.87,4.34-12.95,12.48-22.77,23.19-30.78.27-.2.57-.36.81-.58,5.87-5.34,5.88-8.46-.11-13.53-4.48-3.79-9.48-7-14-10.69a41.32,41.32,0,0,1-7.08-7.46c-2.82-3.87-2.26-7.52,1.58-10.48,3.22-2.49,6.84-4.47,10.31-6.64,2.63-1.64,5.38-3.08,7.93-4.83,9.3-6.4,10.53-13.45,4.94-23.16-3.6-6.24-9.25-11.28-13.78-17-3.91-4.95-8.15-9.78-11.1-15.28s-4.45-11.71-1.33-17.77c3.47-6.72,9.64-10,16.67-11.9a69.24,69.24,0,0,1,25.93-2.22c8.82,1,17.53,3.11,26.22,5,11.52,2.51,22,7.88,32.1,13.54a113.69,113.69,0,0,1,20.75,14.87c7.46,6.76,13.9,14.63,20.78,22a39.32,39.32,0,0,0-3.4,4.46c-6.64,11.77-11.31,24-12.15,37.85a160.41,160.41,0,0,0,1.5,33.82,115,115,0,0,0,10,33.32C256.85,377.24,257.88,380.53,259.12,383.71Z" transform="translate(-111.34 -208.9)"/><path d="M430.95,280.74c11.46-8.89,23.36-17.22,36.83-22.67,8.66-3.51,17.9-5.59,26.93-8.16,9.9-2.82,20.11-3.19,30.26-2.57,8.13.5,16.2,2,23.39,6.38,10.4,6.4,11.44,15.38,6.54,25.71-3.5,7.36-8.95,13.08-14.59,18.75s-11.08,11.36-14,19.16c-2.17,5.82-.42,10.43,3.47,14.08s8.56,6.24,12.92,9.27c2.55,1.76,5.27,3.29,7.7,5.2,4.5,3.54,5.14,8.36,1,12.3-5,4.8-10.69,8.95-16.06,13.39-2.55,2.11-5.34,4-7.55,6.42-2.64,2.88-2.37,5.34.38,8.15a54.13,54.13,0,0,0,5.47,4.87c9.09,7,14.28,16.67,18.31,27.12a54,54,0,0,1,4,21.22c-.2,6.75-4.18,9.07-9.88,5.51-6.44-4-12.58-8.54-19-12.53-5.59-3.45-11.44-6.21-18.15-7.34-10.48-1.76-17.05,4-19.79,11.28a72.63,72.63,0,0,0-3.91,15.59c-1.17,8.44-1.64,17-2.42,25.46a2.56,2.56,0,0,1-.27,1c-1.11,2.06-2.25,4.11-3.37,6.16-1.89-1.24-4.17-2.13-5.6-3.77-8.19-9.37-14.24-20.16-20.39-30.93C446.91,438.72,440,428,433,417.42c-5.35-8.12-11.23-15.9-16.88-23.82a19.4,19.4,0,0,1,1.66-3.12c11.42-14.47,19-30.48,21.42-49a113.89,113.89,0,0,0-4.86-52.41C433.33,286.23,432.07,283.51,430.95,280.74Z" transform="translate(-111.34 -208.9)"/><path class="cls-1" d="M261.19,263.89c11.26-14.3,25.22-25.2,42.12-31.88,9.59-3.79,19.64-6.41,30.1-6.72-1.7,8.55-3.46,17.09-5.1,25.66-1.87,9.78-4,19.52-5.36,29.37-1.56,11.46-2.58,23-3.49,34.54s-1.82,22.94-2,34.43c-.21,15,.32,30,.54,45l-9.33-.71-12-3.31-9.3-4-9.45-6-10.06-8.66-.69-1.38-.44-1.46,0,0c-.31-1.62-.68-3.23-.92-4.86-1.37-9.39-3-18.75-4-28.18-1.16-11.65-2-23.36-2.42-35.06-.25-7.16.57-14.35.93-21.53C260.6,274,260.91,269,261.19,263.89Z" transform="translate(-111.34 -208.9)"/><path class="cls-2" d="M318,394.23c-.21-15-.74-30-.54-45,.16-11.48,1.07-23,2-34.43s1.93-23.08,3.49-34.54c1.35-9.85,3.49-19.6,5.36-29.37,1.64-8.56,3.39-17.11,5.1-25.66,5.26,0,10.57-.54,15.77,0s10,2.45,15.14,3.08c8.31,1,15.63,4.51,22.9,8.23,1.73.89,3.32,2.06,5,3.1-3.28,8.46-6.84,16.83-9.78,25.41-4.66,13.6-9.25,27.24-13.23,41.05-3.91,13.59-7.24,27.36-10.41,41.14-2.18,9.47-3.67,19.1-5.41,28.66-1.15,6.31-2.19,12.63-3.28,18.95a19.39,19.39,0,0,1-3.59.61c-9.26-.14-18.52-.36-27.78-.56Z" transform="translate(-111.34 -208.9)"/><path class="cls-3" d="M350.09,394.9c1.09-6.32,2.13-12.64,3.28-18.95,1.74-9.57,3.24-19.19,5.41-28.66,3.17-13.79,6.5-27.56,10.41-41.14,4-13.81,8.57-27.45,13.23-41.05,2.94-8.58,6.5-16.95,9.78-25.41,5.62,4,11.58,7.68,16.78,12.21,7.79,6.78,14.44,14.65,18.91,24.12-4.11,10.38-8.85,20.57-12.17,31.2-5,16-9.14,32.29-13.39,48.52-1.53,5.86-2.33,11.92-3.47,17.88l-.72,1.27-17.36,10.64c-1.12.47-2.28.86-3.36,1.42-8.58,4.41-17.89,6.33-27.26,8Z" transform="translate(-111.34 -208.9)"/><path class="cls-4" d="M398.85,373.61c1.14-6,1.93-12,3.47-17.88,4.25-16.23,8.39-32.51,13.39-48.52,3.32-10.63,8.07-20.82,12.17-31.2l3.06,4.74c1.12,2.77,2.39,5.49,3.35,8.31a113.89,113.89,0,0,1,4.86,52.41c-2.44,18.53-10,34.54-21.42,49a19.4,19.4,0,0,0-1.66,3.12c-6.67,5.16-13.33,10.34-20,15.47a18.39,18.39,0,0,1-2.84,1.49l.24-4.19a3,3,0,0,0,.16-.62,69.64,69.64,0,0,0,24.71-23.49L425,369.54l4.67-12a37.24,37.24,0,0,0,1.5-16.56,35.25,35.25,0,0,0-5.37,5.44c-3.7,4.53-7.34,9.11-11,13.66-2.11,1.89-4.17,3.84-6.33,5.67C405.27,368.38,402,371,398.85,373.61Z" transform="translate(-111.34 -208.9)"/><path class="cls-5" d="M261.19,263.89c-.28,5.07-.59,10.13-.85,15.2-.37,7.18-1.18,14.37-.93,21.53.41,11.7,1.26,23.4,2.42,35.06.94,9.43,2.61,18.79,4,28.18.24,1.63.61,3.24.92,4.86l-7.88-8.42c-.77,5.9-.51,11.41,2.36,16.6,2.44,7.24,5.82,13.88,12,18.74l.72,1.27.65.75-.05,0,.24,3.17c-4.08-4.21-8.18-8.4-12.22-12.64-1-1-1.75-2.22-2.62-3.33l-.78-1.21v.09c-1.24-3.18-2.28-6.47-3.76-9.53a115,115,0,0,1-10-33.32,160.41,160.41,0,0,1-1.5-33.82c.84-13.82,5.51-26.08,12.15-37.85a39.32,39.32,0,0,1,3.4-4.46Z" transform="translate(-111.34 -208.9)"/><path class="cls-6" d="M393.45,406.38l-.24,4.19c-6,3-11.94,6.31-18.11,9a71.38,71.38,0,0,1-13.19,4.06c-5.23,1.14-10.59,1.69-15.89,2.49q.41-4.17.81-8.34A101.68,101.68,0,0,0,393.45,406.38Z" transform="translate(-111.34 -208.9)"/><path class="cls-6" d="M274.75,400.8l-.24-3.17h.72l6,4.7,9.27,4.69,9.77,4.08,19.52,4.79a.74.74,0,0,0,.25.4l.68,7.51c-7.18-2.28-14.5-4.23-21.52-6.92-9-3.44-16.85-8.84-24-15.26l-.5-.78Z" transform="translate(-111.34 -208.9)"/><path class="cls-7" d="M320.75,423.79l-.68-7.51c.33,0,.67,0,1,0l25.58,1.23.18.24q-.4,4.17-.81,8.34C337.56,425.61,329,426.25,320.75,423.79Z" transform="translate(-111.34 -208.9)"/><path class="cls-1" d="M259.13,383.62l.78,1.21Z" transform="translate(-111.34 -208.9)"/><path class="cls-5" d="M274.72,400.83l.5.78Z" transform="translate(-111.34 -208.9)"/><path class="cls-8" d="M290.52,407l-9.27-4.69c.83-.7,1.55-1.81,2.49-2,7.39-1.84,14.82-3.48,22.22-5.28a11.93,11.93,0,0,0,2.73-1.49l9.33.71.7.71-.19,4.64c-8.41,2-16.82,3.93-25.21,6A13,13,0,0,0,290.52,407Z" transform="translate(-111.34 -208.9)"/><path class="cls-9" d="M308.69,393.52A11.93,11.93,0,0,1,306,395c-7.4,1.79-14.84,3.44-22.22,5.28-.94.23-1.67,1.34-2.49,2l-6-4.7c.8-.61,1.52-1.54,2.41-1.78,5.7-1.5,11.44-2.82,17.15-4.29.69-.18,1.23-.89,1.84-1.35Z" transform="translate(-111.34 -208.9)"/><path class="cls-10" d="M296.65,390.21c-.61.46-1.16,1.17-1.84,1.35-5.71,1.47-11.45,2.79-17.15,4.29-.9.24-1.61,1.17-2.41,1.78h-.72l.05,0-.65-.75-.72-1.27-.75-5.32,14.9-4.11Z" transform="translate(-111.34 -208.9)"/><path class="cls-11" d="M287.34,386.2l-14.9,4.11L270,382.21l7.86-2Z" transform="translate(-111.34 -208.9)"/><path class="cls-12" d="M261.21,376.89c-2.87-5.18-3.13-10.69-2.36-16.6l7.88,8.42,0,0,.44,1.46.69,1.38,0,3.31Z" transform="translate(-111.34 -208.9)"/><path class="cls-13" d="M267.79,374.89l0-3.31,10.06,8.66-7.86,2Z" transform="translate(-111.34 -208.9)"/><path class="cls-5" d="M267.14,370.2l-.44-1.46Z" transform="translate(-111.34 -208.9)"/><path class="cls-14" d="M318.54,399.58l.19-4.64c9.26.2,18.52.42,27.78.56a19.39,19.39,0,0,0,3.59-.61l.07.06-.61,4-.91,3.37c-2,.33-3.93.59-5.86,1-7.77,1.65-15.53,3.34-23.3,5l-.75-2.69Z" transform="translate(-111.34 -208.9)"/><path class="cls-15" d="M398.85,373.61c3.19-2.63,6.41-5.22,9.56-7.9,2.16-1.83,4.22-3.77,6.33-5.67,1.29-.18,2.59-.32,3.88-.55,3.67-.65,7.33-1.32,11-2l-4.67,12c-3.44.67-6.89,1.31-10.33,2-5.38,1.09-10.75,2.22-16.12,3.33a.26.26,0,0,0-.36,0Z" transform="translate(-111.34 -208.9)"/><path class="cls-16" d="M349.54,398.93l.61-4c9.38-1.69,18.68-3.61,27.26-8,1.08-.55,2.24-.95,3.36-1.42,1.36.13,2.79.6,4.06.33,3.82-.83,7.57-2,11.35-3l.24,3.37-.31,2.63c-8.63,1.81-17.27,3.59-25.89,5.45C363.32,395.83,356.43,397.4,349.54,398.93Z" transform="translate(-111.34 -208.9)"/><path class="cls-17" d="M396.19,382.89c-3.78,1-7.53,2.13-11.35,3-1.27.28-2.7-.2-4.06-.33l17.36-10.64a.26.26,0,0,1,.36,0Z" transform="translate(-111.34 -208.9)"/><path class="cls-18" d="M393.45,406.38a101.68,101.68,0,0,1-46.62,11.39l-.18-.24,1.4-5.9c4.84-1.05,9.7-2,14.52-3.17,10.53-2.47,21-5,31.56-7.53l-.51,4.83A3,3,0,0,1,393.45,406.38Z" transform="translate(-111.34 -208.9)"/><path class="cls-19" d="M393.61,405.76l.51-4.83.62-4.68.32-3.92,1-3.43.31-2.63c5.53-1.38,11-2.87,16.6-4.08,1.68-.37,3.53,0,5.3.08A69.64,69.64,0,0,1,393.61,405.76Z" transform="translate(-111.34 -208.9)"/><path class="cls-20" d="M418.32,382.27c-1.77,0-3.62-.44-5.3-.08-5.57,1.21-11.07,2.7-16.6,4.08q-.12-1.69-.24-3.37l2.32-8c5.37-1.11,10.74-2.24,16.12-3.33,3.44-.7,6.89-1.34,10.33-2Z" transform="translate(-111.34 -208.9)"/><path class="cls-21" d="M429.62,357.51c-3.67.67-7.33,1.35-11,2-1.28.23-2.58.37-3.88.55,3.66-4.56,7.31-9.13,11-13.66a35.25,35.25,0,0,1,5.37-5.44A37.24,37.24,0,0,1,429.62,357.51Z" transform="translate(-111.34 -208.9)"/><path class="cls-22" d="M267.79,374.89l2.25,7.32,2.41,8.09.75,5.33c-6.17-4.86-9.55-11.5-12-18.74Z" transform="translate(-111.34 -208.9)"/><path class="cls-6" d="M273.92,396.9l.65.75Z" transform="translate(-111.34 -208.9)"/><path class="cls-23" d="M348,411.62l-1.4,5.9-25.58-1.23c-.33,0-.67,0-1,0a.74.74,0,0,1-.25-.4l-.34-7.56c7.77-1.68,15.53-3.37,23.3-5,1.94-.41,3.91-.67,5.86-1l.14.65-.54,3.37Z" transform="translate(-111.34 -208.9)"/><path class="cls-24" d="M318.54,399.58l.19,6c-4.79,1.18-9.59,2.3-14.35,3.58a25.8,25.8,0,0,0-4.08,1.88L290.52,407a13,13,0,0,1,2.81-1.46C301.72,403.51,310.13,401.56,318.54,399.58Z" transform="translate(-111.34 -208.9)"/><path class="cls-25" d="M300.29,411.09a25.8,25.8,0,0,1,4.08-1.88c4.76-1.29,9.56-2.4,14.35-3.58l.75,2.69q.17,3.78.34,7.56Z" transform="translate(-111.34 -208.9)"/><path class="cls-25" d="M348.78,403l-.14-.65.9-3.37c6.89-1.53,13.77-3.1,20.67-4.58,8.62-1.85,17.26-3.63,25.89-5.45l-1,3.43c-2.91.6-5.82,1.13-8.71,1.8Q367.56,398.51,348.78,403Z" transform="translate(-111.34 -208.9)"/><path class="cls-26" d="M348,411.62q.1-2.65.2-5.31a12.58,12.58,0,0,0,3.11.06q21.71-5,43.39-10.13l-.62,4.68c-10.52,2.51-21,5.06-31.56,7.53C357.74,409.59,352.88,410.57,348,411.62Z" transform="translate(-111.34 -208.9)"/><path class="cls-27" d="M394.74,396.25q-21.69,5.08-43.39,10.13a12.58,12.58,0,0,1-3.11-.06l.54-3.36q18.79-4.41,37.58-8.82c2.89-.67,5.81-1.21,8.71-1.8Q394.91,394.29,394.74,396.25Z" transform="translate(-111.34 -208.9)"/></g></g></svg>