<svg xmlns="http://www.w3.org/2000/svg" viewBox="0 0 738.29 999.02"><defs><style>.cls-1{fill:#010100;}.cls-2{fill:#f46e16;}.cls-3{fill:#030302;}.cls-4{fill:#d05504;}.cls-5{fill:#f9c19a;}.cls-6{fill:#f5c9ac;}.cls-7{fill:#f8a36b;}.cls-8{fill:#f9b383;}.cls-9{fill:#f9b283;}.cls-10{fill:#f9b98e;}.cls-11{fill:#f78a43;}.cls-12{fill:#f9ab78;}.cls-13{fill:#f8a872;}.cls-14{fill:#f79858;}.cls-15{fill:#f9b78b;}.cls-16{fill:#fabc92;}</style></defs><title>Ресурс 24</title><g id="Слой_2" data-name="Слой 2"><g id="Слой_1-2" data-name="Слой 1"><path class="cls-1" d="M380.71,604.84C367,594.61,352.89,585,339.8,574c-28-23.33-50.33-51.5-68.56-83a335.13,335.13,0,0,1-39.53-105.64,325.73,325.73,0,0,1,.2-125.86c10.36-52.1,31.79-99,65.12-140.37,37-45.95,83.6-78.74,139-99.07a298.47,298.47,0,0,1,77-17.4C514,2.64,515,1.6,516,1h49c5.24,1,10.44,2.25,15.72,2.8,29.38,3.09,57.52,10.94,84.9,21.78,4.92,1.95,9.74,4.16,14.56,6.36.76.35,1.27,1.25,1.89,1.9-7.72-1.13-15.47-2.1-23.17-3.42C616.28,23.14,573.57,21,530.68,28c-45.18,7.38-87,23.31-124.42,49.86-64.83,46-104,107.82-113.61,187.4-4.75,39.2-.63,77.44,13.51,114.34,21.43,55.93,57.84,99.07,111.18,127,42.26,22.14,87.26,29,134.2,20.85C592.33,520.37,627.75,502,657,472.69c39.05-39.12,59.3-86.15,57.28-141.87-1.49-41.26-15.83-77.62-43.61-108.34-45.23-50-112.39-65.86-172.83-40.58-47.47,19.85-82.14,69.32-79.11,121.52,1.46,25.13,9.73,47.75,27.05,66C468.65,393.54,496.21,406,529.9,397c20.23-5.45,35.72-17.45,41.25-38.73,4.8-18.47-3.41-33.35-21-37.29-9.19-2.06-18.74-2.51-28.08-4-13.19-2.06-21-10.12-23.31-23.15-2.72-15.67,3.44-28,14.33-38.5,25.44-24.47,65.76-24.13,94.91-3.77,39,27.22,54.67,78.36,39.74,124.91C638.29,405.83,619.9,428.62,594,445c-42.56,27-87.85,31.61-134.58,12.94-47.07-18.8-77.13-54.55-92.51-101.92C347,294.82,356.32,236.86,395.84,186.19c49-62.79,115.54-86.23,193.4-75.32,59.18,8.29,106.85,38.36,143.11,85.83,29.61,38.77,45.07,83.07,48.31,131.54a248.51,248.51,0,0,1-17.29,109.53c-17,42.74-42.68,79.29-77.49,109.29-38.36,33.05-82.67,54.15-132.14,64.54a318.92,318.92,0,0,1-125.43,1.61C412.48,610.25,396.58,607.62,380.71,604.84Z" transform="translate(-131.94 -1)"/><path class="cls-2" d="M380.71,604.84c15.87,2.78,31.77,5.41,47.61,8.37a318.92,318.92,0,0,0,125.43-1.61c49.47-10.4,93.78-31.49,132.14-64.54,34.81-30,60.51-66.54,77.49-109.29a248.51,248.51,0,0,0,17.29-109.53c-3.24-48.47-18.7-92.77-48.31-131.54-36.26-47.47-83.93-77.54-143.11-85.83C511.38,100,444.82,123.4,395.84,186.19,356.32,236.86,347,294.82,366.91,356c15.38,47.37,45.43,83.11,92.51,101.92,46.74,18.67,92,14,134.58-12.94,25.9-16.4,44.29-39.19,53.71-68.56,14.93-46.55-.78-97.69-39.74-124.91-29.15-20.36-69.47-20.7-94.91,3.77-10.89,10.47-17.05,22.83-14.33,38.5,2.26,13,10.12,21.09,23.31,23.15,9.34,1.46,18.88,1.91,28.08,4,17.62,3.94,25.83,18.82,21,37.29-5.52,21.28-21,33.28-41.25,38.73-33.69,9.07-61.24-3.41-84.07-27.5-17.32-18.28-25.59-40.9-27.05-66-3-52.2,31.64-101.66,79.11-121.52,60.44-25.28,127.6-9.44,172.83,40.58,27.78,30.72,42.11,67.08,43.61,108.34,2,55.72-18.23,102.76-57.28,141.87-29.3,29.34-64.72,47.68-105.51,54.81-46.94,8.2-91.95,1.3-134.2-20.85-53.34-28-89.75-71.09-111.18-127-14.14-36.9-18.25-75.14-13.51-114.34,9.64-79.58,48.78-141.38,113.61-187.4C443.66,51.34,485.5,35.41,530.68,28c42.89-7,85.6-4.89,128.23,2.39,7.69,1.31,15.44,2.29,23.17,3.42,16.54,4.31,30.34,14,44.15,23.31A325.86,325.86,0,0,1,864.9,270.85c4.93,27.65,6.76,55.51,4.15,83.45a368.2,368.2,0,0,1-7.51,47.06,318.91,318.91,0,0,1-12.87,42.14,315,315,0,0,1-56,94.69,328.13,328.13,0,0,1-90.9,74.28c-10.9,6-22.56,10.7-34,15.64-8.67,3.73-17.45,7.29-26.41,10.21a183.62,183.62,0,0,1-23,5.63q-23.13,4.35-46.39,7.95c-4.22.65-8.64,0-13,0a58.89,58.89,0,0,0-7.62-.85c-8.15.12-16.29.46-24.43.72a307,307,0,0,1-79.9-16C436,632,425.15,627.48,414.2,623.28L380.58,605.7A.53.53,0,0,1,380.71,604.84ZM806,238l.46.41L806,238l-1-1,.26-3.94c.81.91,1.68,1.77,2.4,2.74A14.71,14.71,0,0,1,808.8,238c.39-.89.81-1.77,1.18-2.67,3.63-8.83,3.27-18.09,2.93-27.35L808.36,189a75.12,75.12,0,0,0-13.24-29.23l-10-14.92-12.55-15-3.41-3h0l-4.84-6-3.23-3.15-.73-.85-3.18-2.09,0-.14a43.61,43.61,0,0,0-4.36-5.27C734.45,93,715.06,77.9,694,65c-14.15-7.22-27.92-15.33-42.53-21.45C625.49,32.71,598.29,27.83,570,31a129.39,129.39,0,0,0-48,14L497.72,60.94l-.77.78L495.78,63c-4,4.25-8.18,8.41-12.05,12.81-.94,1.07-1,2.91-1.49,4.39,1.38.31,2.85,1.09,4.13.86,14.23-2.53,28.43-5.22,42.64-7.87l48-2.23c7.53.72,15.07,1.31,22.58,2.2,5.18.62,10.32,1.65,15.48,2.5L653,87.16l13.93,6,2.06,1,29.83,17L726,131l19.94,17.07v0l1,1.22c3,3.31,6.18,6.51,9.05,9.94,6.38,7.62,12.63,15.35,18.93,23l9,15A37.38,37.38,0,0,0,785,201c2.81,7,5.44,14.1,8.63,20.92,1.45,3.1.6,8.34,6.31,8.35a15.51,15.51,0,0,1-.24,3.57,24.29,24.29,0,0,1-1.85,3.78c1.56-.07,3.13-.12,4.69-.24.81-.06,1.62-.26,2.42-.4Z" transform="translate(-131.94 -1)"/><path class="cls-3" d="M380.58,605.7l33.62,17.58q-30,44.59-59.94,89.17Q330.5,747.74,306.67,783q-47.38,70.08-94.81,140.14c-14.77,21.85-29.69,43.6-44.19,65.63-5.78,8.79-13.08,12.82-23.51,10.71-12.73-6.6-15.86-18.25-7.79-30.31,26.78-40,53.73-79.8,80.52-119.75q45.75-68.22,91.34-136.53,35-52.29,70.12-104.51A33.33,33.33,0,0,1,380.58,605.7Z" transform="translate(-131.94 -1)"/><path class="cls-4" d="M527,651.78c8.14-.26,16.29-.6,24.43-.72a58.89,58.89,0,0,1,7.62.85Z" transform="translate(-131.94 -1)"/><path class="cls-5" d="M522,45a129.39,129.39,0,0,1,48-14c1.38,5.85,5.07,2.39,8,2h0l1.85,3.39c2.9-2.78,4.42.62,6,1.74,3.31,2.4,4.52-.2,6.14-1.94a31.26,31.26,0,0,0,2.49-3.47c1,1.38,2.51,2.61,3,4.16.85,2.57.41,5.88,4.93,3.47,3.2-1.71,4.1.16,3.72,3.25-.07.56,1.14,1.88,1.44,1.78,2.74-.83,3.84-2.83,3.47-5.66a2.81,2.81,0,0,1,0-1c.13-.56.34-1.1.52-1.64a5,5,0,0,1,.42,1.84c-.62,3.51,1,5.67,4,7.07h0c.13,7.43,6.68,1.73,9.12,4.46.09-1.15.13-2.31.32-3.45,0-.19,1-.39,1.05-.37,1.53,3.89,4.84,3.82,8.2,3.95.47,0,.87,1.57,1.31,2.41l-.22.44L636,53c1.68-.22,3.35-.47,5-.61.3,0,.68.39,1,.67.88.84,1.73,1.71,2.59,2.56.13-1.15.3-2.29.39-3.44.06-.83-.05-1.67,0-2.49a7.92,7.92,0,0,1,.51-1.6c.15.44.32.88.45,1.33.84,3,1.61,5.93,2.54,8.86.15.48,1.22,1.17,1.52,1,2-1,6.39.57,5-4.37-.16-.55.21-1.26.33-1.89a5.88,5.88,0,0,0,.67,2.07c1.48,1.74,3.9,5,4.55,4.74,2.77-1.3,4.83-.76,7,.81,2.56,1.88,4.24,5.54,8.41,4.1q0,.62,0,1.25,0,.79,0,1.58a14.26,14.26,0,0,0,1.62-.94c.89-.68,1.73-1.43,2.6-2.15L682,68h-2l-.44-.23L680,68h2c2.47-.42,6-2.08,7.22-1,3.64,3,3.66-.24,4.76-1.93,21.08,12.85,40.46,28,58.87,44.35a43.52,43.52,0,0,1,4.36,5.27c-1.84,0-3.65,1.53-5-1.91-1-2.6-6.82.25-7.87-4.36-.3.09-.77.09-.88.29-2.79,5-3.85.1-5.58-1-.74-.46-1.81-1.47-2.19-1.26-6.49,3.61-10.53-3.89-16.47-3.75-1.48,0-3-5.29-7-2.84-3.6-4.58-4.57.94-6.79,1.73a5.59,5.59,0,0,1-2.4.08,2.1,2.1,0,0,1-.1-1.48c3-3.9-1.89-3.91-2.84-5.84-3.67,3.82-8.65-6.22-12,1.12a2.49,2.49,0,0,1-.87-.28c-2.4-1.37-5.57-2.21-7-4.26-3.07-4.32-6.36-3.78-10.23-1.93-1.38-1.11-2.59-2.68-4.16-3.22-2.77-1-6-.73-8.6-2-4.5-2.22-4.54.11-4.26,3.36L615.06,75.62c.2-.45.38-.9.59-1.34.54-1.15,1.1-2.3,1.65-3.45a20.72,20.72,0,0,1-3.51-.44,22.37,22.37,0,0,1-4.71-1.88c-3.4-1.94-6.53-5.25-10.08-5.71-2.75-.36-5.5.8-8.84-.55-9.42-3.79-19.89-4.66-28.86-9.92-.65-.38-1.62-.17-2.44-.31-2-.33-4-.6-5.92-1.11A17.81,17.81,0,0,1,550,49.46c-2.39,4.22-4.1.1-6-.45l.23-.42L544,49c-3.16.09-4.83-1.46-5.06-4.59-1.72,1.06-3.44,2.14-5.19,3.15-.11.06-.49-.36-.75-.55ZM652.7,81a17,17,0,0,0-2.6-1.2c-.26-.06-.64.36-1,.57a6.4,6.4,0,0,0,1.09,1.4C650.4,81.95,651,81.6,652.7,81Zm-58.22-44.1.78-.41c-.24-.15-.48-.41-.73-.42s-.52.23-.78.36Z" transform="translate(-131.94 -1)"/><path class="cls-6" d="M636,53c-.43-.84-.84-2.4-1.31-2.41-3.36-.13-6.67-.06-8.2-3.95,0,0-1,.19-1.05.37-.19,1.14-.23,2.3-.32,3.45-2.43-2.73-9,3-9.12-4.46l.24-.42L616,46c-3-1.4-4.65-3.56-4-7.07a5,5,0,0,0-.42-1.84c-.18.55-.39,1.08-.52,1.64a2.81,2.81,0,0,0,0,1c.38,2.83-.73,4.83-3.47,5.66-.3.09-1.51-1.23-1.44-1.78.38-3.1-.52-5-3.72-3.25-4.52,2.41-4.08-.9-4.93-3.47-.51-1.55-2-2.79-3-4.16A31.26,31.26,0,0,1,592,36.19c-1.62,1.73-2.83,4.34-6.14,1.94-1.54-1.12-3.06-4.52-6-1.74L578,33l.23-.42L578,33c-2.93.41-6.62,3.87-8-2,28.29-3.19,55.49,1.69,81.45,12.58C666.06,49.71,679.84,57.83,694,65c-1.11,1.69-1.12,4.95-4.76,1.93-1.26-1-4.75.61-7.22,1v0l-1.83-3.47c-.86.72-1.7,1.47-2.6,2.15a14.26,14.26,0,0,1-1.62.94q0-.79,0-1.58,0-.62,0-1.25c-4.17,1.44-5.85-2.23-8.41-4.1-2.15-1.57-4.21-2.11-7-.81-.65.3-3.07-3-4.55-4.74a5.88,5.88,0,0,1-.67-2.07c-.12.63-.49,1.33-.33,1.89,1.39,4.94-3,3.39-5,4.37-.29.14-1.36-.55-1.52-1-.94-2.92-1.71-5.9-2.54-8.86-.13-.45-.3-.89-.45-1.33a7.92,7.92,0,0,0-.51,1.6c-.09.82,0,1.66,0,2.49-.09,1.15-.26,2.3-.39,3.44-.86-.86-1.71-1.72-2.59-2.56-.29-.27-.66-.69-1-.67-1.69.14-3.36.4-5,.61Zm48.69,13.19a8.66,8.66,0,0,0,.87-1.28c0-.07-.5-.56-.64-.51a5.59,5.59,0,0,0-1.15.73Z" transform="translate(-131.94 -1)"/><path class="cls-7" d="M774.94,182.23c-6.3-7.69-12.55-15.42-18.93-23-2.88-3.43-6-6.64-9.05-9.94l-1-1.22v0L749,145h0c.08.66,0,1.77.26,1.9a42.51,42.51,0,0,0,7.94,2.86c1.48.3,3.21-.65,4.84-1a2.41,2.41,0,0,1,.89,0c.19,2.85,1.15,4.58,4.54,4.37a29.82,29.82,0,0,1,6.92.89c5.2.94,10.4,1.9,15.57,3,.69.15,1.24,1.33,1.66,2.13.11.22-.62.78-.69,1.23,0,.27.48.91.72.89,1.32-.08,3.27,1.09,3.48-1.52A75.11,75.11,0,0,1,808.35,189c-3.24-2.12-5.22-7.47-10.59-4.11a1,1,0,0,1-.94-.18c-2.87-3.34-3.95.67-5.69,1.51-.81.39-1.12,1.81-1.65,2.76-.17-1.08-.07-2.32-.58-3.2s-1.9-2.08-2.41-1.88c-4.75,1.85-4.92-3.54-7.67-4.76-.32-.14-.07-1.57-.08-2.4a17.57,17.57,0,0,0-2.39,2.37A17.92,17.92,0,0,0,774.94,182.23Z" transform="translate(-131.94 -1)"/><path class="cls-8" d="M726,131l-27.2-19.9c1-.49,2.31-.75,3-1.52,3.08-3.38,6-6.1,9.77-.75.23.33,1.14.14,1.7.31a46.23,46.23,0,0,1,4.84,1.59c1.28.54,2.35,1.65,3.65,2,2.3.66,5.79-.62,5.38,3.87,0,.23,1.7,1,1.89.79a29.83,29.83,0,0,0,2.64-3.44c.82,1.3,1.37,3,2.55,3.77a6.09,6.09,0,0,0,4.7.77c2.52-1,5.78,4.37,7.53-1a6.73,6.73,0,0,0,.67,1.28c1.46,1.77,2.93,4.91,4.45,4.94,2.79.06,5.62-1.73,8.43-2.75l1,2c.5,3.48,2.32,4.76,5.78,3.62a6.19,6.19,0,0,1,2.36.23h0l3.41,3,12.55,15c-1.18.74-2,4.08-3.7.2s-3.76-1.79-6-.12c-1.36,1-3.71,1.79-5.13,1.3-1.81-.63-4.63-1.59-3.35-5,.31-.84-.59-2.13-.94-3.21a12.25,12.25,0,0,1-2.12,2c-.61.36-1.86.63-2.21.29-1.21-1.14-1.91-2.93-3.24-3.82-2.63-1.76-5.55-3.09-8.35-4.59l-.42-.23.42.23-1.88,5.18L746,134l.42-.23-.19-.19L746,134c-3.89,1.81-6.94.37-8-3.77a10.33,10.33,0,0,0-.52-1.29,5.86,5.86,0,0,1-.42.86,20,20,0,0,1-2.09,2.84c-1.74-.93-3.29-2.21-5-3.28a2,2,0,0,0-1.66-.18A15.67,15.67,0,0,0,726,131Z" transform="translate(-131.94 -1)"/><path class="cls-9" d="M522,45l11,2-1,4,1,1c1.29,4.39,6.2,6.55,10.71,4.87a3.14,3.14,0,0,1,2.23.54c0,4.76,4,2.79,4.94,2.05,4-3.19,7,.29,8.78,2.06,3.34,3.33,7.84,5.16,12.17,2.93.31-.16.94-.31,1-.21,1.42,2.21,2.79,4.46,4.16,6.7l-48,2.23a18.5,18.5,0,0,0,0-2.49c-.27-1.88,1.59-6.16-3.44-3-.61.39-3.06-1.89-4.48-3.12-.55-.48-.62-1.5-.91-2.28-1,.78-2.1,1.56-3.14,2.35-.33.25-.8.86-.9.8-3.37-2.06-6.7-4.19-10.07-6.26-.26-.16-1-.08-1.05.07-1.62,4.13-4.81,1.29-7.26,1.67Z" transform="translate(-131.94 -1)"/><path class="cls-10" d="M760,121c-2.81,1-5.64,2.8-8.43,2.75-1.52,0-3-3.17-4.45-4.94a6.73,6.73,0,0,1-.67-1.28c-1.76,5.34-5,0-7.53,1a6.09,6.09,0,0,1-4.7-.77c-1.18-.73-1.72-2.47-2.55-3.77A29.83,29.83,0,0,1,729,117.4c-.19.19-1.91-.57-1.89-.79.41-4.49-3.08-3.21-5.38-3.87-1.3-.37-2.38-1.48-3.65-2a46.23,46.23,0,0,0-4.84-1.59c-.56-.17-1.46,0-1.7-.31-3.74-5.34-6.69-2.62-9.77.75-.71.78-2,1-3,1.52L669,94.1l0-2.1,1-3c3.87-1.86,7.16-2.4,10.23,1.93,1.46,2.05,4.62,2.89,7,4.26a2.49,2.49,0,0,0,.87.28c3.38-7.34,8.36,2.71,12-1.12.95,1.93,5.83,1.94,2.84,5.84a2.1,2.1,0,0,0,.1,1.48,5.59,5.59,0,0,0,2.4-.08c2.21-.79,3.18-6.31,6.79-1.73,4-2.45,5.51,2.88,7,2.84,5.94-.15,10,7.36,16.47,3.75.38-.21,1.45.81,2.19,1.26,1.72,1.07,2.79,5.92,5.58,1,.11-.2.58-.2.88-.29,1,4.61,6.89,1.75,7.87,4.36,1.3,3.44,3.12,1.88,5,1.91l0,.14,3.18,2.09.73.86L761,121h-1Z" transform="translate(-131.94 -1)"/><path class="cls-10" d="M532,51l1-4c.25.2.64.61.75.55,1.75-1,3.47-2.09,5.19-3.15.23,3.13,1.9,4.68,5.06,4.59h0c1.94.55,3.65,4.67,6,.45A17.81,17.81,0,0,0,553,50.91c1.94.51,3.94.78,5.92,1.11.81.14,1.79-.07,2.44.31,9,5.27,19.44,6.13,28.86,9.92,3.34,1.34,6.09.18,8.84.55,3.54.46,6.68,3.78,10.08,5.71a22.37,22.37,0,0,0,4.71,1.88,20.72,20.72,0,0,0,3.51.44c-.55,1.15-1.1,2.3-1.65,3.45-.21.44-.4.89-.59,1.34-5.16-.85-10.29-1.88-15.48-2.5-7.51-.89-15.05-1.48-22.58-2.2-1.38-2.24-2.74-4.49-4.16-6.7-.07-.11-.7,0-1,.21-4.33,2.23-8.83.4-12.17-2.93-1.77-1.76-4.74-5.24-8.78-2.06-.94.74-5,2.71-4.94-2.05a3.14,3.14,0,0,0-2.23-.54c-4.51,1.69-9.42-.48-10.71-4.87Z" transform="translate(-131.94 -1)"/><path class="cls-11" d="M805,237c-.81.14-1.61.34-2.42.4-1.56.12-3.12.16-4.69.24a24.29,24.29,0,0,0,1.85-3.78,15.51,15.51,0,0,0,.24-3.57c-5.71,0-4.86-5.24-6.31-8.35C790.48,215.1,787.85,208,785,201a37.17,37.17,0,0,1-1.09-3.78l.2-3a11.38,11.38,0,0,1,2.06,2c.58.92.57,2.35,1.3,3,1.34,1.23,3,2.7,4.62,2.9,1.82.22,3.92-.65,5.66-1.53.65-.33.62-2,.89-3.1a10.35,10.35,0,0,0,1.1,3.19,7.43,7.43,0,0,0,2.77,1.76c1.81.85,3.73,1.48,5.5,2.41s3.24,2,4.85,3.08c.34,9.26.7,18.52-2.93,27.35-.37.9-.78,1.78-1.18,2.67a14.71,14.71,0,0,0-1.14-2.17c-.73-1-1.6-1.83-2.4-2.74L805,237Zm-2.38-6.29c-.1,0-.25,0-.29.08a1,1,0,0,0-.08.37l.5-.1Zm-2.18,5.63c.1-.06.26-.1.29-.18s0-.25,0-.37l-.46.25Z" transform="translate(-131.94 -1)"/><path class="cls-12" d="M746,134l2.12,3.18L750,132h0c2.8,1.51,5.72,2.83,8.35,4.59,1.33.89,2,2.67,3.24,3.82.36.34,1.6.07,2.21-.29a12.25,12.25,0,0,0,2.12-2c.35,1.08,1.25,2.38.94,3.21-1.28,3.4,1.55,4.36,3.35,5,1.42.5,3.77-.29,5.13-1.3,2.27-1.68,4.3-3.87,6,.12s2.52.54,3.7-.2l10,14.92c-.21,2.62-2.15,1.45-3.48,1.52-.24,0-.76-.62-.72-.89.06-.45.8-1,.69-1.23-.42-.8-1-2-1.66-2.13-5.16-1.14-10.36-2.1-15.57-3a29.82,29.82,0,0,0-6.92-.89c-3.4.2-4.36-1.52-4.54-4.37a2.41,2.41,0,0,0-.89,0c-1.62.35-3.35,1.3-4.84,1a42.51,42.51,0,0,1-7.94-2.86c-.3-.13-.19-1.24-.26-1.9l1.71,0-.13-.47L749,145l-3.06,3.07L726,131a15.67,15.67,0,0,1,2.32-1.81,2,2,0,0,1,1.66.18c1.67,1.07,3.22,2.35,5,3.28A20,20,0,0,0,737,129.8a5.86,5.86,0,0,0,.42-.86,10.33,10.33,0,0,1,.52,1.29C739.06,134.37,742.11,135.81,746,134Z" transform="translate(-131.94 -1)"/><path class="cls-13" d="M497.72,60.94c2.45-.37,5.64,2.46,7.26-1.67.06-.15.8-.23,1.05-.07,3.37,2.07,6.69,4.2,10.07,6.26.1.06.57-.55.9-.8,1-.8,2.1-1.57,3.14-2.35.29.78.36,1.8.91,2.28,1.42,1.24,3.87,3.51,4.48,3.12,5-3.2,3.18,1.08,3.44,3a18.5,18.5,0,0,1,0,2.49C514.81,75.8,500.6,78.49,486.38,81c-1.29.23-2.75-.55-4.13-.86.47-1.48.55-3.32,1.49-4.39,3.87-4.4,8-8.56,12.05-12.81L497,61.72Z" transform="translate(-131.94 -1)"/><path class="cls-14" d="M812.91,208c-1.61-1-3.16-2.19-4.85-3.08s-3.69-1.56-5.5-2.41a7.43,7.43,0,0,1-2.77-1.76,10.35,10.35,0,0,1-1.1-3.19c-.28,1.07-.24,2.77-.89,3.1-1.73.88-3.83,1.75-5.66,1.53-1.65-.2-3.28-1.67-4.62-2.9-.73-.67-.72-2.1-1.3-3a11.38,11.38,0,0,0-2.06-2l-.2,3-9-15a17.93,17.93,0,0,1,1.41-3.08,17.57,17.57,0,0,1,2.39-2.37c0,.83-.24,2.25.08,2.4,2.76,1.22,2.93,6.61,7.67,4.76.51-.2,1.92,1,2.41,1.88s.41,2.12.58,3.2c.54-1,.85-2.37,1.65-2.76,1.74-.84,2.82-4.85,5.69-1.51a1,1,0,0,0,.94.18c5.38-3.37,7.36,2,10.59,4.11Z" transform="translate(-131.94 -1)"/><path class="cls-15" d="M670,89l-1,3-2.09,1.15-13.93-6c-.28-3.25-.24-5.58,4.26-3.36,2.56,1.27,5.83,1,8.6,2C667.41,86.33,668.62,87.9,670,89Z" transform="translate(-131.94 -1)"/><path class="cls-16" d="M769.14,126.85a6.19,6.19,0,0,0-2.36-.23c-3.46,1.14-5.28-.14-5.78-3.62v-2h0l3.3-.09Z" transform="translate(-131.94 -1)"/><path class="cls-16" d="M772.54,129.91l-3.41-3Z" transform="translate(-131.94 -1)"/><path class="cls-5" d="M764.31,120.9,761,121l.07-3.24Z" transform="translate(-131.94 -1)"/><path class="cls-5" d="M760.35,116.9l-3.18-2.09Z" transform="translate(-131.94 -1)"/><path class="cls-5" d="M666.91,93.15,669,92l0,2.1Z" transform="translate(-131.94 -1)"/><path class="cls-9" d="M497,61.72,495.78,63Z" transform="translate(-131.94 -1)"/><path class="cls-12" d="M745.92,148l1,1.22Z" transform="translate(-131.94 -1)"/><path class="cls-11" d="M805,237l1,1,0,0-1-1Z" transform="translate(-131.94 -1)"/><path class="cls-11" d="M806,238l.41.45L806,238Z" transform="translate(-131.94 -1)"/><path class="cls-15" d="M652.7,81c-1.74.56-2.29.91-2.48.77a6.4,6.4,0,0,1-1.09-1.4c.33-.2.71-.63,1-.57A17,17,0,0,1,652.7,81Z" transform="translate(-131.94 -1)"/><path class="cls-6" d="M594.47,36.94l-.73-.47c.26-.13.52-.37.78-.36s.49.27.73.42Z" transform="translate(-131.94 -1)"/><path class="cls-6" d="M682,68h0Z" transform="translate(-131.94 -1)"/><path class="cls-6" d="M636,53l-.24.42L636,53Z" transform="translate(-131.94 -1)"/><path class="cls-6" d="M680,68l-.43-.24L680,68Z" transform="translate(-131.94 -1)"/><path class="cls-10" d="M544,49l.23-.42L544,49Z" transform="translate(-131.94 -1)"/><path class="cls-5" d="M684.68,66.19l-.92-1.06a5.59,5.59,0,0,1,1.15-.73c.14-.05.67.44.64.51A8.66,8.66,0,0,1,684.68,66.19Z" transform="translate(-131.94 -1)"/><path class="cls-5" d="M578,33l.24-.42L578,33Z" transform="translate(-131.94 -1)"/><path class="cls-5" d="M616,46l.23-.42L616,46Z" transform="translate(-131.94 -1)"/><path class="cls-5" d="M761,121q0,1,0,2l-1-2Z" transform="translate(-131.94 -1)"/><path class="cls-12" d="M750,132l-.42-.23.42.23Z" transform="translate(-131.94 -1)"/><polygon class="cls-12" points="614.06 133 614.28 132.58 614.47 132.77 614.06 133"/><path class="cls-5" d="M532,51l1,1Z" transform="translate(-131.94 -1)"/><path class="cls-2" d="M802.62,230.7l.13.35-.5.1a1,1,0,0,1,.08-.37C802.37,230.72,802.52,230.72,802.62,230.7Z" transform="translate(-131.94 -1)"/><path class="cls-2" d="M800.45,236.33l-.2-.31.46-.25c0,.13.08.27,0,.37S800.55,236.27,800.45,236.33Z" transform="translate(-131.94 -1)"/><path class="cls-7" d="M749,145l1.58-.44.13.47L749,145Z" transform="translate(-131.94 -1)"/></g></g></svg>